<?xml version="1.0" encoding="UTF-8" ?>
<!DOCTYPE svg PUBLIC "-//W3C//DTD SVG 1.1//EN" "http://www.w3.org/Graphics/SVG/1.1/DTD/svg11.dtd">
<svg width="591pt" height="591pt" viewBox="0 0 591 591" version="1.1" xmlns="http://www.w3.org/2000/svg">
<path fill="#7d9c7a" opacity="1.00" d=" M 0.00 0.00 L 0.31 0.00 C 0.24 0.08 0.08 0.23 0.00 0.30 L 0.00 0.00 Z" />
<path fill="#7d9c7a" opacity="1.00" d=" M 590.70 0.00 L 591.00 0.00 L 591.00 0.31 C 590.92 0.24 590.77 0.08 590.70 0.00 Z" />
<path fill="#677167" opacity="1.00" d=" M 360.05 15.26 C 364.98 11.61 370.86 9.18 376.96 8.52 C 385.85 8.53 394.52 11.49 402.16 15.92 C 394.86 13.52 387.91 9.50 380.03 9.38 C 372.83 8.67 366.34 12.32 360.05 15.26 Z" />
<path fill="#010101" opacity="1.00" d=" M 360.05 15.26 C 366.34 12.32 372.83 8.67 380.03 9.38 C 387.91 9.50 394.86 13.52 402.16 15.92 C 402.59 16.12 403.43 16.53 403.85 16.73 C 404.42 18.61 406.26 19.70 408.19 19.26 C 417.01 26.06 424.66 34.43 430.70 43.79 C 430.43 45.44 431.49 46.92 433.12 47.28 C 433.62 48.15 434.13 49.03 434.64 49.91 C 434.18 51.84 435.30 53.70 437.24 54.17 C 437.87 55.35 438.49 56.54 439.09 57.74 C 440.61 63.06 442.28 68.38 444.92 73.27 L 445.17 73.98 C 446.78 80.80 448.75 87.53 450.98 94.17 C 453.11 88.47 455.08 82.65 458.23 77.42 C 460.22 74.08 463.24 71.57 465.97 68.86 C 471.80 65.03 479.08 63.68 485.92 64.93 C 490.00 66.15 492.69 70.07 494.09 73.90 C 494.09 79.42 492.98 84.85 491.95 90.25 C 491.42 91.56 490.80 92.83 490.07 94.04 C 484.39 102.25 475.63 107.30 466.92 111.71 C 474.01 107.83 482.20 108.10 490.03 108.37 C 493.97 108.57 497.62 110.26 501.18 111.82 C 503.11 113.22 504.85 114.90 506.28 116.81 C 508.71 121.78 509.46 127.50 508.36 132.92 C 507.41 136.85 504.81 140.07 502.35 143.18 C 504.87 149.04 509.98 153.14 514.71 157.18 C 521.91 162.43 529.66 167.13 538.08 170.15 C 538.86 170.51 540.41 171.22 541.19 171.58 C 536.92 174.05 532.40 176.01 527.90 178.01 C 520.94 181.13 513.19 181.34 505.73 182.15 C 499.84 182.27 493.98 181.49 488.23 180.30 C 489.21 188.54 490.26 196.79 490.63 205.09 C 491.22 217.81 493.38 230.42 493.63 243.15 C 493.72 241.39 493.80 239.63 493.82 237.86 C 494.36 242.15 494.48 246.47 494.97 250.77 C 495.39 267.52 495.58 284.27 495.95 301.02 C 497.16 316.00 496.22 331.04 496.88 346.03 C 497.16 357.86 496.59 369.79 498.83 381.47 C 500.11 387.94 500.53 394.55 501.82 401.02 L 501.98 401.85 C 502.60 406.44 503.92 410.91 505.81 415.15 L 506.03 415.90 C 506.55 419.41 507.40 422.88 508.81 426.15 L 509.06 426.87 C 510.32 431.88 512.45 436.60 514.76 441.21 L 515.02 441.95 C 515.69 444.78 516.60 447.56 517.77 450.24 L 518.01 450.97 C 518.74 454.41 519.67 457.81 520.97 461.08 L 521.18 461.88 C 523.28 473.57 521.93 485.45 519.96 497.06 L 519.79 497.88 C 517.78 504.65 516.12 511.56 512.93 517.91 C 512.75 518.21 512.40 518.81 512.22 519.11 C 511.00 520.97 509.85 522.87 508.90 524.88 C 508.76 525.17 508.47 525.74 508.33 526.03 C 506.58 525.80 505.36 527.57 505.66 529.18 C 505.49 529.39 505.15 529.83 504.98 530.04 C 500.75 533.86 496.58 537.77 492.91 542.15 C 492.71 542.35 492.30 542.75 492.10 542.96 C 489.79 542.49 487.29 543.93 487.10 546.40 C 486.83 546.52 486.28 546.77 486.01 546.90 C 481.89 548.46 477.86 550.25 473.88 552.14 L 473.07 552.33 C 465.56 553.11 457.91 553.16 450.46 551.77 C 435.85 548.65 421.09 546.03 406.92 541.17 L 406.32 540.95 C 405.47 539.19 403.57 538.30 401.69 538.82 C 400.90 538.54 400.11 538.26 399.33 537.98 C 398.50 536.22 396.62 535.32 394.76 535.87 L 394.17 535.67 C 388.30 533.12 382.13 531.38 375.91 529.96 C 372.64 528.74 369.41 527.34 365.99 526.61 C 363.21 525.95 360.15 526.01 357.79 527.81 C 354.36 530.31 351.15 533.25 348.93 536.90 C 346.18 541.31 344.78 546.60 345.31 551.80 C 345.42 553.60 346.66 555.01 347.79 556.31 C 348.41 556.98 349.09 557.60 349.83 558.16 C 351.87 559.69 354.29 561.07 356.94 560.83 C 360.02 560.50 362.68 558.78 365.40 557.46 C 365.86 557.31 366.78 557.01 367.24 556.85 C 367.88 565.33 361.40 572.22 354.98 576.80 C 352.18 578.07 349.43 579.44 346.77 580.98 L 346.06 581.26 C 338.02 583.87 329.48 584.39 321.08 584.12 C 314.87 583.87 309.47 580.53 303.99 577.99 C 301.81 576.63 299.87 574.92 298.22 572.97 C 296.28 569.52 294.14 566.19 291.86 562.96 C 291.64 562.47 291.19 561.49 290.97 561.00 C 290.07 558.71 289.18 556.43 288.32 554.14 C 285.09 555.31 281.88 556.49 278.74 557.87 C 278.35 558.00 277.56 558.26 277.17 558.39 C 269.05 559.54 260.68 558.86 252.96 556.03 C 251.96 555.55 250.97 555.06 250.00 554.56 C 248.99 554.02 247.99 553.48 247.00 552.94 C 242.82 557.41 238.50 561.74 234.12 566.00 C 233.86 566.22 233.33 566.67 233.07 566.89 C 230.88 568.47 228.81 570.21 226.89 572.12 C 226.28 572.61 225.68 573.11 225.07 573.62 C 223.00 573.69 220.77 575.03 221.03 577.38 C 220.78 577.52 220.28 577.81 220.03 577.96 C 214.81 580.76 209.46 583.50 203.63 584.82 C 196.46 586.79 188.94 586.65 181.74 588.46 C 178.29 588.84 174.81 588.72 171.36 588.58 C 165.12 586.90 159.03 584.71 152.77 583.10 C 151.46 582.53 150.17 581.92 148.94 581.21 C 144.73 577.67 140.26 574.13 137.58 569.22 C 134.72 564.14 134.85 558.13 133.58 552.58 C 133.55 549.73 134.31 546.97 135.14 544.28 C 135.67 544.38 136.73 544.59 137.26 544.69 C 137.41 546.80 137.58 548.92 137.76 551.04 C 138.14 551.49 138.91 552.38 139.29 552.83 C 139.34 553.16 139.44 553.81 139.49 554.14 C 139.48 556.04 141.31 557.06 142.94 557.47 C 143.19 557.61 143.70 557.90 143.95 558.04 C 147.81 560.82 152.33 562.42 156.99 563.22 C 159.20 564.38 161.71 564.66 163.98 563.51 C 169.45 562.18 175.29 560.53 179.16 556.15 C 181.98 553.19 182.27 548.74 181.37 544.94 C 179.50 540.14 175.45 536.50 171.05 534.02 C 167.36 531.98 163.08 531.65 159.00 531.05 C 150.88 529.68 144.07 524.90 136.94 521.15 C 136.45 520.80 135.47 520.10 134.98 519.75 C 129.50 515.38 124.29 510.62 119.59 505.41 C 115.06 500.49 112.23 494.36 109.82 488.20 C 107.27 479.89 108.03 471.05 110.77 462.90 L 111.06 462.20 C 112.58 459.61 113.94 456.94 115.19 454.22 C 115.37 453.91 115.72 453.31 115.89 453.00 C 116.19 452.49 116.79 451.47 117.08 450.95 C 117.39 450.74 118.01 450.31 118.32 450.10 C 118.59 449.75 119.11 449.06 119.37 448.72 L 118.96 447.98 C 119.29 447.76 119.94 447.32 120.26 447.10 C 120.46 446.57 120.86 445.49 121.07 444.95 C 121.34 444.80 121.90 444.48 122.18 444.32 C 123.65 443.84 124.39 442.35 124.30 440.88 C 124.47 440.64 124.80 440.17 124.97 439.93 C 126.90 437.77 128.65 435.46 130.21 433.02 C 130.76 432.35 131.31 431.69 131.87 431.04 C 134.24 428.95 136.38 426.62 138.27 424.09 C 139.12 423.09 139.97 422.09 140.82 421.10 C 144.54 418.31 147.72 414.90 150.29 411.03 C 150.78 410.42 151.28 409.82 151.78 409.22 C 153.81 408.73 155.19 407.09 155.52 405.06 C 155.63 404.79 155.85 404.25 155.96 403.97 C 160.84 397.30 161.28 388.59 159.42 380.78 L 159.33 379.91 C 158.98 379.42 158.30 378.44 157.95 377.95 C 157.30 376.36 156.63 374.78 155.94 373.21 C 155.11 371.03 154.16 368.90 153.09 366.83 C 152.70 365.94 152.30 365.06 151.91 364.18 C 151.09 362.01 150.17 359.88 149.15 357.80 L 148.86 357.10 C 147.31 351.54 145.35 346.11 143.10 340.81 L 142.87 340.04 C 140.69 330.60 138.30 321.16 137.29 311.50 C 136.14 301.05 136.17 290.51 136.17 280.01 C 136.11 260.27 140.53 240.87 145.87 221.97 L 146.10 221.21 C 148.53 215.96 150.53 210.51 151.90 204.89 L 152.18 204.20 C 153.82 201.22 155.08 198.06 155.98 194.78 C 156.34 193.91 156.71 193.05 157.08 192.20 C 159.17 188.96 160.79 185.44 161.95 181.77 C 164.74 175.78 167.68 169.86 170.81 164.04 C 173.06 161.00 174.82 157.65 176.23 154.15 C 176.39 153.85 176.71 153.26 176.88 152.96 C 180.01 148.66 182.43 143.87 183.95 138.77 C 184.64 137.28 185.34 135.79 186.07 134.32 C 187.82 133.49 188.69 131.56 188.09 129.70 C 188.44 128.90 188.79 128.10 189.15 127.31 C 191.44 123.96 193.11 120.15 193.00 116.02 C 193.08 109.66 195.37 103.66 198.09 98.01 C 198.97 96.64 200.28 95.49 201.95 95.28 C 203.50 95.32 205.05 95.50 206.60 95.64 C 207.79 94.12 209.03 92.64 210.19 91.10 C 210.68 90.44 211.16 89.75 211.60 89.05 C 213.80 89.08 215.55 87.01 215.11 84.84 C 215.31 84.64 215.71 84.22 215.92 84.01 C 217.46 82.46 218.85 80.78 220.22 79.07 C 221.41 77.70 222.59 76.31 223.80 74.95 C 227.68 71.41 231.42 67.69 234.95 63.79 C 236.32 62.60 237.72 61.43 239.10 60.25 C 242.39 57.81 245.40 55.00 248.04 51.87 C 248.70 51.30 249.37 50.73 250.04 50.16 C 251.75 48.84 253.42 47.47 255.04 46.03 C 255.27 45.85 255.73 45.49 255.96 45.30 C 257.61 45.30 258.94 44.08 259.20 42.47 C 259.77 42.11 260.33 41.75 260.90 41.39 C 262.36 41.37 264.24 40.49 264.02 38.74 C 264.31 38.68 264.89 38.58 265.18 38.53 C 266.62 38.46 268.02 37.26 267.97 35.74 C 268.26 35.70 268.85 35.62 269.14 35.57 C 270.70 35.64 271.73 34.27 272.11 32.91 C 272.30 32.79 272.69 32.57 272.88 32.45 C 274.57 32.67 275.82 31.37 276.13 29.80 C 276.41 29.64 276.96 29.33 277.24 29.17 C 288.13 23.33 299.63 18.61 311.52 15.24 C 316.88 13.74 322.46 13.19 328.01 13.17 C 334.71 13.14 341.54 13.00 348.04 14.92 C 349.03 15.35 350.02 15.77 351.02 16.21 C 353.19 17.29 355.87 18.04 358.01 16.44 C 358.52 16.14 359.54 15.55 360.05 15.26 M 371.25 15.20 C 361.96 19.26 353.61 25.31 346.53 32.53 C 336.01 42.80 325.85 53.70 318.51 66.53 C 314.11 74.38 309.82 82.36 306.58 90.77 C 313.18 90.79 320.20 90.50 326.14 93.90 C 331.83 97.18 338.03 99.64 343.18 103.80 C 348.77 108.15 354.60 112.35 359.09 117.90 C 363.01 122.30 365.69 127.57 368.94 132.43 C 374.64 132.23 380.31 131.57 386.01 131.55 C 389.30 131.56 392.45 130.53 395.45 129.28 C 393.46 127.05 391.03 125.09 389.69 122.37 C 388.59 118.36 389.14 113.34 392.82 110.81 C 400.04 105.32 409.58 105.76 418.06 104.03 C 416.27 101.49 414.23 99.15 412.55 96.54 C 410.15 92.83 410.45 88.19 410.60 83.97 C 410.81 80.58 411.37 76.52 414.64 74.67 C 419.14 72.08 424.70 72.42 429.57 73.61 C 434.28 74.71 437.66 78.38 441.47 81.10 C 440.71 75.62 438.31 70.58 436.56 65.39 C 433.76 57.46 428.98 50.48 424.75 43.29 C 422.40 39.40 419.79 35.55 416.07 32.85 C 411.36 29.27 407.45 24.64 402.25 21.70 C 396.81 18.52 390.73 16.60 384.63 15.14 C 380.27 14.17 375.49 13.32 371.25 15.20 M 304.61 22.61 C 296.09 25.66 287.48 28.81 279.92 33.87 C 266.80 42.47 254.81 52.68 243.35 63.35 C 230.69 74.67 219.18 87.30 209.05 100.92 C 213.12 104.68 217.98 107.40 222.54 110.49 C 225.39 112.44 228.61 113.76 231.97 114.58 C 235.25 111.69 238.11 108.31 241.64 105.68 C 248.05 101.01 254.91 97.01 261.37 92.40 C 266.24 88.89 271.69 86.25 277.37 84.35 C 285.56 81.98 294.47 83.07 301.99 87.04 C 307.75 76.48 312.40 65.26 319.45 55.42 C 328.12 42.87 339.34 32.46 350.17 21.82 C 344.98 17.91 338.16 18.19 332.00 17.83 C 322.63 17.40 313.38 19.49 304.61 22.61 M 465.59 74.71 C 461.83 77.81 459.90 82.46 458.07 86.84 C 456.03 92.43 453.56 98.03 453.34 104.06 C 454.98 103.47 455.68 101.80 456.48 100.41 C 460.79 92.16 466.58 84.71 473.49 78.47 C 474.76 77.32 476.28 76.49 477.80 75.68 C 468.92 87.53 459.71 99.75 455.30 114.08 C 458.16 112.78 460.64 110.85 463.25 109.15 C 469.99 105.03 477.61 101.97 483.06 96.06 C 487.55 91.50 489.27 85.03 490.37 78.91 C 490.46 74.75 488.05 70.22 484.03 68.69 C 477.35 67.93 470.80 70.72 465.59 74.71 M 415.72 79.53 C 414.15 84.82 413.61 91.20 417.15 95.85 C 419.76 99.19 422.93 102.61 427.27 103.52 C 433.51 105.02 439.74 106.60 446.08 107.67 C 443.81 104.41 441.44 101.19 438.60 98.39 C 435.79 95.51 431.70 94.32 428.99 91.32 C 435.03 92.45 440.54 95.48 444.97 99.71 C 443.79 92.37 439.61 85.78 434.21 80.79 C 431.47 78.26 427.72 77.11 424.04 77.31 C 421.23 77.50 417.36 76.55 415.72 79.53 M 253.19 104.08 C 247.55 107.98 241.26 111.32 237.31 117.15 C 239.40 117.99 241.54 118.76 243.72 119.36 C 253.67 122.02 263.40 125.78 273.75 126.60 C 284.44 128.41 295.20 129.71 306.00 130.59 C 324.79 133.06 343.81 132.75 362.73 132.51 C 358.63 124.64 352.75 117.69 345.74 112.26 C 341.47 109.24 337.68 105.48 332.84 103.36 C 327.69 101.05 323.17 97.26 317.48 96.28 C 312.98 95.02 308.16 95.77 303.73 94.22 C 299.59 93.28 296.67 89.75 292.53 88.81 C 288.82 88.06 284.98 88.24 281.25 88.68 C 270.57 91.06 262.30 98.53 253.19 104.08 M 198.58 111.74 C 198.26 114.18 197.54 117.41 200.11 118.91 C 208.51 125.53 219.04 128.41 228.87 132.19 C 246.22 138.83 264.69 141.48 282.98 144.15 C 289.42 144.72 295.90 144.14 302.34 144.75 C 311.87 145.77 321.46 145.05 331.01 145.36 C 340.37 145.77 349.65 144.26 359.00 143.98 C 369.22 143.71 379.29 141.90 389.41 140.54 C 398.24 139.61 407.10 137.66 415.14 133.82 C 411.67 133.53 408.24 132.97 404.80 132.50 C 400.93 131.87 397.27 133.58 393.61 134.54 C 388.90 135.98 383.91 135.45 379.08 136.08 C 369.42 137.15 359.68 136.31 350.00 136.91 C 345.34 137.35 340.63 137.52 335.97 136.96 C 328.52 136.08 320.97 136.87 313.55 135.70 C 304.68 134.31 295.68 134.22 286.78 133.00 C 280.83 132.25 274.98 130.85 269.01 130.22 C 260.46 129.25 252.40 126.07 244.13 123.89 C 228.75 119.97 214.71 111.85 202.84 101.42 C 200.60 104.46 199.09 107.99 198.58 111.74 M 407.19 109.88 C 403.14 110.90 398.65 111.51 395.35 114.28 C 393.16 115.90 392.67 119.37 394.52 121.41 C 398.11 126.42 404.46 127.69 410.02 129.26 C 415.40 130.13 421.30 129.15 425.54 125.55 C 430.24 121.74 435.65 119.00 440.97 116.16 C 433.15 118.29 425.01 117.84 417.00 117.81 C 415.23 117.85 413.48 117.51 411.99 116.53 C 421.09 115.52 430.18 114.32 439.08 112.08 C 433.88 110.34 428.50 109.12 423.03 108.66 C 417.71 108.31 412.45 109.29 407.19 109.88 M 466.23 117.11 C 474.47 118.34 483.19 120.47 489.40 126.37 C 484.61 125.27 479.99 123.50 475.14 122.65 C 470.50 121.32 465.65 121.15 460.87 121.56 C 462.54 123.44 464.43 125.15 466.68 126.32 C 470.16 129.53 474.56 131.36 478.85 133.19 C 484.10 135.47 487.66 140.42 492.99 142.54 C 496.83 142.98 499.57 139.52 502.00 137.06 C 505.83 133.02 504.65 127.02 504.41 121.99 C 501.70 117.02 496.81 113.10 491.06 112.53 C 482.61 112.13 473.31 111.61 466.23 117.11 M 438.59 136.61 C 436.92 139.08 436.58 142.71 433.67 144.09 C 433.92 135.53 439.24 128.46 442.94 121.10 C 436.65 124.12 430.94 128.22 425.41 132.42 C 419.62 139.08 418.32 148.56 419.58 157.06 C 421.95 163.60 430.99 166.18 436.92 163.01 C 440.80 160.46 443.97 156.57 445.04 151.99 C 446.00 147.70 447.38 143.47 447.65 139.06 C 448.49 131.70 448.11 124.15 450.70 117.08 C 446.60 123.55 442.56 130.06 438.59 136.61 M 189.41 139.43 C 184.08 151.42 177.12 162.58 171.32 174.33 C 155.83 204.77 143.71 237.61 141.38 271.94 C 139.66 298.38 142.41 325.38 151.73 350.30 C 154.49 357.68 158.14 364.70 160.79 372.13 C 163.17 378.35 166.30 384.68 165.54 391.54 C 165.12 402.41 157.69 411.07 150.60 418.60 C 138.69 430.87 127.33 443.86 118.63 458.65 C 114.21 466.46 111.27 475.94 114.23 484.78 C 117.22 492.77 122.42 499.68 127.78 506.22 C 137.43 517.24 150.93 524.44 165.04 527.93 C 171.54 529.51 177.76 532.74 182.41 537.60 C 186.26 542.47 186.89 549.51 185.27 555.35 C 181.51 562.91 172.97 566.79 165.00 568.14 C 156.15 569.63 147.70 565.89 139.89 562.22 C 142.34 570.56 149.65 576.63 157.70 579.29 C 164.37 581.73 171.30 584.26 178.53 583.51 C 188.32 582.54 198.23 581.67 207.64 578.62 C 215.78 575.96 221.55 569.28 228.06 564.08 C 234.95 558.67 240.77 552.11 246.54 545.57 C 249.39 542.19 250.58 537.83 251.68 533.65 C 253.86 524.90 256.54 516.07 255.85 506.94 C 256.02 497.89 251.21 489.98 248.31 481.70 C 247.02 478.01 244.76 474.74 241.91 472.09 C 237.46 467.86 233.31 463.21 228.07 459.93 C 219.74 454.86 211.12 450.30 202.75 445.31 C 193.63 440.05 187.47 430.91 183.14 421.55 C 188.75 424.53 192.10 430.13 196.59 434.41 C 200.48 438.42 205.46 441.07 210.37 443.62 C 217.55 447.29 224.40 451.54 231.37 455.59 C 236.14 458.32 239.47 462.82 243.91 465.98 C 249.66 459.40 255.55 452.85 262.62 447.66 C 265.68 445.44 269.38 443.76 271.23 440.27 C 272.37 438.80 273.09 436.49 275.15 436.12 C 276.95 436.08 278.72 436.47 280.49 436.77 C 281.94 433.36 282.41 429.66 282.41 425.99 C 282.49 415.70 282.30 405.38 281.09 395.15 C 272.10 397.18 262.56 399.11 253.48 396.43 C 247.21 394.41 240.81 392.41 235.28 388.72 C 229.48 384.99 224.59 380.04 220.26 374.72 C 214.30 368.00 208.57 361.08 202.98 354.05 C 196.73 345.07 190.97 335.75 186.13 325.93 C 176.82 305.66 173.12 283.21 173.11 261.01 C 173.16 251.48 171.85 241.88 173.49 232.42 C 175.85 215.24 179.44 198.11 186.13 182.05 C 189.31 175.26 191.60 168.01 195.75 161.71 C 201.94 151.98 208.49 142.49 215.12 133.05 C 208.92 130.13 202.75 127.18 196.95 123.50 C 193.69 128.43 191.95 134.13 189.41 139.43 M 458.92 125.24 C 460.10 127.93 461.28 130.64 462.89 133.11 C 464.88 136.38 467.82 139.18 468.53 143.09 C 460.45 140.69 457.78 132.13 453.91 125.63 C 452.89 132.81 454.04 140.25 456.97 146.86 C 460.33 152.62 465.51 158.05 472.22 159.57 C 476.03 159.78 481.00 160.81 483.40 156.94 C 483.93 152.79 484.32 147.91 481.44 144.48 C 475.10 136.78 466.16 131.96 458.92 125.24 M 219.55 136.51 C 214.96 141.38 211.65 147.29 207.81 152.74 C 202.51 161.31 196.30 169.47 192.94 179.08 C 185.32 194.26 181.62 211.14 180.60 228.03 C 180.00 234.09 178.88 240.14 179.36 246.26 C 181.90 244.22 181.27 240.90 181.66 238.05 C 182.27 237.77 183.49 237.22 184.10 236.94 C 185.70 238.96 186.95 241.36 189.06 242.91 C 193.22 245.30 198.28 245.87 202.95 244.96 C 207.09 244.18 210.38 240.04 214.89 241.60 C 214.63 246.83 209.62 250.02 205.74 252.76 C 201.88 255.20 199.60 260.37 194.64 260.74 C 194.56 259.19 194.48 257.65 194.40 256.11 C 191.61 258.33 189.50 262.31 185.41 261.81 C 185.82 259.83 186.31 257.87 186.70 255.90 C 184.10 257.38 181.47 258.80 178.75 260.05 C 178.91 266.84 179.24 273.64 179.70 280.41 C 181.35 290.42 182.09 300.72 185.89 310.23 C 190.71 321.15 195.59 332.08 201.56 342.43 C 207.34 351.16 213.76 359.46 220.74 367.26 C 225.26 373.03 230.51 378.24 236.48 382.50 C 243.48 387.38 251.83 389.86 260.09 391.58 C 266.74 392.03 273.90 391.26 279.89 388.31 C 289.08 386.10 297.19 380.93 305.31 376.29 C 315.98 369.29 327.01 362.83 337.39 355.39 C 347.53 349.11 354.81 339.46 362.97 330.98 C 366.69 326.35 370.06 321.44 373.96 316.94 C 379.04 309.97 383.59 302.64 388.52 295.57 C 389.92 292.69 393.12 290.19 392.33 286.70 C 394.07 283.24 394.90 278.73 398.71 276.87 C 400.88 276.17 403.22 276.57 405.46 276.55 L 404.86 277.16 C 408.18 279.58 412.19 284.14 416.66 281.74 C 425.21 277.49 431.77 269.74 436.13 261.38 C 430.59 260.77 424.74 262.68 421.03 266.91 C 420.00 268.69 420.01 270.89 419.48 272.85 C 415.75 273.50 413.79 270.26 412.88 267.17 C 416.65 262.44 420.65 257.02 426.97 255.78 C 431.88 255.09 437.60 254.39 441.63 257.94 C 441.12 263.62 437.46 268.12 434.28 272.59 C 429.18 278.02 423.85 283.75 416.69 286.39 C 410.83 288.03 406.19 283.51 401.88 280.36 C 398.28 281.66 397.24 285.72 396.56 289.09 C 397.22 294.18 402.31 297.16 407.04 297.63 C 412.65 298.09 418.71 297.61 423.59 294.55 C 433.07 288.77 442.14 280.89 445.68 270.01 C 447.61 263.97 449.04 256.87 445.85 251.02 C 445.59 247.71 441.86 246.56 439.07 246.61 C 428.76 246.67 418.82 250.65 410.41 256.42 C 405.85 259.46 402.40 263.76 398.66 267.70 C 398.03 267.71 396.77 267.72 396.14 267.73 C 395.31 263.54 394.40 259.31 394.73 255.01 C 394.51 231.58 389.66 208.52 384.49 185.76 C 381.59 172.87 377.08 160.04 368.89 149.51 C 363.32 148.49 357.60 149.59 351.98 149.59 C 347.27 149.51 342.72 151.22 338.00 150.76 C 325.35 150.01 312.64 151.06 300.02 149.79 C 292.70 149.26 285.27 150.27 278.03 148.75 C 269.22 147.18 260.33 146.04 251.55 144.29 C 242.77 142.14 234.01 139.78 225.60 136.43 C 223.70 135.76 221.06 134.42 219.55 136.51 M 396.96 144.84 C 389.60 145.80 382.21 146.61 374.95 148.11 C 376.90 152.61 379.87 156.58 381.86 161.06 C 386.88 171.82 389.39 183.50 391.92 195.03 C 395.37 211.22 398.52 227.54 399.53 244.09 C 399.68 248.28 399.93 252.48 400.74 256.60 C 404.40 253.99 407.74 250.93 411.68 248.72 C 418.01 245.10 424.99 242.69 432.08 241.08 C 435.92 240.36 440.10 239.71 443.85 241.18 C 448.42 243.58 450.17 248.91 451.25 253.63 C 453.14 260.66 450.98 267.95 448.49 274.55 C 442.85 287.25 431.13 296.01 418.87 301.79 C 411.00 304.66 402.65 302.68 395.05 300.02 C 394.09 311.78 392.62 323.50 391.24 335.22 C 388.21 358.23 386.26 381.39 382.18 404.25 C 379.68 418.04 374.55 431.66 365.55 442.56 C 358.78 451.21 349.54 457.40 340.62 463.63 C 332.44 469.47 323.03 473.63 315.83 480.80 C 304.25 491.02 297.32 505.47 293.23 520.13 C 290.67 528.12 290.68 536.66 291.33 544.95 C 293.08 554.83 297.32 564.42 304.20 571.81 C 307.14 574.46 310.97 575.81 314.52 577.41 C 320.61 580.07 327.38 579.04 333.79 578.63 C 340.13 578.16 346.19 575.82 351.65 572.65 C 355.07 570.56 358.60 568.25 360.60 564.66 C 357.13 564.71 353.63 565.17 350.18 564.68 C 347.43 563.79 345.52 561.40 343.67 559.31 C 338.91 554.11 339.84 546.18 342.13 540.09 C 345.76 532.60 351.32 525.25 359.55 522.59 C 364.37 520.83 369.44 522.62 374.14 523.92 C 383.61 527.01 393.33 529.45 402.44 533.55 C 414.53 539.07 427.55 542.15 440.60 544.38 C 450.65 546.76 461.05 549.23 471.41 547.31 C 477.68 545.70 483.56 542.63 488.64 538.62 C 496.67 531.91 503.99 524.11 508.74 514.69 C 512.95 508.29 513.67 500.53 515.38 493.25 C 517.77 482.85 518.55 471.78 515.64 461.40 C 512.92 451.26 509.60 441.26 505.36 431.65 C 502.56 424.98 501.41 417.80 499.08 410.98 C 497.18 405.34 496.02 399.49 495.51 393.57 C 494.80 384.99 492.24 376.68 491.77 368.06 C 490.10 356.08 491.75 344.02 491.45 332.00 C 491.32 318.33 491.82 304.64 490.80 290.99 C 490.20 278.56 491.18 266.07 489.70 253.69 C 489.17 240.09 487.16 226.62 486.19 213.05 C 485.18 202.37 485.22 191.55 483.01 181.01 C 482.42 177.22 479.06 174.95 476.81 172.16 C 474.68 169.84 473.53 166.83 471.52 164.44 C 468.42 162.45 464.68 161.60 461.86 159.15 C 457.27 155.57 454.34 150.46 451.07 145.76 C 449.35 152.17 448.22 159.30 442.83 163.83 C 435.93 171.62 422.34 169.51 416.84 161.21 C 413.15 154.66 414.93 146.96 415.87 139.94 C 409.44 141.11 403.46 144.01 396.96 144.84 M 487.17 145.11 C 488.30 149.98 488.69 154.98 487.59 159.90 C 492.07 163.39 496.81 166.93 502.45 168.22 C 510.54 169.77 518.82 169.63 527.02 169.71 C 520.53 165.80 514.01 161.77 508.45 156.57 C 507.01 155.33 505.40 153.67 503.30 154.29 C 498.42 155.28 493.45 156.13 488.46 155.40 C 488.60 154.78 488.89 153.54 489.03 152.93 C 493.02 151.84 497.23 151.67 501.11 150.12 C 500.43 148.83 499.75 147.56 499.06 146.29 C 495.04 146.91 490.97 146.58 487.17 145.11 M 477.03 164.40 C 477.93 169.52 482.60 172.67 486.57 175.43 C 490.17 178.03 494.80 177.76 499.00 178.21 C 504.68 178.72 510.32 177.75 515.99 177.51 C 520.16 177.26 524.10 175.77 528.06 174.55 C 522.36 174.61 516.73 173.55 511.04 173.47 C 505.30 173.33 499.38 172.56 494.32 169.67 C 490.90 167.93 488.19 165.09 484.79 163.36 C 482.16 163.15 479.58 163.91 477.03 164.40 M 179.49 251.57 C 179.30 252.65 179.07 253.73 178.79 254.79 C 180.07 254.06 181.35 253.34 182.63 252.61 C 182.68 251.98 182.80 250.72 182.86 250.09 C 181.74 250.60 180.63 251.10 179.49 251.57 M 371.22 330.17 C 364.43 337.73 358.05 345.70 350.68 352.72 C 348.07 355.35 344.31 357.04 342.66 360.48 C 339.40 375.08 339.69 390.12 339.17 404.99 C 339.27 411.65 339.79 418.30 340.32 424.94 C 340.23 427.84 343.66 428.18 345.47 429.63 C 351.04 432.69 351.85 439.65 356.09 443.94 C 360.71 439.89 364.84 435.20 367.82 429.80 C 374.78 417.68 377.13 403.68 379.07 390.03 C 381.84 371.73 383.50 353.29 385.89 334.94 C 386.93 325.66 388.41 316.40 388.84 307.06 C 381.93 313.98 377.88 323.06 371.22 330.17 M 309.94 379.90 C 302.06 384.24 294.58 389.29 286.31 392.90 C 287.45 405.22 288.01 417.62 287.55 430.00 C 287.32 435.02 285.35 439.75 283.23 444.24 C 288.64 448.83 296.20 449.44 303.00 449.42 C 312.18 449.60 320.16 444.35 327.51 439.48 C 330.50 437.16 334.06 435.22 336.09 431.93 C 334.50 423.70 334.41 415.33 333.79 407.00 C 333.65 399.46 334.58 391.95 334.42 384.40 C 334.23 377.45 335.88 370.66 336.43 363.77 C 327.03 368.14 318.40 373.96 309.94 379.90 M 341.04 436.99 C 336.80 439.68 333.36 443.45 329.08 446.10 C 322.17 450.55 314.36 454.30 306.00 454.55 C 297.86 454.98 289.15 454.42 282.09 449.93 C 279.55 448.33 278.36 445.47 276.62 443.16 C 276.29 443.22 275.62 443.33 275.29 443.39 C 273.91 447.09 273.50 451.66 276.03 454.99 C 280.03 460.70 287.34 462.79 293.96 463.35 C 306.49 463.88 318.34 458.28 328.63 451.64 C 334.68 447.38 340.91 442.96 345.12 436.76 C 343.76 436.64 342.24 436.03 341.04 436.99 M 347.22 451.10 C 348.84 450.37 350.42 449.54 351.96 448.66 C 351.45 446.08 350.04 443.78 348.00 442.14 C 344.62 443.73 346.81 448.32 347.22 451.10 M 303.05 468.11 C 293.96 469.28 283.86 468.45 276.40 462.62 C 275.19 461.98 273.87 460.00 272.43 461.28 C 265.71 465.76 259.81 471.54 255.16 478.13 C 252.82 481.34 255.41 485.16 256.63 488.28 C 260.78 496.50 261.84 505.91 261.18 515.01 C 260.30 522.48 258.00 529.68 256.46 537.02 C 260.12 539.63 264.44 541.20 268.98 540.85 C 274.89 541.39 280.89 539.30 285.25 535.30 C 286.41 530.74 285.98 525.90 287.33 521.37 C 288.71 516.82 289.93 512.20 291.71 507.78 C 295.62 499.35 299.17 490.50 305.58 483.57 C 310.18 478.90 314.40 473.62 320.22 470.39 C 328.35 466.36 334.88 459.90 342.39 454.90 C 342.20 452.88 341.91 450.88 341.58 448.89 C 330.02 457.45 317.45 465.56 303.05 468.11 M 257.82 458.82 C 254.35 462.30 250.47 465.63 248.19 470.06 C 248.55 471.76 249.93 472.96 250.93 474.31 C 255.12 470.04 258.79 465.23 263.53 461.52 C 265.90 459.66 268.29 457.81 270.60 455.87 C 270.34 453.88 270.09 451.89 269.79 449.92 C 264.86 451.39 261.54 455.53 257.82 458.82 M 271.04 546.35 C 265.34 546.73 259.85 544.87 254.77 542.48 C 253.05 544.44 251.68 546.67 250.58 549.03 C 261.29 555.57 275.80 555.61 286.56 549.08 C 286.47 546.67 286.35 544.26 286.15 541.86 C 281.26 543.76 276.44 546.42 271.04 546.35 Z" />
<path fill="#fccea3" opacity="1.00" d=" M 303.99 17.17 C 311.67 14.40 319.81 12.74 328.00 13.03 C 334.68 13.25 341.71 12.27 348.04 14.92 C 341.54 13.00 334.71 13.14 328.01 13.17 C 322.46 13.19 316.88 13.74 311.52 15.24 C 299.63 18.61 288.13 23.33 277.24 29.17 C 285.49 23.83 294.78 20.45 303.99 17.17 Z" />
<path fill="#80240f" opacity="1.00" d=" M 371.25 15.20 C 375.49 13.32 380.27 14.17 384.63 15.14 C 390.73 16.60 396.81 18.52 402.25 21.70 C 407.45 24.64 411.36 29.27 416.07 32.85 C 419.79 35.55 422.40 39.40 424.75 43.29 C 428.98 50.48 433.76 57.46 436.56 65.39 C 438.31 70.58 440.71 75.62 441.47 81.10 C 437.66 78.38 434.28 74.71 429.57 73.61 C 424.70 72.42 419.14 72.08 414.64 74.67 C 411.37 76.52 410.81 80.58 410.60 83.97 C 410.45 88.19 410.15 92.83 412.55 96.54 C 414.23 99.15 416.27 101.49 418.06 104.03 C 409.58 105.76 400.04 105.32 392.82 110.81 C 389.14 113.34 388.59 118.36 389.69 122.37 C 391.03 125.09 393.46 127.05 395.45 129.28 C 392.45 130.53 389.30 131.56 386.01 131.55 C 380.31 131.57 374.64 132.23 368.94 132.43 C 365.69 127.57 363.01 122.30 359.09 117.90 C 354.60 112.35 348.77 108.15 343.18 103.80 C 338.03 99.64 331.83 97.18 326.14 93.90 C 320.20 90.50 313.18 90.79 306.58 90.77 C 309.82 82.36 314.11 74.38 318.51 66.53 C 325.85 53.70 336.01 42.80 346.53 32.53 C 353.61 25.31 361.96 19.26 371.25 15.20 Z" />
<path fill="#fccea3" opacity="1.00" d=" M 351.02 16.21 C 353.30 16.82 355.69 16.88 358.01 16.44 C 355.87 18.04 353.19 17.29 351.02 16.21 Z" />
<path fill="#677167" opacity="1.00" d=" M 403.85 16.73 C 405.57 16.98 407.13 17.86 408.19 19.26 C 406.26 19.70 404.42 18.61 403.85 16.73 Z" />
<path fill="#80240f" opacity="1.00" d=" M 304.61 22.61 C 313.38 19.49 322.63 17.40 332.00 17.83 C 338.16 18.19 344.98 17.91 350.17 21.82 C 339.34 32.46 328.12 42.87 319.45 55.42 C 312.40 65.26 307.75 76.48 301.99 87.04 C 294.47 83.07 285.56 81.98 277.37 84.35 C 271.69 86.25 266.24 88.89 261.37 92.40 C 254.91 97.01 248.05 101.01 241.64 105.68 C 238.11 108.31 235.25 111.69 231.97 114.58 C 228.61 113.76 225.39 112.44 222.54 110.49 C 217.98 107.40 213.12 104.68 209.05 100.92 C 219.18 87.30 230.69 74.67 243.35 63.35 C 254.81 52.68 266.80 42.47 279.92 33.87 C 287.48 28.81 296.09 25.66 304.61 22.61 Z" />
<path fill="#fccea3" opacity="1.00" d=" M 272.88 32.45 C 273.36 30.98 274.66 30.09 276.13 29.80 C 275.82 31.37 274.57 32.67 272.88 32.45 Z" />
<path fill="#677167" opacity="1.00" d=" M 269.14 35.57 C 268.93 33.89 270.75 33.13 272.11 32.91 C 271.73 34.27 270.70 35.64 269.14 35.57 Z" />
<path fill="#677167" opacity="1.00" d=" M 265.18 38.53 C 265.21 37.08 266.55 35.83 267.97 35.74 C 268.02 37.26 266.62 38.46 265.18 38.53 Z" />
<path fill="#677167" opacity="1.00" d=" M 260.90 41.39 C 261.52 40.15 262.50 38.81 264.02 38.74 C 264.24 40.49 262.36 41.37 260.90 41.39 Z" />
<path fill="#fccea3" opacity="1.00" d=" M 255.96 45.30 C 256.46 43.84 257.66 42.75 259.20 42.47 C 258.94 44.08 257.61 45.30 255.96 45.30 Z" />
<path fill="#677167" opacity="1.00" d=" M 430.70 43.79 C 432.08 44.45 432.96 45.76 433.12 47.28 C 431.49 46.92 430.43 45.44 430.70 43.79 Z" />
<path fill="#677167" opacity="1.00" d=" M 250.04 50.16 C 251.63 48.70 253.29 47.31 255.04 46.03 C 253.42 47.47 251.75 48.84 250.04 50.16 Z" />
<path fill="#677167" opacity="1.00" d=" M 434.64 49.91 C 436.03 50.95 436.90 52.48 437.24 54.17 C 435.30 53.70 434.18 51.84 434.64 49.91 Z" />
<path fill="#677167" opacity="1.00" d=" M 239.10 60.25 C 241.88 57.25 244.74 54.30 248.04 51.87 C 245.40 55.00 242.39 57.81 239.10 60.25 Z" />
<path fill="#677167" opacity="1.00" d=" M 439.09 57.74 C 441.76 62.62 443.29 67.99 444.92 73.27 C 442.28 68.38 440.61 63.06 439.09 57.74 Z" />
<path fill="#fccea3" opacity="1.00" d=" M 223.80 74.95 C 227.14 70.89 230.88 67.13 234.95 63.79 C 231.42 67.69 227.68 71.41 223.80 74.95 Z" />
<path fill="#fccea3" opacity="1.00" d=" M 458.03 76.95 C 460.03 73.72 462.65 70.80 465.97 68.86 C 463.24 71.57 460.22 74.08 458.23 77.42 C 455.08 82.65 453.11 88.47 450.98 94.17 C 448.75 87.53 446.78 80.80 445.17 73.98 C 447.39 78.95 447.24 84.92 450.97 89.16 C 454.27 85.67 455.48 80.92 458.03 76.95 Z" />
<path fill="#fccea3" opacity="1.00" d=" M 465.59 74.71 C 470.80 70.72 477.35 67.93 484.03 68.69 C 488.05 70.22 490.46 74.75 490.37 78.91 C 489.27 85.03 487.55 91.50 483.06 96.06 C 477.61 101.97 469.99 105.03 463.25 109.15 C 460.64 110.85 458.16 112.78 455.30 114.08 C 459.71 99.75 468.92 87.53 477.80 75.68 C 476.28 76.49 474.76 77.32 473.49 78.47 C 466.58 84.71 460.79 92.16 456.48 100.41 C 455.68 101.80 454.98 103.47 453.34 104.06 C 453.56 98.03 456.03 92.43 458.07 86.84 C 459.90 82.46 461.83 77.81 465.59 74.71 Z" />
<path fill="#677167" opacity="1.00" d=" M 494.09 73.90 C 495.02 79.42 494.18 85.14 491.95 90.25 C 492.98 84.85 494.09 79.42 494.09 73.90 Z" />
<path fill="#fccea3" opacity="1.00" d=" M 415.72 79.53 C 417.36 76.55 421.23 77.50 424.04 77.31 C 427.72 77.11 431.47 78.26 434.21 80.79 C 439.61 85.78 443.79 92.37 444.97 99.71 C 440.54 95.48 435.03 92.45 428.99 91.32 C 431.70 94.32 435.79 95.51 438.60 98.39 C 441.44 101.19 443.81 104.41 446.08 107.67 C 439.74 106.60 433.51 105.02 427.27 103.52 C 422.93 102.61 419.76 99.19 417.15 95.85 C 413.61 91.20 414.15 84.82 415.72 79.53 Z" />
<path fill="#677167" opacity="1.00" d=" M 215.92 84.01 C 217.30 82.32 218.73 80.67 220.22 79.07 C 218.85 80.78 217.46 82.46 215.92 84.01 Z" />
<path fill="#677167" opacity="1.00" d=" M 211.60 89.05 C 212.39 87.36 213.63 85.97 215.11 84.84 C 215.55 87.01 213.80 89.08 211.60 89.05 Z" />
<path fill="#fccea3" opacity="1.00" d=" M 253.19 104.08 C 262.30 98.53 270.57 91.06 281.25 88.68 C 284.98 88.24 288.82 88.06 292.53 88.81 C 296.67 89.75 299.59 93.28 303.73 94.22 C 308.16 95.77 312.98 95.02 317.48 96.28 C 323.17 97.26 327.69 101.05 332.84 103.36 C 337.68 105.48 341.47 109.24 345.74 112.26 C 352.75 117.69 358.63 124.64 362.73 132.51 C 343.81 132.75 324.79 133.06 306.00 130.59 C 295.20 129.71 284.44 128.41 273.75 126.60 C 263.40 125.78 253.67 122.02 243.72 119.36 C 241.54 118.76 239.40 117.99 237.31 117.15 C 241.26 111.32 247.55 107.98 253.19 104.08 Z" />
<path fill="#fccea3" opacity="1.00" d=" M 201.95 95.28 C 205.11 94.81 208.15 93.69 210.19 91.10 C 209.03 92.64 207.79 94.12 206.60 95.64 C 205.05 95.50 203.50 95.32 201.95 95.28 Z" />
<path fill="#fccea3" opacity="1.00" d=" M 466.92 111.71 C 475.63 107.30 484.39 102.25 490.07 94.04 C 487.48 98.68 483.14 101.93 480.01 106.16 C 484.00 108.49 488.73 107.03 493.00 108.28 C 495.89 109.01 498.76 110.04 501.18 111.82 C 497.62 110.26 493.97 108.57 490.03 108.37 C 482.20 108.10 474.01 107.83 466.92 111.71 Z" />
<path fill="#677167" opacity="1.00" d=" M 192.50 116.03 C 192.74 109.69 194.33 103.21 198.09 98.01 C 195.37 103.66 193.08 109.66 193.00 116.02 C 193.11 120.15 191.44 123.96 189.15 127.31 C 190.51 123.64 192.43 120.04 192.50 116.03 Z" />
<path fill="#677167" opacity="1.00" d=" M 198.58 111.74 C 199.09 107.99 200.60 104.46 202.84 101.42 C 214.71 111.85 228.75 119.97 244.13 123.89 C 252.40 126.07 260.46 129.25 269.01 130.22 C 274.98 130.85 280.83 132.25 286.78 133.00 C 295.68 134.22 304.68 134.31 313.55 135.70 C 320.97 136.87 328.52 136.08 335.97 136.96 C 340.63 137.52 345.34 137.35 350.00 136.91 C 359.68 136.31 369.42 137.15 379.08 136.08 C 383.91 135.45 388.90 135.98 393.61 134.54 C 397.27 133.58 400.93 131.87 404.80 132.50 C 408.24 132.97 411.67 133.53 415.14 133.82 C 407.10 137.66 398.24 139.61 389.41 140.54 C 379.29 141.90 369.22 143.71 359.00 143.98 C 349.65 144.26 340.37 145.77 331.01 145.36 C 321.46 145.05 311.87 145.77 302.34 144.75 C 295.90 144.14 289.42 144.72 282.98 144.15 C 264.69 141.48 246.22 138.83 228.87 132.19 C 219.04 128.41 208.51 125.53 200.11 118.91 C 197.54 117.41 198.26 114.18 198.58 111.74 Z" />
<path fill="#fccea3" opacity="1.00" d=" M 407.19 109.88 C 412.45 109.29 417.71 108.31 423.03 108.66 C 428.50 109.12 433.88 110.34 439.08 112.08 C 430.18 114.32 421.09 115.52 411.99 116.53 C 413.48 117.51 415.23 117.85 417.00 117.81 C 425.01 117.84 433.15 118.29 440.97 116.16 C 435.65 119.00 430.24 121.74 425.54 125.55 C 421.30 129.15 415.40 130.13 410.02 129.26 C 404.46 127.69 398.11 126.42 394.52 121.41 C 392.67 119.37 393.16 115.90 395.35 114.28 C 398.65 111.51 403.14 110.90 407.19 109.88 Z" />
<path fill="#fccea3" opacity="1.00" d=" M 466.23 117.11 C 473.31 111.61 482.61 112.13 491.06 112.53 C 496.81 113.10 501.70 117.02 504.41 121.99 C 504.65 127.02 505.83 133.02 502.00 137.06 C 499.57 139.52 496.83 142.98 492.99 142.54 C 487.66 140.42 484.10 135.47 478.85 133.19 C 474.56 131.36 470.16 129.53 466.68 126.32 C 465.97 125.11 465.30 123.87 464.64 122.63 C 468.13 122.48 471.64 122.41 475.14 122.65 C 479.99 123.50 484.61 125.27 489.40 126.37 C 483.19 120.47 474.47 118.34 466.23 117.11 Z" />
<path fill="#fccea3" opacity="1.00" d=" M 438.59 136.61 C 442.56 130.06 446.60 123.55 450.70 117.08 C 448.11 124.15 448.49 131.70 447.65 139.06 C 447.38 143.47 446.00 147.70 445.04 151.99 C 443.97 156.57 440.80 160.46 436.92 163.01 C 430.99 166.18 421.95 163.60 419.58 157.06 C 418.32 148.56 419.62 139.08 425.41 132.42 C 430.94 128.22 436.65 124.12 442.94 121.10 C 439.24 128.46 433.92 135.53 433.67 144.09 C 436.58 142.71 436.92 139.08 438.59 136.61 Z" />
<path fill="#fccea3" opacity="1.00" d=" M 506.28 116.81 C 509.79 122.15 510.16 129.28 508.11 135.23 C 506.66 138.90 502.35 142.52 504.83 146.71 C 513.32 157.60 525.86 164.29 538.08 170.15 C 529.66 167.13 521.91 162.43 514.71 157.18 C 509.98 153.14 504.87 149.04 502.35 143.18 C 504.81 140.07 507.41 136.85 508.36 132.92 C 509.46 127.50 508.71 121.78 506.28 116.81 Z" />
<path fill="#677167" opacity="1.00" d=" M 460.87 121.56 C 465.65 121.15 470.50 121.32 475.14 122.65 C 471.64 122.41 468.13 122.48 464.64 122.63 C 465.30 123.87 465.97 125.11 466.68 126.32 C 464.43 125.15 462.54 123.44 460.87 121.56 Z" />
<path fill="#80240f" opacity="1.00" d=" M 189.41 139.43 C 191.95 134.13 193.69 128.43 196.95 123.50 C 202.75 127.18 208.92 130.13 215.12 133.05 C 208.49 142.49 201.94 151.98 195.75 161.71 C 191.60 168.01 189.31 175.26 186.13 182.05 C 179.44 198.11 175.85 215.24 173.49 232.42 C 171.85 241.88 173.16 251.48 173.11 261.01 C 173.12 283.21 176.82 305.66 186.13 325.93 C 190.97 335.75 196.73 345.07 202.98 354.05 C 208.57 361.08 214.30 368.00 220.26 374.72 C 224.59 380.04 229.48 384.99 235.28 388.72 C 240.81 392.41 247.21 394.41 253.48 396.43 C 262.56 399.11 272.10 397.18 281.09 395.15 C 282.30 405.38 282.49 415.70 282.41 425.99 C 282.41 429.66 281.94 433.36 280.49 436.77 C 278.72 436.47 276.95 436.08 275.15 436.12 C 273.09 436.49 272.37 438.80 271.23 440.27 C 269.38 443.76 265.68 445.44 262.62 447.66 C 255.55 452.85 249.66 459.40 243.91 465.98 C 239.47 462.82 236.14 458.32 231.37 455.59 C 224.40 451.54 217.55 447.29 210.37 443.62 C 205.46 441.07 200.48 438.42 196.59 434.41 C 192.10 430.13 188.75 424.53 183.14 421.55 C 187.47 430.91 193.63 440.05 202.75 445.31 C 211.12 450.30 219.74 454.86 228.07 459.93 C 233.31 463.21 237.46 467.86 241.91 472.09 C 244.76 474.74 247.02 478.01 248.31 481.70 C 251.21 489.98 256.02 497.89 255.85 506.94 C 256.54 516.07 253.86 524.90 251.68 533.65 C 250.58 537.83 249.39 542.19 246.54 545.57 C 240.77 552.11 234.95 558.67 228.06 564.08 C 221.55 569.28 215.78 575.96 207.64 578.62 C 198.23 581.67 188.32 582.54 178.53 583.51 C 171.30 584.26 164.37 581.73 157.70 579.29 C 149.65 576.63 142.34 570.56 139.89 562.22 C 147.70 565.89 156.15 569.63 165.00 568.14 C 172.97 566.79 181.51 562.91 185.27 555.35 C 186.89 549.51 186.26 542.47 182.41 537.60 C 177.76 532.74 171.54 529.51 165.04 527.93 C 150.93 524.44 137.43 517.24 127.78 506.22 C 122.42 499.68 117.22 492.77 114.23 484.78 C 111.27 475.94 114.21 466.46 118.63 458.65 C 127.33 443.86 138.69 430.87 150.60 418.60 C 157.69 411.07 165.12 402.41 165.54 391.54 C 166.30 384.68 163.17 378.35 160.79 372.13 C 158.14 364.70 154.49 357.68 151.73 350.30 C 142.41 325.38 139.66 298.38 141.38 271.94 C 143.71 237.61 155.83 204.77 171.32 174.33 C 177.12 162.58 184.08 151.42 189.41 139.43 Z" />
<path fill="#fccea3" opacity="1.00" d=" M 458.92 125.24 C 466.16 131.96 475.10 136.78 481.44 144.48 C 484.32 147.91 483.93 152.79 483.40 156.94 C 481.00 160.81 476.03 159.78 472.22 159.57 C 465.51 158.05 460.33 152.62 456.97 146.86 C 454.04 140.25 452.89 132.81 453.91 125.63 C 457.78 132.13 460.45 140.69 468.53 143.09 C 467.82 139.18 464.88 136.38 462.89 133.11 C 461.28 130.64 460.10 127.93 458.92 125.24 Z" />
<path fill="#677167" opacity="1.00" d=" M 186.07 134.32 C 186.10 132.56 186.74 130.87 188.09 129.70 C 188.69 131.56 187.82 133.49 186.07 134.32 Z" />
<path fill="#fccea3" opacity="1.00" d=" M 219.55 136.51 C 221.06 134.42 223.70 135.76 225.60 136.43 C 234.01 139.78 242.77 142.14 251.55 144.29 C 260.33 146.04 269.22 147.18 278.03 148.75 C 285.27 150.27 292.70 149.26 300.02 149.79 C 312.64 151.06 325.35 150.01 338.00 150.76 C 342.72 151.22 347.27 149.51 351.98 149.59 C 357.60 149.59 363.32 148.49 368.89 149.51 C 377.08 160.04 381.59 172.87 384.49 185.76 C 389.66 208.52 394.51 231.58 394.73 255.01 C 394.40 259.31 395.31 263.54 396.14 267.73 C 396.77 267.72 398.03 267.71 398.66 267.70 C 402.40 263.76 405.85 259.46 410.41 256.42 C 418.82 250.65 428.76 246.67 439.07 246.61 C 441.86 246.56 445.59 247.71 445.85 251.02 C 446.67 258.49 446.53 266.73 442.08 273.15 C 440.46 275.60 437.50 276.38 434.91 277.37 C 434.72 275.77 434.51 274.17 434.28 272.59 C 437.46 268.12 441.12 263.62 441.63 257.94 C 437.60 254.39 431.88 255.09 426.97 255.78 C 420.65 257.02 416.65 262.44 412.88 267.17 C 410.49 270.36 408.42 273.83 405.46 276.55 C 403.22 276.57 400.88 276.17 398.71 276.87 C 394.90 278.73 394.07 283.24 392.33 286.70 C 384.36 294.00 377.94 302.73 370.53 310.56 C 359.57 322.40 346.61 332.12 333.66 341.65 C 329.16 345.12 325.61 349.61 321.46 353.46 C 312.50 361.48 304.08 370.10 294.76 377.71 C 289.92 381.42 284.03 383.68 279.89 388.31 C 273.90 391.26 266.74 392.03 260.09 391.58 C 251.83 389.86 243.48 387.38 236.48 382.50 C 230.51 378.24 225.26 373.03 220.74 367.26 C 213.76 359.46 207.34 351.16 201.56 342.43 C 195.59 332.08 190.71 321.15 185.89 310.23 C 182.09 300.72 181.35 290.42 179.70 280.41 C 179.24 273.64 178.91 266.84 178.75 260.05 C 181.47 258.80 184.10 257.38 186.70 255.90 C 186.31 257.87 185.82 259.83 185.41 261.81 C 189.50 262.31 191.61 258.33 194.40 256.11 C 194.48 257.65 194.56 259.19 194.64 260.74 C 199.60 260.37 201.88 255.20 205.74 252.76 C 209.62 250.02 214.63 246.83 214.89 241.60 C 214.88 237.13 213.10 231.41 207.73 231.41 C 204.82 231.18 201.91 231.58 199.01 231.33 C 196.17 230.26 193.75 228.36 191.03 227.05 C 190.68 227.30 189.98 227.80 189.63 228.05 C 186.45 230.91 183.68 234.27 181.66 238.05 C 181.27 240.90 181.90 244.22 179.36 246.26 C 178.88 240.14 180.00 234.09 180.60 228.03 C 181.62 211.14 185.32 194.26 192.94 179.08 C 196.30 169.47 202.51 161.31 207.81 152.74 C 211.65 147.29 214.96 141.38 219.55 136.51 M 205.10 164.11 C 202.40 165.78 200.91 168.63 199.81 171.50 C 207.20 167.29 215.57 165.01 224.06 164.67 C 230.03 164.81 235.84 167.86 239.33 172.72 C 240.05 174.35 242.25 173.73 242.42 172.06 C 241.01 167.65 238.88 163.46 236.37 159.58 C 234.51 157.19 232.22 154.41 228.93 154.28 C 219.92 153.51 212.06 159.11 205.10 164.11 M 321.69 170.69 C 319.91 173.65 317.68 177.30 319.14 180.81 C 321.54 180.76 323.84 180.06 325.95 178.94 C 335.16 174.23 345.59 171.62 355.96 172.26 C 360.45 172.98 364.50 175.38 369.03 176.03 C 367.74 173.72 366.15 171.58 364.16 169.83 C 360.54 166.71 357.03 163.21 352.44 161.55 C 348.50 159.85 344.10 160.08 339.90 160.25 C 332.58 160.47 326.05 165.07 321.69 170.69 M 239.57 186.97 C 239.21 211.19 234.42 235.03 230.53 258.87 C 228.52 270.71 226.41 282.56 223.16 294.14 C 222.38 298.00 221.12 301.87 221.39 305.86 C 221.28 307.95 223.29 309.10 224.68 310.30 C 231.80 316.52 243.18 316.01 250.55 310.49 C 253.43 308.10 253.95 304.18 253.57 300.67 C 251.35 303.11 249.78 306.39 246.59 307.73 C 240.15 310.85 231.68 310.31 226.54 305.00 C 226.61 302.68 226.81 300.35 227.43 298.11 C 232.57 280.72 235.08 262.71 238.15 244.88 C 239.69 235.60 241.36 226.33 242.33 216.97 C 243.26 205.16 241.87 193.37 241.39 181.58 C 240.06 183.07 239.50 184.99 239.57 186.97 M 306.24 249.46 C 303.75 252.98 304.46 257.71 304.55 261.78 C 306.29 267.56 299.53 270.67 298.07 275.59 C 303.00 276.32 304.82 270.32 309.41 269.72 C 309.36 273.12 308.00 276.27 307.27 279.54 C 310.89 280.18 312.44 276.45 314.31 274.14 C 316.22 274.83 318.62 274.76 320.12 276.23 C 320.42 277.82 320.50 279.44 320.69 281.05 C 323.55 280.41 324.93 277.75 326.45 275.53 C 327.98 275.26 329.51 274.94 331.02 274.57 C 332.47 275.78 333.96 276.95 335.62 277.88 C 336.87 275.86 337.12 273.31 338.46 271.39 C 342.00 269.38 345.48 267.28 348.58 264.60 C 351.35 262.22 355.26 260.25 355.99 256.34 C 354.87 256.39 353.76 256.52 352.66 256.72 C 350.43 252.21 344.56 250.61 340.00 251.78 C 335.52 249.97 330.62 251.18 325.96 250.54 C 320.88 250.23 316.47 247.52 311.68 246.13 C 309.80 247.12 308.00 248.27 306.24 249.46 M 222.20 325.25 C 219.82 330.08 225.65 333.46 228.60 336.37 C 227.33 340.32 225.96 345.42 229.19 348.80 C 232.01 352.22 236.81 351.97 240.79 351.55 C 248.91 350.34 255.90 345.22 260.89 338.89 C 263.18 335.83 266.64 333.31 267.13 329.26 C 260.42 330.07 253.85 332.30 247.03 332.09 C 241.74 331.61 236.18 332.04 231.27 329.66 C 228.06 328.51 225.85 325.12 222.20 325.25 Z" />
<path fill="#677167" opacity="1.00" d=" M 176.88 152.96 C 178.97 148.10 181.33 143.36 183.95 138.77 C 182.43 143.87 180.01 148.66 176.88 152.96 Z" />
<path fill="#80240f" opacity="1.00" d=" M 396.96 144.84 C 403.46 144.01 409.44 141.11 415.87 139.94 C 414.93 146.96 413.15 154.66 416.84 161.21 C 422.34 169.51 435.93 171.62 442.83 163.83 C 448.22 159.30 449.35 152.17 451.07 145.76 C 454.34 150.46 457.27 155.57 461.86 159.15 C 464.68 161.60 468.42 162.45 471.52 164.44 C 473.53 166.83 474.68 169.84 476.81 172.16 C 479.06 174.95 482.42 177.22 483.01 181.01 C 485.22 191.55 485.18 202.37 486.19 213.05 C 487.16 226.62 489.17 240.09 489.70 253.69 C 491.18 266.07 490.20 278.56 490.80 290.99 C 491.82 304.64 491.32 318.33 491.45 332.00 C 491.75 344.02 490.10 356.08 491.77 368.06 C 492.24 376.68 494.80 384.99 495.51 393.57 C 496.02 399.49 497.18 405.34 499.08 410.98 C 501.41 417.80 502.56 424.98 505.36 431.65 C 509.60 441.26 512.92 451.26 515.64 461.40 C 518.55 471.78 517.77 482.85 515.38 493.25 C 513.67 500.53 512.95 508.29 508.74 514.69 C 503.99 524.11 496.67 531.91 488.64 538.62 C 483.56 542.63 477.68 545.70 471.41 547.31 C 461.05 549.23 450.65 546.76 440.60 544.38 C 427.55 542.15 414.53 539.07 402.44 533.55 C 393.33 529.45 383.61 527.01 374.14 523.92 C 369.44 522.62 364.37 520.83 359.55 522.59 C 351.32 525.25 345.76 532.60 342.13 540.09 C 339.84 546.18 338.91 554.11 343.67 559.31 C 345.52 561.40 347.43 563.79 350.18 564.68 C 353.63 565.17 357.13 564.71 360.60 564.66 C 358.60 568.25 355.07 570.56 351.65 572.65 C 346.19 575.82 340.13 578.16 333.79 578.63 C 327.38 579.04 320.61 580.07 314.52 577.41 C 310.97 575.81 307.14 574.46 304.20 571.81 C 297.32 564.42 293.08 554.83 291.33 544.95 C 290.68 536.66 290.67 528.12 293.23 520.13 C 297.32 505.47 304.25 491.02 315.83 480.80 C 323.03 473.63 332.44 469.47 340.62 463.63 C 349.54 457.40 358.78 451.21 365.55 442.56 C 374.55 431.66 379.68 418.04 382.18 404.25 C 386.26 381.39 388.21 358.23 391.24 335.22 C 392.62 323.50 394.09 311.78 395.05 300.02 C 402.65 302.68 411.00 304.66 418.87 301.79 C 431.13 296.01 442.85 287.25 448.49 274.55 C 450.98 267.95 453.14 260.66 451.25 253.63 C 450.17 248.91 448.42 243.58 443.85 241.18 C 440.10 239.71 435.92 240.36 432.08 241.08 C 424.99 242.69 418.01 245.10 411.68 248.72 C 407.74 250.93 404.40 253.99 400.74 256.60 C 399.93 252.48 399.68 248.28 399.53 244.09 C 398.52 227.54 395.37 211.22 391.92 195.03 C 389.39 183.50 386.88 171.82 381.86 161.06 C 379.87 156.58 376.90 152.61 374.95 148.11 C 382.21 146.61 389.60 145.80 396.96 144.84 Z" />
<path fill="#7d9c7a" opacity="1.00" d=" M 487.17 145.11 C 490.97 146.58 495.04 146.91 499.06 146.29 C 499.75 147.56 500.43 148.83 501.11 150.12 C 497.23 151.67 493.02 151.84 489.03 152.93 C 488.89 153.54 488.60 154.78 488.46 155.40 C 493.45 156.13 498.42 155.28 503.30 154.29 C 505.40 153.67 507.01 155.33 508.45 156.57 C 514.01 161.77 520.53 165.80 527.02 169.71 C 518.82 169.63 510.54 169.77 502.45 168.22 C 496.81 166.93 492.07 163.39 487.59 159.90 C 488.69 154.98 488.30 149.98 487.17 145.11 Z" />
<path fill="#677167" opacity="1.00" d=" M 170.81 164.04 C 172.29 160.57 174.12 157.28 176.23 154.15 C 174.82 157.65 173.06 161.00 170.81 164.04 Z" />
<path fill="#010101" opacity="1.00" d=" M 205.10 164.11 C 212.06 159.11 219.92 153.51 228.93 154.28 C 232.22 154.41 234.51 157.19 236.37 159.58 C 238.88 163.46 241.01 167.65 242.42 172.06 C 242.25 173.73 240.05 174.35 239.33 172.72 C 235.84 167.86 230.03 164.81 224.06 164.67 C 215.57 165.01 207.20 167.29 199.81 171.50 C 200.91 168.63 202.40 165.78 205.10 164.11 M 222.83 160.18 C 225.63 160.79 228.47 161.28 231.34 161.43 C 229.09 158.94 225.74 159.11 222.83 160.18 Z" />
<path fill="#80240f" opacity="1.00" d=" M 222.83 160.18 C 225.74 159.11 229.09 158.94 231.34 161.43 C 228.47 161.28 225.63 160.79 222.83 160.18 Z" />
<path fill="#010101" opacity="1.00" d=" M 321.69 170.69 C 326.05 165.07 332.58 160.47 339.90 160.25 C 344.10 160.08 348.50 159.85 352.44 161.55 C 357.03 163.21 360.54 166.71 364.16 169.83 C 366.15 171.58 367.74 173.72 369.03 176.03 C 364.50 175.38 360.45 172.98 355.96 172.26 C 345.59 171.62 335.16 174.23 325.95 178.94 C 323.84 180.06 321.54 180.76 319.14 180.81 C 317.68 177.30 319.91 173.65 321.69 170.69 M 326.00 173.84 C 334.40 170.48 343.05 167.77 352.06 166.73 C 343.09 162.91 331.71 165.79 326.00 173.84 Z" />
<path fill="#7d9c7a" opacity="1.00" d=" M 477.03 164.40 C 479.58 163.91 482.16 163.15 484.79 163.36 C 488.19 165.09 490.90 167.93 494.32 169.67 C 499.38 172.56 505.30 173.33 511.04 173.47 C 516.73 173.55 522.36 174.61 528.06 174.55 C 524.10 175.77 520.16 177.26 515.99 177.51 C 510.32 177.75 504.68 178.72 499.00 178.21 C 494.80 177.76 490.17 178.03 486.57 175.43 C 482.60 172.67 477.93 169.52 477.03 164.40 Z" />
<path fill="#80240f" opacity="1.00" d=" M 326.00 173.84 C 331.71 165.79 343.09 162.91 352.06 166.73 C 343.05 167.77 334.40 170.48 326.00 173.84 Z" />
<path fill="#677167" opacity="1.00" d=" M 541.19 171.58 C 539.01 175.45 534.02 175.31 530.52 177.32 C 525.94 179.81 520.98 181.45 515.86 182.32 C 512.48 182.15 509.10 182.13 505.73 182.15 C 513.19 181.34 520.94 181.13 527.90 178.01 C 532.40 176.01 536.92 174.05 541.19 171.58 Z" />
<path fill="#fccea3" opacity="1.00" d=" M 488.23 180.30 C 493.98 181.49 499.84 182.27 505.73 182.15 C 509.10 182.13 512.48 182.15 515.86 182.32 C 507.62 182.85 499.27 182.34 491.05 181.62 C 487.74 184.21 489.93 189.00 490.06 192.53 C 491.05 207.67 492.59 222.75 493.82 237.86 C 493.80 239.63 493.72 241.39 493.63 243.15 C 493.38 230.42 491.22 217.81 490.63 205.09 C 490.26 196.79 489.21 188.54 488.23 180.30 Z" />
<path fill="#677167" opacity="1.00" d=" M 157.08 192.20 C 158.36 188.57 160.01 185.09 161.95 181.77 C 160.79 185.44 159.17 188.96 157.08 192.20 Z" />
<path fill="#010101" opacity="1.00" d=" M 239.57 186.97 C 239.50 184.99 240.06 183.07 241.39 181.58 C 241.87 193.37 243.26 205.16 242.33 216.97 C 241.36 226.33 239.69 235.60 238.15 244.88 C 235.08 262.71 232.57 280.72 227.43 298.11 C 226.81 300.35 226.61 302.68 226.54 305.00 C 231.68 310.31 240.15 310.85 246.59 307.73 C 249.78 306.39 251.35 303.11 253.57 300.67 C 253.95 304.18 253.43 308.10 250.55 310.49 C 243.18 316.01 231.80 316.52 224.68 310.30 C 223.29 309.10 221.28 307.95 221.39 305.86 C 221.12 301.87 222.38 298.00 223.16 294.14 C 226.41 282.56 228.52 270.71 230.53 258.87 C 234.42 235.03 239.21 211.19 239.57 186.97 Z" />
<path fill="#677167" opacity="1.00" d=" M 152.18 204.20 C 153.22 200.97 154.46 197.81 155.98 194.78 C 155.08 198.06 153.82 201.22 152.18 204.20 Z" />
<path fill="#677167" opacity="1.00" d=" M 146.10 221.21 C 147.39 215.56 149.51 210.15 151.90 204.89 C 150.53 210.51 148.53 215.96 146.10 221.21 Z" />
<path fill="#fccea3" opacity="1.00" d=" M 135.62 276.02 C 136.97 257.70 139.99 239.41 145.87 221.97 C 140.53 240.87 136.11 260.27 136.17 280.01 C 136.17 290.51 136.14 301.05 137.29 311.50 C 138.30 321.16 140.69 330.60 142.87 340.04 C 139.92 330.47 138.04 320.58 136.80 310.65 C 136.09 299.12 135.40 287.58 135.62 276.02 Z" />
<path fill="#010101" opacity="1.00" d=" M 189.63 228.05 C 189.98 227.80 190.68 227.30 191.03 227.05 C 193.75 228.36 196.17 230.26 199.01 231.33 C 201.91 231.58 204.82 231.18 207.73 231.41 C 204.89 234.93 199.86 237.92 195.34 235.83 C 192.11 234.50 190.77 231.08 189.63 228.05 Z" />
<path fill="#e9b07f" opacity="1.00" d=" M 181.66 238.05 C 183.68 234.27 186.45 230.91 189.63 228.05 C 190.77 231.08 192.11 234.50 195.34 235.83 C 199.86 237.92 204.89 234.93 207.73 231.41 C 213.10 231.41 214.88 237.13 214.89 241.60 C 210.38 240.04 207.09 244.18 202.95 244.96 C 198.28 245.87 193.22 245.30 189.06 242.91 C 186.95 241.36 185.70 238.96 184.10 236.94 C 183.49 237.22 182.27 237.77 181.66 238.05 Z" />
<path fill="#e9b07f" opacity="1.00" d=" M 306.24 249.46 C 308.00 248.27 309.80 247.12 311.68 246.13 C 312.19 248.60 312.71 251.54 315.35 252.63 C 322.91 257.50 332.36 255.13 340.00 251.78 C 344.56 250.61 350.43 252.21 352.66 256.72 C 346.25 259.25 340.06 262.82 333.06 263.36 C 326.81 263.85 320.36 262.36 315.16 258.80 C 311.34 256.48 310.49 251.29 306.24 249.46 Z" />
<path fill="#010101" opacity="1.00" d=" M 311.68 246.13 C 316.47 247.52 320.88 250.23 325.96 250.54 C 330.62 251.18 335.52 249.97 340.00 251.78 C 332.36 255.13 322.91 257.50 315.35 252.63 C 312.71 251.54 312.19 248.60 311.68 246.13 Z" />
<path fill="#fccea3" opacity="1.00" d=" M 179.49 251.57 C 180.63 251.10 181.74 250.60 182.86 250.09 C 182.80 250.72 182.68 251.98 182.63 252.61 C 181.35 253.34 180.07 254.06 178.79 254.79 C 179.07 253.73 179.30 252.65 179.49 251.57 Z" />
<path fill="#010101" opacity="1.00" d=" M 304.55 261.78 C 304.46 257.71 303.75 252.98 306.24 249.46 C 310.49 251.29 311.34 256.48 315.16 258.80 C 320.36 262.36 326.81 263.85 333.06 263.36 C 340.06 262.82 346.25 259.25 352.66 256.72 C 353.76 256.52 354.87 256.39 355.99 256.34 C 355.26 260.25 351.35 262.22 348.58 264.60 C 345.48 267.28 342.00 269.38 338.46 271.39 C 337.12 273.31 336.87 275.86 335.62 277.88 C 333.96 276.95 332.47 275.78 331.02 274.57 C 329.51 274.94 327.98 275.26 326.45 275.53 C 324.93 277.75 323.55 280.41 320.69 281.05 C 320.50 279.44 320.42 277.82 320.12 276.23 C 318.62 274.76 316.22 274.83 314.31 274.14 C 312.44 276.45 310.89 280.18 307.27 279.54 C 308.00 276.27 309.36 273.12 309.41 269.72 C 304.82 270.32 303.00 276.32 298.07 275.59 C 299.53 270.67 306.29 267.56 304.55 261.78 Z" />
<path fill="#e9b07f" opacity="1.00" d=" M 445.85 251.02 C 449.04 256.87 447.61 263.97 445.68 270.01 C 442.14 280.89 433.07 288.77 423.59 294.55 C 418.71 297.61 412.65 298.09 407.04 297.63 C 402.31 297.16 397.22 294.18 396.56 289.09 C 397.24 285.72 398.28 281.66 401.88 280.36 C 406.19 283.51 410.83 288.03 416.69 286.39 C 423.85 283.75 429.18 278.02 434.28 272.59 C 434.51 274.17 434.72 275.77 434.91 277.37 C 437.50 276.38 440.46 275.60 442.08 273.15 C 446.53 266.73 446.67 258.49 445.85 251.02 Z" />
<path fill="#fccea3" opacity="1.00" d=" M 494.97 250.77 C 496.04 258.42 494.95 266.17 495.75 273.85 C 497.27 287.97 495.41 302.24 497.23 316.34 C 497.63 330.89 497.28 345.45 497.42 360.00 C 497.02 373.83 500.74 387.29 501.82 401.02 C 500.53 394.55 500.11 387.94 498.83 381.47 C 496.59 369.79 497.16 357.86 496.88 346.03 C 496.22 331.04 497.16 316.00 495.95 301.02 C 495.58 284.27 495.39 267.52 494.97 250.77 Z" />
<path fill="#e9b07f" opacity="1.00" d=" M 421.03 266.91 C 424.74 262.68 430.59 260.77 436.13 261.38 C 431.77 269.74 425.21 277.49 416.66 281.74 C 412.19 284.14 408.18 279.58 404.86 277.16 L 405.46 276.55 C 408.42 273.83 410.49 270.36 412.88 267.17 C 413.79 270.26 415.75 273.50 419.48 272.85 C 420.01 270.89 420.00 268.69 421.03 266.91 Z" />
<path fill="#e9b07f" opacity="1.00" d=" M 370.53 310.56 C 377.94 302.73 384.36 294.00 392.33 286.70 C 393.12 290.19 389.92 292.69 388.52 295.57 C 383.59 302.64 379.04 309.97 373.96 316.94 C 370.06 321.44 366.69 326.35 362.97 330.98 C 354.81 339.46 347.53 349.11 337.39 355.39 C 327.01 362.83 315.98 369.29 305.31 376.29 C 297.19 380.93 289.08 386.10 279.89 388.31 C 284.03 383.68 289.92 381.42 294.76 377.71 C 304.08 370.10 312.50 361.48 321.46 353.46 C 325.61 349.61 329.16 345.12 333.66 341.65 C 346.61 332.12 359.57 322.40 370.53 310.56 Z" />
<path fill="#80240f" opacity="1.00" d=" M 371.22 330.17 C 377.88 323.06 381.93 313.98 388.84 307.06 C 388.41 316.40 386.93 325.66 385.89 334.94 C 383.50 353.29 381.84 371.73 379.07 390.03 C 377.13 403.68 374.78 417.68 367.82 429.80 C 364.84 435.20 360.71 439.89 356.09 443.94 C 351.85 439.65 351.04 432.69 345.47 429.63 C 343.66 428.18 340.23 427.84 340.32 424.94 C 339.79 418.30 339.27 411.65 339.17 404.99 C 339.69 390.12 339.40 375.08 342.66 360.48 C 344.31 357.04 348.07 355.35 350.68 352.72 C 358.05 345.70 364.43 337.73 371.22 330.17 Z" />
<path fill="#010101" opacity="1.00" d=" M 222.20 325.25 C 225.85 325.12 228.06 328.51 231.27 329.66 C 236.18 332.04 241.74 331.61 247.03 332.09 C 253.85 332.30 260.42 330.07 267.13 329.26 C 266.64 333.31 263.18 335.83 260.89 338.89 C 255.90 345.22 248.91 350.34 240.79 351.55 C 236.81 351.97 232.01 352.22 229.19 348.80 C 225.96 345.42 227.33 340.32 228.60 336.37 C 225.65 333.46 219.82 330.08 222.20 325.25 M 233.48 339.32 C 232.45 341.68 231.76 345.42 235.08 346.24 C 241.77 347.10 248.47 343.80 253.15 339.16 C 248.74 339.37 244.39 340.90 239.95 340.18 C 237.80 339.85 235.65 339.53 233.48 339.32 Z" />
<path fill="#e9b07f" opacity="1.00" d=" M 233.48 339.32 C 235.65 339.53 237.80 339.85 239.95 340.18 C 244.39 340.90 248.74 339.37 253.15 339.16 C 248.47 343.80 241.77 347.10 235.08 346.24 C 231.76 345.42 232.45 341.68 233.48 339.32 Z" />
<path fill="#677167" opacity="1.00" d=" M 143.10 340.81 C 145.35 346.11 147.31 351.54 148.86 357.10 C 146.35 351.89 144.35 346.45 143.10 340.81 Z" />
<path fill="#677167" opacity="1.00" d=" M 149.15 357.80 C 150.17 359.88 151.09 362.01 151.91 364.18 C 150.86 362.11 149.93 359.98 149.15 357.80 Z" />
<path fill="#e9b07f" opacity="1.00" d=" M 309.94 379.90 C 318.40 373.96 327.03 368.14 336.43 363.77 C 335.88 370.66 334.23 377.45 334.42 384.40 C 334.58 391.95 333.65 399.46 333.79 407.00 C 334.41 415.33 334.50 423.70 336.09 431.93 C 334.06 435.22 330.50 437.16 327.51 439.48 C 320.16 444.35 312.18 449.60 303.00 449.42 C 296.20 449.44 288.64 448.83 283.23 444.24 C 285.35 439.75 287.32 435.02 287.55 430.00 C 288.01 417.62 287.45 405.22 286.31 392.90 C 294.58 389.29 302.06 384.24 309.94 379.90 Z" />
<path fill="#677167" opacity="1.00" d=" M 153.09 366.83 C 154.16 368.90 155.11 371.03 155.94 373.21 C 154.89 371.13 153.94 369.00 153.09 366.83 Z" />
<path fill="#80240f" opacity="1.00" d=" M 157.95 377.95 C 158.30 378.44 158.98 379.42 159.33 379.91 C 158.98 379.42 158.30 378.44 157.95 377.95 Z" />
<path fill="#fccea3" opacity="1.00" d=" M 159.42 380.78 C 161.28 388.59 160.84 397.30 155.96 403.97 C 157.33 400.39 159.69 397.01 159.59 393.04 C 159.69 388.95 159.59 384.86 159.42 380.78 Z" />
<path fill="#677167" opacity="1.00" d=" M 501.98 401.85 C 503.55 406.19 504.85 410.63 505.81 415.15 C 503.92 410.91 502.60 406.44 501.98 401.85 Z" />
<path fill="#677167" opacity="1.00" d=" M 151.78 409.22 C 152.41 407.41 153.44 405.42 155.52 405.06 C 155.19 407.09 153.81 408.73 151.78 409.22 Z" />
<path fill="#677167" opacity="1.00" d=" M 140.82 421.10 C 143.55 417.36 146.93 414.18 150.29 411.03 C 147.72 414.90 144.54 418.31 140.82 421.10 Z" />
<path fill="#677167" opacity="1.00" d=" M 506.03 415.90 C 507.25 419.23 508.13 422.67 508.81 426.15 C 507.40 422.88 506.55 419.41 506.03 415.90 Z" />
<path fill="#677167" opacity="1.00" d=" M 131.87 431.04 C 133.76 428.51 135.96 426.24 138.27 424.09 C 136.38 426.62 134.24 428.95 131.87 431.04 Z" />
<path fill="#677167" opacity="1.00" d=" M 509.06 426.87 C 511.32 431.50 513.23 436.29 514.76 441.21 C 512.45 436.60 510.32 431.88 509.06 426.87 Z" />
<path fill="#677167" opacity="1.00" d=" M 124.97 439.93 C 126.46 437.43 128.23 435.14 130.21 433.02 C 128.65 435.46 126.90 437.77 124.97 439.93 Z" />
<path fill="#677167" opacity="1.00" d=" M 341.04 436.99 C 342.24 436.03 343.76 436.64 345.12 436.76 C 340.91 442.96 334.68 447.38 328.63 451.64 C 318.34 458.28 306.49 463.88 293.96 463.35 C 287.34 462.79 280.03 460.70 276.03 454.99 C 273.50 451.66 273.91 447.09 275.29 443.39 C 275.62 443.33 276.29 443.22 276.62 443.16 C 278.36 445.47 279.55 448.33 282.09 449.93 C 289.15 454.42 297.86 454.98 306.00 454.55 C 314.36 454.30 322.17 450.55 329.08 446.10 C 333.36 443.45 336.80 439.68 341.04 436.99 Z" />
<path fill="#677167" opacity="1.00" d=" M 122.18 444.32 C 121.61 442.75 123.01 441.46 124.30 440.88 C 124.39 442.35 123.65 443.84 122.18 444.32 Z" />
<path fill="#677167" opacity="1.00" d=" M 347.22 451.10 C 346.81 448.32 344.62 443.73 348.00 442.14 C 350.04 443.78 351.45 446.08 351.96 448.66 C 350.42 449.54 348.84 450.37 347.22 451.10 Z" />
<path fill="#677167" opacity="1.00" d=" M 515.02 441.95 C 516.10 444.65 517.01 447.42 517.77 450.24 C 516.60 447.56 515.69 444.78 515.02 441.95 Z" />
<path fill="#677167" opacity="1.00" d=" M 120.26 447.10 C 120.46 446.57 120.86 445.49 121.07 444.95 C 120.86 445.49 120.46 446.57 120.26 447.10 Z" />
<path fill="#677167" opacity="1.00" d=" M 118.32 450.10 C 118.48 449.57 118.80 448.51 118.96 447.98 L 119.37 448.72 C 119.11 449.06 118.59 449.75 118.32 450.10 Z" />
<path fill="#e9b07f" opacity="1.00" d=" M 303.05 468.11 C 317.45 465.56 330.02 457.45 341.58 448.89 C 341.91 450.88 342.20 452.88 342.39 454.90 C 334.88 459.90 328.35 466.36 320.22 470.39 C 314.40 473.62 310.18 478.90 305.58 483.57 C 299.17 490.50 295.62 499.35 291.71 507.78 C 289.93 512.20 288.71 516.82 287.33 521.37 C 285.98 525.90 286.41 530.74 285.25 535.30 C 280.89 539.30 274.89 541.39 268.98 540.85 C 264.44 541.20 260.12 539.63 256.46 537.02 C 258.00 529.68 260.30 522.48 261.18 515.01 C 261.84 505.91 260.78 496.50 256.63 488.28 C 255.41 485.16 252.82 481.34 255.16 478.13 C 259.81 471.54 265.71 465.76 272.43 461.28 C 273.87 460.00 275.19 461.98 276.40 462.62 C 283.86 468.45 293.96 469.28 303.05 468.11 Z" />
<path fill="#677167" opacity="1.00" d=" M 257.82 458.82 C 261.54 455.53 264.86 451.39 269.79 449.92 C 270.09 451.89 270.34 453.88 270.60 455.87 C 268.29 457.81 265.90 459.66 263.53 461.52 C 258.79 465.23 255.12 470.04 250.93 474.31 C 249.93 472.96 248.55 471.76 248.19 470.06 C 250.47 465.63 254.35 462.30 257.82 458.82 Z" />
<path fill="#677167" opacity="1.00" d=" M 115.89 453.00 C 116.19 452.49 116.79 451.47 117.08 450.95 C 116.79 451.47 116.19 452.49 115.89 453.00 Z" />
<path fill="#677167" opacity="1.00" d=" M 518.01 450.97 C 519.33 454.23 520.27 457.63 520.97 461.08 C 519.67 457.81 518.74 454.41 518.01 450.97 Z" />
<path fill="#677167" opacity="1.00" d=" M 111.06 462.20 C 112.09 459.37 113.54 456.72 115.19 454.22 C 113.94 456.94 112.58 459.61 111.06 462.20 Z" />
<path fill="#677167" opacity="1.00" d=" M 521.18 461.88 C 523.24 468.39 522.49 475.31 522.52 482.04 C 522.63 487.17 521.21 492.13 519.96 497.06 C 521.93 485.45 523.28 473.57 521.18 461.88 Z" />
<path fill="#677167" opacity="1.00" d=" M 109.82 488.20 C 106.14 480.16 107.10 470.76 110.77 462.90 C 108.03 471.05 107.27 479.89 109.82 488.20 Z" />
<path fill="#677167" opacity="1.00" d=" M 512.93 517.91 C 516.12 511.56 517.78 504.65 519.79 497.88 C 518.76 504.89 517.15 512.06 512.93 517.91 Z" />
<path fill="#677167" opacity="1.00" d=" M 508.90 524.88 C 509.85 522.87 511.00 520.97 512.22 519.11 C 511.17 521.07 510.06 522.98 508.90 524.88 Z" />
<path fill="#fccea3" opacity="1.00" d=" M 134.98 519.75 C 135.47 520.10 136.45 520.80 136.94 521.15 C 136.45 520.80 135.47 520.10 134.98 519.75 Z" />
<path fill="#677167" opacity="1.00" d=" M 357.79 527.81 C 360.15 526.01 363.21 525.95 365.99 526.61 C 363.21 526.50 360.43 526.92 357.79 527.81 Z" />
<path fill="#fccea3" opacity="1.00" d=" M 505.66 529.18 C 505.36 527.57 506.58 525.80 508.33 526.03 C 507.86 527.38 506.92 528.50 505.66 529.18 Z" />
<path fill="#80240f" opacity="1.00" d=" M 375.91 529.96 C 382.13 531.38 388.30 533.12 394.17 535.67 C 388.01 533.99 381.80 532.43 375.91 529.96 Z" />
<path fill="#677167" opacity="1.00" d=" M 492.91 542.15 C 496.58 537.77 500.75 533.86 504.98 530.04 C 501.61 534.66 497.46 538.69 492.91 542.15 Z" />
<path fill="#677167" opacity="1.00" d=" M 159.00 531.05 C 163.08 531.65 167.36 531.98 171.05 534.02 C 167.06 532.90 162.99 532.12 159.00 531.05 Z" />
<path fill="#677167" opacity="1.00" d=" M 394.76 535.87 C 396.62 535.32 398.50 536.22 399.33 537.98 C 397.57 537.90 395.85 537.28 394.76 535.87 Z" />
<path fill="#677167" opacity="1.00" d=" M 345.31 551.80 C 344.78 546.60 346.18 541.31 348.93 536.90 C 346.09 542.93 344.94 550.05 347.79 556.31 C 346.66 555.01 345.42 553.60 345.31 551.80 Z" />
<path fill="#677167" opacity="1.00" d=" M 401.69 538.82 C 403.57 538.30 405.47 539.19 406.32 540.95 C 404.54 540.87 402.81 540.23 401.69 538.82 Z" />
<path fill="#fccea3" opacity="1.00" d=" M 406.92 541.17 C 421.09 546.03 435.85 548.65 450.46 551.77 C 457.91 553.16 465.56 553.11 473.07 552.33 C 465.63 553.38 457.94 553.29 450.51 552.14 C 435.93 548.73 420.88 546.82 406.92 541.17 Z" />
<path fill="#677167" opacity="1.00" d=" M 271.04 546.35 C 276.44 546.42 281.26 543.76 286.15 541.86 C 286.35 544.26 286.47 546.67 286.56 549.08 C 275.80 555.61 261.29 555.57 250.58 549.03 C 251.68 546.67 253.05 544.44 254.77 542.48 C 259.85 544.87 265.34 546.73 271.04 546.35 Z" />
<path fill="#677167" opacity="1.00" d=" M 487.10 546.40 C 487.29 543.93 489.79 542.49 492.10 542.96 C 490.73 544.49 489.00 545.64 487.10 546.40 Z" />
<path fill="#677167" opacity="1.00" d=" M 181.37 544.94 C 182.27 548.74 181.98 553.19 179.16 556.15 C 175.29 560.53 169.45 562.18 163.98 563.51 C 161.73 562.65 159.29 562.31 156.99 563.22 C 152.33 562.42 147.81 560.82 143.95 558.04 C 149.01 560.31 154.29 562.63 159.97 562.36 C 167.20 562.93 175.15 560.57 179.50 554.44 C 181.81 551.82 181.54 548.17 181.37 544.94 Z" />
<path fill="#677167" opacity="1.00" d=" M 473.88 552.14 C 477.86 550.25 481.89 548.46 486.01 546.90 C 482.31 549.35 478.20 551.12 473.88 552.14 Z" />
<path fill="#fccea3" opacity="1.00" d=" M 137.76 551.04 C 138.14 551.49 138.91 552.38 139.29 552.83 C 138.91 552.38 138.14 551.49 137.76 551.04 Z" />
<path fill="#677167" opacity="1.00" d=" M 133.58 552.58 C 134.85 558.13 134.72 564.14 137.58 569.22 C 140.26 574.13 144.73 577.67 148.94 581.21 C 145.95 579.62 143.37 577.39 141.07 574.93 C 135.25 569.18 133.12 560.55 133.58 552.58 Z" />
<path fill="#fccea3" opacity="1.00" d=" M 234.12 566.00 C 238.50 561.74 242.82 557.41 247.00 552.94 C 247.99 553.48 248.99 554.02 250.00 554.56 C 248.55 554.67 246.81 554.28 245.63 555.34 C 241.54 558.61 238.37 562.89 234.12 566.00 Z" />
<path fill="#677167" opacity="1.00" d=" M 139.49 554.14 C 141.33 554.20 142.37 555.92 142.94 557.47 C 141.31 557.06 139.48 556.04 139.49 554.14 Z" />
<path fill="#fccea3" opacity="1.00" d=" M 278.74 557.87 C 281.88 556.49 285.09 555.31 288.32 554.14 C 289.18 556.43 290.07 558.71 290.97 561.00 C 289.73 558.97 288.92 555.70 286.06 555.65 C 283.54 556.10 281.17 557.09 278.74 557.87 Z" />
<path fill="#fccea3" opacity="1.00" d=" M 252.96 556.03 C 260.68 558.86 269.05 559.54 277.17 558.39 C 269.21 560.57 260.47 559.18 252.96 556.03 Z" />
<path fill="#677167" opacity="1.00" d=" M 356.96 560.25 C 359.88 559.68 362.54 558.24 365.40 557.46 C 362.68 558.78 360.02 560.50 356.94 560.83 C 354.29 561.07 351.87 559.69 349.83 558.16 C 352.14 559.03 354.46 560.11 356.96 560.25 Z" />
<path fill="#677167" opacity="1.00" d=" M 291.86 562.96 C 294.14 566.19 296.28 569.52 298.22 572.97 C 295.49 570.06 293.36 566.64 291.86 562.96 Z" />
<path fill="#677167" opacity="1.00" d=" M 226.89 572.12 C 228.81 570.21 230.88 568.47 233.07 566.89 C 231.09 568.72 229.05 570.49 226.89 572.12 Z" />
<path fill="#677167" opacity="1.00" d=" M 221.03 577.38 C 220.77 575.03 223.00 573.69 225.07 573.62 C 224.08 575.20 222.76 576.59 221.03 577.38 Z" />
<path fill="#677167" opacity="1.00" d=" M 346.77 580.98 C 349.43 579.44 352.18 578.07 354.98 576.80 C 352.48 578.61 349.66 579.93 346.77 580.98 Z" />
<path fill="#677167" opacity="1.00" d=" M 203.63 584.82 C 209.46 583.50 214.81 580.76 220.03 577.96 C 212.61 583.88 203.01 585.85 193.89 587.49 C 190.33 587.52 186.99 588.69 184.28 591.00 L 181.79 591.00 C 181.78 590.36 181.75 589.09 181.74 588.46 C 188.94 586.65 196.46 586.79 203.63 584.82 Z" />
<path fill="#fccea3" opacity="1.00" d=" M 303.99 577.99 C 309.47 580.53 314.87 583.87 321.08 584.12 C 329.48 584.39 338.02 583.87 346.06 581.26 C 338.49 584.49 330.09 584.61 321.99 584.42 C 315.46 584.34 309.42 581.35 303.99 577.99 Z" />
<path fill="#677167" opacity="1.00" d=" M 152.77 583.10 C 159.03 584.71 165.12 586.90 171.36 588.58 C 171.14 589.18 170.70 590.39 170.49 591.00 L 166.19 591.00 C 166.66 590.61 167.61 589.84 168.08 589.45 C 163.25 586.70 157.79 585.43 152.77 583.10 Z" />
<path fill="#fccea3" opacity="1.00" d=" M 171.36 588.58 C 174.81 588.72 178.29 588.84 181.74 588.46 C 181.75 589.09 181.78 590.36 181.79 591.00 L 170.49 591.00 C 170.70 590.39 171.14 589.18 171.36 588.58 Z" />
<path fill="#7d9c7a" opacity="1.00" d=" M 0.00 590.68 C 0.08 590.76 0.23 590.92 0.30 591.00 L 0.00 591.00 L 0.00 590.68 Z" />
<path fill="#7d9c7a" opacity="1.00" d=" M 590.69 591.00 C 590.76 590.92 590.92 590.77 591.00 590.70 L 591.00 591.00 L 590.69 591.00 Z" />
</svg>
