<?xml version="1.0" encoding="UTF-8" ?>
<!DOCTYPE svg PUBLIC "-//W3C//DTD SVG 1.1//EN" "http://www.w3.org/Graphics/SVG/1.1/DTD/svg11.dtd">
<svg width="591pt" height="591pt" viewBox="0 0 591 591" version="1.1" xmlns="http://www.w3.org/2000/svg">
<path fill="#718f73" opacity="1.00" d=" M 237.78 0.00 L 238.07 0.00 C 239.85 4.25 243.52 7.05 246.94 9.92 C 231.31 11.06 215.58 10.37 199.99 12.12 C 214.96 9.45 230.26 10.61 245.37 9.69 C 242.68 6.60 238.83 4.21 237.78 0.00 Z" />
<path fill="#000000" opacity="1.00" d=" M 238.07 0.00 L 241.40 0.00 C 241.52 0.12 241.77 0.37 241.89 0.50 L 242.38 0.95 C 246.18 4.44 251.58 5.03 256.39 6.21 L 256.52 6.18 C 261.85 7.93 267.55 7.71 273.02 8.84 C 281.95 10.44 291.06 10.10 300.07 10.97 C 307.69 11.26 315.26 12.80 322.90 12.29 C 331.68 11.32 340.30 9.27 349.09 8.32 C 353.73 7.80 358.39 8.31 363.04 8.36 C 372.06 8.41 381.18 8.82 389.97 11.02 C 393.69 11.89 397.17 13.51 400.85 14.54 C 402.98 15.99 405.36 17.46 406.41 19.95 C 406.66 22.61 403.49 23.74 401.60 22.24 C 392.74 15.98 381.53 14.44 370.94 14.22 C 360.63 14.29 350.22 13.80 340.04 15.70 C 335.06 16.56 330.01 16.89 324.98 17.40 C 315.96 18.31 306.94 17.03 297.98 16.17 C 290.03 15.22 281.99 15.02 274.09 13.75 C 270.10 12.29 265.99 11.21 261.71 11.27 C 268.93 14.12 276.23 16.76 283.43 19.66 C 283.57 20.18 283.84 21.24 283.97 21.77 C 274.91 20.25 265.62 19.32 257.06 15.75 C 250.14 17.06 243.05 16.21 236.06 16.54 C 219.42 17.50 202.69 15.50 186.09 17.57 C 178.50 17.91 171.39 20.77 164.07 22.49 C 153.47 25.04 143.36 29.16 133.01 32.52 C 129.92 33.65 126.60 33.30 123.41 32.83 C 123.40 32.32 123.38 31.29 123.37 30.78 C 126.61 29.85 129.94 29.20 133.15 28.13 L 133.28 28.10 C 136.38 28.16 139.14 26.89 141.58 25.10 L 141.89 24.95 C 142.47 24.73 143.62 24.29 144.20 24.07 L 144.97 24.16 C 145.53 23.89 146.64 23.35 147.19 23.08 L 147.89 23.02 C 149.85 23.69 151.86 22.84 152.74 20.95 L 153.31 20.69 C 153.45 20.63 153.73 20.50 153.88 20.44 L 154.58 20.14 C 155.25 19.90 156.60 19.41 157.28 19.17 L 157.99 19.22 C 158.55 18.95 159.66 18.43 160.22 18.16 L 160.61 18.07 C 164.42 17.47 168.28 16.73 171.73 14.92 L 171.96 15.13 C 176.35 14.97 180.78 14.70 184.95 13.13 C 185.15 13.10 185.54 13.04 185.73 13.00 C 190.37 12.89 195.08 13.32 199.63 12.17 L 199.99 12.12 C 215.58 10.37 231.31 11.06 246.94 9.92 C 243.52 7.05 239.85 4.25 238.07 0.00 Z" />
<path fill="#718f73" opacity="1.00" d=" M 241.40 0.00 L 241.75 0.00 L 241.89 0.50 C 241.77 0.37 241.52 0.12 241.40 0.00 Z" />
<path fill="#562a1c" opacity="1.00" d=" M 242.38 0.95 C 246.90 3.09 251.87 4.07 256.39 6.21 C 251.58 5.03 246.18 4.44 242.38 0.95 Z" />
<path fill="#718f73" opacity="1.00" d=" M 256.52 6.18 C 262.00 7.02 267.54 7.41 273.01 8.33 C 282.97 9.93 293.07 9.91 303.09 10.70 C 309.61 10.93 316.09 12.58 322.63 11.83 C 335.13 10.54 347.43 6.75 360.11 7.79 C 371.98 7.62 383.99 8.47 395.38 12.00 C 396.09 9.34 398.51 10.57 400.36 10.97 C 399.50 10.93 397.79 10.87 396.93 10.84 C 398.72 12.14 400.53 13.41 402.25 14.81 C 401.90 14.74 401.20 14.61 400.85 14.54 C 397.17 13.51 393.69 11.89 389.97 11.02 C 381.18 8.82 372.06 8.41 363.04 8.36 C 358.39 8.31 353.73 7.80 349.09 8.32 C 340.30 9.27 331.68 11.32 322.90 12.29 C 315.26 12.80 307.69 11.26 300.07 10.97 C 291.06 10.10 281.95 10.44 273.02 8.84 C 267.55 7.71 261.85 7.93 256.52 6.18 Z" />
<path fill="#dc5a38" opacity="1.00" d=" M 261.71 11.27 C 265.99 11.21 270.10 12.29 274.09 13.75 C 281.99 15.02 290.03 15.22 297.98 16.17 C 306.94 17.03 315.96 18.31 324.98 17.40 C 330.01 16.89 335.06 16.56 340.04 15.70 C 350.22 13.80 360.63 14.29 370.94 14.22 C 381.53 14.44 392.74 15.98 401.60 22.24 C 403.49 23.74 406.66 22.61 406.41 19.95 C 405.36 17.46 402.98 15.99 400.85 14.54 C 401.20 14.61 401.90 14.74 402.25 14.81 C 410.66 21.21 420.41 26.55 426.28 35.68 C 430.89 42.82 433.58 52.10 430.57 60.36 C 428.64 65.72 427.26 71.34 424.36 76.30 C 422.90 78.79 421.46 81.35 421.03 84.26 C 431.00 78.40 431.76 64.75 441.47 58.72 C 450.35 54.58 460.37 54.03 470.02 54.36 C 464.42 55.22 458.23 56.83 454.60 61.49 C 453.42 65.24 458.30 65.77 460.47 67.53 C 471.93 75.79 484.33 83.22 493.08 94.58 C 487.67 91.37 482.00 88.58 476.05 86.54 C 475.40 86.90 474.12 87.62 473.48 87.98 C 473.74 89.35 473.30 91.25 474.92 91.90 C 479.60 94.64 484.79 96.43 489.39 99.34 C 489.11 99.35 488.55 99.37 488.27 99.38 C 487.71 99.40 486.58 99.46 486.02 99.48 C 486.53 105.00 487.15 110.51 487.61 116.03 C 488.12 122.09 490.32 127.88 490.50 133.97 C 490.91 146.68 493.61 159.16 496.10 171.58 C 497.11 177.01 498.71 182.38 498.78 187.94 C 499.00 194.08 495.99 199.64 494.35 205.40 C 489.96 218.01 488.97 231.40 486.56 244.44 C 481.84 242.96 476.81 242.94 471.96 243.65 C 467.01 244.59 463.09 247.99 459.40 251.18 C 459.40 235.65 456.98 220.24 454.18 205.03 C 455.68 197.69 457.06 190.26 456.54 182.72 C 455.00 183.34 453.68 184.35 453.51 186.08 C 452.07 192.66 450.62 199.58 446.36 205.01 C 448.49 195.49 448.81 185.14 444.16 176.28 C 443.42 176.35 441.93 176.50 441.19 176.57 C 439.94 171.89 439.41 166.65 436.16 162.84 C 434.37 160.80 431.72 161.86 430.09 163.48 C 428.81 161.29 425.98 155.81 421.92 157.63 C 420.94 156.43 418.57 155.25 417.11 154.01 C 417.35 149.79 417.29 145.53 416.32 141.40 C 412.82 146.29 412.57 152.61 410.67 158.18 C 409.54 150.05 408.19 140.87 401.29 135.46 C 401.34 127.22 402.58 118.96 405.27 111.16 C 406.34 108.20 406.74 105.06 406.81 101.92 C 403.73 105.78 401.00 109.96 397.40 113.39 C 393.89 116.66 391.02 120.73 386.71 123.05 C 381.62 116.60 372.64 115.48 364.96 115.54 C 359.42 115.24 353.98 116.56 348.46 116.58 C 355.08 110.46 364.01 108.33 372.30 105.56 C 366.52 105.30 360.71 105.94 355.04 107.06 C 348.95 108.32 343.75 111.95 338.95 115.74 C 333.10 112.80 326.50 111.78 320.01 111.74 C 310.27 111.61 300.50 112.41 290.92 114.24 C 285.12 115.17 279.22 114.63 273.37 114.58 C 273.00 114.09 272.26 113.12 271.89 112.63 C 264.04 110.82 255.77 112.87 248.05 110.22 C 244.67 109.51 242.06 107.16 239.47 105.04 C 239.43 107.38 238.93 110.29 241.39 111.65 C 246.66 115.08 253.22 115.27 259.21 116.59 C 257.18 116.85 255.25 117.56 253.36 118.31 L 252.79 118.47 C 249.26 117.53 245.65 116.57 241.95 116.82 C 228.30 117.90 214.59 116.93 201.00 115.54 C 202.74 118.53 206.05 119.64 209.10 120.79 C 204.08 119.80 198.97 119.63 193.88 119.40 C 190.11 119.27 186.65 117.37 182.85 117.39 C 185.88 123.25 193.13 123.71 198.81 125.11 C 193.71 127.23 189.91 131.27 186.16 135.18 C 183.10 138.78 178.04 139.01 174.06 141.12 C 167.76 144.27 160.56 144.19 153.73 145.04 C 148.95 145.76 144.27 143.71 139.50 144.57 C 143.81 149.02 150.47 148.21 156.10 148.44 C 146.45 160.37 138.16 173.38 127.81 184.73 C 125.12 187.95 120.87 190.39 120.18 194.84 C 117.49 209.99 114.83 225.15 112.56 240.37 C 108.44 235.75 105.50 229.75 99.50 227.21 C 98.15 216.95 95.90 206.80 95.13 196.47 C 102.11 193.92 109.04 190.66 114.48 185.49 C 116.64 183.52 117.90 180.85 118.96 178.17 C 109.70 188.54 95.10 189.23 83.16 194.72 C 85.72 190.75 90.30 187.85 90.94 182.87 C 87.17 183.51 84.54 186.45 81.71 188.74 C 75.53 193.83 72.41 201.38 68.06 207.89 C 70.02 199.36 71.67 190.62 75.75 182.78 C 77.41 178.79 81.49 175.70 80.68 170.96 C 83.65 168.53 86.96 166.38 89.13 163.13 C 82.37 164.21 77.02 168.90 71.29 172.27 C 63.70 177.24 57.89 184.33 51.95 191.07 C 54.15 183.56 58.42 176.94 62.20 170.17 C 68.35 159.03 75.44 148.40 83.86 138.85 C 86.13 135.87 89.67 133.05 89.39 128.94 C 88.66 128.03 87.90 127.15 87.11 126.30 C 85.43 127.14 83.75 127.99 82.07 128.85 C 87.26 125.84 90.55 120.76 94.20 116.19 C 96.41 113.24 97.19 109.46 99.63 106.67 C 101.90 103.93 104.17 101.16 105.98 98.08 C 101.40 99.22 97.67 102.26 93.74 104.71 C 89.37 107.75 84.45 109.85 79.49 111.73 C 82.54 108.36 85.91 105.31 89.29 102.29 C 94.29 98.05 97.17 91.99 99.99 86.21 C 91.05 87.59 82.39 90.32 74.10 93.91 C 78.29 90.15 82.33 86.03 84.68 80.84 C 87.23 75.23 89.47 69.46 91.39 63.60 C 88.03 65.42 87.77 69.87 85.20 72.53 C 87.15 69.02 87.89 65.03 88.65 61.14 C 89.86 61.35 91.07 61.54 92.28 61.73 C 92.81 60.55 93.36 59.38 93.86 58.19 C 85.16 55.26 76.48 52.04 68.47 47.52 C 64.90 45.32 62.19 42.07 59.22 39.16 C 67.67 42.84 76.85 44.92 86.05 45.36 C 94.53 45.45 103.51 46.03 111.39 42.31 C 112.49 40.55 111.33 38.70 110.50 37.13 C 111.59 36.43 112.64 35.69 113.74 35.02 C 114.96 34.65 116.18 34.27 117.40 33.90 C 119.41 33.58 121.39 33.12 123.41 32.83 C 126.60 33.30 129.92 33.65 133.01 32.52 C 143.36 29.16 153.47 25.04 164.07 22.49 C 171.39 20.77 178.50 17.91 186.09 17.57 C 202.69 15.50 219.42 17.50 236.06 16.54 C 243.05 16.21 250.14 17.06 257.06 15.75 C 265.62 19.32 274.91 20.25 283.97 21.77 C 283.84 21.24 283.57 20.18 283.43 19.66 C 276.23 16.76 268.93 14.12 261.71 11.27 M 277.99 84.39 C 282.53 84.72 286.77 86.52 291.04 87.96 C 301.02 91.29 310.48 95.90 320.29 99.66 C 324.02 101.11 326.54 104.32 329.42 106.93 C 329.37 105.36 329.86 103.59 328.84 102.22 C 326.24 98.06 322.09 95.19 317.69 93.19 C 311.98 90.32 306.12 87.73 300.10 85.57 C 293.04 83.02 285.30 83.14 277.99 84.39 Z" />
<path fill="#000000" opacity="1.00" d=" M 396.93 10.84 C 397.79 10.87 399.50 10.93 400.36 10.97 L 400.92 11.08 C 401.48 11.35 402.60 11.89 403.16 12.15 L 403.70 12.23 C 404.86 14.40 407.33 14.59 409.51 14.11 L 410.31 14.44 C 410.50 14.53 410.88 14.71 411.08 14.79 L 411.87 15.18 C 412.03 15.26 412.33 15.42 412.48 15.49 L 412.88 15.71 C 420.38 20.42 426.67 26.69 432.15 33.60 L 432.27 33.77 C 432.26 35.87 432.73 38.02 434.38 39.47 L 434.95 39.77 L 435.31 40.34 C 435.40 40.49 435.58 40.78 435.67 40.93 L 436.15 41.70 C 436.28 41.91 436.55 42.32 436.68 42.53 C 436.87 43.22 437.25 44.59 437.43 45.28 L 437.45 45.53 L 437.41 45.84 C 437.59 46.49 437.95 47.80 438.14 48.45 C 438.37 50.18 438.58 51.90 438.76 53.63 C 445.97 51.35 453.33 49.10 460.96 49.02 C 465.01 49.00 469.06 49.00 473.12 49.01 L 473.36 49.07 C 476.92 50.91 480.60 52.51 484.38 53.87 L 484.54 53.94 C 485.12 54.89 485.71 55.85 486.29 56.81 C 482.59 57.28 478.94 58.04 475.30 58.86 C 475.06 58.90 474.56 58.98 474.32 59.02 C 470.30 59.34 466.42 60.49 462.77 62.17 C 464.54 63.58 466.42 64.83 468.29 66.11 L 468.42 66.10 C 479.40 74.47 492.09 81.74 498.98 94.23 L 499.03 94.43 C 498.93 95.95 498.88 97.47 498.88 98.99 C 499.59 101.27 501.58 102.80 503.08 104.56 L 503.12 104.65 C 503.39 106.70 503.61 108.75 503.79 110.81 C 499.99 108.01 496.80 104.51 493.02 101.70 C 492.87 101.59 492.58 101.38 492.43 101.27 C 491.43 100.59 490.43 99.93 489.39 99.34 C 484.79 96.43 479.60 94.64 474.92 91.90 C 473.30 91.25 473.74 89.35 473.48 87.98 C 474.12 87.62 475.40 86.90 476.05 86.54 C 482.00 88.58 487.67 91.37 493.08 94.58 C 484.33 83.22 471.93 75.79 460.47 67.53 C 458.30 65.77 453.42 65.24 454.60 61.49 C 458.23 56.83 464.42 55.22 470.02 54.36 C 460.37 54.03 450.35 54.58 441.47 58.72 C 431.76 64.75 431.00 78.40 421.03 84.26 C 421.46 81.35 422.90 78.79 424.36 76.30 C 427.26 71.34 428.64 65.72 430.57 60.36 C 433.58 52.10 430.89 42.82 426.28 35.68 C 420.41 26.55 410.66 21.21 402.25 14.81 C 400.53 13.41 398.72 12.14 396.93 10.84 Z" />
<path fill="#562a1c" opacity="1.00" d=" M 400.92 11.08 C 401.48 11.35 402.60 11.89 403.16 12.15 C 402.60 11.89 401.48 11.35 400.92 11.08 Z" />
<path fill="#562a1c" opacity="1.00" d=" M 185.73 13.00 C 190.29 11.96 194.98 11.95 199.63 12.17 C 195.08 13.32 190.37 12.89 185.73 13.00 Z" />
<path fill="#562a1c" opacity="1.00" d=" M 403.70 12.23 C 405.80 12.21 407.76 12.99 409.51 14.11 C 407.33 14.59 404.86 14.40 403.70 12.23 Z" />
<path fill="#562a1c" opacity="1.00" d=" M 171.96 15.13 C 176.19 14.03 180.62 13.77 184.95 13.13 C 180.78 14.70 176.35 14.97 171.96 15.13 Z" />
<path fill="#562a1c" opacity="1.00" d=" M 410.31 14.44 C 410.50 14.53 410.88 14.71 411.08 14.79 C 410.88 14.71 410.50 14.53 410.31 14.44 Z" />
<path fill="#562a1c" opacity="1.00" d=" M 160.61 18.07 C 164.20 16.63 167.90 15.51 171.73 14.92 C 168.28 16.73 164.42 17.47 160.61 18.07 Z" />
<path fill="#562a1c" opacity="1.00" d=" M 411.87 15.18 C 412.03 15.26 412.33 15.42 412.48 15.49 C 412.33 15.42 412.03 15.26 411.87 15.18 Z" />
<path fill="#718f73" opacity="1.00" d=" M 412.88 15.71 C 420.72 19.82 427.37 26.16 432.15 33.60 C 426.67 26.69 420.38 20.42 412.88 15.71 Z" />
<path fill="#562a1c" opacity="1.00" d=" M 157.99 19.22 C 158.55 18.95 159.66 18.43 160.22 18.16 C 159.66 18.43 158.55 18.95 157.99 19.22 Z" />
<path fill="#562a1c" opacity="1.00" d=" M 154.58 20.14 C 155.25 19.90 156.60 19.41 157.28 19.17 C 156.60 19.41 155.25 19.90 154.58 20.14 Z" />
<path fill="#562a1c" opacity="1.00" d=" M 153.31 20.69 C 153.45 20.63 153.73 20.50 153.88 20.44 C 153.73 20.50 153.45 20.63 153.31 20.69 Z" />
<path fill="#562a1c" opacity="1.00" d=" M 147.89 23.02 C 149.23 21.79 150.95 21.19 152.74 20.95 C 151.86 22.84 149.85 23.69 147.89 23.02 Z" />
<path fill="#562a1c" opacity="1.00" d=" M 144.97 24.16 C 145.53 23.89 146.64 23.35 147.19 23.08 C 146.64 23.35 145.53 23.89 144.97 24.16 Z" />
<path fill="#718f73" opacity="1.00" d=" M 85.78 24.65 C 89.39 25.33 93.01 26.04 96.57 26.94 C 93.60 26.55 90.63 26.17 87.64 25.92 C 91.78 29.99 97.56 31.54 102.96 33.17 C 106.49 34.03 110.05 35.47 113.74 35.02 C 112.64 35.69 111.59 36.43 110.50 37.13 C 99.23 40.92 86.80 40.99 75.31 38.15 C 84.48 39.38 93.86 40.51 103.03 38.61 C 105.57 37.94 108.74 37.93 110.47 35.65 C 101.93 33.06 91.85 31.93 85.78 24.65 Z" />
<path fill="#562a1c" opacity="1.00" d=" M 141.89 24.95 C 142.47 24.73 143.62 24.29 144.20 24.07 C 143.62 24.29 142.47 24.73 141.89 24.95 Z" />
<path fill="#562a1c" opacity="1.00" d=" M 133.28 28.10 C 136.05 27.11 138.81 26.09 141.58 25.10 C 139.14 26.89 136.38 28.16 133.28 28.10 Z" />
<path fill="#000000" opacity="1.00" d=" M 87.64 25.92 C 90.63 26.17 93.60 26.55 96.57 26.94 L 96.93 27.00 C 97.49 27.26 98.60 27.79 99.16 28.05 L 99.39 28.12 C 105.64 31.13 112.85 29.77 119.49 31.27 L 119.37 31.49 C 118.80 32.36 118.12 33.15 117.40 33.90 C 116.18 34.27 114.96 34.65 113.74 35.02 C 110.05 35.47 106.49 34.03 102.96 33.17 C 97.56 31.54 91.78 29.99 87.64 25.92 Z" />
<path fill="#562a1c" opacity="1.00" d=" M 96.93 27.00 C 97.49 27.26 98.60 27.79 99.16 28.05 C 98.60 27.79 97.49 27.26 96.93 27.00 Z" />
<path fill="#562a1c" opacity="1.00" d=" M 99.39 28.12 C 106.01 29.78 112.99 29.07 119.49 31.27 C 112.85 29.77 105.64 31.13 99.39 28.12 Z" />
<path fill="#fce1c1" opacity="1.00" d=" M 123.25 30.43 C 126.56 29.71 129.83 28.83 133.15 28.13 C 129.94 29.20 126.61 29.85 123.37 30.78 C 123.38 31.29 123.40 32.32 123.41 32.83 C 121.39 33.12 119.41 33.58 117.40 33.90 C 118.12 33.15 118.80 32.36 119.37 31.49 C 120.38 31.78 121.39 32.07 122.40 32.38 C 122.62 31.89 123.04 30.92 123.25 30.43 Z" />
<path fill="#718f73" opacity="1.00" d=" M 49.91 32.27 C 58.10 35.27 66.93 35.55 75.22 38.13 C 66.96 36.59 58.60 35.48 50.51 33.16 C 52.59 40.02 57.26 45.75 62.70 50.27 C 66.19 53.13 70.45 54.75 74.35 56.92 C 62.96 53.27 52.94 44.02 49.91 32.27 Z" />
<path fill="#000000" opacity="1.00" d=" M 50.51 33.16 C 58.60 35.48 66.96 36.59 75.22 38.13 L 75.31 38.15 C 86.80 40.99 99.23 40.92 110.50 37.13 C 111.33 38.70 112.49 40.55 111.39 42.31 C 103.51 46.03 94.53 45.45 86.05 45.36 C 76.85 44.92 67.67 42.84 59.22 39.16 C 62.19 42.07 64.90 45.32 68.47 47.52 C 76.48 52.04 85.16 55.26 93.86 58.19 C 93.36 59.38 92.81 60.55 92.28 61.73 C 91.07 61.54 89.86 61.35 88.65 61.14 L 87.99 61.00 C 83.59 59.30 79.10 57.84 74.46 56.97 L 74.35 56.92 C 70.45 54.75 66.19 53.13 62.70 50.27 C 57.26 45.75 52.59 40.02 50.51 33.16 Z" />
<path fill="#ffffff" opacity="1.00" d=" M 432.27 33.77 C 434.09 35.27 434.81 37.47 434.95 39.77 L 434.38 39.47 C 432.73 38.02 432.26 35.87 432.27 33.77 Z" />
<path fill="#562a1c" opacity="1.00" d=" M 435.31 40.34 C 435.40 40.49 435.58 40.78 435.67 40.93 C 435.58 40.78 435.40 40.49 435.31 40.34 Z" />
<path fill="#562a1c" opacity="1.00" d=" M 436.15 41.70 L 436.57 42.08 L 436.68 42.53 C 436.55 42.32 436.28 41.91 436.15 41.70 Z" />
<path fill="#562a1c" opacity="1.00" d=" M 437.43 45.28 C 437.43 45.42 437.41 45.70 437.41 45.84 L 437.45 45.53 L 437.43 45.28 Z" />
<path fill="#562a1c" opacity="1.00" d=" M 439.29 52.56 C 450.14 49.10 461.79 46.94 473.12 49.01 C 469.06 49.00 465.01 49.00 460.96 49.02 C 453.33 49.10 445.97 51.35 438.76 53.63 C 438.58 51.90 438.37 50.18 438.14 48.45 C 438.49 49.83 438.87 51.20 439.29 52.56 Z" />
<path fill="#718f73" opacity="1.00" d=" M 473.36 49.07 C 477.23 50.16 480.92 51.83 484.38 53.87 C 480.60 52.51 476.92 50.91 473.36 49.07 Z" />
<path fill="#562a1c" opacity="1.00" d=" M 484.54 53.94 C 486.10 54.76 487.34 55.98 488.40 57.37 C 484.07 58.14 479.70 58.72 475.30 58.86 C 478.94 58.04 482.59 57.28 486.29 56.81 C 485.71 55.85 485.12 54.89 484.54 53.94 Z" />
<path fill="#562a1c" opacity="1.00" d=" M 74.46 56.97 C 79.10 57.84 83.59 59.30 87.99 61.00 C 83.31 60.29 78.76 58.93 74.46 56.97 Z" />
<path fill="#718f73" opacity="1.00" d=" M 462.77 62.17 C 466.42 60.49 470.30 59.34 474.32 59.02 C 470.75 59.89 467.23 60.92 463.74 62.07 C 465.24 63.43 466.82 64.72 468.29 66.11 C 466.42 64.83 464.54 63.58 462.77 62.17 Z" />
<path fill="#000000" opacity="1.00" d=" M 85.20 72.53 C 87.77 69.87 88.03 65.42 91.39 63.60 C 89.47 69.46 87.23 75.23 84.68 80.84 C 82.33 86.03 78.29 90.15 74.10 93.91 C 82.39 90.32 91.05 87.59 99.99 86.21 C 97.17 91.99 94.29 98.05 89.29 102.29 C 85.91 105.31 82.54 108.36 79.49 111.73 C 84.45 109.85 89.37 107.75 93.74 104.71 C 97.67 102.26 101.40 99.22 105.98 98.08 C 104.17 101.16 101.90 103.93 99.63 106.67 C 97.19 109.46 96.41 113.24 94.20 116.19 C 90.55 120.76 87.26 125.84 82.07 128.85 C 83.75 127.99 85.43 127.14 87.11 126.30 C 87.90 127.15 88.66 128.03 89.39 128.94 C 89.67 133.05 86.13 135.87 83.86 138.85 C 75.44 148.40 68.35 159.03 62.20 170.17 C 58.42 176.94 54.15 183.56 51.95 191.07 C 57.89 184.33 63.70 177.24 71.29 172.27 C 77.02 168.90 82.37 164.21 89.13 163.13 C 86.96 166.38 83.65 168.53 80.68 170.96 C 81.49 175.70 77.41 178.79 75.75 182.78 C 71.67 190.62 70.02 199.36 68.06 207.89 C 72.41 201.38 75.53 193.83 81.71 188.74 C 84.54 186.45 87.17 183.51 90.94 182.87 C 90.30 187.85 85.72 190.75 83.16 194.72 C 95.10 189.23 109.70 188.54 118.96 178.17 C 117.90 180.85 116.64 183.52 114.48 185.49 C 109.04 190.66 102.11 193.92 95.13 196.47 C 95.90 206.80 98.15 216.95 99.50 227.21 C 105.50 229.75 108.44 235.75 112.56 240.37 C 114.83 225.15 117.49 209.99 120.18 194.84 C 120.87 190.39 125.12 187.95 127.81 184.73 C 138.16 173.38 146.45 160.37 156.10 148.44 C 150.47 148.21 143.81 149.02 139.50 144.57 C 144.27 143.71 148.95 145.76 153.73 145.04 C 160.56 144.19 167.76 144.27 174.06 141.12 C 178.04 139.01 183.10 138.78 186.16 135.18 C 189.91 131.27 193.71 127.23 198.81 125.11 C 193.13 123.71 185.88 123.25 182.85 117.39 C 186.65 117.37 190.11 119.27 193.88 119.40 C 198.97 119.63 204.08 119.80 209.10 120.79 C 206.05 119.64 202.74 118.53 201.00 115.54 C 214.59 116.93 228.30 117.90 241.95 116.82 C 245.65 116.57 249.26 117.53 252.79 118.47 L 253.36 118.31 C 253.02 119.09 252.70 119.88 252.40 120.68 C 243.48 122.44 234.28 121.65 225.27 121.25 C 227.65 122.65 227.72 125.30 226.37 127.51 C 221.42 128.39 216.32 126.51 211.50 128.15 C 207.31 129.36 202.76 129.54 198.93 131.80 C 193.71 134.42 190.31 139.71 184.64 141.59 C 177.25 145.41 169.40 149.12 160.83 148.37 C 152.59 159.15 146.79 171.58 138.07 182.01 C 134.65 186.31 131.21 190.59 127.59 194.73 C 126.25 196.14 125.68 198.04 125.40 199.92 C 122.09 219.18 118.24 238.43 117.38 257.99 C 117.12 271.33 117.24 284.67 117.27 298.02 C 116.61 325.52 127.32 351.65 139.20 375.94 C 145.96 389.06 154.04 401.89 165.49 411.43 C 173.06 418.91 180.99 426.19 190.21 431.60 C 196.41 434.72 202.36 438.54 209.21 440.14 C 218.61 443.67 228.45 445.72 238.16 448.21 C 250.10 449.35 262.00 451.22 273.99 451.72 C 294.53 452.40 315.04 448.41 334.21 441.19 C 357.00 433.80 379.58 424.46 398.70 409.77 C 404.89 404.98 410.80 399.52 414.76 392.69 C 419.71 384.55 424.08 376.08 428.79 367.80 C 433.12 360.05 435.03 351.31 437.44 342.85 C 438.31 339.58 439.70 336.45 440.27 333.10 C 441.60 324.00 444.04 315.11 445.26 305.99 C 445.95 298.65 447.72 291.46 447.69 284.07 C 449.97 271.83 450.21 259.36 450.92 246.97 C 451.70 239.69 451.98 232.34 451.50 225.03 C 451.00 220.68 449.95 216.42 449.43 212.08 C 445.87 216.32 442.61 222.45 436.33 222.53 C 437.54 216.28 439.79 210.28 440.74 203.97 C 442.11 197.49 441.72 190.84 441.65 184.28 C 440.76 184.68 439.88 185.08 439.01 185.48 C 438.46 185.11 437.36 184.37 436.81 184.00 C 435.98 180.50 435.18 176.99 434.39 173.48 C 433.08 173.63 431.76 173.80 430.44 173.85 C 428.06 168.28 426.57 161.82 421.92 157.63 C 425.98 155.81 428.81 161.29 430.09 163.48 C 431.72 161.86 434.37 160.80 436.16 162.84 C 439.41 166.65 439.94 171.89 441.19 176.57 C 441.93 176.50 443.42 176.35 444.16 176.28 C 448.81 185.14 448.49 195.49 446.36 205.01 C 450.62 199.58 452.07 192.66 453.51 186.08 C 453.68 184.35 455.00 183.34 456.54 182.72 C 457.06 190.26 455.68 197.69 454.18 205.03 C 456.98 220.24 459.40 235.65 459.40 251.18 C 463.09 247.99 467.01 244.59 471.96 243.65 C 476.81 242.94 481.84 242.96 486.56 244.44 C 488.97 231.40 489.96 218.01 494.35 205.40 C 495.99 199.64 499.00 194.08 498.78 187.94 C 498.71 182.38 497.11 177.01 496.10 171.58 C 493.61 159.16 490.91 146.68 490.50 133.97 C 490.32 127.88 488.12 122.09 487.61 116.03 C 487.15 110.51 486.53 105.00 486.02 99.48 C 486.58 99.46 487.71 99.40 488.27 99.38 C 491.55 105.23 491.10 112.19 492.89 118.51 L 492.92 118.70 C 493.24 123.85 494.30 128.90 495.11 133.98 C 497.23 146.38 499.04 158.83 501.73 171.12 C 502.89 177.05 504.53 182.95 504.48 189.03 C 504.43 194.38 502.07 199.28 500.89 204.40 L 500.79 204.70 C 500.57 205.28 500.14 206.43 499.93 207.01 L 499.84 207.32 C 496.56 215.55 495.56 224.40 494.08 233.06 C 493.38 237.73 492.55 242.39 492.17 247.09 C 491.81 249.57 493.80 251.43 494.90 253.43 L 495.11 253.79 C 495.32 254.38 495.74 255.54 495.95 256.13 L 495.99 256.58 C 496.06 263.11 495.64 269.68 496.69 276.15 C 495.32 285.97 493.35 295.97 488.14 304.56 C 486.56 304.62 485.87 305.52 486.07 307.26 L 485.97 307.41 C 482.91 310.93 480.30 314.81 477.14 318.25 C 471.87 324.02 465.60 328.74 459.57 333.66 C 455.62 337.06 450.14 336.93 445.25 337.09 C 444.83 339.19 444.42 341.30 444.00 343.41 L 443.92 343.74 C 442.59 344.46 442.21 345.56 442.76 347.04 L 442.84 347.66 C 442.59 348.22 442.08 349.35 441.83 349.91 L 441.93 350.79 C 441.65 351.33 441.09 352.43 440.81 352.98 L 440.85 353.73 C 440.62 354.40 440.14 355.73 439.90 356.40 L 439.59 357.18 C 439.53 357.32 439.41 357.60 439.35 357.74 L 439.04 358.48 C 438.77 359.12 438.24 360.42 437.97 361.07 L 437.34 362.58 C 437.28 362.71 437.17 362.98 437.11 363.11 L 436.68 364.06 C 436.58 364.26 436.39 364.65 436.29 364.85 L 435.80 365.77 L 435.63 366.08 L 435.54 366.29 L 434.47 368.52 L 434.35 368.75 L 434.20 369.09 L 433.73 370.10 C 433.64 370.30 433.44 370.70 433.35 370.90 L 432.90 371.83 C 432.75 372.14 432.44 372.76 432.29 373.07 L 431.77 374.04 C 431.68 374.19 431.50 374.50 431.42 374.65 L 431.03 375.29 C 428.78 375.88 427.63 377.90 428.01 380.15 L 427.92 380.53 C 425.75 380.86 424.68 383.15 425.18 385.16 L 425.03 385.35 C 422.00 389.42 419.42 393.81 417.00 398.27 L 416.98 398.52 C 413.97 401.72 411.53 405.41 408.51 408.61 C 403.49 414.02 397.33 418.16 391.63 422.80 L 391.18 422.99 C 388.32 424.24 385.80 426.10 383.34 428.01 L 383.16 428.13 C 380.67 427.63 378.42 428.75 377.33 431.06 L 376.72 431.33 C 376.58 431.39 376.29 431.52 376.15 431.59 L 375.49 431.88 C 373.40 431.27 371.25 432.04 370.38 434.11 L 369.73 434.37 C 369.59 434.43 369.32 434.55 369.19 434.61 L 368.43 434.87 C 367.76 435.12 366.42 435.61 365.75 435.85 L 365.02 435.84 C 364.46 436.08 363.32 436.56 362.76 436.80 L 362.42 436.91 C 359.89 437.33 357.54 438.37 355.49 439.90 L 355.40 439.89 C 352.48 440.32 349.69 441.34 347.19 442.91 L 346.61 443.22 L 346.11 443.54 C 345.85 448.69 345.38 453.82 344.96 458.96 C 348.52 458.44 352.01 457.32 355.62 457.16 C 356.47 457.89 357.27 458.68 358.03 459.53 C 358.06 459.78 358.13 460.28 358.17 460.53 C 357.97 469.00 356.40 477.43 357.16 485.93 C 357.77 492.29 357.41 498.72 358.16 505.06 C 358.58 508.67 362.54 509.95 364.75 512.32 C 370.44 518.05 374.68 525.49 381.95 529.49 C 382.26 529.79 382.88 530.38 383.18 530.68 C 383.11 531.47 382.96 533.05 382.88 533.83 C 373.71 543.28 361.90 549.41 350.85 556.30 L 350.54 556.48 C 350.41 556.55 350.14 556.69 350.00 556.76 L 349.11 557.24 C 348.82 557.38 348.23 557.67 347.94 557.81 L 346.92 558.31 C 346.72 558.42 346.30 558.63 346.09 558.73 L 345.08 559.24 C 344.78 559.39 344.17 559.68 343.87 559.82 L 342.81 560.35 C 342.60 560.46 342.16 560.68 341.95 560.79 L 341.13 561.19 C 340.98 561.27 340.67 561.42 340.52 561.49 L 340.13 561.68 C 327.60 566.60 315.43 572.91 302.02 575.16 C 287.20 577.44 271.95 576.26 257.59 572.00 L 257.17 571.86 C 256.60 571.60 255.48 571.08 254.92 570.82 L 254.38 570.75 C 253.45 568.83 251.28 568.46 249.39 568.88 L 248.74 568.58 C 248.57 568.50 248.23 568.34 248.06 568.26 L 247.10 567.81 C 246.79 567.66 246.17 567.36 245.86 567.21 L 245.00 566.75 C 244.87 566.68 244.61 566.54 244.48 566.47 L 244.20 566.31 C 241.49 564.29 238.63 562.48 235.59 561.01 L 235.50 560.98 C 224.85 552.91 214.18 544.81 204.35 535.74 C 201.78 533.64 200.79 528.95 203.71 526.75 C 207.79 523.08 210.86 518.52 214.19 514.21 C 216.67 510.89 217.76 506.81 218.15 502.74 L 218.18 502.63 C 221.59 494.65 217.84 486.20 218.05 477.98 C 218.13 473.42 217.86 468.84 218.26 464.30 C 218.43 462.24 219.55 459.81 221.88 459.63 C 223.97 459.72 226.02 460.16 228.07 460.55 C 227.52 457.45 226.99 454.35 226.13 451.33 C 225.96 451.28 225.62 451.19 225.45 451.15 C 222.35 450.49 219.25 449.84 216.23 448.88 L 215.93 448.04 C 215.45 448.02 214.50 447.97 214.03 447.95 L 213.63 447.82 C 208.39 445.35 202.51 444.57 197.41 441.76 C 194.25 440.03 191.04 438.37 187.67 437.07 L 187.51 436.99 C 183.61 434.03 179.46 431.40 175.78 428.17 C 172.05 425.07 168.76 421.40 164.53 418.96 L 164.35 418.82 C 157.44 412.09 150.79 405.10 145.00 397.37 L 144.96 397.32 C 145.15 395.75 144.52 394.81 143.07 394.50 L 143.01 394.35 C 141.31 390.87 139.35 387.53 137.03 384.43 L 136.98 384.38 C 134.21 378.33 131.32 372.34 128.12 366.52 L 128.07 366.40 C 126.74 362.34 124.98 358.46 123.09 354.64 L 123.05 354.53 C 121.99 349.65 120.46 344.84 118.05 340.45 L 118.08 340.35 C 116.79 334.97 115.30 329.64 113.83 324.30 C 105.83 325.52 96.46 325.98 90.10 320.05 C 82.67 313.44 82.08 302.90 78.16 294.33 L 78.05 293.99 C 77.83 293.42 77.37 292.26 77.15 291.69 L 77.22 291.06 C 76.97 290.49 76.48 289.35 76.24 288.79 L 76.14 288.50 C 72.56 274.13 65.78 259.57 68.95 244.47 L 69.03 244.32 C 71.96 238.69 75.93 233.61 81.34 230.18 L 81.84 230.06 C 83.95 229.81 86.44 229.28 87.34 227.08 L 87.78 227.03 C 89.69 226.94 91.61 226.88 93.53 226.82 C 93.10 219.77 91.32 212.91 90.58 205.91 C 90.15 203.64 90.15 201.15 88.89 199.15 C 87.02 198.54 85.25 200.26 83.50 200.80 L 83.41 200.82 C 81.28 201.40 78.70 201.30 77.10 203.06 C 75.74 204.67 74.94 206.64 73.96 208.48 L 73.86 208.60 C 68.00 213.45 65.65 221.04 60.50 226.40 C 60.50 222.48 62.15 218.92 63.87 215.51 C 63.39 215.09 62.44 214.25 61.97 213.82 C 61.76 207.30 64.28 201.15 64.99 194.73 L 65.09 194.50 C 66.56 191.73 67.66 188.77 67.94 185.63 L 68.10 185.10 C 69.00 183.12 69.85 181.11 70.86 179.19 C 69.30 180.95 67.69 182.68 65.97 184.29 C 65.85 184.39 65.62 184.59 65.50 184.69 C 63.10 186.34 61.26 188.62 59.52 190.93 L 59.34 191.08 C 54.41 193.98 51.81 199.27 47.97 203.30 C 47.94 201.12 47.98 198.94 48.14 196.77 C 47.40 195.81 46.65 194.85 45.90 193.90 C 46.32 186.15 50.88 179.62 53.99 172.77 L 53.98 172.62 C 55.66 170.52 56.92 168.13 57.98 165.67 L 58.04 165.57 C 62.54 158.70 66.79 151.66 71.36 144.82 C 71.48 144.66 71.71 144.33 71.82 144.16 C 73.18 142.38 74.57 140.62 75.97 138.87 C 74.16 139.95 72.32 140.98 70.48 142.02 L 70.39 142.01 C 64.71 143.85 58.94 150.01 52.76 146.69 C 54.72 145.14 56.68 143.61 58.53 141.94 L 58.75 141.75 C 60.58 142.57 62.83 141.08 62.29 139.01 C 62.66 138.80 63.39 138.37 63.76 138.16 C 65.97 137.93 68.41 136.64 68.16 134.07 C 68.52 133.80 69.25 133.26 69.61 132.99 C 72.85 130.74 75.74 128.04 78.32 125.06 C 78.79 124.67 79.73 123.90 80.20 123.51 C 80.26 123.46 80.39 123.37 80.45 123.32 L 80.61 123.17 C 83.21 121.37 85.72 119.39 87.61 116.81 C 87.75 116.67 88.03 116.38 88.17 116.23 C 90.13 114.42 92.20 112.72 94.19 110.94 C 89.63 112.71 85.13 114.63 80.77 116.84 L 80.65 116.88 C 76.36 117.87 72.15 119.36 68.57 121.99 L 68.41 122.07 C 65.55 122.55 62.67 122.81 59.79 123.07 C 61.77 121.16 63.60 119.10 65.43 117.05 C 65.74 116.79 66.36 116.29 66.67 116.03 C 72.80 111.26 78.30 105.60 83.28 99.65 C 83.40 99.50 83.65 99.21 83.78 99.06 C 85.11 97.69 86.49 96.37 87.88 95.07 C 86.06 95.71 84.24 96.36 82.40 96.92 L 82.11 96.93 C 80.31 96.18 78.22 96.86 77.67 98.85 L 77.51 98.91 C 71.83 100.45 66.48 103.32 60.48 103.51 C 63.64 99.64 67.96 96.98 71.18 93.18 C 73.52 90.53 75.44 87.55 77.16 84.47 C 79.44 80.27 82.58 76.64 85.13 72.61 L 85.20 72.53 M 73.74 249.87 C 72.83 257.37 75.25 264.73 77.12 271.90 C 78.04 277.12 80.08 282.02 81.85 286.98 L 82.16 287.59 C 83.76 293.04 85.90 298.33 87.42 303.82 C 89.04 309.34 91.50 315.44 97.07 318.01 C 101.93 319.94 107.53 320.16 112.49 318.43 C 110.82 313.38 111.18 307.90 109.43 302.91 C 109.02 302.50 108.20 301.69 107.79 301.29 C 104.23 296.20 98.31 293.47 94.62 288.45 C 89.55 282.42 90.78 273.99 87.76 267.14 C 87.70 261.44 87.00 255.70 87.66 250.02 C 88.82 244.75 95.57 243.57 99.91 245.31 C 104.20 246.80 106.44 251.00 109.56 253.96 C 109.68 256.13 110.33 259.59 106.93 258.51 C 103.58 255.44 100.15 252.37 96.03 250.36 C 95.40 250.70 94.12 251.38 93.48 251.72 C 93.47 256.42 93.24 261.18 94.22 265.82 C 94.55 271.01 95.63 276.13 96.91 281.16 C 100.17 286.99 106.42 290.17 110.65 295.11 C 110.66 285.15 110.51 275.19 110.74 265.23 L 111.26 266.17 C 111.43 260.81 112.24 255.44 111.55 250.09 C 107.72 244.41 104.67 237.94 99.16 233.65 C 95.99 231.98 92.29 232.36 88.85 232.57 C 81.49 235.46 75.42 242.07 73.74 249.87 M 472.53 249.73 C 467.11 251.74 463.03 256.05 458.98 260.00 C 457.09 261.93 454.79 263.97 454.67 266.87 C 453.98 273.91 454.84 280.99 454.20 288.04 C 452.68 293.18 452.82 298.65 451.41 303.81 C 452.76 302.30 454.24 300.90 455.90 299.73 C 460.91 297.87 466.61 296.56 469.89 291.94 C 470.89 290.07 471.60 288.07 471.99 285.99 C 472.44 284.01 472.66 282.00 472.86 280.00 C 473.64 277.73 473.55 275.28 474.24 273.00 C 474.39 271.04 474.09 269.11 473.52 267.24 C 471.68 267.28 469.82 267.14 468.02 267.55 C 465.34 268.29 463.15 270.26 460.38 270.73 C 461.59 264.53 467.88 260.12 474.09 260.63 C 475.84 261.58 477.86 262.36 478.94 264.15 C 481.04 267.76 480.40 272.10 480.22 276.07 C 478.83 281.01 478.55 286.18 477.20 291.13 C 474.69 297.05 469.75 301.88 463.44 303.55 C 457.99 304.71 454.61 309.38 450.51 312.72 C 449.06 318.90 447.29 325.10 447.07 331.48 C 448.38 331.39 449.70 331.30 451.02 331.23 C 452.82 330.71 454.78 330.45 456.22 329.15 C 459.88 326.16 463.56 323.21 467.15 320.14 C 472.87 315.53 477.20 309.49 481.40 303.52 C 485.47 298.10 487.71 291.52 488.93 284.91 C 489.23 283.23 489.58 281.56 489.89 279.90 C 491.32 274.39 490.35 268.62 490.62 263.00 C 491.15 258.88 488.49 255.51 487.20 251.83 C 485.87 251.07 484.54 250.33 483.21 249.59 C 479.66 249.44 476.05 249.07 472.53 249.73 M 339.30 446.22 C 338.19 446.49 337.08 446.73 335.97 446.96 C 334.38 447.79 332.71 448.43 331.04 449.07 C 329.74 449.45 328.45 449.79 327.14 450.10 C 326.15 450.49 325.15 450.83 324.13 451.12 C 317.27 453.49 309.99 454.06 303.09 456.20 C 298.06 456.49 293.13 457.70 288.07 457.53 C 282.43 458.52 276.68 458.55 270.98 458.18 C 258.20 455.99 244.98 456.00 232.24 453.19 C 233.51 455.72 233.55 458.57 233.75 461.34 C 235.19 461.49 236.63 461.65 238.07 461.85 C 264.75 465.81 292.15 465.61 318.84 461.80 C 325.74 461.29 332.54 460.00 339.43 459.36 C 339.41 454.60 339.83 449.88 340.36 445.16 C 340.09 445.42 339.57 445.96 339.30 446.22 M 294.42 470.46 C 294.04 480.62 294.83 490.79 294.26 500.95 C 294.54 513.98 293.34 526.96 293.15 539.98 C 291.91 550.19 292.34 560.49 292.24 570.76 C 308.30 569.80 323.16 563.04 337.50 556.30 C 351.11 549.80 364.59 542.52 376.07 532.65 C 370.74 528.39 366.62 522.89 362.28 517.69 C 359.26 514.17 353.84 512.46 352.91 507.41 C 351.17 497.04 351.85 486.48 351.65 476.02 C 351.49 471.70 352.24 467.44 352.75 463.18 C 333.48 466.75 313.94 468.79 294.42 470.46 M 223.60 465.24 C 223.67 469.84 223.55 474.45 223.64 479.05 C 223.79 485.98 226.44 492.89 224.81 499.82 C 223.98 503.11 223.35 506.44 222.58 509.75 C 220.07 518.32 212.54 524.21 208.25 531.63 C 221.68 543.39 235.25 555.53 251.49 563.31 C 262.39 568.14 274.34 571.00 286.28 570.73 C 285.70 552.79 287.77 534.94 287.84 517.02 C 288.65 501.59 288.63 486.14 288.44 470.69 C 273.59 470.90 258.70 470.69 243.94 468.89 C 237.13 467.71 230.08 467.97 223.60 465.24 Z" />
<path fill="#718f73" opacity="1.00" d=" M 468.42 66.10 C 476.22 70.91 483.75 76.28 490.44 82.56 C 493.74 86.05 497.42 89.57 498.98 94.23 C 492.09 81.74 479.40 74.47 468.42 66.10 Z" />
<path fill="#718f73" opacity="1.00" d=" M 66.27 97.31 C 74.63 90.75 77.87 80.12 85.13 72.61 C 82.58 76.64 79.44 80.27 77.16 84.47 C 75.44 87.55 73.52 90.53 71.18 93.18 C 67.96 96.98 63.64 99.64 60.48 103.51 C 66.48 103.32 71.83 100.45 77.51 98.91 C 71.93 101.22 66.19 104.12 59.99 103.82 C 60.89 100.84 64.25 99.48 66.27 97.31 Z" />
<path fill="#000000" opacity="1.00" d=" M 277.99 84.39 C 285.30 83.14 293.04 83.02 300.10 85.57 C 306.12 87.73 311.98 90.32 317.69 93.19 C 322.09 95.19 326.24 98.06 328.84 102.22 C 329.86 103.59 329.37 105.36 329.42 106.93 C 326.54 104.32 324.02 101.11 320.29 99.66 C 310.48 95.90 301.02 91.29 291.04 87.96 C 286.77 86.52 282.53 84.72 277.99 84.39 Z" />
<path fill="#ffffff" opacity="1.00" d=" M 82.40 96.92 C 84.24 96.36 86.06 95.71 87.88 95.07 C 86.49 96.37 85.11 97.69 83.78 99.06 C 83.91 98.53 84.16 97.47 84.29 96.93 L 82.40 96.92 Z" />
<path fill="#562a1c" opacity="1.00" d=" M 499.03 94.43 C 499.41 98.15 500.84 101.58 503.08 104.56 C 501.58 102.80 499.59 101.27 498.88 98.99 C 498.88 97.47 498.93 95.95 499.03 94.43 Z" />
<path fill="#562a1c" opacity="1.00" d=" M 77.67 98.85 C 78.22 96.86 80.31 96.18 82.11 96.93 C 80.90 98.09 79.34 98.75 77.67 98.85 Z" />
<path fill="#ffffff" opacity="1.00" d=" M 488.27 99.38 C 488.55 99.37 489.11 99.35 489.39 99.34 C 490.43 99.93 491.43 100.59 492.43 101.27 C 491.73 101.10 490.34 100.76 489.64 100.58 C 491.10 106.49 491.95 112.51 492.89 118.51 C 491.10 112.19 491.55 105.23 488.27 99.38 Z" />
<path fill="#718f73" opacity="1.00" d=" M 66.67 116.03 C 72.33 110.69 77.70 105.07 83.28 99.65 C 78.30 105.60 72.80 111.26 66.67 116.03 Z" />
<path fill="#000000" opacity="1.00" d=" M 397.40 113.39 C 401.00 109.96 403.73 105.78 406.81 101.92 C 406.74 105.06 406.34 108.20 405.27 111.16 C 402.58 118.96 401.34 127.22 401.29 135.46 C 408.19 140.87 409.54 150.05 410.67 158.18 C 412.57 152.61 412.82 146.29 416.32 141.40 C 417.29 145.53 417.35 149.79 417.11 154.01 C 416.66 158.11 414.94 161.92 413.13 165.58 C 412.47 165.65 411.16 165.78 410.51 165.85 C 409.94 167.20 409.37 168.56 408.82 169.92 C 414.15 174.57 417.66 180.87 419.54 187.64 C 414.30 184.97 409.81 181.00 404.29 178.88 C 397.33 175.95 390.48 172.40 382.93 171.25 C 376.02 169.95 368.97 170.63 361.99 170.45 C 355.93 170.21 350.05 171.88 344.07 172.58 C 338.16 173.22 332.77 176.09 326.81 176.48 C 326.10 174.24 324.79 171.52 326.62 169.44 C 332.51 161.66 341.62 156.68 351.08 154.70 C 358.55 152.59 366.41 153.23 374.07 153.43 C 379.51 154.42 385.22 154.92 390.16 157.61 C 394.96 160.07 399.27 163.43 404.33 165.39 C 404.52 156.64 404.73 145.44 396.69 139.86 C 394.35 134.35 395.54 127.97 396.60 122.26 C 393.49 126.38 388.47 131.00 382.94 128.44 C 379.68 121.95 371.36 121.50 364.99 121.26 C 359.32 120.76 353.60 123.37 348.05 121.60 C 346.43 121.31 346.31 119.44 345.61 118.26 C 342.70 120.21 339.86 122.25 336.91 124.14 C 336.46 122.92 336.02 121.69 335.59 120.47 C 325.15 116.40 313.75 117.98 302.86 118.46 C 292.83 119.49 282.42 122.76 272.48 119.44 C 272.44 119.02 272.36 118.17 272.32 117.75 C 267.92 118.70 263.55 117.16 259.21 116.59 C 253.22 115.27 246.66 115.08 241.39 111.65 C 238.93 110.29 239.43 107.38 239.47 105.04 C 242.06 107.16 244.67 109.51 248.05 110.22 C 255.77 112.87 264.04 110.82 271.89 112.63 C 272.26 113.12 273.00 114.09 273.37 114.58 C 279.22 114.63 285.12 115.17 290.92 114.24 C 300.50 112.41 310.27 111.61 320.01 111.74 C 326.50 111.78 333.10 112.80 338.95 115.74 C 343.75 111.95 348.95 108.32 355.04 107.06 C 360.71 105.94 366.52 105.30 372.30 105.56 C 364.01 108.33 355.08 110.46 348.46 116.58 C 353.98 116.56 359.42 115.24 364.96 115.54 C 372.64 115.48 381.62 116.60 386.71 123.05 C 391.02 120.73 393.89 116.66 397.40 113.39 M 336.88 167.72 C 345.27 166.93 353.45 164.14 361.95 164.61 C 369.66 164.87 377.47 163.95 385.08 165.52 C 390.64 166.37 395.71 168.91 400.99 170.68 C 396.02 168.22 391.44 165.07 386.52 162.52 C 377.56 158.72 367.62 159.12 358.09 159.39 C 350.55 160.57 342.84 162.71 336.88 167.72 Z" />
<path fill="#718f73" opacity="1.00" d=" M 493.02 101.70 C 496.80 104.51 499.99 108.01 503.79 110.81 C 503.61 108.75 503.39 106.70 503.12 104.65 C 504.30 106.88 504.26 109.44 503.99 111.88 C 500.26 108.56 496.40 105.39 493.02 101.70 Z" />
<path fill="#ffffff" opacity="1.00" d=" M 80.77 116.84 C 85.13 114.63 89.63 112.71 94.19 110.94 C 92.20 112.72 90.13 114.42 88.17 116.23 C 88.52 115.56 89.23 114.23 89.58 113.56 C 86.52 114.30 83.67 115.65 80.77 116.84 Z" />
<path fill="#fce1c1" opacity="1.00" d=" M 259.21 116.59 C 263.55 117.16 267.92 118.70 272.32 117.75 C 272.36 118.17 272.44 119.02 272.48 119.44 C 282.42 122.76 292.83 119.49 302.86 118.46 C 313.75 117.98 325.15 116.40 335.59 120.47 C 336.02 121.69 336.46 122.92 336.91 124.14 C 339.86 122.25 342.70 120.21 345.61 118.26 C 346.31 119.44 346.43 121.31 348.05 121.60 C 353.60 123.37 359.32 120.76 364.99 121.26 C 371.36 121.50 379.68 121.95 382.94 128.44 C 388.47 131.00 393.49 126.38 396.60 122.26 C 395.54 127.97 394.35 134.35 396.69 139.86 C 404.73 145.44 404.52 156.64 404.33 165.39 C 399.27 163.43 394.96 160.07 390.16 157.61 C 385.22 154.92 379.51 154.42 374.07 153.43 C 366.41 153.23 358.55 152.59 351.08 154.70 C 341.62 156.68 332.51 161.66 326.62 169.44 C 324.79 171.52 326.10 174.24 326.81 176.48 C 332.77 176.09 338.16 173.22 344.07 172.58 C 350.05 171.88 355.93 170.21 361.99 170.45 C 368.97 170.63 376.02 169.95 382.93 171.25 C 390.48 172.40 397.33 175.95 404.29 178.88 C 409.81 181.00 414.30 184.97 419.54 187.64 C 417.66 180.87 414.15 174.57 408.82 169.92 C 409.37 168.56 409.94 167.20 410.51 165.85 C 411.16 165.78 412.47 165.65 413.13 165.58 C 414.94 161.92 416.66 158.11 417.11 154.01 C 418.57 155.25 420.94 156.43 421.92 157.63 C 426.57 161.82 428.06 168.28 430.44 173.85 C 431.76 173.80 433.08 173.63 434.39 173.48 C 435.18 176.99 435.98 180.50 436.81 184.00 C 437.36 184.37 438.46 185.11 439.01 185.48 C 439.88 185.08 440.76 184.68 441.65 184.28 C 441.72 190.84 442.11 197.49 440.74 203.97 C 439.79 210.28 437.54 216.28 436.33 222.53 C 442.61 222.45 445.87 216.32 449.43 212.08 C 449.95 216.42 451.00 220.68 451.50 225.03 C 451.98 232.34 451.70 239.69 450.92 246.97 C 450.21 259.36 449.97 271.83 447.69 284.07 C 447.72 291.46 445.95 298.65 445.26 305.99 C 444.04 315.11 441.60 324.00 440.27 333.10 C 439.70 336.45 438.31 339.58 437.44 342.85 C 435.03 351.31 433.12 360.05 428.79 367.80 C 424.08 376.08 419.71 384.55 414.76 392.69 C 410.80 399.52 404.89 404.98 398.70 409.77 C 379.58 424.46 357.00 433.80 334.21 441.19 C 315.04 448.41 294.53 452.40 273.99 451.72 C 262.00 451.22 250.10 449.35 238.16 448.21 C 228.45 445.72 218.61 443.67 209.21 440.14 C 202.36 438.54 196.41 434.72 190.21 431.60 C 180.99 426.19 173.06 418.91 165.49 411.43 C 154.04 401.89 145.96 389.06 139.20 375.94 C 127.32 351.65 116.61 325.52 117.27 298.02 C 117.24 284.67 117.12 271.33 117.38 257.99 C 118.24 238.43 122.09 219.18 125.40 199.92 C 125.68 198.04 126.25 196.14 127.59 194.73 C 131.21 190.59 134.65 186.31 138.07 182.01 C 146.79 171.58 152.59 159.15 160.83 148.37 C 169.40 149.12 177.25 145.41 184.64 141.59 C 190.31 139.71 193.71 134.42 198.93 131.80 C 202.76 129.54 207.31 129.36 211.50 128.15 C 216.32 126.51 221.42 128.39 226.37 127.51 C 227.72 125.30 227.65 122.65 225.27 121.25 C 234.28 121.65 243.48 122.44 252.40 120.68 C 252.70 119.88 253.02 119.09 253.36 118.31 C 255.25 117.56 257.18 116.85 259.21 116.59 M 176.77 160.77 C 165.82 166.69 157.62 176.26 149.11 185.09 C 146.87 187.88 143.84 190.52 143.60 194.34 C 144.21 194.50 145.43 194.83 146.04 195.00 C 154.37 186.45 163.71 178.04 175.51 174.84 C 179.84 173.94 184.11 172.80 188.37 171.61 C 200.73 170.11 213.28 169.87 225.63 171.61 C 229.92 173.11 234.29 174.89 237.38 178.35 C 237.98 178.37 239.18 178.41 239.77 178.43 C 239.87 171.62 235.93 165.39 230.83 161.15 C 223.41 155.04 213.35 153.23 203.97 153.83 C 194.67 154.82 185.03 156.06 176.77 160.77 M 268.64 187.47 C 266.73 194.78 267.94 202.52 266.85 209.99 C 266.47 234.35 266.48 258.72 266.79 283.08 C 267.88 290.95 267.22 298.93 268.35 306.79 C 268.89 318.62 269.75 330.41 270.80 342.20 C 272.25 352.83 273.88 363.64 278.61 373.39 C 279.76 374.74 281.60 374.23 283.15 374.40 C 288.81 371.72 293.89 367.76 297.87 362.93 C 300.39 359.12 302.44 354.92 303.65 350.51 C 302.08 350.47 300.52 350.53 298.97 350.63 C 296.85 356.68 291.63 360.85 286.98 364.95 C 285.74 365.92 283.94 367.61 282.33 366.55 C 279.75 360.54 278.82 353.99 277.71 347.60 C 275.67 331.77 274.97 315.83 274.03 299.91 C 273.04 293.31 273.51 286.61 273.11 279.97 C 272.88 278.65 272.74 277.33 272.67 276.00 C 272.18 253.67 272.31 231.33 272.85 209.01 C 273.10 201.68 272.06 194.43 271.39 187.16 C 270.47 187.26 269.55 187.36 268.64 187.47 M 155.13 234.15 C 151.01 237.43 147.84 241.77 145.28 246.33 C 140.97 254.65 142.32 264.95 146.96 272.84 C 150.69 278.27 156.79 281.30 162.89 283.31 C 163.76 283.28 165.49 283.23 166.36 283.20 C 170.01 281.61 174.22 283.28 178.07 282.41 C 183.56 281.29 189.43 282.20 194.58 279.65 C 194.68 279.06 194.88 277.89 194.99 277.30 L 195.57 277.23 C 195.54 277.88 195.50 279.19 195.47 279.84 C 198.99 278.00 202.77 276.39 205.61 273.53 C 210.93 268.98 211.28 261.40 212.12 254.95 C 209.85 245.43 204.32 236.45 195.97 231.12 C 189.67 227.35 182.01 226.92 174.94 228.32 C 168.03 228.77 161.02 230.38 155.13 234.15 M 353.40 235.55 C 345.46 240.97 340.09 249.66 337.93 258.95 C 338.39 263.96 339.12 269.11 341.24 273.73 C 344.27 278.68 349.60 281.52 354.73 283.85 C 354.84 282.30 354.34 281.05 353.22 280.12 C 356.91 282.39 361.43 281.71 365.55 281.80 C 362.81 283.35 359.60 282.71 356.61 282.87 C 360.59 286.07 366.04 285.98 370.87 286.71 C 374.82 286.85 379.60 288.34 382.87 285.33 L 382.14 285.96 C 383.63 286.78 385.27 287.90 387.06 287.11 C 391.62 285.85 396.08 283.85 399.59 280.60 C 405.00 276.08 406.80 268.73 407.29 261.99 C 407.67 252.72 401.99 244.56 395.40 238.61 C 389.22 234.23 381.52 232.82 374.11 232.24 C 367.10 230.87 359.52 231.66 353.40 235.55 M 209.62 344.60 C 211.08 357.73 215.89 370.57 223.75 381.21 C 229.94 389.28 238.72 394.93 247.85 399.17 C 258.61 403.67 270.45 407.60 282.21 405.26 C 288.59 403.99 294.04 400.11 298.75 395.79 C 301.30 393.25 305.74 391.16 304.48 386.83 C 303.92 386.55 302.79 385.99 302.23 385.71 C 288.23 385.71 274.25 383.41 261.07 378.68 C 250.67 374.88 240.51 370.05 231.87 363.05 C 224.58 357.50 218.37 350.73 212.03 344.17 C 211.43 344.27 210.22 344.49 209.62 344.60 Z" />
<path fill="#562a1c" opacity="1.00" d=" M 59.17 123.45 C 59.35 120.30 63.44 119.15 65.43 117.05 C 63.60 119.10 61.77 121.16 59.79 123.07 C 62.67 122.81 65.55 122.55 68.41 122.07 C 65.53 123.42 62.31 123.88 59.17 123.45 Z" />
<path fill="#562a1c" opacity="1.00" d=" M 68.57 121.99 C 72.15 119.36 76.36 117.87 80.65 116.88 C 76.76 118.89 72.66 120.45 68.57 121.99 Z" />
<path fill="#562a1c" opacity="1.00" d=" M 80.61 123.17 C 82.56 120.66 85.02 118.63 87.61 116.81 C 85.72 119.39 83.21 121.37 80.61 123.17 Z" />
<path fill="#718f73" opacity="1.00" d=" M 492.92 118.70 C 496.27 136.08 498.45 153.68 502.20 170.99 C 503.31 176.64 504.72 182.28 505.08 188.05 C 505.08 193.75 502.99 199.19 500.89 204.40 C 502.07 199.28 504.43 194.38 504.48 189.03 C 504.53 182.95 502.89 177.05 501.73 171.12 C 499.04 158.83 497.23 146.38 495.11 133.98 C 494.30 128.90 493.24 123.85 492.92 118.70 Z" />
<path fill="#562a1c" opacity="1.00" d=" M 80.20 123.51 C 80.26 123.46 80.39 123.37 80.45 123.32 C 80.39 123.37 80.26 123.46 80.20 123.51 Z" />
<path fill="#718f73" opacity="1.00" d=" M 69.61 132.99 C 72.42 130.25 75.23 127.50 78.32 125.06 C 75.74 128.04 72.85 130.74 69.61 132.99 Z" />
<path fill="#718f73" opacity="1.00" d=" M 63.76 138.16 C 64.71 136.30 66.32 134.99 68.16 134.07 C 68.41 136.64 65.97 137.93 63.76 138.16 Z" />
<path fill="#562a1c" opacity="1.00" d=" M 58.75 141.75 C 59.77 140.65 60.92 139.65 62.29 139.01 C 62.83 141.08 60.58 142.57 58.75 141.75 Z" />
<path fill="#ffffff" opacity="1.00" d=" M 70.48 142.02 C 72.32 140.98 74.16 139.95 75.97 138.87 C 74.57 140.62 73.18 142.38 71.82 144.16 C 71.94 143.58 72.17 142.41 72.29 141.83 L 70.48 142.02 Z" />
<path fill="#718f73" opacity="1.00" d=" M 52.47 146.48 C 54.15 144.56 56.44 143.35 58.53 141.94 C 56.68 143.61 54.72 145.14 52.76 146.69 C 58.94 150.01 64.71 143.85 70.39 142.01 C 65.67 144.70 60.87 148.26 55.21 148.26 C 54.27 147.95 52.14 147.90 52.47 146.48 Z" />
<path fill="#718f73" opacity="1.00" d=" M 58.04 165.57 C 61.88 158.30 66.15 151.20 71.36 144.82 C 66.79 151.66 62.54 158.70 58.04 165.57 Z" />
<path fill="#000000" opacity="1.00" d=" M 176.77 160.77 C 185.03 156.06 194.67 154.82 203.97 153.83 C 213.35 153.23 223.41 155.04 230.83 161.15 C 235.93 165.39 239.87 171.62 239.77 178.43 C 239.18 178.41 237.98 178.37 237.38 178.35 C 234.29 174.89 229.92 173.11 225.63 171.61 C 213.28 169.87 200.73 170.11 188.37 171.61 C 184.11 172.80 179.84 173.94 175.51 174.84 C 163.71 178.04 154.37 186.45 146.04 195.00 C 145.43 194.83 144.21 194.50 143.60 194.34 C 143.84 190.52 146.87 187.88 149.11 185.09 C 157.62 176.26 165.82 166.69 176.77 160.77 M 174.98 168.71 C 181.39 167.78 187.43 165.01 193.96 164.77 C 205.02 164.55 216.12 164.19 227.11 165.65 C 221.89 161.83 215.48 159.73 209.00 160.19 C 197.13 159.62 184.97 162.08 174.98 168.71 Z" />
<path fill="#dc5a38" opacity="1.00" d=" M 336.88 167.72 C 342.84 162.71 350.55 160.57 358.09 159.39 C 367.62 159.12 377.56 158.72 386.52 162.52 C 391.44 165.07 396.02 168.22 400.99 170.68 C 395.71 168.91 390.64 166.37 385.08 165.52 C 377.47 163.95 369.66 164.87 361.95 164.61 C 353.45 164.14 345.27 166.93 336.88 167.72 Z" />
<path fill="#dc5a38" opacity="1.00" d=" M 174.98 168.71 C 184.97 162.08 197.13 159.62 209.00 160.19 C 215.48 159.73 221.89 161.83 227.11 165.65 C 216.12 164.19 205.02 164.55 193.96 164.77 C 187.43 165.01 181.39 167.78 174.98 168.71 Z" />
<path fill="#718f73" opacity="1.00" d=" M 53.98 172.62 C 55.19 170.23 56.46 167.87 57.98 165.67 C 56.92 168.13 55.66 170.52 53.98 172.62 Z" />
<path fill="#718f73" opacity="1.00" d=" M 45.88 190.26 C 47.43 183.99 50.52 178.17 53.99 172.77 C 50.88 179.62 46.32 186.15 45.90 193.90 C 46.65 194.85 47.40 195.81 48.14 196.77 C 47.98 198.94 47.94 201.12 47.97 203.30 C 51.81 199.27 54.41 193.98 59.34 191.08 C 55.25 194.56 52.07 198.91 49.03 203.29 C 48.67 203.38 47.96 203.57 47.60 203.66 C 47.32 201.42 47.29 199.16 47.47 196.91 C 45.86 195.06 45.17 192.66 45.88 190.26 Z" />
<path fill="#ffffff" opacity="1.00" d=" M 70.86 179.19 C 69.85 181.11 69.00 183.12 68.10 185.10 L 67.98 183.88 C 67.48 183.98 66.47 184.19 65.97 184.29 C 67.69 182.68 69.30 180.95 70.86 179.19 Z" />
<path fill="#562a1c" opacity="1.00" d=" M 59.52 190.93 C 61.26 188.62 63.10 186.34 65.50 184.69 C 63.77 187.00 61.94 189.28 59.52 190.93 Z" />
<path fill="#562a1c" opacity="1.00" d=" M 65.09 194.50 C 65.68 191.44 66.67 188.46 67.94 185.63 C 67.66 188.77 66.56 191.73 65.09 194.50 Z" />
<path fill="#000000" opacity="1.00" d=" M 268.64 187.47 C 269.55 187.36 270.47 187.26 271.39 187.16 C 272.06 194.43 273.10 201.68 272.85 209.01 C 272.31 231.33 272.18 253.67 272.67 276.00 C 272.74 277.33 272.88 278.65 273.11 279.97 C 273.51 286.61 273.04 293.31 274.03 299.91 C 274.97 315.83 275.67 331.77 277.71 347.60 C 278.82 353.99 279.75 360.54 282.33 366.55 C 283.94 367.61 285.74 365.92 286.98 364.95 C 291.63 360.85 296.85 356.68 298.97 350.63 C 300.52 350.53 302.08 350.47 303.65 350.51 C 302.44 354.92 300.39 359.12 297.87 362.93 C 293.89 367.76 288.81 371.72 283.15 374.40 C 281.60 374.23 279.76 374.74 278.61 373.39 C 273.88 363.64 272.25 352.83 270.80 342.20 C 269.75 330.41 268.89 318.62 268.35 306.79 C 267.22 298.93 267.88 290.95 266.79 283.08 C 266.48 258.72 266.47 234.35 266.85 209.99 C 267.94 202.52 266.73 194.78 268.64 187.47 Z" />
<path fill="#718f73" opacity="1.00" d=" M 61.59 209.90 C 62.37 204.77 63.57 199.71 64.99 194.73 C 64.28 201.15 61.76 207.30 61.97 213.82 C 62.44 214.25 63.39 215.09 63.87 215.51 C 62.15 218.92 60.50 222.48 60.50 226.40 C 65.65 221.04 68.00 213.45 73.86 208.60 C 71.10 212.30 68.12 215.85 65.83 219.87 C 64.18 222.50 62.98 225.60 60.28 227.37 C 59.44 223.37 61.53 219.85 62.72 216.22 C 62.05 214.18 61.03 212.11 61.59 209.90 Z" />
<path fill="#718f73" opacity="1.00" d=" M 83.50 200.80 C 85.25 200.26 87.02 198.54 88.89 199.15 C 90.15 201.15 90.15 203.64 90.58 205.91 C 91.32 212.91 93.10 219.77 93.53 226.82 C 91.61 226.88 89.69 226.94 87.78 227.03 C 89.50 226.80 91.23 226.54 92.96 226.32 C 92.16 217.27 90.26 208.36 88.99 199.37 C 87.16 199.84 85.33 200.32 83.50 200.80 Z" />
<path fill="#562a1c" opacity="1.00" d=" M 77.10 203.06 C 78.70 201.30 81.28 201.40 83.41 200.82 C 81.66 201.58 79.90 202.31 78.12 203.01 C 76.78 204.87 75.42 206.71 73.96 208.48 C 74.94 206.64 75.74 204.67 77.10 203.06 Z" />
<path fill="#562a1c" opacity="1.00" d=" M 499.93 207.01 C 500.14 206.43 500.57 205.28 500.79 204.70 C 500.57 205.28 500.14 206.43 499.93 207.01 Z" />
<path fill="#718f73" opacity="1.00" d=" M 494.08 233.06 C 495.56 224.40 496.56 215.55 499.84 207.32 C 496.39 219.95 494.38 232.92 492.78 245.90 C 492.18 248.63 493.90 251.03 494.90 253.43 C 493.80 251.43 491.81 249.57 492.17 247.09 C 492.55 242.39 493.38 237.73 494.08 233.06 Z" />
<path fill="#718f73" opacity="1.00" d=" M 81.84 230.06 C 82.97 228.12 85.14 227.09 87.34 227.08 C 86.44 229.28 83.95 229.81 81.84 230.06 Z" />
<path fill="#000000" opacity="1.00" d=" M 155.13 234.15 C 161.02 230.38 168.03 228.77 174.94 228.32 C 182.01 226.92 189.67 227.35 195.97 231.12 C 204.32 236.45 209.85 245.43 212.12 254.95 C 211.28 261.40 210.93 268.98 205.61 273.53 C 202.77 276.39 198.99 278.00 195.47 279.84 C 195.50 279.19 195.54 277.88 195.57 277.23 L 194.99 277.30 C 189.25 278.17 182.93 278.36 177.81 275.21 C 170.84 271.31 165.50 264.12 164.77 256.06 C 164.67 248.89 166.05 240.98 171.74 236.03 C 163.68 238.67 155.18 243.05 151.44 251.10 C 149.96 257.15 150.77 263.92 153.64 269.48 C 156.40 275.03 162.37 277.57 167.10 281.10 C 166.92 281.62 166.55 282.68 166.36 283.20 C 165.49 283.23 163.76 283.28 162.89 283.31 C 156.79 281.30 150.69 278.27 146.96 272.84 C 142.32 264.95 140.97 254.65 145.28 246.33 C 147.84 241.77 151.01 237.43 155.13 234.15 M 181.31 236.39 C 175.66 239.06 171.24 244.60 171.05 251.00 C 169.15 260.56 176.62 270.44 186.03 272.07 C 191.25 272.62 196.40 270.57 200.56 267.55 C 205.11 263.76 206.27 257.07 204.51 251.61 C 202.36 246.23 198.65 241.46 193.96 238.05 C 190.28 235.75 185.40 234.38 181.31 236.39 Z" />
<path fill="#718f73" opacity="1.00" d=" M 69.03 244.32 C 71.25 238.38 75.46 232.83 81.34 230.18 C 75.93 233.61 71.96 238.69 69.03 244.32 Z" />
<path fill="#000000" opacity="1.00" d=" M 353.40 235.55 C 359.52 231.66 367.10 230.87 374.11 232.24 C 381.52 232.82 389.22 234.23 395.40 238.61 C 401.99 244.56 407.67 252.72 407.29 261.99 C 406.80 268.73 405.00 276.08 399.59 280.60 C 396.08 283.85 391.62 285.85 387.06 287.11 C 385.27 287.90 383.63 286.78 382.14 285.96 L 382.87 285.33 C 386.07 282.64 389.84 280.72 393.02 278.01 C 398.67 272.34 400.08 263.58 398.83 255.94 C 395.54 247.33 386.50 242.81 378.26 240.03 C 383.94 244.99 385.33 252.89 385.23 260.07 C 384.25 270.58 375.66 279.39 365.55 281.80 C 361.43 281.71 356.91 282.39 353.22 280.12 C 354.34 281.05 354.84 282.30 354.73 283.85 C 349.60 281.52 344.27 278.68 341.24 273.73 C 339.12 269.11 338.39 263.96 337.93 258.95 C 340.09 249.66 345.46 240.97 353.40 235.55 M 359.35 240.44 C 354.11 242.36 350.34 246.93 347.47 251.53 C 344.01 256.81 343.60 264.29 347.50 269.46 C 354.04 277.65 368.19 278.25 374.72 269.68 C 382.21 261.65 380.18 246.96 370.61 241.45 C 367.38 238.98 363.00 238.95 359.35 240.44 Z" />
<path fill="#fce1c1" opacity="1.00" d=" M 73.74 249.87 C 75.42 242.07 81.49 235.46 88.85 232.57 C 92.29 232.36 95.99 231.98 99.16 233.65 C 104.67 237.94 107.72 244.41 111.55 250.09 C 111.44 251.82 111.33 253.54 111.20 255.28 C 110.79 254.95 109.97 254.29 109.56 253.96 C 106.44 251.00 104.20 246.80 99.91 245.31 C 95.57 243.57 88.82 244.75 87.66 250.02 C 87.00 255.70 87.70 261.44 87.76 267.14 C 90.78 273.99 89.55 282.42 94.62 288.45 C 98.31 293.47 104.23 296.20 107.79 301.29 C 108.20 301.69 109.02 302.50 109.43 302.91 C 111.18 307.90 110.82 313.38 112.49 318.43 C 107.53 320.16 101.93 319.94 97.07 318.01 C 91.50 315.44 89.04 309.34 87.42 303.82 C 85.90 298.33 83.76 293.04 82.16 287.59 L 81.85 286.98 C 80.08 282.02 78.04 277.12 77.12 271.90 C 75.25 264.73 72.83 257.37 73.74 249.87 Z" />
<path fill="#ffffff" opacity="1.00" d=" M 151.44 251.10 C 155.18 243.05 163.68 238.67 171.74 236.03 C 166.05 240.98 164.67 248.89 164.77 256.06 C 165.50 264.12 170.84 271.31 177.81 275.21 C 182.93 278.36 189.25 278.17 194.99 277.30 C 194.88 277.89 194.68 279.06 194.58 279.65 C 189.43 282.20 183.56 281.29 178.07 282.41 C 174.22 283.28 170.01 281.61 166.36 283.20 C 166.55 282.68 166.92 281.62 167.10 281.10 C 162.37 277.57 156.40 275.03 153.64 269.48 C 150.77 263.92 149.96 257.15 151.44 251.10 Z" />
<path fill="#562a1c" opacity="1.00" d=" M 181.31 236.39 C 185.40 234.38 190.28 235.75 193.96 238.05 C 198.65 241.46 202.36 246.23 204.51 251.61 C 206.27 257.07 205.11 263.76 200.56 267.55 C 196.40 270.57 191.25 272.62 186.03 272.07 C 176.62 270.44 169.15 260.56 171.05 251.00 C 171.24 244.60 175.66 239.06 181.31 236.39 Z" />
<path fill="#562a1c" opacity="1.00" d=" M 359.35 240.44 C 363.00 238.95 367.38 238.98 370.61 241.45 C 380.18 246.96 382.21 261.65 374.72 269.68 C 368.19 278.25 354.04 277.65 347.50 269.46 C 343.60 264.29 344.01 256.81 347.47 251.53 C 350.34 246.93 354.11 242.36 359.35 240.44 Z" />
<path fill="#ffffff" opacity="1.00" d=" M 378.26 240.03 C 386.50 242.81 395.54 247.33 398.83 255.94 C 400.08 263.58 398.67 272.34 393.02 278.01 C 389.84 280.72 386.07 282.64 382.87 285.33 C 379.60 288.34 374.82 286.85 370.87 286.71 C 366.04 285.98 360.59 286.07 356.61 282.87 C 359.60 282.71 362.81 283.35 365.55 281.80 C 375.66 279.39 384.25 270.58 385.23 260.07 C 385.33 252.89 383.94 244.99 378.26 240.03 Z" />
<path fill="#562a1c" opacity="1.00" d=" M 70.42 270.92 C 68.23 262.41 65.79 253.04 68.95 244.47 C 65.78 259.57 72.56 274.13 76.14 288.50 C 73.36 282.95 71.93 276.90 70.42 270.92 Z" />
<path fill="#fce1c1" opacity="1.00" d=" M 472.53 249.73 C 476.05 249.07 479.66 249.44 483.21 249.59 C 484.54 250.33 485.87 251.07 487.20 251.83 C 488.49 255.51 491.15 258.88 490.62 263.00 C 490.35 268.62 491.32 274.39 489.89 279.90 C 489.58 281.56 489.23 283.23 488.93 284.91 C 487.71 291.52 485.47 298.10 481.40 303.52 C 477.20 309.49 472.87 315.53 467.15 320.14 C 463.56 323.21 459.88 326.16 456.22 329.15 C 454.78 330.45 452.82 330.71 451.02 331.23 C 449.70 331.30 448.38 331.39 447.07 331.48 C 447.29 325.10 449.06 318.90 450.51 312.72 C 454.61 309.38 457.99 304.71 463.44 303.55 C 469.75 301.88 474.69 297.05 477.20 291.13 C 478.55 286.18 478.83 281.01 480.22 276.07 C 480.40 272.10 481.04 267.76 478.94 264.15 C 477.86 262.36 475.84 261.58 474.09 260.63 C 467.88 260.12 461.59 264.53 460.38 270.73 C 463.15 270.26 465.34 268.29 468.02 267.55 C 469.82 267.14 471.68 267.28 473.52 267.24 C 474.09 269.11 474.39 271.04 474.24 273.00 C 473.55 275.28 473.64 277.73 472.86 280.00 C 472.66 282.00 472.44 284.01 471.99 285.99 C 471.60 288.07 470.89 290.07 469.89 291.94 C 466.61 296.56 460.91 297.87 455.90 299.73 C 454.24 300.90 452.76 302.30 451.41 303.81 C 452.82 298.65 452.68 293.18 454.20 288.04 C 454.84 280.99 453.98 273.91 454.67 266.87 C 454.79 263.97 457.09 261.93 458.98 260.00 C 463.03 256.05 467.11 251.74 472.53 249.73 Z" />
<path fill="#718f73" opacity="1.00" d=" M 111.55 250.09 C 112.24 255.44 111.43 260.81 111.26 266.17 L 110.74 265.23 C 110.60 263.82 110.48 262.41 110.36 261.01 C 109.21 260.18 108.04 259.39 106.93 258.51 C 110.33 259.59 109.68 256.13 109.56 253.96 C 109.97 254.29 110.79 254.95 111.20 255.28 C 111.33 253.54 111.44 251.82 111.55 250.09 Z" />
<path fill="#fce1c1" opacity="1.00" d=" M 93.48 251.72 C 94.12 251.38 95.40 250.70 96.03 250.36 C 100.15 252.37 103.58 255.44 106.93 258.51 C 108.04 259.39 109.21 260.18 110.36 261.01 C 110.48 262.41 110.60 263.82 110.74 265.23 C 110.51 275.19 110.66 285.15 110.65 295.11 C 106.42 290.17 100.17 286.99 96.91 281.16 C 95.63 276.13 94.55 271.01 94.22 265.82 C 93.24 261.18 93.47 256.42 93.48 251.72 Z" />
<path fill="#562a1c" opacity="1.00" d=" M 495.11 253.79 C 495.32 254.38 495.74 255.54 495.95 256.13 C 495.74 255.54 495.32 254.38 495.11 253.79 Z" />
<path fill="#562a1c" opacity="1.00" d=" M 495.99 256.58 C 496.97 263.04 497.65 269.65 496.69 276.15 C 495.64 269.68 496.06 263.11 495.99 256.58 Z" />
<path fill="#562a1c" opacity="1.00" d=" M 76.24 288.79 C 76.48 289.35 76.97 290.49 77.22 291.06 C 76.97 290.49 76.48 289.35 76.24 288.79 Z" />
<path fill="#562a1c" opacity="1.00" d=" M 77.15 291.69 C 77.37 292.26 77.83 293.42 78.05 293.99 C 77.83 293.42 77.37 292.26 77.15 291.69 Z" />
<path fill="#718f73" opacity="1.00" d=" M 78.16 294.33 C 82.08 302.90 82.67 313.44 90.10 320.05 C 96.46 325.98 105.83 325.52 113.83 324.30 C 115.30 329.64 116.79 334.97 118.08 340.35 C 116.05 335.43 114.95 330.20 113.68 325.04 C 105.92 325.64 97.08 326.52 90.65 321.15 C 82.65 314.57 81.21 303.62 78.16 294.33 Z" />
<path fill="#718f73" opacity="1.00" d=" M 486.07 307.26 C 485.87 305.52 486.56 304.62 488.14 304.56 C 487.85 305.75 487.16 306.65 486.07 307.26 Z" />
<path fill="#718f73" opacity="1.00" d=" M 477.14 318.25 C 480.30 314.81 482.91 310.93 485.97 307.41 C 479.33 318.58 469.09 326.89 458.93 334.70 C 455.18 337.57 450.20 337.26 445.75 337.48 C 445.20 339.47 444.61 341.44 444.00 343.41 C 444.42 341.30 444.83 339.19 445.25 337.09 C 450.14 336.93 455.62 337.06 459.57 333.66 C 465.60 328.74 471.87 324.02 477.14 318.25 Z" />
<path fill="#562a1c" opacity="1.00" d=" M 118.05 340.45 C 120.46 344.84 121.99 349.65 123.05 354.53 C 120.92 350.01 119.31 345.28 118.05 340.45 Z" />
<path fill="#000000" opacity="1.00" d=" M 209.62 344.60 C 210.22 344.49 211.43 344.27 212.03 344.17 C 218.37 350.73 224.58 357.50 231.87 363.05 C 240.51 370.05 250.67 374.88 261.07 378.68 C 274.25 383.41 288.23 385.71 302.23 385.71 C 302.79 385.99 303.92 386.55 304.48 386.83 C 305.74 391.16 301.30 393.25 298.75 395.79 C 294.04 400.11 288.59 403.99 282.21 405.26 C 270.45 407.60 258.61 403.67 247.85 399.17 C 238.72 394.93 229.94 389.28 223.75 381.21 C 215.89 370.57 211.08 357.73 209.62 344.60 M 219.07 360.11 C 222.34 367.64 225.71 375.41 231.63 381.29 C 237.37 386.88 244.28 391.21 251.66 394.31 C 260.89 398.17 270.96 401.13 281.04 399.50 C 286.41 398.33 290.81 394.81 294.93 391.36 C 275.09 390.42 255.52 384.56 238.29 374.70 C 231.25 370.72 225.20 365.31 219.07 360.11 Z" />
<path fill="#562a1c" opacity="1.00" d=" M 442.76 347.04 C 442.21 345.56 442.59 344.46 443.92 343.74 C 444.19 345.06 443.80 346.16 442.76 347.04 Z" />
<path fill="#562a1c" opacity="1.00" d=" M 441.83 349.91 C 442.08 349.35 442.59 348.22 442.84 347.66 C 442.59 348.22 442.08 349.35 441.83 349.91 Z" />
<path fill="#562a1c" opacity="1.00" d=" M 440.81 352.98 C 441.09 352.43 441.65 351.33 441.93 350.79 C 441.65 351.33 441.09 352.43 440.81 352.98 Z" />
<path fill="#562a1c" opacity="1.00" d=" M 439.90 356.40 C 440.14 355.73 440.62 354.40 440.85 353.73 C 440.62 354.40 440.14 355.73 439.90 356.40 Z" />
<path fill="#718f73" opacity="1.00" d=" M 123.09 354.64 C 124.98 358.46 126.74 362.34 128.07 366.40 C 126.12 362.61 124.30 358.74 123.09 354.64 Z" />
<path fill="#562a1c" opacity="1.00" d=" M 439.35 357.74 C 439.41 357.60 439.53 357.32 439.59 357.18 C 439.53 357.32 439.41 357.60 439.35 357.74 Z" />
<path fill="#562a1c" opacity="1.00" d=" M 437.97 361.07 C 438.24 360.42 438.77 359.12 439.04 358.48 C 438.77 359.12 438.24 360.42 437.97 361.07 Z" />
<path fill="#dc5a38" opacity="1.00" d=" M 219.07 360.11 C 225.20 365.31 231.25 370.72 238.29 374.70 C 255.52 384.56 275.09 390.42 294.93 391.36 C 290.81 394.81 286.41 398.33 281.04 399.50 C 270.96 401.13 260.89 398.17 251.66 394.31 C 244.28 391.21 237.37 386.88 231.63 381.29 C 225.71 375.41 222.34 367.64 219.07 360.11 Z" />
<path fill="#562a1c" opacity="1.00" d=" M 437.11 363.11 C 437.17 362.98 437.28 362.71 437.34 362.58 C 437.28 362.71 437.17 362.98 437.11 363.11 Z" />
<path fill="#562a1c" opacity="1.00" d=" M 436.29 364.85 C 436.39 364.65 436.58 364.26 436.68 364.06 C 436.58 364.26 436.39 364.65 436.29 364.85 Z" />
<path fill="#562a1c" opacity="1.00" d=" M 435.63 366.08 L 435.80 365.77 C 435.74 365.90 435.61 366.16 435.54 366.29 L 435.63 366.08 Z" />
<path fill="#718f73" opacity="1.00" d=" M 128.12 366.52 C 131.32 372.34 134.21 378.33 136.98 384.38 C 133.56 378.68 130.63 372.67 128.12 366.52 Z" />
<path fill="#562a1c" opacity="1.00" d=" M 434.35 368.75 L 434.47 368.52 C 434.40 368.66 434.26 368.95 434.20 369.09 L 434.35 368.75 Z" />
<path fill="#562a1c" opacity="1.00" d=" M 433.35 370.90 C 433.44 370.70 433.64 370.30 433.73 370.10 C 433.64 370.30 433.44 370.70 433.35 370.90 Z" />
<path fill="#562a1c" opacity="1.00" d=" M 432.29 373.07 C 432.44 372.76 432.75 372.14 432.90 371.83 C 432.75 372.14 432.44 372.76 432.29 373.07 Z" />
<path fill="#562a1c" opacity="1.00" d=" M 431.42 374.65 C 431.50 374.50 431.68 374.19 431.77 374.04 C 431.68 374.19 431.50 374.50 431.42 374.65 Z" />
<path fill="#562a1c" opacity="1.00" d=" M 428.01 380.15 C 427.63 377.90 428.78 375.88 431.03 375.29 C 430.52 377.18 429.51 378.88 428.01 380.15 Z" />
<path fill="#718f73" opacity="1.00" d=" M 425.18 385.16 C 424.68 383.15 425.75 380.86 427.92 380.53 C 427.75 382.43 426.48 383.88 425.18 385.16 Z" />
<path fill="#718f73" opacity="1.00" d=" M 137.03 384.43 C 139.35 387.53 141.31 390.87 143.01 394.35 C 140.71 391.23 138.77 387.88 137.03 384.43 Z" />
<path fill="#718f73" opacity="1.00" d=" M 417.00 398.27 C 419.42 393.81 422.00 389.42 425.03 385.35 C 422.76 389.88 419.98 394.17 417.00 398.27 Z" />
<path fill="#718f73" opacity="1.00" d=" M 143.07 394.50 C 144.52 394.81 145.15 395.75 144.96 397.32 C 143.75 396.74 143.12 395.81 143.07 394.50 Z" />
<path fill="#718f73" opacity="1.00" d=" M 145.00 397.37 C 150.79 405.10 157.44 412.09 164.35 418.82 C 156.95 412.68 150.12 405.57 145.00 397.37 Z" />
<path fill="#718f73" opacity="1.00" d=" M 408.51 408.61 C 411.53 405.41 413.97 401.72 416.98 398.52 C 410.58 408.44 401.65 416.65 391.63 422.80 C 397.33 418.16 403.49 414.02 408.51 408.61 Z" />
<path fill="#718f73" opacity="1.00" d=" M 164.53 418.96 C 168.76 421.40 172.05 425.07 175.78 428.17 C 179.46 431.40 183.61 434.03 187.51 436.99 C 178.80 432.43 172.04 425.14 164.53 418.96 Z" />
<path fill="#718f73" opacity="1.00" d=" M 383.34 428.01 C 385.80 426.10 388.32 424.24 391.18 422.99 C 388.74 424.92 386.08 426.54 383.34 428.01 Z" />
<path fill="#562a1c" opacity="1.00" d=" M 377.33 431.06 C 378.42 428.75 380.67 427.63 383.16 428.13 C 381.56 429.69 379.52 430.62 377.33 431.06 Z" />
<path fill="#562a1c" opacity="1.00" d=" M 376.15 431.59 C 376.29 431.52 376.58 431.39 376.72 431.33 C 376.58 431.39 376.29 431.52 376.15 431.59 Z" />
<path fill="#562a1c" opacity="1.00" d=" M 370.38 434.11 C 371.25 432.04 373.40 431.27 375.49 431.88 C 373.93 432.91 372.23 433.75 370.38 434.11 Z" />
<path fill="#562a1c" opacity="1.00" d=" M 369.19 434.61 C 369.32 434.55 369.59 434.43 369.73 434.37 C 369.59 434.43 369.32 434.55 369.19 434.61 Z" />
<path fill="#562a1c" opacity="1.00" d=" M 365.75 435.85 C 366.42 435.61 367.76 435.12 368.43 434.87 C 367.76 435.12 366.42 435.61 365.75 435.85 Z" />
<path fill="#562a1c" opacity="1.00" d=" M 362.76 436.80 C 363.32 436.56 364.46 436.08 365.02 435.84 C 364.46 436.08 363.32 436.56 362.76 436.80 Z" />
<path fill="#718f73" opacity="1.00" d=" M 187.67 437.07 C 191.04 438.37 194.25 440.03 197.41 441.76 C 202.51 444.57 208.39 445.35 213.63 447.82 C 204.42 445.71 195.73 441.96 187.67 437.07 Z" />
<path fill="#562a1c" opacity="1.00" d=" M 355.49 439.90 C 357.54 438.37 359.89 437.33 362.42 436.91 C 360.17 438.04 357.86 439.04 355.49 439.90 Z" />
<path fill="#562a1c" opacity="1.00" d=" M 347.19 442.91 C 349.69 441.34 352.48 440.32 355.40 439.89 C 352.80 441.24 350.03 442.22 347.19 442.91 Z" />
<path fill="#718f73" opacity="1.00" d=" M 346.11 443.54 L 346.61 443.22 C 346.30 448.21 346.11 453.21 345.41 458.16 C 348.62 457.85 351.77 457.06 354.98 456.82 C 356.68 456.49 357.26 458.45 358.03 459.53 C 357.27 458.68 356.47 457.89 355.62 457.16 C 352.01 457.32 348.52 458.44 344.96 458.96 C 345.38 453.82 345.85 448.69 346.11 443.54 Z" />
<path fill="#fce1c1" opacity="1.00" d=" M 339.30 446.22 C 339.57 445.96 340.09 445.42 340.36 445.16 C 339.83 449.88 339.41 454.60 339.43 459.36 C 332.54 460.00 325.74 461.29 318.84 461.80 C 292.15 465.61 264.75 465.81 238.07 461.85 C 236.63 461.65 235.19 461.49 233.75 461.34 C 233.55 458.57 233.51 455.72 232.24 453.19 C 244.98 456.00 258.20 455.99 270.98 458.18 C 276.68 458.55 282.43 458.52 288.07 457.53 C 293.13 457.70 298.06 456.49 303.09 456.20 C 309.99 454.06 317.27 453.49 324.13 451.12 C 325.15 450.83 326.15 450.49 327.14 450.10 C 328.45 449.79 329.74 449.45 331.04 449.07 C 332.71 448.43 334.38 447.79 335.97 446.96 C 337.08 446.73 338.19 446.49 339.30 446.22 Z" />
<path fill="#562a1c" opacity="1.00" d=" M 214.03 447.95 C 214.50 447.97 215.45 448.02 215.93 448.04 L 216.23 448.88 C 215.68 448.65 214.58 448.18 214.03 447.95 Z" />
<path fill="#718f73" opacity="1.00" d=" M 225.45 451.15 C 225.62 451.19 225.96 451.28 226.13 451.33 C 226.99 454.35 227.52 457.45 228.07 460.55 C 226.02 460.16 223.97 459.72 221.88 459.63 C 219.55 459.81 218.43 462.24 218.26 464.30 C 217.86 468.84 218.13 473.42 218.05 477.98 C 217.84 486.20 221.59 494.65 218.18 502.63 C 220.48 493.12 216.94 483.62 217.63 474.06 C 217.96 469.70 216.74 464.89 218.91 460.89 C 220.89 457.90 224.78 459.57 227.62 459.91 C 226.96 456.97 226.26 454.05 225.45 451.15 Z" />
<path fill="#718f73" opacity="1.00" d=" M 358.17 460.53 C 358.85 469.38 356.77 478.20 357.77 487.07 C 358.65 493.59 357.35 500.37 359.18 506.72 C 361.43 509.57 364.96 511.19 367.17 514.15 C 371.59 519.72 376.31 525.11 381.95 529.49 C 374.68 525.49 370.44 518.05 364.75 512.32 C 362.54 509.95 358.58 508.67 358.16 505.06 C 357.41 498.72 357.77 492.29 357.16 485.93 C 356.40 477.43 357.97 469.00 358.17 460.53 Z" />
<path fill="#718f73" opacity="1.00" d=" M 294.42 470.46 C 313.94 468.79 333.48 466.75 352.75 463.18 C 352.24 467.44 351.49 471.70 351.65 476.02 C 351.85 486.48 351.17 497.04 352.91 507.41 C 353.84 512.46 359.26 514.17 362.28 517.69 C 366.62 522.89 370.74 528.39 376.07 532.65 C 364.59 542.52 351.11 549.80 337.50 556.30 C 323.16 563.04 308.30 569.80 292.24 570.76 C 292.34 560.49 291.91 550.19 293.15 539.98 C 293.34 526.96 294.54 513.98 294.26 500.95 C 294.83 490.79 294.04 480.62 294.42 470.46 Z" />
<path fill="#718f73" opacity="1.00" d=" M 223.60 465.24 C 230.08 467.97 237.13 467.71 243.94 468.89 C 258.70 470.69 273.59 470.90 288.44 470.69 C 288.63 486.14 288.65 501.59 287.84 517.02 C 287.77 534.94 285.70 552.79 286.28 570.73 C 274.34 571.00 262.39 568.14 251.49 563.31 C 235.25 555.53 221.68 543.39 208.25 531.63 C 212.54 524.21 220.07 518.32 222.58 509.75 C 223.35 506.44 223.98 503.11 224.81 499.82 C 226.44 492.89 223.79 485.98 223.64 479.05 C 223.55 474.45 223.67 469.84 223.60 465.24 Z" />
<path fill="#718f73" opacity="1.00" d=" M 213.79 513.94 C 216.29 510.69 217.04 506.58 218.15 502.74 C 217.76 506.81 216.67 510.89 214.19 514.21 C 210.86 518.52 207.79 523.08 203.71 526.75 C 200.79 528.95 201.78 533.64 204.35 535.74 C 214.18 544.81 224.85 552.91 235.50 560.98 C 224.60 554.11 214.91 545.50 205.12 537.17 C 202.12 534.98 199.67 529.92 202.88 526.94 C 207.10 523.12 210.36 518.44 213.79 513.94 Z" />
<path fill="#718f73" opacity="1.00" d=" M 383.18 530.68 C 383.36 531.95 383.74 533.45 382.70 534.48 C 379.79 537.82 376.26 540.58 372.65 543.13 C 365.61 547.87 358.56 552.69 350.85 556.30 C 361.90 549.41 373.71 543.28 382.88 533.83 C 382.96 533.05 383.11 531.47 383.18 530.68 Z" />
<path fill="#562a1c" opacity="1.00" d=" M 350.00 556.76 C 350.14 556.69 350.41 556.55 350.54 556.48 C 350.41 556.55 350.14 556.69 350.00 556.76 Z" />
<path fill="#562a1c" opacity="1.00" d=" M 347.94 557.81 C 348.23 557.67 348.82 557.38 349.11 557.24 C 348.82 557.38 348.23 557.67 347.94 557.81 Z" />
<path fill="#562a1c" opacity="1.00" d=" M 346.09 558.73 C 346.30 558.63 346.72 558.42 346.92 558.31 C 346.72 558.42 346.30 558.63 346.09 558.73 Z" />
<path fill="#562a1c" opacity="1.00" d=" M 343.87 559.82 C 344.17 559.68 344.78 559.39 345.08 559.24 C 344.78 559.39 344.17 559.68 343.87 559.82 Z" />
<path fill="#562a1c" opacity="1.00" d=" M 341.95 560.79 C 342.16 560.68 342.60 560.46 342.81 560.35 C 342.60 560.46 342.16 560.68 341.95 560.79 Z" />
<path fill="#718f73" opacity="1.00" d=" M 235.59 561.01 C 238.63 562.48 241.49 564.29 244.20 566.31 C 241.17 564.82 238.29 563.04 235.59 561.01 Z" />
<path fill="#562a1c" opacity="1.00" d=" M 340.52 561.49 C 340.67 561.42 340.98 561.27 341.13 561.19 C 340.98 561.27 340.67 561.42 340.52 561.49 Z" />
<path fill="#718f73" opacity="1.00" d=" M 302.02 575.16 C 315.43 572.91 327.60 566.60 340.13 561.68 C 328.72 567.29 316.92 572.36 304.49 575.20 C 288.96 578.05 272.49 577.49 257.59 572.00 C 271.95 576.26 287.20 577.44 302.02 575.16 Z" />
<path fill="#562a1c" opacity="1.00" d=" M 244.48 566.47 C 244.61 566.54 244.87 566.68 245.00 566.75 C 244.87 566.68 244.61 566.54 244.48 566.47 Z" />
<path fill="#562a1c" opacity="1.00" d=" M 245.86 567.21 C 246.17 567.36 246.79 567.66 247.10 567.81 C 246.79 567.66 246.17 567.36 245.86 567.21 Z" />
<path fill="#562a1c" opacity="1.00" d=" M 248.06 568.26 C 248.23 568.34 248.57 568.50 248.74 568.58 C 248.57 568.50 248.23 568.34 248.06 568.26 Z" />
<path fill="#562a1c" opacity="1.00" d=" M 249.39 568.88 C 251.28 568.46 253.45 568.83 254.38 570.75 C 252.51 570.80 250.79 570.05 249.39 568.88 Z" />
<path fill="#562a1c" opacity="1.00" d=" M 254.92 570.82 C 255.48 571.08 256.60 571.60 257.17 571.86 C 256.60 571.60 255.48 571.08 254.92 570.82 Z" />
</svg>
