<?xml version="1.0" encoding="UTF-8" ?>
<!DOCTYPE svg PUBLIC "-//W3C//DTD SVG 1.1//EN" "http://www.w3.org/Graphics/SVG/1.1/DTD/svg11.dtd">
<svg width="468pt" height="322pt" viewBox="0 0 468 322" version="1.1" xmlns="http://www.w3.org/2000/svg">
<path fill="#000000" opacity="1.00" d=" M 260.79 1.71 C 269.08 -1.61 277.87 2.20 285.73 5.01 C 300.80 9.67 311.33 22.15 321.56 33.42 C 326.34 38.39 329.44 44.62 332.10 50.90 C 332.76 52.34 332.54 53.95 332.65 55.48 C 337.07 58.05 341.70 60.26 346.05 62.98 C 348.54 64.43 350.84 66.41 353.77 66.94 C 355.57 62.57 357.49 58.25 358.83 53.71 C 360.31 50.62 364.83 53.49 365.13 56.22 C 365.60 61.96 363.12 67.42 361.15 72.69 C 369.87 78.54 378.22 84.95 386.05 91.94 C 388.34 94.18 391.38 96.53 391.31 100.07 C 390.52 102.46 389.44 104.80 387.92 106.81 C 381.24 113.70 373.43 119.45 365.02 124.05 C 359.55 127.89 353.61 130.95 347.54 133.70 C 335.73 140.64 322.61 145.28 309.12 147.52 C 301.83 149.01 294.35 148.48 286.97 148.56 C 278.24 148.69 269.54 147.55 260.95 146.10 C 256.37 145.39 252.01 143.65 247.38 143.25 C 261.29 150.25 276.39 155.51 292.10 155.93 C 311.58 156.69 330.51 149.68 347.39 140.48 C 350.16 138.97 353.17 137.63 356.37 138.54 C 358.45 144.45 354.40 150.61 355.46 156.57 C 358.51 159.23 362.61 160.16 366.21 161.85 C 368.60 162.80 371.30 164.29 373.83 162.85 C 383.43 158.73 392.42 153.31 402.00 149.15 C 403.69 148.51 405.33 147.52 406.05 145.78 C 409.91 138.08 413.91 130.45 417.83 122.78 C 419.33 120.25 418.02 116.98 419.72 114.57 C 422.18 111.80 427.13 111.52 429.73 114.25 C 432.26 116.54 432.50 121.35 429.49 123.35 C 427.57 124.75 424.89 124.54 423.01 125.85 C 420.43 131.70 418.33 137.76 415.94 143.69 C 429.15 142.72 443.05 143.86 454.60 150.92 C 456.48 148.96 459.26 147.69 461.95 148.86 C 465.67 150.81 467.40 155.23 467.59 159.25 C 463.48 164.82 454.98 162.27 451.94 156.90 C 444.07 154.80 436.08 152.42 427.86 152.50 C 429.93 153.19 431.99 153.97 433.87 155.10 C 441.10 159.30 448.31 163.82 453.96 170.07 C 454.93 171.40 456.70 170.41 458.05 170.57 C 462.79 169.60 467.25 174.64 466.28 179.22 C 465.13 182.28 462.00 183.73 459.02 184.40 C 457.70 183.97 456.39 183.57 455.07 183.17 C 453.79 181.33 452.73 179.34 451.52 177.45 C 449.30 176.28 446.90 175.47 444.72 174.24 C 446.39 176.73 447.40 179.57 448.17 182.45 C 451.83 182.96 456.09 184.98 456.64 189.04 C 457.28 192.20 454.01 194.98 450.99 194.53 C 446.88 194.06 443.31 190.24 443.44 186.04 C 443.28 180.72 440.36 175.90 436.88 172.06 C 430.69 165.48 423.44 159.95 415.76 155.24 C 413.30 155.16 411.06 156.85 409.04 158.11 C 401.43 164.83 393.78 171.52 386.02 178.07 C 382.07 181.49 378.17 185.04 373.78 187.90 C 371.35 189.47 368.46 188.04 365.89 187.65 C 359.48 186.48 353.08 185.21 346.70 183.87 C 346.08 185.60 345.53 187.35 345.06 189.13 C 351.65 188.61 357.76 194.41 357.34 201.04 C 357.17 207.39 351.93 211.70 347.51 215.51 C 338.71 222.70 329.15 229.01 318.94 234.03 C 316.58 235.19 314.80 237.18 313.00 239.04 C 304.00 248.30 293.71 256.22 282.75 263.01 C 293.21 266.18 303.40 270.26 313.16 275.18 C 317.25 277.30 321.74 278.40 326.16 279.60 C 328.18 277.23 331.43 276.82 334.29 277.66 C 337.65 279.39 339.58 284.14 337.28 287.44 C 335.81 290.12 332.23 290.15 329.66 289.37 C 327.16 287.87 325.73 284.92 322.91 283.94 C 320.67 283.62 318.34 283.72 316.26 282.72 C 311.98 280.97 307.38 280.34 302.93 279.19 C 299.89 278.41 296.83 277.60 293.67 277.61 C 301.87 280.22 309.86 284.07 316.61 289.47 C 318.44 288.16 320.60 286.90 322.90 287.91 C 327.01 289.45 331.69 293.06 330.76 298.02 C 330.57 301.88 325.75 302.39 322.83 302.98 C 324.89 303.32 326.99 303.32 329.06 303.56 C 333.81 305.73 337.13 313.59 332.00 317.06 C 328.25 319.13 324.41 316.54 321.76 313.96 C 319.78 313.50 317.76 313.03 316.05 311.88 C 308.43 307.04 302.28 300.22 294.61 295.46 C 285.97 290.11 276.60 286.15 267.45 281.81 C 262.15 279.28 256.58 277.45 250.98 275.72 C 238.21 278.79 224.99 278.80 211.93 278.36 C 197.89 277.45 183.83 275.81 170.20 272.24 C 165.15 271.01 160.19 268.22 157.82 263.40 C 151.86 266.74 146.24 270.67 140.09 273.66 C 156.64 273.49 172.98 276.78 189.03 280.47 C 192.27 281.21 195.17 283.68 198.55 283.54 C 201.88 281.39 206.02 280.39 209.88 281.68 C 212.63 283.19 213.80 286.19 214.46 289.07 C 212.30 296.17 201.03 296.41 197.46 290.29 C 195.49 290.35 193.53 290.44 191.57 290.55 C 197.25 293.26 203.21 295.27 209.09 297.50 C 212.42 295.14 216.84 293.62 220.84 294.90 C 223.87 297.31 225.23 301.37 225.41 305.12 C 225.65 307.56 223.25 308.88 221.73 310.31 C 221.67 312.62 222.07 315.03 221.36 317.28 C 219.48 319.91 216.28 321.84 212.97 321.46 C 209.29 321.65 206.91 318.46 203.90 316.96 C 197.58 316.05 191.36 314.53 185.02 313.72 C 168.46 311.53 152.38 306.85 135.99 303.75 C 128.50 302.29 120.94 301.15 113.56 299.18 C 109.58 297.97 105.53 296.31 102.51 293.36 C 99.94 290.71 100.56 286.79 100.71 283.46 C 94.24 287.87 87.13 292.59 79.01 292.57 C 73.19 292.94 68.33 287.65 67.65 282.16 C 66.13 265.56 68.77 248.94 72.53 232.80 C 77.01 213.37 84.07 194.38 94.75 177.47 C 85.72 179.96 76.06 180.22 67.53 184.42 C 63.81 188.25 61.67 193.27 58.52 197.55 C 53.94 204.10 50.63 211.42 46.29 218.12 C 47.57 219.59 49.75 220.73 49.75 222.93 C 50.50 226.94 45.57 230.53 41.92 228.97 C 39.02 228.06 35.71 225.69 36.34 222.23 C 36.39 220.06 38.44 218.89 40.02 217.82 C 40.46 212.08 42.20 206.60 43.89 201.14 C 40.39 204.73 36.61 208.08 33.48 212.01 C 33.30 214.52 34.55 217.53 32.48 219.57 C 30.49 222.25 26.70 222.09 23.77 221.50 C 22.44 219.98 21.21 218.05 21.63 215.93 C 22.16 213.58 24.49 212.44 26.33 211.22 C 29.40 203.94 33.07 196.94 37.09 190.14 C 29.67 192.03 22.20 193.70 14.80 195.62 C 14.25 201.48 6.46 205.01 1.99 201.06 C -0.97 198.37 1.02 194.28 2.73 191.49 C 5.46 191.00 8.21 190.63 10.99 190.43 C 14.20 187.67 18.08 185.90 21.69 183.73 C 26.16 181.11 30.63 178.41 35.55 176.72 C 35.49 176.41 35.37 175.78 35.31 175.47 L 34.66 177.03 C 31.92 176.69 28.43 175.17 28.33 171.96 C 26.85 165.45 37.99 162.43 40.17 168.69 C 46.46 168.80 52.75 168.29 59.04 168.43 C 61.63 168.68 63.74 167.00 65.91 165.88 C 81.56 157.03 97.76 148.92 115.01 143.66 C 117.11 143.16 118.86 141.81 120.04 140.02 C 133.17 122.10 148.54 105.87 165.50 91.52 C 166.40 90.62 168.17 89.66 167.25 88.10 C 165.30 81.87 166.30 75.06 169.19 69.28 C 173.77 58.84 182.33 48.86 194.01 46.64 C 196.56 46.48 197.73 43.94 199.41 42.40 C 207.74 34.03 216.14 25.60 225.93 18.92 C 236.68 11.60 248.62 6.21 260.79 1.71 M 266.58 9.41 C 256.58 12.47 247.06 16.91 238.00 22.12 C 227.50 27.78 218.80 36.07 210.27 44.28 C 215.40 44.59 220.32 46.15 225.15 47.79 C 239.13 33.60 252.67 17.95 271.26 9.72 C 269.72 9.46 268.12 8.85 266.58 9.41 M 276.89 16.87 C 277.56 18.66 279.55 19.07 281.00 20.00 C 289.07 24.25 295.16 31.16 301.42 37.61 C 302.97 39.13 303.97 41.07 304.83 43.05 C 310.26 45.34 315.58 47.93 321.07 50.08 C 319.90 43.60 314.66 39.12 310.51 34.43 C 304.62 28.32 298.88 21.90 291.67 17.29 C 289.32 15.88 286.96 13.74 284.01 14.20 C 281.50 14.67 279.25 15.97 276.89 16.87 M 235.28 49.69 C 237.35 49.33 239.39 48.79 241.37 48.05 C 248.16 45.62 255.22 44.10 262.15 42.20 C 266.10 38.82 268.46 33.71 273.11 31.09 C 276.38 29.19 281.18 32.31 280.39 36.15 C 279.76 37.38 278.94 38.50 278.16 39.63 C 281.71 39.01 285.28 38.53 288.88 38.28 C 288.78 37.92 288.57 37.20 288.47 36.84 C 284.70 33.41 280.90 29.90 276.36 27.49 C 273.17 25.82 269.86 24.37 266.86 22.35 C 254.67 29.40 245.74 40.55 235.28 49.69 M 273.01 49.49 C 268.23 49.99 265.19 54.03 262.42 57.49 C 259.40 58.73 257.45 55.58 256.98 53.05 C 249.55 54.60 242.37 57.13 235.27 59.79 C 238.10 66.40 238.25 73.75 237.25 80.77 C 235.84 88.25 232.74 95.81 226.74 100.76 C 218.89 107.48 208.29 110.56 198.04 109.65 C 188.30 109.42 179.01 104.77 172.63 97.48 C 168.38 100.17 165.07 103.99 161.30 107.27 C 157.24 110.85 153.29 114.55 149.64 118.55 C 143.92 124.85 137.78 130.84 133.09 137.98 C 140.92 136.90 148.30 133.76 156.13 132.61 C 160.85 132.00 165.70 130.59 170.45 131.64 C 170.15 133.19 170.50 135.30 168.73 136.10 C 155.15 140.85 141.11 144.17 127.30 148.20 C 118.40 151.50 108.80 152.95 100.41 157.53 C 89.11 162.97 77.27 167.09 65.58 171.58 C 59.27 174.73 52.43 170.49 45.83 171.98 C 47.82 172.67 49.98 173.16 51.57 174.65 C 52.82 174.93 54.08 175.16 55.33 175.44 C 49.78 176.71 44.22 178.01 38.86 179.94 C 33.76 181.83 29.52 185.34 24.67 187.71 C 28.86 186.99 33.04 186.15 37.18 185.19 C 40.84 184.37 44.29 182.27 48.17 182.78 C 46.67 185.36 44.86 187.73 42.96 190.03 C 40.23 193.32 39.07 197.55 36.68 201.07 C 41.33 196.76 46.47 193.03 51.12 188.72 C 51.67 189.00 52.77 189.57 53.32 189.85 C 51.18 194.26 50.68 199.24 48.45 203.62 C 50.54 200.06 53.54 197.15 55.65 193.60 C 59.44 187.68 63.27 181.28 69.57 177.71 C 78.09 172.48 88.06 170.73 97.31 167.27 C 105.17 165.46 112.51 161.99 120.43 160.39 C 130.31 157.42 140.28 154.68 150.42 152.73 C 160.43 151.16 170.62 151.23 180.72 151.75 C 180.74 154.00 180.03 156.24 177.49 156.63 C 167.47 159.04 157.16 160.15 147.11 162.45 C 134.77 165.18 122.73 169.08 110.65 172.73 C 109.27 173.21 107.67 173.53 106.81 174.85 C 94.99 191.72 86.74 210.94 81.93 230.94 C 77.88 247.24 74.96 264.07 76.32 280.91 C 76.77 282.04 77.59 282.96 78.25 283.98 C 84.30 283.97 89.46 280.41 94.40 277.34 C 119.91 260.47 143.38 240.71 169.02 224.01 C 174.10 220.67 179.06 217.05 184.69 214.67 C 192.12 211.50 199.86 208.16 208.10 208.33 C 206.85 212.37 202.60 213.50 199.37 215.45 C 170.68 231.57 144.52 251.65 118.07 271.10 C 115.94 272.88 112.84 274.02 111.99 276.92 C 110.90 279.91 110.06 283.02 109.53 286.17 C 109.00 287.63 110.53 288.67 111.65 289.20 C 115.08 290.79 118.85 291.44 122.52 292.28 C 137.67 295.13 152.92 297.72 167.69 302.22 C 174.94 304.40 182.49 305.27 189.81 307.14 C 191.89 307.63 193.99 308.18 196.15 308.28 C 193.53 307.01 190.78 306.06 188.13 304.87 C 181.88 301.57 174.82 300.43 168.02 298.81 C 163.36 297.94 159.12 295.78 154.74 294.12 C 153.16 293.55 152.39 291.93 151.35 290.75 C 156.93 291.66 162.50 292.67 168.02 293.88 C 173.03 295.09 178.24 294.76 183.26 295.91 C 186.96 296.74 190.70 297.43 194.50 297.49 C 187.56 295.47 180.83 292.69 173.70 291.36 C 168.69 290.54 163.87 288.92 158.88 288.06 C 159.10 286.58 160.07 285.52 161.65 285.66 C 170.19 284.78 178.76 286.43 187.28 285.35 C 184.01 284.93 180.77 284.32 177.56 283.55 C 170.48 281.90 163.15 282.68 155.97 281.92 C 149.17 281.20 142.30 280.97 135.48 281.64 C 130.49 281.50 125.24 282.27 120.58 280.04 C 120.64 279.24 120.76 277.65 120.82 276.85 C 125.03 272.89 130.19 270.04 134.98 266.81 C 155.24 254.88 174.96 242.06 195.38 230.40 C 213.30 219.99 230.58 208.52 247.81 197.02 C 247.73 196.38 247.59 195.09 247.52 194.45 C 221.98 194.23 196.14 193.91 171.09 199.53 C 146.29 204.78 123.63 217.36 103.78 232.84 C 100.66 235.04 98.57 238.32 95.72 240.80 C 92.93 242.16 90.58 239.43 89.76 237.04 C 91.52 231.54 96.36 228.13 100.66 224.68 C 116.32 212.78 133.45 202.61 152.04 196.02 C 179.87 186.19 209.78 185.26 239.00 185.45 C 244.82 185.59 250.68 185.09 256.47 185.76 C 259.69 187.11 259.79 191.11 259.69 194.08 C 259.80 197.87 257.46 201.32 254.32 203.28 C 240.38 212.80 226.15 221.90 211.81 230.80 C 196.22 240.18 180.15 248.80 165.02 258.92 C 167.53 262.06 171.31 263.66 175.17 264.43 C 191.86 268.10 208.96 270.03 226.06 269.62 C 246.54 269.89 266.74 263.07 283.70 251.76 C 299.63 241.03 313.75 227.28 323.81 210.85 C 335.24 192.67 342.41 172.08 346.58 151.10 C 332.50 157.73 317.62 163.19 302.01 164.44 C 291.69 164.63 281.24 164.18 271.22 161.52 C 265.14 160.10 259.52 157.36 253.73 155.11 C 244.74 151.56 238.61 143.70 231.96 137.07 C 229.13 133.72 225.76 129.79 226.22 125.12 C 230.52 125.76 234.19 128.23 238.11 129.92 C 258.84 138.53 281.72 140.88 303.96 139.15 C 324.12 136.42 342.95 127.71 360.14 117.15 C 367.51 111.74 375.72 107.25 381.78 100.26 C 373.44 92.84 364.75 85.67 355.23 79.83 C 350.97 83.85 345.45 88.15 339.21 86.92 C 332.82 85.88 327.76 78.96 329.67 72.57 C 330.68 70.29 333.20 70.35 335.32 70.31 C 336.36 73.79 338.19 77.45 341.96 78.57 C 343.57 77.15 346.49 76.60 346.88 74.21 C 329.70 63.23 310.96 54.82 292.02 47.42 C 285.63 47.18 279.30 48.59 273.01 49.49 M 201.12 53.00 C 197.15 54.16 193.02 55.14 189.54 57.45 C 182.66 62.85 177.51 70.48 175.42 79.00 C 174.34 84.76 176.88 91.00 181.77 94.26 C 192.85 103.51 210.63 102.89 221.43 93.48 C 227.03 87.98 229.04 79.66 228.77 72.01 C 228.94 65.49 225.59 58.53 219.71 55.47 C 213.67 53.99 207.39 51.15 201.12 53.00 M 373.62 171.36 C 365.99 173.67 359.54 168.08 352.69 165.83 C 351.73 168.84 350.82 171.88 350.21 174.99 C 357.08 176.60 363.82 179.68 370.97 179.47 C 384.60 172.18 395.59 160.95 408.97 153.29 C 397.20 159.34 386.26 167.15 373.62 171.36 M 458.54 154.04 C 458.53 154.67 458.50 155.93 458.48 156.56 C 459.60 156.68 460.72 156.81 461.84 156.93 C 461.67 156.35 461.33 155.18 461.16 154.60 C 460.28 154.41 459.41 154.23 458.54 154.04 M 457.33 175.64 C 457.45 176.53 457.58 177.42 457.72 178.32 C 458.73 178.45 459.74 178.58 460.76 178.71 C 460.63 177.70 460.51 176.69 460.39 175.69 C 459.37 175.67 458.35 175.65 457.33 175.64 M 448.64 186.69 C 448.52 187.99 448.41 189.29 448.32 190.60 C 449.70 190.57 451.08 190.54 452.47 190.50 C 452.37 189.27 452.27 188.04 452.17 186.82 C 450.99 186.77 449.81 186.73 448.64 186.69 M 342.45 198.47 C 337.23 203.54 335.25 210.88 330.95 216.66 C 336.19 212.31 342.13 208.73 346.66 203.57 C 348.12 202.31 347.50 200.24 347.61 198.56 C 345.88 198.52 344.16 198.50 342.45 198.47 M 26.53 216.08 C 25.39 217.46 27.73 219.47 28.73 217.81 C 29.86 216.41 27.57 214.44 26.53 216.08 M 40.73 221.82 C 40.71 222.66 40.70 223.51 40.69 224.36 C 41.90 224.36 43.12 224.33 44.34 224.33 C 44.34 223.44 44.35 222.55 44.36 221.66 C 43.15 221.71 41.94 221.76 40.73 221.82 M 260.74 272.99 C 263.25 274.41 265.92 275.52 268.65 276.45 C 274.23 278.38 278.98 281.97 284.17 284.69 C 294.31 290.34 304.69 295.85 313.42 303.61 C 314.96 305.18 317.02 305.82 319.17 305.97 C 316.89 303.18 314.04 300.92 310.98 299.04 C 305.23 294.97 299.12 291.42 292.82 288.27 C 288.55 285.73 283.39 284.00 280.82 279.41 C 282.46 279.39 284.05 279.64 285.59 280.16 C 294.55 283.43 303.26 287.37 311.40 292.35 C 304.61 286.65 295.90 284.15 288.11 280.18 C 284.62 278.25 278.73 277.57 279.21 272.29 C 286.76 271.66 294.10 274.51 301.64 273.42 C 294.00 272.29 286.72 269.66 279.36 267.42 C 277.96 267.09 276.37 266.29 275.00 267.16 C 270.35 269.36 265.66 271.46 260.74 272.99 M 320.08 293.34 C 320.96 294.70 321.90 296.02 322.85 297.33 C 323.74 297.31 324.62 297.29 325.52 297.28 C 325.52 296.87 325.52 296.05 325.52 295.65 C 323.93 294.37 322.25 293.04 320.08 293.34 M 214.06 300.65 C 214.20 301.50 214.34 302.35 214.48 303.21 C 216.29 303.85 218.11 304.52 219.93 305.17 C 219.71 303.72 219.50 302.28 219.29 300.84 C 218.78 300.51 217.76 299.85 217.25 299.51 C 216.45 299.80 214.86 300.37 214.06 300.65 M 209.60 308.53 C 209.19 310.19 207.93 312.18 209.19 313.77 C 210.51 316.70 214.07 315.56 216.57 315.48 C 216.64 313.18 216.63 310.69 214.96 308.90 C 213.27 308.22 211.38 308.60 209.60 308.53 M 325.49 308.57 C 325.48 309.02 325.45 309.92 325.43 310.37 C 326.75 311.38 328.12 312.41 329.80 312.74 C 329.11 311.25 328.31 309.82 327.48 308.42 C 326.99 308.45 325.99 308.53 325.49 308.57 Z" />
<path fill="#b8b8b8" opacity="1.00" d=" M 266.58 9.41 C 268.12 8.85 269.72 9.46 271.26 9.72 C 252.67 17.95 239.13 33.60 225.15 47.79 C 220.32 46.15 215.40 44.59 210.27 44.28 C 218.80 36.07 227.50 27.78 238.00 22.12 C 247.06 16.91 256.58 12.47 266.58 9.41 Z" />
<path fill="#b8b8b8" opacity="1.00" d=" M 276.89 16.87 C 279.25 15.97 281.50 14.67 284.01 14.20 C 286.96 13.74 289.32 15.88 291.67 17.29 C 298.88 21.90 304.62 28.32 310.51 34.43 C 314.66 39.12 319.90 43.60 321.07 50.08 C 315.58 47.93 310.26 45.34 304.83 43.05 C 303.97 41.07 302.97 39.13 301.42 37.61 C 295.16 31.16 289.07 24.25 281.00 20.00 C 279.55 19.07 277.56 18.66 276.89 16.87 Z" />
<path fill="#000000" opacity="1.00" d=" M 331.11 45.06 C 327.24 41.89 331.54 35.30 336.03 36.30 C 341.24 37.07 345.39 41.31 347.22 46.11 C 347.98 48.27 350.42 50.71 348.29 52.83 C 342.97 49.36 336.64 48.04 331.11 45.06 Z" />
<path fill="#679b64" opacity="1.00" d=" M 273.01 49.49 C 279.30 48.59 285.63 47.18 292.02 47.42 C 310.96 54.82 329.70 63.23 346.88 74.21 C 346.49 76.60 343.57 77.15 341.96 78.57 C 338.19 77.45 336.36 73.79 335.32 70.31 C 333.20 70.35 330.68 70.29 329.67 72.57 C 327.76 78.96 332.82 85.88 339.21 86.92 C 345.45 88.15 350.97 83.85 355.23 79.83 C 364.75 85.67 373.44 92.84 381.78 100.26 C 375.72 107.25 367.51 111.74 360.14 117.15 C 342.95 127.71 324.12 136.42 303.96 139.15 C 281.72 140.88 258.84 138.53 238.11 129.92 C 234.19 128.23 230.52 125.76 226.22 125.12 C 225.76 129.79 229.13 133.72 231.96 137.07 C 238.61 143.70 244.74 151.56 253.73 155.11 C 259.52 157.36 265.14 160.10 271.22 161.52 C 281.24 164.18 291.69 164.63 302.01 164.44 C 317.62 163.19 332.50 157.73 346.58 151.10 C 342.41 172.08 335.24 192.67 323.81 210.85 C 313.75 227.28 299.63 241.03 283.70 251.76 C 266.74 263.07 246.54 269.89 226.06 269.62 C 208.96 270.03 191.86 268.10 175.17 264.43 C 171.31 263.66 167.53 262.06 165.02 258.92 C 180.15 248.80 196.22 240.18 211.81 230.80 C 226.15 221.90 240.38 212.80 254.32 203.28 C 257.46 201.32 259.80 197.87 259.69 194.08 C 259.79 191.11 259.69 187.11 256.47 185.76 C 250.68 185.09 244.82 185.59 239.00 185.45 C 209.78 185.26 179.87 186.19 152.04 196.02 C 133.45 202.61 116.32 212.78 100.66 224.68 C 96.36 228.13 91.52 231.54 89.76 237.04 C 90.58 239.43 92.93 242.16 95.72 240.80 C 98.57 238.32 100.66 235.04 103.78 232.84 C 123.63 217.36 146.29 204.78 171.09 199.53 C 196.14 193.91 221.98 194.23 247.52 194.45 C 247.59 195.09 247.73 196.38 247.81 197.02 C 230.58 208.52 213.30 219.99 195.38 230.40 C 174.96 242.06 155.24 254.88 134.98 266.81 C 130.19 270.04 125.03 272.89 120.82 276.85 C 120.76 277.65 120.64 279.24 120.58 280.04 C 125.24 282.27 130.49 281.50 135.48 281.64 C 142.30 280.97 149.17 281.20 155.97 281.92 C 163.15 282.68 170.48 281.90 177.56 283.55 C 180.77 284.32 184.01 284.93 187.28 285.35 C 178.76 286.43 170.19 284.78 161.65 285.66 C 160.07 285.52 159.10 286.58 158.88 288.06 C 163.87 288.92 168.69 290.54 173.70 291.36 C 180.83 292.69 187.56 295.47 194.50 297.49 C 190.70 297.43 186.96 296.74 183.26 295.91 C 178.24 294.76 173.03 295.09 168.02 293.88 C 162.50 292.67 156.93 291.66 151.35 290.75 C 152.39 291.93 153.16 293.55 154.74 294.12 C 159.12 295.78 163.36 297.94 168.02 298.81 C 174.82 300.43 181.88 301.57 188.13 304.87 C 190.78 306.06 193.53 307.01 196.15 308.28 C 193.99 308.18 191.89 307.63 189.81 307.14 C 182.49 305.27 174.94 304.40 167.69 302.22 C 152.92 297.72 137.67 295.13 122.52 292.28 C 118.85 291.44 115.08 290.79 111.65 289.20 C 110.53 288.67 109.00 287.63 109.53 286.17 C 110.06 283.02 110.90 279.91 111.99 276.92 C 112.84 274.02 115.94 272.88 118.07 271.10 C 144.52 251.65 170.68 231.57 199.37 215.45 C 202.60 213.50 206.85 212.37 208.10 208.33 C 199.86 208.16 192.12 211.50 184.69 214.67 C 179.06 217.05 174.10 220.67 169.02 224.01 C 143.38 240.71 119.91 260.47 94.40 277.34 C 89.46 280.41 84.30 283.97 78.25 283.98 C 77.59 282.96 76.77 282.04 76.32 280.91 C 74.96 264.07 77.88 247.24 81.93 230.94 C 86.74 210.94 94.99 191.72 106.81 174.85 C 107.67 173.53 109.27 173.21 110.65 172.73 C 122.73 169.08 134.77 165.18 147.11 162.45 C 157.16 160.15 167.47 159.04 177.49 156.63 C 180.03 156.24 180.74 154.00 180.72 151.75 C 170.62 151.23 160.43 151.16 150.42 152.73 C 140.28 154.68 130.31 157.42 120.43 160.39 C 112.51 161.99 105.17 165.46 97.31 167.27 C 88.06 170.73 78.09 172.48 69.57 177.71 C 63.27 181.28 59.44 187.68 55.65 193.60 C 53.54 197.15 50.54 200.06 48.45 203.62 C 50.68 199.24 51.18 194.26 53.32 189.85 C 52.77 189.57 51.67 189.00 51.12 188.72 C 46.47 193.03 41.33 196.76 36.68 201.07 C 39.07 197.55 40.23 193.32 42.96 190.03 C 44.86 187.73 46.67 185.36 48.17 182.78 C 44.29 182.27 40.84 184.37 37.18 185.19 C 33.04 186.15 28.86 186.99 24.67 187.71 C 29.52 185.34 33.76 181.83 38.86 179.94 C 44.22 178.01 49.78 176.71 55.33 175.44 C 54.08 175.16 52.82 174.93 51.57 174.65 C 49.98 173.16 47.82 172.67 45.83 171.98 C 52.43 170.49 59.27 174.73 65.58 171.58 C 77.27 167.09 89.11 162.97 100.41 157.53 C 108.80 152.95 118.40 151.50 127.30 148.20 C 141.11 144.17 155.15 140.85 168.73 136.10 C 170.50 135.30 170.15 133.19 170.45 131.64 C 165.70 130.59 160.85 132.00 156.13 132.61 C 148.30 133.76 140.92 136.90 133.09 137.98 C 137.78 130.84 143.92 124.85 149.64 118.55 C 153.29 114.55 157.24 110.85 161.30 107.27 C 165.07 103.99 168.38 100.17 172.63 97.48 C 179.01 104.77 188.30 109.42 198.04 109.65 C 208.29 110.56 218.89 107.48 226.74 100.76 C 232.74 95.81 235.84 88.25 237.25 80.77 C 238.25 73.75 238.10 66.40 235.27 59.79 C 242.37 57.13 249.55 54.60 256.98 53.05 C 257.45 55.58 259.40 58.73 262.42 57.49 C 265.19 54.03 268.23 49.99 273.01 49.49 M 282.70 77.75 C 279.09 81.57 274.90 84.95 270.08 87.11 C 267.13 88.37 263.87 87.68 260.82 87.26 C 257.78 82.32 260.64 76.80 260.62 71.55 C 258.23 71.59 255.59 71.99 254.08 74.05 C 251.10 77.95 250.95 83.20 251.55 87.87 C 252.69 93.04 257.79 96.50 262.95 96.54 C 270.19 97.15 276.78 93.37 282.43 89.28 C 288.31 85.16 291.75 78.52 294.35 72.02 C 295.72 69.51 292.61 66.69 290.19 67.80 C 287.28 70.79 285.59 74.72 282.70 77.75 Z" />
<path fill="#b8b8b8" opacity="1.00" d=" M 201.12 53.00 C 207.39 51.15 213.67 53.99 219.71 55.47 C 225.59 58.53 228.94 65.49 228.77 72.01 C 229.04 79.66 227.03 87.98 221.43 93.48 C 210.63 102.89 192.85 103.51 181.77 94.26 C 176.88 91.00 174.34 84.76 175.42 79.00 C 177.51 70.48 182.66 62.85 189.54 57.45 C 193.02 55.14 197.15 54.16 201.12 53.00 Z" />
<path fill="#000000" opacity="1.00" d=" M 282.70 77.75 C 285.59 74.72 287.28 70.79 290.19 67.80 C 292.61 66.69 295.72 69.51 294.35 72.02 C 291.75 78.52 288.31 85.16 282.43 89.28 C 276.78 93.37 270.19 97.15 262.95 96.54 C 257.79 96.50 252.69 93.04 251.55 87.87 C 250.95 83.20 251.10 77.95 254.08 74.05 C 255.59 71.99 258.23 71.59 260.62 71.55 C 260.64 76.80 257.78 82.32 260.82 87.26 C 263.87 87.68 267.13 88.37 270.08 87.11 C 274.90 84.95 279.09 81.57 282.70 77.75 Z" />
<path fill="#679b64" opacity="1.00" d=" M 373.62 171.36 C 386.26 167.15 397.20 159.34 408.97 153.29 C 395.59 160.95 384.60 172.18 370.97 179.47 C 363.82 179.68 357.08 176.60 350.21 174.99 C 350.82 171.88 351.73 168.84 352.69 165.83 C 359.54 168.08 365.99 173.67 373.62 171.36 Z" />
<path fill="#679b64" opacity="1.00" d=" M 458.54 154.04 C 459.41 154.23 460.28 154.41 461.16 154.60 C 461.33 155.18 461.67 156.35 461.84 156.93 C 460.72 156.81 459.60 156.68 458.48 156.56 C 458.50 155.93 458.53 154.67 458.54 154.04 Z" />
<path fill="#679b64" opacity="1.00" d=" M 457.33 175.64 C 458.35 175.65 459.37 175.67 460.39 175.69 C 460.51 176.69 460.63 177.70 460.76 178.71 C 459.74 178.58 458.73 178.45 457.72 178.32 C 457.58 177.42 457.45 176.53 457.33 175.64 Z" />
<path fill="#679b64" opacity="1.00" d=" M 448.64 186.69 C 449.81 186.73 450.99 186.77 452.17 186.82 C 452.27 188.04 452.37 189.27 452.47 190.50 C 451.08 190.54 449.70 190.57 448.32 190.60 C 448.41 189.29 448.52 187.99 448.64 186.69 Z" />
<path fill="#679b64" opacity="1.00" d=" M 342.45 198.47 C 344.16 198.50 345.88 198.52 347.61 198.56 C 347.50 200.24 348.12 202.31 346.66 203.57 C 342.13 208.73 336.19 212.31 330.95 216.66 C 335.25 210.88 337.23 203.54 342.45 198.47 Z" />
<path fill="#679b64" opacity="1.00" d=" M 26.53 216.08 C 27.57 214.44 29.86 216.41 28.73 217.81 C 27.73 219.47 25.39 217.46 26.53 216.08 Z" />
<path fill="#679b64" opacity="1.00" d=" M 40.73 221.82 C 41.94 221.76 43.15 221.71 44.36 221.66 C 44.35 222.55 44.34 223.44 44.34 224.33 C 43.12 224.33 41.90 224.36 40.69 224.36 C 40.70 223.51 40.71 222.66 40.73 221.82 Z" />
<path fill="#679b64" opacity="1.00" d=" M 260.74 272.99 C 265.66 271.46 270.35 269.36 275.00 267.16 C 276.37 266.29 277.96 267.09 279.36 267.42 C 286.72 269.66 294.00 272.29 301.64 273.42 C 294.10 274.51 286.76 271.66 279.21 272.29 C 278.73 277.57 284.62 278.25 288.11 280.18 C 295.90 284.15 304.61 286.65 311.40 292.35 C 303.26 287.37 294.55 283.43 285.59 280.16 C 284.05 279.64 282.46 279.39 280.82 279.41 C 283.39 284.00 288.55 285.73 292.82 288.27 C 299.12 291.42 305.23 294.97 310.98 299.04 C 314.04 300.92 316.89 303.18 319.17 305.97 C 317.02 305.82 314.96 305.18 313.42 303.61 C 304.69 295.85 294.31 290.34 284.17 284.69 C 278.98 281.97 274.23 278.38 268.65 276.45 C 265.92 275.52 263.25 274.41 260.74 272.99 Z" />
<path fill="#679b64" opacity="1.00" d=" M 320.08 293.34 C 322.25 293.04 323.93 294.37 325.52 295.65 C 325.52 296.05 325.52 296.87 325.52 297.28 C 324.62 297.29 323.74 297.31 322.85 297.33 C 321.90 296.02 320.96 294.70 320.08 293.34 Z" />
<path fill="#679b64" opacity="1.00" d=" M 214.06 300.65 C 214.86 300.37 216.45 299.80 217.25 299.51 C 217.76 299.85 218.78 300.51 219.29 300.84 C 219.50 302.28 219.71 303.72 219.93 305.17 C 218.11 304.52 216.29 303.85 214.48 303.21 C 214.34 302.35 214.20 301.50 214.06 300.65 Z" />
<path fill="#679b64" opacity="1.00" d=" M 209.60 308.53 C 211.38 308.60 213.27 308.22 214.96 308.90 C 216.63 310.69 216.64 313.18 216.57 315.48 C 214.07 315.56 210.51 316.70 209.19 313.77 C 207.93 312.18 209.19 310.19 209.60 308.53 Z" />
<path fill="#679b64" opacity="1.00" d=" M 325.49 308.57 C 325.99 308.53 326.99 308.45 327.48 308.42 C 328.31 309.82 329.11 311.25 329.80 312.74 C 328.12 312.41 326.75 311.38 325.43 310.37 C 325.45 309.92 325.48 309.02 325.49 308.57 Z" />
</svg>
