<?xml version="1.0" encoding="UTF-8" ?>
<!DOCTYPE svg PUBLIC "-//W3C//DTD SVG 1.1//EN" "http://www.w3.org/Graphics/SVG/1.1/DTD/svg11.dtd">
<svg width="591pt" height="591pt" viewBox="0 0 591 591" version="1.1" xmlns="http://www.w3.org/2000/svg">
<path fill="#63738c" opacity="1.00" d=" M 0.00 0.00 L 0.58 0.00 C 0.44 0.13 0.15 0.39 0.00 0.52 L 0.00 0.00 Z" />
<path fill="#63738c" opacity="1.00" d=" M 590.48 0.00 L 591.00 0.00 L 591.00 0.58 C 590.87 0.43 590.61 0.14 590.48 0.00 Z" />
<path fill="#f7d3a5" opacity="1.00" d=" M 319.56 6.82 C 327.04 6.05 334.68 7.46 342.08 5.74 C 350.63 4.86 359.10 6.64 367.52 7.85 C 377.87 10.23 387.96 15.02 395.41 22.73 C 402.79 31.44 405.50 43.01 407.35 54.00 C 407.35 64.64 407.59 75.31 407.23 85.95 C 405.93 90.33 406.56 95.04 408.53 99.11 C 411.23 103.54 415.68 106.31 419.84 109.19 C 421.72 110.97 424.32 111.48 426.48 112.78 C 429.15 115.61 429.24 119.80 430.67 123.25 C 433.71 130.50 434.96 138.38 438.35 145.49 C 441.57 151.20 444.67 157.09 448.90 162.10 C 454.23 166.88 456.52 173.82 459.80 179.96 C 461.80 183.68 462.04 188.39 460.16 192.20 C 455.58 200.39 450.38 208.29 446.66 216.93 C 447.31 221.47 450.92 225.20 450.39 229.96 C 450.80 241.72 450.32 254.06 444.57 264.64 C 441.88 271.91 437.50 278.50 431.93 283.88 C 427.16 289.29 421.47 295.18 413.85 295.75 C 411.98 296.39 411.41 298.34 411.06 300.06 C 407.84 315.50 401.77 330.17 395.33 344.51 C 392.07 352.49 387.55 359.84 383.51 367.43 C 376.36 378.59 369.50 390.00 361.03 400.24 C 358.83 402.68 358.22 405.91 358.29 409.10 C 357.01 417.40 356.72 425.78 355.43 434.07 C 355.33 435.74 355.51 437.40 355.65 439.07 C 356.22 439.43 357.37 440.16 357.94 440.52 C 362.37 438.83 366.18 435.94 370.24 433.57 C 373.68 431.44 377.88 435.04 378.28 438.56 C 378.52 442.69 378.63 446.89 377.72 450.96 C 376.63 459.61 378.46 468.45 376.54 477.02 C 376.26 483.00 376.37 489.00 376.46 494.99 C 376.37 496.56 377.14 497.92 377.91 499.23 C 388.12 502.52 398.61 504.88 408.97 507.69 C 410.98 508.17 412.21 510.21 412.21 512.19 C 411.07 516.83 407.73 520.45 405.29 524.44 C 399.68 532.30 393.71 540.10 386.00 546.03 C 377.23 555.03 367.97 563.83 356.82 569.86 C 345.05 576.15 331.99 579.51 318.97 582.07 C 311.63 582.82 304.32 583.94 297.05 585.25 C 293.64 585.92 290.35 584.40 286.95 584.42 C 281.42 584.42 276.24 582.30 270.96 580.97 C 262.13 578.25 254.18 573.36 246.62 568.16 C 241.21 562.95 235.08 558.53 230.06 552.90 C 221.46 545.29 215.67 535.26 209.33 525.84 C 206.30 521.32 203.58 515.96 204.54 510.36 C 207.84 506.47 213.44 506.43 218.03 505.18 C 221.49 504.24 226.25 504.75 228.08 500.98 C 229.08 494.38 229.88 487.67 229.68 480.95 C 230.72 476.01 230.39 470.94 231.44 466.01 C 231.86 460.84 231.20 455.58 232.52 450.50 C 233.83 450.09 235.12 449.62 236.46 449.29 L 236.58 449.57 C 239.69 451.21 242.64 453.19 245.91 454.52 C 247.72 455.35 250.99 454.69 250.41 452.14 C 249.68 448.63 249.88 444.31 246.86 441.83 C 243.62 440.04 239.78 439.92 236.42 438.44 C 233.15 437.03 229.80 435.77 226.64 434.14 C 221.81 431.49 217.63 427.86 213.18 424.66 C 208.59 421.11 203.55 418.20 199.08 414.48 C 190.34 407.29 183.98 397.83 177.14 388.93 C 167.45 374.42 159.18 358.97 152.60 342.81 C 147.15 326.73 145.32 309.73 142.69 293.04 C 142.97 286.34 141.27 279.81 141.47 273.11 C 140.03 267.83 141.10 262.32 140.25 256.99 C 138.45 254.05 134.73 256.06 132.09 256.43 C 124.23 257.57 116.79 262.12 112.89 269.14 C 111.12 271.89 110.77 275.57 112.20 278.54 C 115.60 284.34 121.68 288.82 128.68 288.40 C 128.65 289.45 128.61 290.51 128.55 291.56 C 125.66 292.90 122.25 293.93 119.13 292.80 C 113.12 290.85 106.58 291.46 100.61 289.30 C 94.18 286.48 89.40 279.97 88.69 273.00 C 89.49 268.48 89.31 263.61 91.73 259.55 C 95.87 251.50 101.50 244.29 108.06 238.08 C 110.69 234.34 116.36 229.92 113.11 225.01 C 103.57 218.95 90.69 223.25 81.59 216.12 C 78.13 212.63 75.02 208.57 73.44 203.85 C 70.66 196.14 68.52 188.02 68.62 179.78 C 70.51 174.34 67.12 168.52 69.23 163.05 C 71.13 158.23 70.16 153.02 71.26 148.06 C 71.67 142.26 73.93 136.85 75.32 131.26 C 79.87 122.59 82.71 113.12 88.07 104.87 C 91.08 98.94 95.24 93.66 100.11 89.13 C 105.36 83.23 112.59 79.78 118.77 75.03 C 125.67 71.03 131.83 65.76 139.22 62.63 C 150.49 57.81 161.93 53.08 174.02 50.75 C 178.67 50.42 183.35 50.68 188.02 50.58 C 200.25 50.29 211.64 56.83 223.94 55.49 C 235.71 53.22 245.00 45.24 254.45 38.42 C 263.03 32.09 270.13 23.68 279.92 19.09 C 287.76 14.23 296.96 12.71 305.52 9.65 C 310.09 8.22 314.87 7.71 319.56 6.82 M 290.20 15.00 C 282.82 17.79 275.81 21.67 269.63 26.58 C 260.60 34.68 250.88 41.97 240.97 48.95 C 236.39 52.05 231.13 53.94 225.93 55.71 C 218.59 56.59 211.00 55.94 204.03 53.38 C 194.64 50.47 184.74 50.60 175.03 51.16 C 165.34 52.70 156.25 56.56 147.14 60.02 C 140.31 62.89 133.34 65.67 127.43 70.24 C 120.37 74.46 113.88 79.52 106.96 83.97 C 103.54 86.14 100.86 89.21 97.98 92.01 C 91.81 98.25 87.93 106.22 83.83 113.87 C 81.55 118.69 79.88 123.79 77.33 128.49 C 75.18 132.17 74.64 136.45 73.28 140.43 C 70.86 147.74 71.75 155.62 69.91 163.04 C 69.11 166.66 69.23 170.38 69.71 174.02 C 70.25 177.07 68.51 179.96 69.07 182.99 C 70.61 193.81 72.58 205.45 80.28 213.78 C 83.92 218.72 90.48 219.27 96.02 220.44 C 101.66 221.70 108.08 220.31 112.98 224.02 C 115.85 225.89 115.50 230.16 113.23 232.39 C 109.21 238.94 102.62 243.29 98.47 249.75 C 94.30 255.84 89.65 262.32 89.63 270.04 C 88.50 276.06 91.91 281.89 96.15 285.89 C 100.49 289.73 106.42 290.69 112.04 290.45 C 115.54 290.03 118.45 292.72 121.94 292.45 C 124.07 292.66 126.15 291.90 127.86 290.67 C 128.84 288.98 126.30 288.81 125.26 288.67 C 120.13 288.31 116.11 284.67 112.80 281.07 C 111.06 278.42 109.50 274.95 110.81 271.80 C 114.22 263.59 122.15 257.18 131.07 256.19 C 134.55 255.62 137.82 254.23 141.30 253.63 C 140.89 259.75 140.78 265.93 141.84 271.99 C 142.87 283.02 142.82 294.16 144.97 305.06 C 147.36 318.09 148.74 331.49 153.70 343.88 C 157.22 351.13 159.64 358.92 164.14 365.67 C 166.94 371.93 170.70 377.67 174.06 383.64 C 178.18 390.97 184.12 397.00 189.21 403.64 C 195.67 412.06 204.86 417.60 213.11 424.04 C 218.83 428.11 224.27 432.74 230.79 435.52 C 236.52 438.40 242.84 439.68 248.96 441.44 C 250.21 446.82 251.39 452.29 251.13 457.86 C 246.01 456.18 241.70 452.84 236.95 450.40 C 235.63 450.72 233.33 450.17 232.94 451.96 C 232.52 454.60 232.13 457.26 232.03 459.94 C 231.98 469.32 230.10 478.58 229.96 487.96 C 229.86 493.20 229.27 498.42 228.41 503.60 C 221.02 505.81 213.01 505.88 205.94 509.14 C 203.46 513.68 205.70 518.68 208.14 522.70 C 212.86 530.31 217.75 537.84 223.36 544.83 C 230.49 553.70 239.51 560.72 247.74 568.49 C 256.07 574.53 265.42 579.39 275.47 581.75 C 280.77 583.86 286.59 583.38 292.10 584.55 C 296.84 585.56 301.52 583.92 306.17 583.17 C 323.18 581.45 340.21 577.49 355.56 569.78 C 369.33 562.82 379.61 551.05 390.74 540.70 C 398.23 533.64 404.06 525.09 409.76 516.59 C 411.35 514.23 413.43 510.33 409.92 508.58 C 398.38 505.61 386.82 502.57 375.35 499.31 C 376.30 483.61 376.30 467.87 377.17 452.17 C 377.66 447.43 378.08 442.66 377.69 437.90 C 377.24 435.18 374.30 433.83 371.88 433.43 C 366.08 436.62 360.70 440.61 354.80 443.69 C 354.73 429.88 357.21 416.23 358.38 402.51 C 365.68 393.85 371.89 384.35 377.97 374.82 C 383.37 366.63 388.06 358.00 392.38 349.20 C 400.49 331.97 408.06 314.21 411.48 295.38 C 413.95 295.13 416.62 295.36 418.87 294.12 C 426.70 289.77 432.31 282.62 437.91 275.84 C 441.35 271.21 443.30 265.74 445.82 260.60 C 449.18 252.19 450.37 243.00 450.12 233.98 C 450.12 230.50 450.14 226.86 448.52 223.66 C 447.70 221.60 445.88 220.10 445.18 218.00 C 449.78 208.23 455.68 199.12 460.87 189.66 C 462.11 183.50 457.89 178.23 455.65 172.85 C 453.24 166.32 447.00 162.40 443.92 156.27 C 439.61 149.80 435.91 142.91 433.97 135.32 C 432.24 128.57 429.39 122.19 427.74 115.42 C 427.33 112.47 423.53 113.84 422.16 111.65 C 417.83 106.97 410.92 105.19 407.66 99.44 C 404.48 92.26 407.42 84.48 407.10 77.02 C 406.90 64.00 407.82 50.48 402.99 38.10 C 401.37 31.80 397.84 26.24 393.49 21.48 C 386.59 15.22 377.96 11.19 369.03 8.78 C 354.93 5.19 340.32 7.16 325.97 6.99 C 313.56 7.06 301.93 11.58 290.20 15.00 Z" />
<path fill="#151515" opacity="1.00" d=" M 290.20 15.00 C 301.93 11.58 313.56 7.06 325.97 6.99 C 340.32 7.16 354.93 5.19 369.03 8.78 C 377.96 11.19 386.59 15.22 393.49 21.48 C 397.84 26.24 401.37 31.80 402.99 38.10 C 407.82 50.48 406.90 64.00 407.10 77.02 C 407.42 84.48 404.48 92.26 407.66 99.44 C 410.92 105.19 417.83 106.97 422.16 111.65 C 423.53 113.84 427.33 112.47 427.74 115.42 C 429.39 122.19 432.24 128.57 433.97 135.32 C 435.91 142.91 439.61 149.80 443.92 156.27 C 447.00 162.40 453.24 166.32 455.65 172.85 C 457.89 178.23 462.11 183.50 460.87 189.66 C 455.68 199.12 449.78 208.23 445.18 218.00 C 445.88 220.10 447.70 221.60 448.52 223.66 C 450.14 226.86 450.12 230.50 450.12 233.98 C 450.37 243.00 449.18 252.19 445.82 260.60 C 443.30 265.74 441.35 271.21 437.91 275.84 C 432.31 282.62 426.70 289.77 418.87 294.12 C 416.62 295.36 413.95 295.13 411.48 295.38 C 408.06 314.21 400.49 331.97 392.38 349.20 C 388.06 358.00 383.37 366.63 377.97 374.82 C 371.89 384.35 365.68 393.85 358.38 402.51 C 357.21 416.23 354.73 429.88 354.80 443.69 C 360.70 440.61 366.08 436.62 371.88 433.43 C 374.30 433.83 377.24 435.18 377.69 437.90 C 378.08 442.66 377.66 447.43 377.17 452.17 C 376.30 467.87 376.30 483.61 375.35 499.31 C 386.82 502.57 398.38 505.61 409.92 508.58 C 413.43 510.33 411.35 514.23 409.76 516.59 C 404.06 525.09 398.23 533.64 390.74 540.70 C 379.61 551.05 369.33 562.82 355.56 569.78 C 340.21 577.49 323.18 581.45 306.17 583.17 C 301.52 583.92 296.84 585.56 292.10 584.55 C 286.59 583.38 280.77 583.86 275.47 581.75 C 265.42 579.39 256.07 574.53 247.74 568.49 C 239.51 560.72 230.49 553.70 223.36 544.83 C 217.75 537.84 212.86 530.31 208.14 522.70 C 205.70 518.68 203.46 513.68 205.94 509.14 C 213.01 505.88 221.02 505.81 228.41 503.60 C 229.27 498.42 229.86 493.20 229.96 487.96 C 230.10 478.58 231.98 469.32 232.03 459.94 C 232.13 457.26 232.52 454.60 232.94 451.96 C 233.33 450.17 235.63 450.72 236.95 450.40 C 241.70 452.84 246.01 456.18 251.13 457.86 C 251.39 452.29 250.21 446.82 248.96 441.44 C 242.84 439.68 236.52 438.40 230.79 435.52 C 224.27 432.74 218.83 428.11 213.11 424.04 C 204.86 417.60 195.67 412.06 189.21 403.64 C 184.12 397.00 178.18 390.97 174.06 383.64 C 170.70 377.67 166.94 371.93 164.14 365.67 C 159.64 358.92 157.22 351.13 153.70 343.88 C 148.74 331.49 147.36 318.09 144.97 305.06 C 142.82 294.16 142.87 283.02 141.84 271.99 C 140.78 265.93 140.89 259.75 141.30 253.63 C 137.82 254.23 134.55 255.62 131.07 256.19 C 122.15 257.18 114.22 263.59 110.81 271.80 C 109.50 274.95 111.06 278.42 112.80 281.07 C 116.11 284.67 120.13 288.31 125.26 288.67 C 126.30 288.81 128.84 288.98 127.86 290.67 C 126.15 291.90 124.07 292.66 121.94 292.45 C 118.45 292.72 115.54 290.03 112.04 290.45 C 106.42 290.69 100.49 289.73 96.15 285.89 C 91.91 281.89 88.50 276.06 89.63 270.04 C 89.65 262.32 94.30 255.84 98.47 249.75 C 102.62 243.29 109.21 238.94 113.23 232.39 C 115.50 230.16 115.85 225.89 112.98 224.02 C 108.08 220.31 101.66 221.70 96.02 220.44 C 90.48 219.27 83.92 218.72 80.28 213.78 C 72.58 205.45 70.61 193.81 69.07 182.99 C 68.51 179.96 70.25 177.07 69.71 174.02 C 69.23 170.38 69.11 166.66 69.91 163.04 C 71.75 155.62 70.86 147.74 73.28 140.43 C 74.64 136.45 75.18 132.17 77.33 128.49 C 79.88 123.79 81.55 118.69 83.83 113.87 C 87.93 106.22 91.81 98.25 97.98 92.01 C 100.86 89.21 103.54 86.14 106.96 83.97 C 113.88 79.52 120.37 74.46 127.43 70.24 C 133.34 65.67 140.31 62.89 147.14 60.02 C 156.25 56.56 165.34 52.70 175.03 51.16 C 184.74 50.60 194.64 50.47 204.03 53.38 C 211.00 55.94 218.59 56.59 225.93 55.71 C 231.13 53.94 236.39 52.05 240.97 48.95 C 250.88 41.97 260.60 34.68 269.63 26.58 C 275.81 21.67 282.82 17.79 290.20 15.00 M 277.39 112.51 C 271.53 116.06 268.54 122.61 265.72 128.58 C 263.12 133.71 261.63 139.27 260.18 144.80 C 258.49 150.59 253.67 154.57 249.06 158.06 C 241.77 164.06 232.12 166.04 222.91 166.47 C 217.69 167.33 212.04 167.34 207.28 169.67 C 211.54 168.96 215.64 171.57 218.83 174.17 C 222.21 178.14 225.09 182.53 228.16 186.75 C 232.33 192.30 234.06 199.20 235.21 205.93 C 235.98 208.53 233.54 210.51 231.32 211.17 C 229.32 211.53 227.76 209.82 226.64 208.40 C 223.09 203.63 219.15 199.17 215.52 194.47 C 210.00 190.31 202.34 192.03 196.60 194.86 C 197.79 202.38 198.09 210.35 195.41 217.60 C 193.17 224.94 187.58 230.58 182.29 235.87 C 183.22 236.76 184.59 237.54 184.42 239.04 C 184.75 244.29 184.49 249.56 184.53 254.82 C 194.38 254.42 204.39 253.04 213.66 249.57 C 218.78 246.99 223.88 244.32 229.22 242.23 C 231.53 246.45 231.83 251.35 232.33 256.04 C 232.80 261.33 230.03 266.08 227.54 270.52 C 225.94 273.53 222.78 275.17 220.85 277.91 C 217.17 283.49 210.77 286.50 204.54 288.33 C 195.31 291.15 184.42 290.56 176.70 284.33 C 175.74 283.51 174.92 282.39 175.22 281.05 C 175.74 274.80 177.02 268.64 177.81 262.43 C 172.29 263.36 166.66 263.77 161.06 263.90 C 158.65 264.15 156.96 261.98 157.50 259.68 C 159.17 258.70 161.14 258.83 162.99 258.62 C 168.20 258.19 173.29 256.95 178.46 256.27 C 178.86 250.31 178.48 244.33 178.69 238.37 C 172.46 242.09 165.94 245.31 159.56 248.77 C 155.81 250.92 151.51 251.61 147.41 252.74 C 147.20 258.45 146.87 264.21 147.56 269.90 C 148.71 275.52 148.02 281.29 148.84 286.96 C 149.63 300.40 152.43 313.62 154.96 326.83 C 156.65 337.27 161.67 346.72 165.65 356.40 C 169.89 362.80 171.58 370.52 176.17 376.72 C 178.76 380.23 180.61 384.22 183.43 387.58 C 190.69 399.67 202.22 408.16 212.75 417.18 C 221.68 422.79 229.90 429.97 240.30 432.76 C 252.71 435.96 265.07 440.36 278.04 440.11 C 285.64 438.97 293.19 437.51 300.56 435.31 C 315.54 429.50 329.87 421.58 341.88 410.82 C 354.20 400.24 363.20 386.51 372.00 373.02 C 378.25 363.66 383.53 353.68 388.43 343.55 C 395.49 328.28 401.96 312.56 405.36 296.02 C 405.95 293.94 404.35 292.19 403.79 290.31 C 402.15 285.40 402.65 279.74 404.98 275.15 C 408.26 270.97 414.00 273.22 418.16 274.46 C 424.10 271.24 426.66 264.71 429.26 258.88 C 430.99 252.73 433.39 246.52 432.62 240.01 C 428.90 245.80 426.59 252.37 423.14 258.31 C 422.63 259.59 421.20 259.69 420.09 260.09 C 422.14 252.14 422.59 243.38 427.65 236.56 C 430.39 232.55 438.29 233.86 438.76 239.06 C 439.45 246.42 437.11 253.54 435.15 260.53 C 432.00 267.47 429.07 275.35 421.98 279.22 C 418.12 281.99 413.66 278.73 409.47 279.23 C 409.30 282.35 408.86 285.55 409.56 288.65 C 410.82 290.16 413.28 289.27 415.00 289.19 C 422.26 285.81 427.17 279.23 432.25 273.32 C 435.71 269.08 437.60 263.90 439.96 259.04 C 441.61 255.68 442.39 251.98 443.15 248.35 C 444.28 241.17 445.72 233.58 443.22 226.52 C 442.09 224.02 439.73 220.82 436.57 221.84 C 430.50 223.57 425.73 228.02 420.81 231.77 C 415.56 235.58 413.67 242.08 410.71 247.55 C 408.14 252.22 406.46 257.29 404.33 262.17 C 403.82 263.60 402.53 264.44 401.20 265.00 C 398.67 257.57 398.55 249.61 396.44 242.08 C 392.30 226.77 387.89 211.42 381.10 197.03 C 380.07 197.43 379.05 197.83 378.04 198.24 C 372.45 197.15 366.72 195.66 361.03 196.92 C 351.88 198.65 344.31 204.52 336.51 209.25 C 330.85 213.33 324.41 216.04 318.29 219.31 C 314.65 221.52 310.90 223.64 306.80 224.86 C 301.58 226.20 295.34 225.72 291.54 221.48 C 288.37 217.72 288.47 212.62 288.61 207.99 C 288.35 200.44 289.77 192.92 291.71 185.67 C 292.23 185.55 293.26 185.31 293.77 185.19 C 296.73 190.08 299.47 195.23 303.51 199.34 C 306.91 200.53 310.68 200.49 313.85 198.65 C 318.92 196.06 324.57 194.69 329.18 191.22 C 336.87 187.13 344.93 182.34 353.97 182.71 C 361.34 182.36 368.83 183.52 375.65 186.38 C 371.20 179.01 366.49 171.68 360.00 165.93 C 357.69 164.14 359.53 161.28 359.61 158.94 C 366.02 146.79 376.46 137.49 386.75 128.67 C 394.70 122.32 403.28 116.43 413.03 113.24 C 406.92 113.33 401.64 116.62 396.48 119.49 C 391.45 121.92 387.28 125.71 382.42 128.42 C 378.48 130.64 375.24 133.80 372.11 137.02 C 365.49 142.51 361.40 150.22 356.16 156.91 C 355.29 157.09 353.56 157.45 352.69 157.63 C 351.42 151.90 349.68 146.29 348.14 140.64 C 343.15 130.12 335.23 120.95 325.47 114.57 C 311.09 106.04 292.47 105.44 277.39 112.51 M 205.48 258.49 C 201.63 265.15 206.72 275.33 214.53 275.62 C 218.90 271.66 222.33 266.83 226.00 262.25 C 226.83 258.38 225.90 254.34 225.53 250.44 C 219.15 253.85 212.62 257.02 205.48 258.49 M 184.36 261.27 C 183.12 267.50 182.03 273.80 181.35 280.12 C 189.46 285.83 200.29 284.16 208.82 280.27 C 200.67 277.30 196.92 267.64 198.31 259.50 C 193.69 260.31 189.04 261.00 184.36 261.27 M 341.49 419.63 C 329.20 428.66 315.90 436.44 301.51 441.62 C 293.44 443.66 285.33 445.73 277.02 446.42 C 269.66 446.65 262.37 445.32 255.35 443.20 C 256.91 448.48 257.61 454.03 257.26 459.53 C 267.42 461.14 277.72 460.34 287.97 460.80 C 297.81 461.08 307.42 458.70 316.91 456.43 C 323.31 454.51 329.98 453.55 336.20 451.08 C 340.33 449.45 344.54 448.02 348.70 446.44 C 348.23 437.27 349.57 428.17 350.62 419.11 C 350.53 416.03 351.11 413.02 351.76 410.03 C 348.42 413.31 345.61 417.22 341.49 419.63 M 357.83 448.99 C 351.60 452.06 344.96 454.17 338.52 456.77 C 331.11 459.94 323.01 460.83 315.42 463.44 C 314.39 468.22 314.16 473.13 313.46 477.97 C 309.29 511.10 305.23 544.27 303.39 577.60 C 310.84 575.57 318.67 576.11 326.04 573.78 C 336.14 571.49 346.05 568.13 355.14 563.11 C 362.36 558.96 368.71 553.46 374.63 547.65 C 380.27 542.65 385.62 537.34 390.89 531.96 C 395.62 526.00 400.65 520.08 404.15 513.31 C 394.32 510.97 384.66 507.95 374.84 505.58 C 373.65 509.03 374.16 514.47 369.71 515.50 C 371.22 505.36 369.04 495.13 369.88 484.93 C 370.89 475.64 370.43 466.28 370.84 456.96 C 371.40 451.62 371.86 446.26 371.69 440.88 C 366.91 443.29 362.61 446.55 357.83 448.99 M 235.10 500.16 C 234.26 503.45 234.76 508.50 231.00 510.02 C 224.34 510.45 217.75 511.75 211.36 513.65 C 211.71 518.58 215.25 522.33 217.69 526.39 C 223.35 535.16 229.60 543.66 237.32 550.75 C 243.27 556.16 249.01 561.89 255.82 566.25 C 261.77 570.30 268.27 574.36 275.62 574.93 C 275.65 563.63 275.31 552.30 276.48 541.04 C 277.14 516.27 282.01 491.88 284.67 467.29 C 274.86 465.80 264.82 467.51 255.06 465.43 C 248.89 464.72 243.66 461.09 238.31 458.22 C 237.08 472.19 235.99 486.16 235.10 500.16 M 290.79 466.92 C 289.46 482.10 286.87 497.12 285.00 512.24 C 282.47 533.57 281.80 555.04 281.42 576.51 C 286.32 578.85 292.00 578.95 297.32 578.53 C 298.16 553.76 301.20 529.13 303.93 504.52 C 305.40 491.31 307.58 478.14 308.53 464.91 C 302.69 466.11 296.75 466.75 290.79 466.92 Z" />
<path fill="#f7d3a5" opacity="1.00" d=" M 277.39 112.51 C 292.47 105.44 311.09 106.04 325.47 114.57 C 335.23 120.95 343.15 130.12 348.14 140.64 C 349.68 146.29 351.42 151.90 352.69 157.63 C 353.56 157.45 355.29 157.09 356.16 156.91 C 356.64 156.82 357.59 156.63 358.06 156.54 C 358.45 157.14 359.22 158.34 359.61 158.94 C 359.53 161.28 357.69 164.14 360.00 165.93 C 366.49 171.68 371.20 179.01 375.65 186.38 C 368.83 183.52 361.34 182.36 353.97 182.71 C 344.93 182.34 336.87 187.13 329.18 191.22 C 324.57 194.69 318.92 196.06 313.85 198.65 C 310.68 200.49 306.91 200.53 303.51 199.34 C 299.47 195.23 296.73 190.08 293.77 185.19 C 293.26 185.31 292.23 185.55 291.71 185.67 C 289.77 192.92 288.35 200.44 288.61 207.99 C 288.47 212.62 288.37 217.72 291.54 221.48 C 295.34 225.72 301.58 226.20 306.80 224.86 C 310.90 223.64 314.65 221.52 318.29 219.31 C 324.41 216.04 330.85 213.33 336.51 209.25 C 344.31 204.52 351.88 198.65 361.03 196.92 C 366.72 195.66 372.45 197.15 378.04 198.24 C 379.05 197.83 380.07 197.43 381.10 197.03 C 387.89 211.42 392.30 226.77 396.44 242.08 C 398.55 249.61 398.67 257.57 401.20 265.00 C 402.53 264.44 403.82 263.60 404.33 262.17 C 406.46 257.29 408.14 252.22 410.71 247.55 C 413.67 242.08 415.56 235.58 420.81 231.77 C 425.73 228.02 430.50 223.57 436.57 221.84 C 439.73 220.82 442.09 224.02 443.22 226.52 C 445.72 233.58 444.28 241.17 443.15 248.35 C 442.39 251.98 441.61 255.68 439.96 259.04 C 437.60 263.90 435.71 269.08 432.25 273.32 C 427.17 279.23 422.26 285.81 415.00 289.19 C 413.28 289.27 410.82 290.16 409.56 288.65 C 408.86 285.55 409.30 282.35 409.47 279.23 C 413.66 278.73 418.12 281.99 421.98 279.22 C 429.07 275.35 432.00 267.47 435.15 260.53 C 437.11 253.54 439.45 246.42 438.76 239.06 C 438.29 233.86 430.39 232.55 427.65 236.56 C 422.59 243.38 422.14 252.14 420.09 260.09 C 421.20 259.69 422.63 259.59 423.14 258.31 C 426.59 252.37 428.90 245.80 432.62 240.01 C 433.39 246.52 430.99 252.73 429.26 258.88 C 426.66 264.71 424.10 271.24 418.16 274.46 C 414.00 273.22 408.26 270.97 404.98 275.15 C 402.65 279.74 402.15 285.40 403.79 290.31 C 404.35 292.19 405.95 293.94 405.36 296.02 C 401.96 312.56 395.49 328.28 388.43 343.55 C 383.53 353.68 378.25 363.66 372.00 373.02 C 363.20 386.51 354.20 400.24 341.88 410.82 C 329.87 421.58 315.54 429.50 300.56 435.31 C 293.19 437.51 285.64 438.97 278.04 440.11 C 265.07 440.36 252.71 435.96 240.30 432.76 C 229.90 429.97 221.68 422.79 212.75 417.18 C 202.22 408.16 190.69 399.67 183.43 387.58 C 180.61 384.22 178.76 380.23 176.17 376.72 C 171.58 370.52 169.89 362.80 165.65 356.40 C 161.67 346.72 156.65 337.27 154.96 326.83 C 152.43 313.62 149.63 300.40 148.84 286.96 C 148.02 281.29 148.71 275.52 147.56 269.90 C 146.87 264.21 147.20 258.45 147.41 252.74 C 151.51 251.61 155.81 250.92 159.56 248.77 C 165.94 245.31 172.46 242.09 178.69 238.37 C 178.48 244.33 178.86 250.31 178.46 256.27 C 173.29 256.95 168.20 258.19 162.99 258.62 C 161.14 258.83 159.17 258.70 157.50 259.68 C 156.96 261.98 158.65 264.15 161.06 263.90 C 166.66 263.77 172.29 263.36 177.81 262.43 C 177.02 268.64 175.74 274.80 175.22 281.05 C 174.92 282.39 175.74 283.51 176.70 284.33 C 184.42 290.56 195.31 291.15 204.54 288.33 C 210.77 286.50 217.17 283.49 220.85 277.91 C 222.78 275.17 225.94 273.53 227.54 270.52 C 230.03 266.08 232.80 261.33 232.33 256.04 C 231.83 251.35 231.53 246.45 229.22 242.23 C 223.88 244.32 218.78 246.99 213.66 249.57 C 204.39 253.04 194.38 254.42 184.53 254.82 C 184.49 249.56 184.75 244.29 184.42 239.04 C 184.59 237.54 183.22 236.76 182.29 235.87 C 187.58 230.58 193.17 224.94 195.41 217.60 C 198.09 210.35 197.79 202.38 196.60 194.86 C 202.34 192.03 210.00 190.31 215.52 194.47 C 219.15 199.17 223.09 203.63 226.64 208.40 C 227.76 209.82 229.32 211.53 231.32 211.17 C 233.54 210.51 235.98 208.53 235.21 205.93 C 234.06 199.20 232.33 192.30 228.16 186.75 C 225.09 182.53 222.21 178.14 218.83 174.17 C 215.64 171.57 211.54 168.96 207.28 169.67 C 212.04 167.34 217.69 167.33 222.91 166.47 C 232.12 166.04 241.77 164.06 249.06 158.06 C 253.67 154.57 258.49 150.59 260.18 144.80 C 261.63 139.27 263.12 133.71 265.72 128.58 C 268.54 122.61 271.53 116.06 277.39 112.51 M 242.42 220.10 C 241.27 225.69 244.58 230.72 245.13 236.15 C 245.84 243.79 247.85 251.26 247.61 258.98 C 249.90 282.74 246.95 306.64 242.04 329.89 C 240.34 337.80 237.27 345.31 234.80 353.00 C 234.48 354.62 234.37 356.51 235.47 357.89 C 234.91 358.09 233.80 358.49 233.24 358.69 C 233.39 360.31 232.78 362.46 234.59 363.38 C 240.24 367.44 247.27 368.43 254.00 369.19 C 259.76 369.92 265.07 367.29 270.11 364.92 C 269.60 363.59 268.65 361.98 266.91 362.77 C 257.38 365.12 246.79 363.97 238.43 358.61 C 238.97 358.08 239.52 357.55 240.07 357.03 C 242.77 347.65 246.73 338.65 248.47 329.00 C 254.00 302.82 256.33 275.76 252.53 249.17 C 249.99 240.86 249.03 232.09 245.43 224.10 C 244.61 222.66 244.60 220.16 242.42 220.10 M 308.79 227.67 C 308.33 229.08 307.53 230.49 307.82 232.03 C 308.33 236.54 308.46 241.08 308.58 245.61 C 304.01 245.52 299.55 246.77 294.99 246.66 C 294.36 248.80 296.31 250.57 298.21 251.05 C 301.57 251.95 305.09 251.64 308.54 251.72 C 308.84 257.56 307.85 263.39 306.63 269.09 C 306.04 272.52 303.98 275.69 304.54 279.27 C 309.24 281.98 314.79 281.16 319.93 282.07 C 325.36 282.98 330.65 281.13 335.92 280.12 C 340.96 278.66 345.52 275.88 349.65 272.69 C 355.38 268.06 361.41 263.76 366.50 258.40 C 369.64 255.67 371.77 251.98 372.93 248.01 C 372.38 245.68 372.42 243.27 372.20 240.90 C 371.80 237.62 368.47 235.25 369.21 231.76 C 369.66 229.51 366.60 227.86 364.84 229.21 C 355.65 234.20 346.02 238.50 335.89 241.20 C 328.82 243.02 321.78 245.31 314.44 245.77 C 314.61 239.51 313.02 233.45 311.20 227.52 C 310.39 227.56 309.59 227.61 308.79 227.67 M 370.47 278.22 C 364.88 281.61 359.49 285.32 353.90 288.73 C 353.83 287.98 353.69 286.49 353.61 285.74 C 352.96 285.45 351.66 284.88 351.01 284.59 C 341.42 288.78 333.43 296.85 329.94 306.75 C 331.10 306.40 333.01 307.17 333.68 305.82 C 336.40 300.42 342.09 297.75 346.62 294.11 C 344.39 295.81 342.76 298.21 343.44 301.15 C 344.10 301.50 345.42 302.21 346.08 302.56 C 347.92 301.67 349.12 300.02 350.50 298.59 C 352.64 296.67 355.16 295.27 357.50 293.61 C 362.48 290.31 366.06 285.36 370.97 281.96 C 372.47 280.62 375.06 279.85 374.88 277.42 C 373.38 277.49 371.76 277.31 370.47 278.22 M 313.93 368.80 C 300.60 377.56 284.90 382.30 269.08 383.63 C 258.58 384.29 248.22 382.25 237.92 380.55 C 236.12 380.24 234.30 380.30 232.49 380.49 C 232.35 382.06 232.39 383.65 232.70 385.21 C 236.04 385.74 239.57 385.96 242.65 387.43 C 246.19 393.61 249.25 400.42 249.57 407.66 C 250.96 409.78 253.51 410.46 255.89 410.64 C 266.17 412.89 277.19 411.56 286.59 406.82 C 305.16 400.08 322.17 386.43 329.27 367.57 C 330.35 364.59 332.41 361.55 331.34 358.28 C 325.61 361.90 319.99 365.72 313.93 368.80 Z" />
<path fill="#917950" opacity="1.00" d=" M 396.48 119.49 C 401.64 116.62 406.92 113.33 413.03 113.24 C 403.28 116.43 394.70 122.32 386.75 128.67 C 376.46 137.49 366.02 146.79 359.61 158.94 C 359.22 158.34 358.45 157.14 358.06 156.54 C 357.59 156.63 356.64 156.82 356.16 156.91 C 361.40 150.22 365.49 142.51 372.11 137.02 C 375.24 133.80 378.48 130.64 382.42 128.42 C 387.28 125.71 391.45 121.92 396.48 119.49 Z" />
<path fill="#151515" opacity="1.00" d=" M 242.42 220.10 C 244.60 220.16 244.61 222.66 245.43 224.10 C 249.03 232.09 249.99 240.86 252.53 249.17 C 256.33 275.76 254.00 302.82 248.47 329.00 C 246.73 338.65 242.77 347.65 240.07 357.03 C 239.52 357.55 238.97 358.08 238.43 358.61 C 246.79 363.97 257.38 365.12 266.91 362.77 C 268.65 361.98 269.60 363.59 270.11 364.92 C 265.07 367.29 259.76 369.92 254.00 369.19 C 247.27 368.43 240.24 367.44 234.59 363.38 C 232.78 362.46 233.39 360.31 233.24 358.69 C 233.80 358.49 234.91 358.09 235.47 357.89 C 234.37 356.51 234.48 354.62 234.80 353.00 C 237.27 345.31 240.34 337.80 242.04 329.89 C 246.95 306.64 249.90 282.74 247.61 258.98 C 247.85 251.26 245.84 243.79 245.13 236.15 C 244.58 230.72 241.27 225.69 242.42 220.10 Z" />
<path fill="#151515" opacity="1.00" d=" M 308.79 227.67 C 309.59 227.61 310.39 227.56 311.20 227.52 C 313.02 233.45 314.61 239.51 314.44 245.77 C 321.78 245.31 328.82 243.02 335.89 241.20 C 346.02 238.50 355.65 234.20 364.84 229.21 C 366.60 227.86 369.66 229.51 369.21 231.76 C 368.47 235.25 371.80 237.62 372.20 240.90 C 372.42 243.27 372.38 245.68 372.93 248.01 C 371.77 251.98 369.64 255.67 366.50 258.40 C 361.41 263.76 355.38 268.06 349.65 272.69 C 345.52 275.88 340.96 278.66 335.92 280.12 C 330.65 281.13 325.36 282.98 319.93 282.07 C 314.79 281.16 309.24 281.98 304.54 279.27 C 303.98 275.69 306.04 272.52 306.63 269.09 C 307.85 263.39 308.84 257.56 308.54 251.72 C 305.09 251.64 301.57 251.95 298.21 251.05 C 296.31 250.57 294.36 248.80 294.99 246.66 C 299.55 246.77 304.01 245.52 308.58 245.61 C 308.46 241.08 308.33 236.54 307.82 232.03 C 307.53 230.49 308.33 229.08 308.79 227.67 M 360.17 238.44 C 353.31 241.95 346.04 244.59 338.66 246.78 C 338.07 251.32 336.59 256.15 338.61 260.55 C 339.96 263.63 342.39 267.24 346.10 267.31 C 349.66 265.66 352.74 263.11 355.98 260.90 C 359.68 257.73 363.83 254.60 365.87 250.03 C 367.48 245.84 366.70 240.75 363.61 237.42 C 362.37 237.05 361.27 238.05 360.17 238.44 M 314.56 251.70 C 314.72 259.73 313.43 267.65 311.38 275.40 C 321.01 276.01 331.22 276.61 340.02 271.91 C 337.11 269.42 334.34 266.61 332.98 262.95 C 331.00 258.81 331.74 254.15 331.73 249.74 C 331.90 249.43 332.25 248.82 332.43 248.51 C 326.52 249.82 320.67 251.66 314.56 251.70 Z" />
<path fill="#a5c897" opacity="1.00" d=" M 360.17 238.44 C 361.27 238.05 362.37 237.05 363.61 237.42 C 366.70 240.75 367.48 245.84 365.87 250.03 C 363.83 254.60 359.68 257.73 355.98 260.90 C 352.74 263.11 349.66 265.66 346.10 267.31 C 342.39 267.24 339.96 263.63 338.61 260.55 C 336.59 256.15 338.07 251.32 338.66 246.78 C 346.04 244.59 353.31 241.95 360.17 238.44 Z" />
<path fill="#ffffff" opacity="1.00" d=" M 314.56 251.70 C 320.67 251.66 326.52 249.82 332.43 248.51 C 332.25 248.82 331.90 249.43 331.73 249.74 C 331.74 254.15 331.00 258.81 332.98 262.95 C 334.34 266.61 337.11 269.42 340.02 271.91 C 331.22 276.61 321.01 276.01 311.38 275.40 C 313.43 267.65 314.72 259.73 314.56 251.70 Z" />
<path fill="#a5c897" opacity="1.00" d=" M 205.48 258.49 C 212.62 257.02 219.15 253.85 225.53 250.44 C 225.90 254.34 226.83 258.38 226.00 262.25 C 222.33 266.83 218.90 271.66 214.53 275.62 C 206.72 275.33 201.63 265.15 205.48 258.49 Z" />
<path fill="#ffffff" opacity="1.00" d=" M 184.36 261.27 C 189.04 261.00 193.69 260.31 198.31 259.50 C 196.92 267.64 200.67 277.30 208.82 280.27 C 200.29 284.16 189.46 285.83 181.35 280.12 C 182.03 273.80 183.12 267.50 184.36 261.27 Z" />
<path fill="#151515" opacity="1.00" d=" M 370.47 278.22 C 371.76 277.31 373.38 277.49 374.88 277.42 C 375.06 279.85 372.47 280.62 370.97 281.96 C 366.06 285.36 362.48 290.31 357.50 293.61 C 355.16 295.27 352.64 296.67 350.50 298.59 C 349.12 300.02 347.92 301.67 346.08 302.56 C 345.42 302.21 344.10 301.50 343.44 301.15 C 342.76 298.21 344.39 295.81 346.62 294.11 C 342.09 297.75 336.40 300.42 333.68 305.82 C 333.01 307.17 331.10 306.40 329.94 306.75 C 333.43 296.85 341.42 288.78 351.01 284.59 C 351.66 284.88 352.96 285.45 353.61 285.74 C 353.69 286.49 353.83 287.98 353.90 288.73 C 359.49 285.32 364.88 281.61 370.47 278.22 Z" />
<path fill="#151515" opacity="1.00" d=" M 313.93 368.80 C 319.99 365.72 325.61 361.90 331.34 358.28 C 332.41 361.55 330.35 364.59 329.27 367.57 C 322.17 386.43 305.16 400.08 286.59 406.82 C 277.19 411.56 266.17 412.89 255.89 410.64 C 253.51 410.46 250.96 409.78 249.57 407.66 C 249.25 400.42 246.19 393.61 242.65 387.43 C 239.57 385.96 236.04 385.74 232.70 385.21 C 232.39 383.65 232.35 382.06 232.49 380.49 C 234.30 380.30 236.12 380.24 237.92 380.55 C 248.22 382.25 258.58 384.29 269.08 383.63 C 284.90 382.30 300.60 377.56 313.93 368.80 M 322.65 370.15 C 311.45 378.46 298.55 384.50 284.88 387.39 C 273.92 389.83 262.34 390.89 251.29 388.45 C 252.88 393.81 253.98 399.37 256.44 404.43 C 263.22 406.43 270.35 405.65 277.10 403.99 C 286.17 400.55 295.37 397.03 303.18 391.13 C 309.61 386.99 314.18 380.76 319.08 375.04 C 320.74 373.22 321.84 370.73 324.25 369.76 L 321.72 369.26 C 321.95 369.48 322.42 369.93 322.65 370.15 Z" />
<path fill="#ffffff" opacity="1.00" d=" M 322.65 370.15 C 322.42 369.93 321.95 369.48 321.72 369.26 L 324.25 369.76 C 321.84 370.73 320.74 373.22 319.08 375.04 C 314.18 380.76 309.61 386.99 303.18 391.13 C 295.37 397.03 286.17 400.55 277.10 403.99 C 270.35 405.65 263.22 406.43 256.44 404.43 C 253.98 399.37 252.88 393.81 251.29 388.45 C 262.34 390.89 273.92 389.83 284.88 387.39 C 298.55 384.50 311.45 378.46 322.65 370.15 Z" />
<path fill="#f7d3a5" opacity="1.00" d=" M 341.49 419.63 C 345.61 417.22 348.42 413.31 351.76 410.03 C 351.11 413.02 350.53 416.03 350.62 419.11 C 349.57 428.17 348.23 437.27 348.70 446.44 C 344.54 448.02 340.33 449.45 336.20 451.08 C 329.98 453.55 323.31 454.51 316.91 456.43 C 307.42 458.70 297.81 461.08 287.97 460.80 C 277.72 460.34 267.42 461.14 257.26 459.53 C 257.61 454.03 256.91 448.48 255.35 443.20 C 262.37 445.32 269.66 446.65 277.02 446.42 C 285.33 445.73 293.44 443.66 301.51 441.62 C 315.90 436.44 329.20 428.66 341.49 419.63 Z" />
<path fill="#63738c" opacity="1.00" d=" M 357.83 448.99 C 362.61 446.55 366.91 443.29 371.69 440.88 C 371.86 446.26 371.40 451.62 370.84 456.96 C 370.43 466.28 370.89 475.64 369.88 484.93 C 369.04 495.13 371.22 505.36 369.71 515.50 C 374.16 514.47 373.65 509.03 374.84 505.58 C 384.66 507.95 394.32 510.97 404.15 513.31 C 400.65 520.08 395.62 526.00 390.89 531.96 C 385.62 537.34 380.27 542.65 374.63 547.65 C 368.71 553.46 362.36 558.96 355.14 563.11 C 346.05 568.13 336.14 571.49 326.04 573.78 C 318.67 576.11 310.84 575.57 303.39 577.60 C 305.23 544.27 309.29 511.10 313.46 477.97 C 314.16 473.13 314.39 468.22 315.42 463.44 C 323.01 460.83 331.11 459.94 338.52 456.77 C 344.96 454.17 351.60 452.06 357.83 448.99 Z" />
<path fill="#63738c" opacity="1.00" d=" M 235.10 500.16 C 235.99 486.16 237.08 472.19 238.31 458.22 C 243.66 461.09 248.89 464.72 255.06 465.43 C 264.82 467.51 274.86 465.80 284.67 467.29 C 282.01 491.88 277.14 516.27 276.48 541.04 C 275.31 552.30 275.65 563.63 275.62 574.93 C 268.27 574.36 261.77 570.30 255.82 566.25 C 249.01 561.89 243.27 556.16 237.32 550.75 C 229.60 543.66 223.35 535.16 217.69 526.39 C 215.25 522.33 211.71 518.58 211.36 513.65 C 217.75 511.75 224.34 510.45 231.00 510.02 C 234.76 508.50 234.26 503.45 235.10 500.16 Z" />
<path fill="#917950" opacity="1.00" d=" M 290.79 466.92 C 296.75 466.75 302.69 466.11 308.53 464.91 C 307.58 478.14 305.40 491.31 303.93 504.52 C 301.20 529.13 298.16 553.76 297.32 578.53 C 292.00 578.95 286.32 578.85 281.42 576.51 C 281.80 555.04 282.47 533.57 285.00 512.24 C 286.87 497.12 289.46 482.10 290.79 466.92 Z" />
<path fill="#63738c" opacity="1.00" d=" M 0.00 590.42 C 0.13 590.56 0.39 590.85 0.52 591.00 L 0.00 591.00 L 0.00 590.42 Z" />
<path fill="#63738c" opacity="1.00" d=" M 590.42 591.00 C 590.56 590.87 590.85 590.61 591.00 590.48 L 591.00 591.00 L 590.42 591.00 Z" />
</svg>
