<?xml version="1.0" encoding="UTF-8" ?>
<!DOCTYPE svg PUBLIC "-//W3C//DTD SVG 1.1//EN" "http://www.w3.org/Graphics/SVG/1.1/DTD/svg11.dtd">
<svg width="591pt" height="591pt" viewBox="0 0 591 591" version="1.1" xmlns="http://www.w3.org/2000/svg">
<path fill="#444444" opacity="0.51" d=" M 315.47 3.10 C 315.22 1.12 319.80 1.04 319.60 3.02 C 318.22 3.09 316.84 3.11 315.47 3.10 Z" />
<path fill="#010100" opacity="1.00" d=" M 310.55 6.54 C 311.98 5.20 313.36 3.24 315.47 3.10 C 316.84 3.11 318.22 3.09 319.60 3.02 C 323.41 3.54 325.44 7.56 327.78 10.24 C 329.48 12.82 331.91 15.17 332.61 18.26 C 332.90 18.68 333.48 19.52 333.78 19.93 C 335.03 20.60 335.21 22.09 335.46 23.33 C 335.57 24.83 336.40 26.13 337.39 27.22 C 338.11 28.01 338.66 28.91 339.05 29.92 C 339.93 32.45 340.84 34.97 341.76 37.49 L 341.94 38.27 C 342.18 38.75 342.65 39.71 342.89 40.20 L 342.99 41.10 C 343.15 41.63 343.46 42.69 343.61 43.22 L 343.78 44.14 C 343.98 46.18 344.56 48.17 345.68 49.90 C 346.36 50.91 346.79 52.02 346.97 53.21 C 347.19 53.70 347.63 54.68 347.86 55.18 L 348.01 56.08 C 348.17 56.60 348.48 57.66 348.64 58.18 L 348.86 59.05 C 349.10 60.60 349.71 62.05 350.57 63.36 L 350.95 64.08 C 351.12 64.60 351.46 65.65 351.63 66.17 L 351.86 67.04 C 352.08 68.57 352.70 70.00 353.56 71.28 L 353.90 71.91 C 354.10 72.40 354.49 73.39 354.68 73.89 L 355.10 74.60 C 355.53 76.97 355.92 79.35 356.42 81.71 C 355.67 83.08 354.81 84.39 353.95 85.69 C 352.15 88.23 350.77 91.04 349.92 94.03 L 349.68 94.79 C 348.03 99.51 347.44 104.64 348.75 109.53 C 349.77 110.17 350.78 110.84 351.86 111.41 C 354.94 112.02 358.15 111.96 361.22 111.32 C 362.49 110.98 363.73 110.54 364.97 110.11 C 368.58 108.93 371.96 107.17 375.06 104.98 C 376.34 104.23 377.59 103.16 379.14 103.06 C 379.61 102.81 380.54 102.32 381.01 102.07 C 383.78 101.21 386.53 102.77 388.82 104.20 C 396.63 109.10 400.70 117.70 406.06 124.86 C 409.54 132.27 415.21 138.45 422.04 142.92 C 424.98 145.16 428.44 146.77 431.04 149.42 C 431.48 149.68 432.35 150.21 432.79 150.48 C 433.06 150.60 433.61 150.84 433.88 150.96 C 435.20 152.44 436.69 153.84 438.57 154.58 C 441.35 155.82 445.21 158.46 443.88 162.00 C 443.64 162.47 443.18 163.42 442.94 163.89 C 442.81 165.96 440.24 166.96 438.53 167.61 C 438.17 167.99 437.45 168.74 437.09 169.12 C 436.75 169.20 436.05 169.36 435.70 169.44 C 434.19 169.55 432.90 170.41 431.80 171.38 C 430.94 172.18 429.92 172.67 428.77 172.85 C 427.34 173.05 426.04 173.66 424.90 174.50 L 424.30 174.85 C 421.34 175.83 418.39 176.81 415.44 177.82 L 414.67 177.89 C 413.63 177.74 412.72 178.01 411.95 178.71 C 411.52 178.83 410.66 179.07 410.23 179.19 C 398.77 180.94 387.10 180.26 375.65 178.82 L 374.81 178.62 C 373.27 178.10 371.68 177.83 370.07 177.76 L 369.12 177.61 C 367.88 177.08 366.54 176.83 365.20 176.94 C 364.67 176.88 363.61 176.77 363.08 176.71 C 362.25 176.01 361.31 175.76 360.25 175.95 C 359.83 175.93 359.00 175.88 358.58 175.85 C 355.91 175.21 353.24 174.57 350.58 173.91 C 350.28 173.74 349.67 173.39 349.36 173.22 C 348.14 172.42 346.81 171.64 345.30 171.69 L 344.61 171.62 C 342.34 170.78 340.11 169.82 337.91 168.80 C 335.77 167.54 334.03 165.75 332.22 164.08 C 331.41 164.72 330.58 165.33 329.74 165.92 C 329.47 166.36 328.93 167.24 328.66 167.68 C 328.62 169.02 327.85 170.34 326.71 171.04 C 326.43 171.47 325.86 172.31 325.57 172.74 C 325.54 173.97 324.65 174.93 324.07 175.95 C 321.41 179.64 319.44 183.77 318.03 188.09 C 317.69 189.07 317.28 190.02 316.78 190.94 C 316.57 191.42 316.14 192.38 315.93 192.85 C 315.72 193.81 315.38 194.72 314.92 195.58 C 312.31 200.15 310.80 205.22 309.86 210.37 L 309.57 211.19 C 308.92 212.03 308.69 212.98 308.87 214.03 L 308.74 214.76 C 307.80 216.94 307.32 219.27 307.50 221.65 L 307.49 222.42 C 306.71 232.45 306.08 242.58 307.61 252.57 L 307.65 253.38 C 307.54 254.58 307.84 255.77 308.45 256.82 C 308.57 257.23 308.82 258.05 308.95 258.46 C 309.54 262.23 310.47 265.93 311.76 269.52 L 311.94 270.30 C 312.19 270.77 312.68 271.70 312.93 272.17 L 312.94 272.99 C 313.14 273.49 313.56 274.47 313.76 274.96 C 314.49 275.87 314.88 276.91 314.93 278.08 C 315.13 278.57 315.53 279.54 315.74 280.03 C 316.75 281.52 317.35 283.24 317.98 284.92 C 319.44 289.23 321.49 293.33 324.05 297.09 C 325.50 299.38 327.07 301.62 328.19 304.10 C 328.01 306.31 330.86 306.14 329.93 303.93 C 329.80 302.54 329.95 301.18 330.38 299.85 C 330.91 298.36 331.16 296.78 331.11 295.20 C 331.17 294.66 331.29 293.56 331.36 293.02 C 332.01 292.12 332.25 291.13 332.08 290.04 L 332.28 289.08 C 332.95 288.20 333.24 287.21 333.15 286.11 L 333.40 285.32 C 334.13 283.73 334.73 282.08 335.08 280.36 L 335.26 279.68 C 336.17 277.39 337.14 275.12 338.13 272.87 C 340.60 268.65 343.83 264.01 348.36 262.09 C 348.94 262.09 350.10 262.09 350.68 262.08 C 352.12 262.23 353.32 263.15 354.62 263.73 C 354.89 271.32 354.54 278.96 355.73 286.49 C 355.76 286.95 355.83 287.87 355.86 288.33 C 355.83 290.25 356.11 292.16 356.62 294.03 C 356.68 294.55 356.82 295.59 356.88 296.12 C 356.78 297.37 357.01 298.61 357.55 299.75 L 357.80 300.55 C 358.04 303.93 358.34 307.31 358.79 310.67 L 358.85 311.50 C 358.86 313.07 359.08 314.62 359.44 316.15 L 359.51 317.02 C 359.45 319.18 359.84 321.30 360.52 323.35 L 360.57 324.12 C 360.48 325.93 360.98 327.67 361.62 329.35 L 361.67 330.21 C 361.58 331.30 361.92 332.25 362.70 333.06 L 362.91 334.05 C 362.76 335.16 363.01 336.17 363.67 337.09 L 363.76 338.09 C 363.76 339.31 363.71 340.81 364.86 341.59 C 365.89 342.57 366.93 343.55 367.96 344.55 C 369.09 345.94 370.90 346.36 372.62 346.31 C 376.23 346.42 378.84 349.41 381.50 351.51 C 385.05 354.98 389.24 358.11 391.73 362.46 C 392.06 362.88 392.74 363.74 393.08 364.16 C 393.43 364.38 394.12 364.83 394.47 365.05 C 395.90 366.25 397.85 366.13 399.61 366.14 C 402.79 366.10 405.16 368.66 407.39 370.60 C 409.55 372.80 411.83 375.21 412.50 378.32 C 412.78 379.86 413.57 381.25 414.38 382.58 L 414.75 383.29 C 415.07 383.70 415.71 384.52 416.03 384.92 L 415.88 386.10 C 415.53 387.36 416.02 388.61 416.61 389.73 L 416.94 390.53 C 417.13 396.16 417.08 401.79 417.02 407.43 L 416.61 408.20 C 415.93 409.04 415.69 409.99 415.89 411.05 C 415.81 411.57 415.66 412.59 415.58 413.10 C 414.83 415.30 414.56 417.62 415.67 419.77 L 415.89 420.50 C 416.02 423.96 415.64 427.46 416.17 430.91 C 416.91 433.65 418.63 435.98 419.97 438.46 L 420.00 439.24 C 420.22 439.71 420.68 440.67 420.90 441.15 L 420.92 441.95 C 421.14 442.43 421.58 443.39 421.80 443.87 L 422.09 444.68 C 422.08 448.95 422.08 453.22 422.16 457.50 L 421.67 458.22 C 420.46 458.80 420.39 460.45 421.75 460.90 C 422.92 461.87 424.36 462.88 424.68 464.49 C 425.05 464.85 425.80 465.57 426.17 465.93 L 427.03 466.12 C 426.99 466.62 426.91 467.62 426.88 468.12 C 427.10 468.60 427.55 469.55 427.78 470.03 C 427.94 470.44 428.27 471.25 428.44 471.66 C 429.05 475.76 429.28 479.91 429.19 484.06 C 428.88 485.20 428.32 486.17 427.50 486.98 C 427.26 487.44 426.78 488.34 426.54 488.79 C 426.40 490.98 424.39 492.50 423.30 494.29 C 419.52 494.62 415.74 494.92 411.97 495.26 C 412.08 498.34 412.35 501.41 412.76 504.47 L 412.82 505.25 C 413.09 505.70 413.62 506.60 413.88 507.05 C 414.37 508.07 414.71 509.15 414.89 510.28 C 415.01 511.72 415.64 513.04 416.61 514.11 C 417.52 515.36 418.51 516.70 418.67 518.31 C 418.98 518.73 419.58 519.56 419.89 519.97 C 426.20 527.95 432.76 536.11 441.91 541.04 C 444.53 542.65 447.35 543.90 450.13 545.24 L 450.72 545.64 C 451.84 546.58 453.20 547.30 454.72 547.25 C 455.92 547.23 457.02 547.53 458.02 548.14 C 458.48 548.40 459.39 548.92 459.85 549.17 L 460.64 549.28 C 466.18 550.68 471.95 550.41 477.50 549.29 L 478.34 549.19 C 479.39 549.29 480.34 549.02 481.19 548.39 L 482.07 548.22 C 483.93 548.05 485.71 547.42 487.31 546.46 L 487.96 546.15 C 488.45 545.93 489.42 545.50 489.91 545.28 C 491.48 544.21 493.39 543.17 495.35 543.48 C 495.74 543.47 496.54 543.44 496.93 543.42 L 496.30 543.88 C 496.10 544.35 495.69 545.29 495.49 545.77 C 491.88 548.74 487.38 551.29 482.71 551.89 C 480.87 551.80 479.04 552.01 477.29 552.52 L 476.54 552.68 C 473.51 552.97 470.49 553.24 467.50 553.74 C 466.04 553.95 464.58 554.10 463.11 554.15 C 457.63 554.24 452.15 553.80 446.71 553.05 L 445.93 552.66 C 445.14 551.95 444.23 551.68 443.20 551.85 C 442.02 551.84 440.97 551.49 440.03 550.81 C 439.55 550.60 438.58 550.18 438.10 549.97 C 436.44 549.91 434.73 548.98 433.97 547.48 C 433.53 547.22 432.64 546.71 432.20 546.45 C 430.47 546.54 429.03 545.30 427.93 544.11 C 427.55 543.76 426.79 543.05 426.41 542.70 C 422.19 540.47 418.60 537.09 414.94 534.03 C 412.26 531.28 410.26 527.98 407.97 524.92 C 409.53 528.03 411.28 531.04 412.82 534.17 L 412.98 535.04 C 413.18 535.54 413.59 536.52 413.80 537.01 C 414.54 537.92 414.89 538.97 414.86 540.17 C 414.67 541.20 414.93 542.11 415.66 542.89 L 416.12 543.62 C 416.80 548.26 416.79 552.96 416.52 557.64 L 415.81 557.99 C 415.57 558.45 415.10 559.36 414.87 559.82 C 415.16 561.20 413.72 562.20 412.53 562.44 C 411.14 562.82 409.60 563.27 408.80 564.59 L 408.33 565.19 C 397.38 564.66 386.43 564.19 375.47 564.84 L 374.63 564.86 C 372.32 564.81 370.02 565.12 367.76 565.56 L 366.89 565.63 C 365.80 565.51 364.85 565.83 364.06 566.59 C 363.51 566.68 362.43 566.85 361.88 566.94 C 360.79 566.76 359.80 567.01 358.94 567.71 L 358.03 568.05 C 357.49 568.19 356.41 568.47 355.87 568.61 L 354.95 568.84 C 353.45 569.03 352.02 569.60 350.87 570.59 C 349.00 571.79 347.07 573.30 344.78 573.48 C 344.33 573.72 343.42 574.21 342.97 574.46 C 342.15 575.36 341.08 575.84 339.76 575.91 C 338.25 576.10 336.87 576.75 335.60 577.56 L 334.80 577.89 C 334.35 578.14 333.44 578.63 332.99 578.88 L 331.90 578.69 C 329.72 578.27 327.49 578.43 325.31 578.63 C 322.17 579.16 319.91 575.95 318.98 573.36 C 319.05 569.54 319.09 565.72 318.84 561.91 C 311.79 562.95 304.65 563.22 297.53 563.14 C 297.13 563.01 296.31 562.75 295.90 562.62 C 295.05 561.94 294.11 561.75 293.08 562.06 C 292.28 561.97 290.69 561.81 289.89 561.72 C 288.07 560.95 285.93 560.30 284.31 561.86 C 283.21 562.53 282.10 563.19 280.94 563.74 C 276.79 565.57 272.75 567.64 268.76 569.80 C 267.91 570.21 267.04 570.60 266.17 570.97 C 263.96 571.83 261.82 572.84 259.72 573.94 C 258.50 574.47 257.23 575.21 255.85 575.04 C 255.35 575.25 254.35 575.65 253.85 575.85 L 252.93 575.99 C 252.42 576.20 251.41 576.62 250.90 576.83 L 249.97 576.98 C 249.46 577.18 248.44 577.56 247.93 577.76 C 247.44 577.80 246.45 577.89 245.96 577.94 C 244.94 577.69 244.01 577.89 243.18 578.54 L 242.45 578.85 C 238.77 579.21 235.09 579.64 231.54 580.73 C 231.10 580.82 230.20 580.99 229.75 581.08 C 221.40 580.53 213.02 581.29 204.66 580.61 C 203.56 579.98 202.34 579.61 201.07 579.59 L 199.91 579.44 C 209.11 578.84 218.43 580.32 227.53 578.29 C 227.94 578.25 228.77 578.18 229.18 578.15 C 230.22 578.30 231.12 578.02 231.90 577.32 C 233.79 576.16 235.92 575.27 238.13 575.04 C 238.62 574.83 239.59 574.42 240.07 574.22 C 241.50 573.09 243.25 572.28 245.07 572.11 C 245.55 571.88 246.51 571.43 246.98 571.21 C 248.00 570.57 249.12 570.24 250.36 570.22 C 251.85 570.22 253.14 569.39 254.00 568.22 C 255.19 566.94 256.56 565.59 258.35 565.29 C 258.76 564.96 259.59 564.31 260.00 563.99 L 260.35 563.26 L 261.16 563.31 C 261.63 563.08 262.57 562.63 263.05 562.40 C 263.57 562.14 264.63 561.62 265.15 561.36 C 265.61 561.14 266.53 560.69 266.99 560.47 C 268.19 558.93 269.92 557.93 271.47 556.79 C 273.24 556.22 271.86 554.37 270.51 554.83 C 269.98 554.77 268.92 554.63 268.39 554.57 C 267.88 554.37 266.86 553.98 266.35 553.79 C 265.09 553.92 263.96 553.60 262.96 552.81 C 262.55 552.51 261.73 551.89 261.32 551.59 C 259.04 551.10 256.82 549.95 255.09 548.41 C 254.62 548.19 253.69 547.74 253.22 547.52 C 250.58 547.12 248.27 545.51 245.86 544.45 C 244.78 543.66 243.45 543.50 242.16 543.57 L 241.28 543.51 C 239.22 543.12 237.13 542.88 235.03 542.82 L 234.09 542.68 C 233.20 542.01 232.21 541.76 231.12 541.92 L 230.20 541.86 C 229.70 541.65 228.71 541.22 228.22 541.01 C 221.76 539.73 216.48 535.37 210.93 532.07 C 197.02 523.74 184.19 513.71 172.41 502.60 C 156.79 488.42 143.07 472.23 131.15 454.84 C 130.16 453.21 128.73 451.67 128.46 449.73 C 128.17 449.31 127.59 448.47 127.30 448.05 C 125.93 447.48 125.80 445.90 125.56 444.65 C 125.48 443.17 124.62 441.89 123.50 440.99 C 122.69 440.04 121.19 439.19 121.42 437.76 C 121.19 437.29 120.73 436.36 120.50 435.89 C 120.11 435.39 119.31 434.40 118.92 433.90 C 118.26 432.56 116.91 431.75 115.43 431.71 C 109.21 430.59 104.23 426.34 99.24 422.76 C 95.70 420.31 92.98 416.94 90.56 413.43 C 87.12 408.55 82.51 404.45 80.01 398.95 C 79.12 396.88 78.18 394.85 77.13 392.86 C 76.30 391.23 75.53 389.52 75.43 387.67 C 75.45 386.14 74.61 384.82 73.61 383.75 C 72.74 382.95 72.22 382.01 72.05 380.91 C 71.84 380.43 71.42 379.46 71.21 378.97 C 70.04 377.09 69.16 374.87 69.21 372.63 C 68.98 372.14 68.53 371.17 68.30 370.68 C 68.24 370.22 68.12 369.29 68.06 368.83 C 68.24 367.75 67.98 366.79 67.29 365.95 C 67.24 365.42 67.14 364.36 67.09 363.82 C 67.23 362.54 66.97 361.28 66.38 360.15 C 66.26 359.70 66.02 358.81 65.90 358.36 C 64.76 346.85 65.27 335.28 65.87 323.76 C 65.97 323.30 66.16 322.38 66.25 321.92 C 66.44 321.41 66.80 320.39 66.99 319.88 L 67.33 319.03 C 68.13 318.20 68.40 317.24 68.13 316.17 L 67.94 315.21 C 68.74 315.13 70.33 314.97 71.13 314.90 C 71.50 315.26 72.24 315.98 72.61 316.34 C 75.44 317.60 77.25 320.42 79.63 322.36 C 89.42 331.85 100.81 339.42 111.98 347.17 C 112.44 347.48 112.90 347.78 113.36 348.09 C 111.56 337.18 111.82 326.14 111.66 315.13 C 111.80 314.63 112.07 313.65 112.20 313.16 C 112.89 311.55 113.14 309.81 113.23 308.07 L 113.38 307.12 C 113.91 305.87 114.16 304.54 114.06 303.19 C 114.13 302.65 114.28 301.55 114.35 301.01 C 115.01 300.12 115.26 299.13 115.10 298.03 L 115.30 297.08 C 115.97 296.18 116.24 295.18 116.10 294.07 L 116.30 293.09 C 117.11 292.25 117.37 291.28 117.09 290.20 L 116.88 289.23 C 117.20 288.82 117.83 288.01 118.15 287.60 L 118.25 286.71 C 119.21 284.03 120.20 281.37 121.19 278.71 L 121.54 278.10 C 122.37 276.94 122.96 275.63 123.12 274.20 C 123.26 273.01 123.75 272.00 124.61 271.17 C 125.59 270.10 126.47 268.82 126.41 267.31 C 126.53 264.40 128.21 261.92 129.42 259.37 C 130.94 256.53 132.11 253.39 134.45 251.09 C 135.57 250.15 136.31 248.84 136.46 247.38 C 137.83 241.83 141.68 237.38 144.72 232.67 C 146.75 229.75 148.46 226.58 150.89 223.95 C 151.24 223.57 151.95 222.80 152.31 222.42 C 152.70 220.95 153.68 219.75 154.52 218.52 C 164.17 205.40 175.00 193.09 187.07 182.14 C 198.00 173.29 209.16 164.70 220.76 156.74 C 222.85 155.46 224.83 153.77 227.30 153.31 C 227.71 152.99 228.53 152.36 228.94 152.05 C 230.49 150.81 232.31 149.95 234.10 149.10 C 236.15 148.19 238.15 147.19 240.11 146.09 C 241.72 145.19 243.41 144.39 245.25 144.11 C 246.70 143.98 248.01 143.33 249.12 142.41 C 250.05 141.60 251.13 141.20 252.35 141.22 C 252.83 140.97 253.78 140.46 254.26 140.21 L 255.12 140.04 C 255.63 139.83 256.65 139.40 257.15 139.19 L 258.12 139.09 C 259.21 139.24 260.22 139.02 261.14 138.40 L 262.04 138.20 C 264.18 137.87 266.27 137.27 268.31 136.54 L 269.05 136.40 C 269.54 136.20 270.53 135.79 271.02 135.59 C 271.54 135.42 272.56 135.09 273.07 134.92 C 273.60 134.76 274.66 134.44 275.19 134.28 L 276.14 134.17 C 277.46 134.20 278.76 133.92 279.96 133.36 C 280.48 133.28 281.52 133.12 282.04 133.05 C 283.08 133.27 284.03 133.06 284.89 132.40 C 285.31 132.29 286.15 132.07 286.57 131.95 C 290.82 131.74 295.05 131.31 299.26 130.71 C 298.03 127.94 296.65 125.24 295.13 122.63 C 294.57 121.79 294.21 120.89 294.07 119.91 C 293.85 119.44 293.41 118.48 293.19 118.00 C 292.49 117.04 292.10 115.97 292.03 114.78 C 291.79 114.30 291.32 113.35 291.09 112.87 L 291.05 112.04 C 290.85 111.55 290.45 110.56 290.24 110.07 C 289.50 109.07 289.12 107.96 289.11 106.71 C 289.24 105.64 288.95 104.69 288.25 103.88 L 287.95 102.98 C 287.80 102.44 287.51 101.37 287.37 100.83 L 287.19 99.90 C 286.94 97.82 286.35 95.80 285.47 93.90 C 285.34 93.50 285.07 92.70 284.93 92.30 C 284.40 89.83 283.86 87.36 283.30 84.90 C 283.24 84.50 283.10 83.71 283.04 83.31 C 283.06 74.76 282.76 66.19 283.22 57.64 L 283.58 56.96 C 284.66 55.23 285.47 53.28 285.20 51.20 C 285.22 50.67 285.24 49.61 285.25 49.08 C 285.44 48.56 285.81 47.53 286.00 47.01 L 286.17 46.09 C 286.39 45.59 286.81 44.58 287.02 44.07 L 287.11 43.16 C 287.35 42.68 287.83 41.72 288.08 41.24 C 288.74 38.26 290.21 35.46 291.94 32.95 C 292.27 32.55 292.92 31.75 293.25 31.35 C 294.11 27.98 296.65 25.39 298.54 22.55 C 302.61 17.27 306.19 11.60 310.55 6.54 M 305.79 22.81 C 298.82 31.87 292.92 41.99 290.23 53.19 C 287.83 61.82 287.97 70.90 288.52 79.76 C 290.75 95.59 296.17 110.78 302.75 125.29 C 303.39 126.58 303.97 127.96 305.01 129.00 C 309.00 130.76 313.45 131.46 317.15 133.88 C 322.10 137.12 326.43 141.39 329.57 146.41 C 331.78 149.82 331.61 154.42 334.60 157.37 C 337.79 160.94 341.11 164.74 345.85 166.21 C 359.05 170.93 373.11 172.71 387.00 174.10 C 404.62 175.99 423.21 171.83 437.50 161.13 C 427.72 152.92 415.49 147.73 407.16 137.83 C 403.65 133.81 401.71 128.75 398.46 124.55 C 394.73 119.65 391.90 113.90 386.84 110.17 C 385.12 108.88 382.83 107.42 380.69 108.68 C 374.13 111.81 367.97 116.32 360.61 117.34 C 356.38 117.81 351.84 118.11 347.93 116.12 C 345.69 115.13 343.34 113.53 343.07 110.86 C 342.30 105.79 342.60 100.56 343.58 95.54 C 344.58 90.46 347.30 86.00 349.43 81.35 C 351.17 78.31 348.72 75.16 347.86 72.24 C 341.91 58.00 337.95 43.04 332.24 28.71 C 328.41 21.31 323.70 14.24 317.95 8.17 C 312.81 12.06 309.71 17.82 305.79 22.81 M 285.78 137.85 C 277.69 139.55 269.79 141.97 261.79 143.99 C 248.81 147.84 236.63 154.02 225.14 161.12 C 215.30 167.45 206.19 174.83 196.81 181.80 C 190.19 186.77 184.38 192.71 178.80 198.80 C 165.30 212.98 153.90 229.03 143.71 245.70 C 134.11 262.67 125.19 280.37 120.71 299.45 C 119.68 304.78 118.04 310.14 118.42 315.62 C 116.47 325.38 117.70 335.45 118.85 345.24 C 119.52 349.23 119.90 353.91 123.46 356.51 C 127.74 359.64 132.05 362.81 136.79 365.21 C 140.65 368.55 145.28 370.75 149.58 373.43 C 152.55 375.15 154.18 378.37 155.50 381.41 C 158.85 390.49 159.01 400.52 156.93 409.91 C 155.11 418.87 152.06 427.94 145.82 434.83 C 144.05 436.75 141.79 438.72 139.00 438.63 C 135.24 438.55 131.59 437.44 127.84 437.13 C 131.65 444.99 136.53 452.28 141.69 459.30 C 143.66 461.94 145.48 464.73 147.95 466.94 C 150.99 472.39 155.52 476.76 159.64 481.37 C 173.90 496.54 189.35 510.76 206.77 522.25 C 217.19 529.31 228.35 536.14 241.07 537.80 C 236.75 531.22 231.34 525.38 227.54 518.45 C 221.27 507.93 215.93 496.72 213.10 484.76 C 210.06 469.76 207.72 454.42 208.93 439.08 C 210.35 430.56 211.50 421.93 214.66 413.83 C 218.50 400.24 225.25 387.69 232.95 375.94 C 236.55 371.58 240.76 367.75 244.73 363.73 C 253.05 356.16 261.04 347.11 272.31 344.11 C 280.87 341.09 289.87 339.15 299.00 339.60 C 318.82 338.85 336.10 350.11 352.25 360.18 C 354.61 355.38 357.05 350.53 360.72 346.57 C 349.17 338.63 338.32 329.19 330.68 317.32 C 327.54 312.80 324.07 308.50 321.16 303.83 C 316.17 295.48 312.39 286.50 308.16 277.77 C 307.26 273.57 305.63 269.57 304.56 265.42 C 302.86 259.53 302.07 253.44 301.07 247.40 C 300.14 236.87 301.13 226.25 302.79 215.84 C 303.79 209.04 306.46 202.68 308.08 196.04 C 310.17 192.29 311.44 188.16 313.30 184.30 C 317.30 175.49 322.13 167.06 327.55 159.04 C 326.56 155.39 326.04 151.45 323.69 148.35 C 319.86 143.13 314.85 138.43 308.64 136.27 C 301.09 134.19 293.19 136.04 285.78 137.85 M 341.43 279.42 C 337.74 288.13 336.14 297.60 335.71 307.01 C 335.57 311.21 335.79 315.89 338.84 319.13 C 344.29 325.42 350.17 331.49 357.10 336.17 C 354.92 325.63 353.34 314.97 352.47 304.23 C 350.60 292.76 349.05 281.21 348.52 269.59 C 345.33 272.18 343.00 275.64 341.43 279.42 M 71.92 323.83 C 71.00 330.17 71.24 336.60 71.14 343.00 C 71.17 352.78 71.13 362.90 74.75 372.15 C 77.47 379.26 80.68 386.16 83.85 393.07 C 90.20 407.39 101.55 419.67 116.00 426.02 C 123.25 430.04 131.39 432.08 139.62 432.74 C 148.43 423.91 151.50 411.08 152.28 399.01 C 152.21 391.76 151.67 383.25 145.94 378.06 C 132.31 370.01 118.75 361.63 106.68 351.32 C 99.69 345.55 91.92 340.82 84.91 335.08 C 80.35 331.60 76.49 327.30 71.92 323.83 M 265.60 353.61 C 257.39 359.21 250.52 366.53 243.47 373.48 C 235.72 380.92 230.87 390.66 226.11 400.13 C 223.24 405.70 222.10 411.93 219.63 417.66 C 212.45 439.70 214.49 463.48 219.50 485.75 C 224.91 504.97 235.81 522.21 248.84 537.16 C 256.67 545.05 267.94 547.44 278.03 551.14 C 285.03 545.82 292.33 540.81 298.51 534.51 C 305.91 528.58 312.36 521.52 317.62 513.65 C 319.18 511.55 320.16 508.72 322.88 507.88 C 322.48 513.33 318.25 517.16 315.56 521.58 C 310.99 529.41 303.76 535.10 297.48 541.48 C 284.50 551.29 271.81 561.58 257.94 570.14 C 266.21 567.00 274.12 562.99 282.02 559.03 C 293.54 552.32 303.95 543.74 313.13 534.11 C 316.20 531.29 317.11 526.57 320.94 524.59 C 320.00 530.90 316.70 536.71 312.09 541.07 C 306.39 546.41 300.13 551.10 294.36 556.36 C 302.60 558.66 311.43 558.04 319.55 555.51 C 324.22 542.06 331.68 529.71 340.93 518.94 C 345.79 514.02 351.35 509.79 357.15 506.05 C 365.38 502.27 374.66 498.87 383.79 501.25 C 391.14 503.92 397.62 508.87 402.08 515.32 C 405.36 508.55 406.97 501.00 406.68 493.49 C 400.81 489.41 395.69 484.36 391.05 478.96 C 388.18 475.25 385.54 470.65 386.89 465.80 C 391.32 472.31 396.52 478.35 402.44 483.56 C 406.53 486.48 410.65 490.35 415.99 490.39 C 420.43 490.42 422.13 485.54 423.22 482.03 C 424.04 476.50 422.53 470.61 419.09 466.19 C 415.07 469.10 410.09 471.01 405.07 470.02 C 397.99 469.46 391.92 464.58 388.43 458.62 C 385.85 454.13 387.36 448.97 387.90 444.18 C 383.90 443.61 379.75 442.94 376.34 440.62 C 371.07 437.10 368.09 431.12 366.37 425.20 C 369.74 423.47 373.33 421.78 375.65 418.66 C 380.06 412.93 383.39 406.40 385.52 399.49 C 388.31 391.99 390.24 384.05 389.81 375.99 C 389.50 373.16 390.64 369.74 388.54 367.41 C 384.26 362.08 379.28 357.28 373.87 353.11 C 371.32 351.05 367.72 350.71 364.68 351.70 C 358.83 355.78 359.37 364.25 354.10 368.74 C 339.22 359.10 324.01 348.37 306.03 345.70 C 292.18 344.41 277.87 346.97 265.60 353.61 M 396.16 371.45 C 395.91 375.22 395.89 379.01 395.63 382.78 C 394.85 391.74 391.76 400.27 388.51 408.58 C 385.15 416.12 380.56 423.28 374.03 428.47 C 376.31 434.21 382.24 438.80 388.65 437.69 C 391.02 436.04 392.46 433.43 394.24 431.21 C 399.18 424.55 406.41 419.49 409.60 411.62 C 412.95 402.53 412.29 392.20 408.81 383.26 C 406.41 378.00 402.51 371.88 396.16 371.45 M 408.63 423.63 C 408.50 424.18 408.24 425.29 408.11 425.84 C 408.76 425.83 410.06 425.82 410.72 425.82 C 410.68 425.14 410.61 423.78 410.57 423.10 C 410.09 423.24 409.12 423.50 408.63 423.63 M 393.13 452.03 C 392.74 456.52 396.39 459.89 399.82 462.14 C 403.49 464.70 408.22 463.71 412.40 463.60 C 412.86 462.79 413.33 461.99 413.81 461.21 C 408.26 460.15 402.37 457.82 399.38 452.72 C 396.27 447.98 397.37 442.09 397.56 436.77 C 393.76 440.87 393.33 446.72 393.13 452.03 M 371.33 507.16 C 366.19 508.64 360.97 510.38 356.67 513.64 C 351.34 517.55 345.84 521.51 342.03 527.02 C 333.25 538.64 325.21 551.75 323.77 566.56 C 323.00 569.72 325.24 574.13 329.00 573.33 C 337.57 572.14 344.53 566.34 352.64 563.73 C 367.09 558.27 382.79 558.42 398.00 558.83 C 401.66 558.95 405.82 560.24 409.14 558.12 C 410.94 555.48 411.73 552.10 411.03 548.96 C 409.20 537.37 402.61 527.34 396.22 517.77 C 393.38 513.28 388.88 510.18 384.19 507.88 C 380.24 505.78 375.53 506.20 371.33 507.16 M 410.29 509.87 C 409.74 511.91 409.12 513.94 408.80 516.04 C 409.22 518.62 410.42 521.01 411.79 523.21 C 421.72 538.59 438.75 549.02 456.98 550.87 C 443.30 546.61 430.34 538.99 421.25 527.75 C 416.22 522.71 413.49 516.09 410.29 509.87 Z" />
<path fill="#85785a" opacity="1.00" d=" M 305.79 22.81 C 309.71 17.82 312.81 12.06 317.95 8.17 C 323.70 14.24 328.41 21.31 332.24 28.71 C 337.95 43.04 341.91 58.00 347.86 72.24 C 348.72 75.16 351.17 78.31 349.43 81.35 C 347.30 86.00 344.58 90.46 343.58 95.54 C 342.60 100.56 342.30 105.79 343.07 110.86 C 343.34 113.53 345.69 115.13 347.93 116.12 C 351.84 118.11 356.38 117.81 360.61 117.34 C 367.97 116.32 374.13 111.81 380.69 108.68 C 382.83 107.42 385.12 108.88 386.84 110.17 C 391.90 113.90 394.73 119.65 398.46 124.55 C 401.71 128.75 403.65 133.81 407.16 137.83 C 415.49 147.73 427.72 152.92 437.50 161.13 C 423.21 171.83 404.62 175.99 387.00 174.10 C 373.11 172.71 359.05 170.93 345.85 166.21 C 341.11 164.74 337.79 160.94 334.60 157.37 C 331.61 154.42 331.78 149.82 329.57 146.41 C 326.43 141.39 322.10 137.12 317.15 133.88 C 313.45 131.46 309.00 130.76 305.01 129.00 C 303.97 127.96 303.39 126.58 302.75 125.29 C 296.17 110.78 290.75 95.59 288.52 79.76 C 287.97 70.90 287.83 61.82 290.23 53.19 C 292.92 41.99 298.82 31.87 305.79 22.81 Z" />
<path fill="#f4f2ed" opacity="1.00" d=" M 332.61 18.26 C 332.98 18.48 333.74 18.92 334.12 19.13 L 333.78 19.93 C 333.48 19.52 332.90 18.68 332.61 18.26 Z" />
<path fill="#f4f2ed" opacity="1.00" d=" M 335.46 23.33 C 337.24 22.85 338.40 25.98 337.39 27.22 C 336.40 26.13 335.57 24.83 335.46 23.33 Z" />
<path fill="#f4f2ed" opacity="1.00" d=" M 339.05 29.92 C 340.27 32.31 341.17 34.87 341.76 37.49 C 340.84 34.97 339.93 32.45 339.05 29.92 Z" />
<path fill="#f4f2ed" opacity="1.00" d=" M 291.66 32.12 C 292.06 31.93 292.85 31.55 293.25 31.35 C 292.92 31.75 292.27 32.55 291.94 32.95 L 291.66 32.12 Z" />
<path fill="#414141" opacity="0.48" d=" M 341.94 38.27 L 342.83 38.40 L 343.32 39.38 L 342.89 40.20 C 342.65 39.71 342.18 38.75 341.94 38.27 Z" />
<path fill="#434343" opacity="0.51" d=" M 287.18 41.37 L 288.08 41.24 C 287.83 41.72 287.35 42.68 287.11 43.16 L 286.69 42.35 L 287.18 41.37 Z" />
<path fill="#414141" opacity="0.46" d=" M 342.99 41.10 L 343.85 41.41 L 344.16 42.49 L 343.61 43.22 C 343.46 42.69 343.15 41.63 342.99 41.10 Z" />
<path fill="#424242" opacity="0.55" d=" M 286.14 44.29 L 287.02 44.07 C 286.81 44.58 286.39 45.59 286.17 46.09 C 286.17 45.64 286.15 44.74 286.14 44.29 Z" />
<path fill="#383838" opacity="0.65" d=" M 343.78 44.14 C 345.76 44.51 346.85 48.25 345.68 49.90 C 344.56 48.17 343.98 46.18 343.78 44.14 Z" />
<path fill="#464646" opacity="0.61" d=" M 284.76 48.31 C 285.07 47.99 285.69 47.34 286.00 47.01 C 285.81 47.53 285.44 48.56 285.25 49.08 L 284.76 48.31 Z" />
<path fill="#85785a" opacity="1.00" d=" M 283.58 56.96 C 282.84 55.37 283.17 51.40 285.20 51.20 C 285.47 53.28 284.66 55.23 283.58 56.96 Z" />
<path fill="#414141" opacity="0.46" d=" M 346.97 53.21 L 347.85 53.38 C 347.85 53.83 347.85 54.73 347.86 55.18 C 347.63 54.68 347.19 53.70 346.97 53.21 Z" />
<path fill="#414141" opacity="0.55" d=" M 348.01 56.08 L 348.86 56.38 L 349.18 57.45 L 348.64 58.18 C 348.48 57.66 348.17 56.60 348.01 56.08 Z" />
<path fill="#404040" opacity="0.64" d=" M 281.91 68.01 C 281.90 64.52 282.17 60.99 283.22 57.64 C 282.76 66.19 283.06 74.76 283.04 83.31 C 281.60 78.34 281.91 73.13 281.91 68.01 Z" />
<path fill="#393939" opacity="0.63" d=" M 348.86 59.05 C 350.71 58.86 351.78 62.11 350.57 63.36 C 349.71 62.05 349.10 60.60 348.86 59.05 Z" />
<path fill="#424242" opacity="0.55" d=" M 350.95 64.08 L 351.82 64.37 L 352.16 65.43 L 351.63 66.17 C 351.46 65.65 351.12 64.60 350.95 64.08 Z" />
<path fill="#383838" opacity="0.65" d=" M 351.86 67.04 C 353.68 66.82 354.82 70.06 353.56 71.28 C 352.70 70.00 352.08 68.57 351.86 67.04 Z" />
<path fill="#444444" opacity="0.60" d=" M 353.90 71.91 L 354.79 72.13 L 355.19 73.14 L 354.68 73.89 C 354.49 73.39 354.10 72.40 353.90 71.91 Z" />
<path fill="#3b3b3b" opacity="0.71" d=" M 355.10 74.60 C 356.55 77.05 357.60 79.85 356.68 82.71 L 356.42 81.71 C 355.92 79.35 355.53 76.97 355.10 74.60 Z" />
<path fill="#f4f2ed" opacity="1.00" d=" M 283.30 84.90 C 283.86 87.36 284.40 89.83 284.93 92.30 C 284.03 89.92 283.59 87.41 283.30 84.90 Z" />
<path fill="#353535" opacity="0.63" d=" M 349.92 94.03 C 350.77 91.04 352.15 88.23 353.95 85.69 C 353.10 88.68 351.79 91.54 349.92 94.03 Z" />
<path fill="#393939" opacity="0.62" d=" M 285.47 93.90 C 286.35 95.80 286.94 97.82 287.19 99.90 C 285.15 99.48 284.17 95.53 285.47 93.90 Z" />
<path fill="#3a3a3a" opacity="0.80" d=" M 348.75 109.53 C 347.44 104.64 348.03 99.51 349.68 94.79 C 349.25 99.69 349.24 104.63 348.75 109.53 Z" />
<path fill="#444444" opacity="0.59" d=" M 287.37 100.83 C 287.51 101.37 287.80 102.44 287.95 102.98 L 287.11 102.64 C 287.17 102.19 287.30 101.28 287.37 100.83 Z" />
<path fill="#424242" opacity="0.61" d=" M 379.25 102.16 L 380.20 101.66 L 381.01 102.07 C 380.54 102.32 379.61 102.81 379.14 103.06 L 379.25 102.16 Z" />
<path fill="#3e3e3e" opacity="0.55" d=" M 288.25 103.88 C 288.95 104.69 289.24 105.64 289.11 106.71 C 287.44 106.21 287.15 105.27 288.25 103.88 Z" />
<path fill="#85785a" opacity="1.00" d=" M 364.97 110.11 C 368.23 108.21 371.63 106.54 375.06 104.98 C 371.96 107.17 368.58 108.93 364.97 110.11 Z" />
<path fill="#454545" opacity="0.62" d=" M 290.24 110.07 C 290.45 110.56 290.85 111.55 291.05 112.04 L 290.17 111.84 L 289.75 110.83 L 290.24 110.07 Z" />
<path fill="#f4f2ed" opacity="1.00" d=" M 351.86 111.41 C 354.97 111.68 358.10 111.63 361.22 111.32 C 358.15 111.96 354.94 112.02 351.86 111.41 Z" />
<path fill="#424242" opacity="0.53" d=" M 291.09 112.87 C 291.32 113.35 291.79 114.30 292.03 114.78 L 291.14 114.65 L 290.66 113.67 L 291.09 112.87 Z" />
<path fill="#424242" opacity="0.55" d=" M 293.19 118.00 C 293.41 118.48 293.85 119.44 294.07 119.91 L 293.17 119.76 L 292.72 118.78 L 293.19 118.00 Z" />
<path fill="#393939" opacity="0.59" d=" M 295.13 122.63 C 296.65 125.24 298.03 127.94 299.26 130.71 C 295.05 131.31 290.82 131.74 286.57 131.95 C 290.20 130.67 294.06 130.40 297.86 130.00 C 296.85 127.58 295.87 125.15 295.13 122.63 Z" />
<path fill="#454545" opacity="0.59" d=" M 282.04 133.05 C 282.63 131.41 283.59 131.20 284.89 132.40 C 284.03 133.06 283.08 133.27 282.04 133.05 Z" />
<path fill="#3d3d3d" opacity="0.51" d=" M 276.14 134.17 C 276.16 132.45 279.15 131.94 279.96 133.36 C 278.76 133.92 277.46 134.20 276.14 134.17 Z" />
<path fill="#464646" opacity="0.54" d=" M 273.37 134.08 C 273.83 134.13 274.74 134.23 275.19 134.28 C 274.66 134.44 273.60 134.76 273.07 134.92 L 273.37 134.08 Z" />
<path fill="#f4f2ed" opacity="1.00" d=" M 269.05 136.40 C 269.35 136.08 269.96 135.45 270.26 135.14 L 271.02 135.59 C 270.53 135.79 269.54 136.20 269.05 136.40 Z" />
<path fill="#b5a378" opacity="1.00" d=" M 285.78 137.85 C 293.19 136.04 301.09 134.19 308.64 136.27 C 314.85 138.43 319.86 143.13 323.69 148.35 C 326.04 151.45 326.56 155.39 327.55 159.04 C 322.13 167.06 317.30 175.49 313.30 184.30 C 311.44 188.16 310.17 192.29 308.08 196.04 C 304.51 201.03 303.14 207.08 300.50 212.50 C 296.35 216.07 290.46 217.81 284.99 217.17 C 279.98 216.81 275.01 216.04 270.11 214.94 C 266.63 213.91 263.51 216.19 260.46 217.48 C 256.58 219.48 252.22 219.99 248.00 220.83 C 242.00 222.05 237.42 226.52 231.71 228.49 C 227.67 229.94 223.71 231.65 220.25 234.21 C 214.70 238.42 207.40 239.46 202.21 244.21 C 197.13 248.70 190.28 250.07 184.67 253.69 C 180.07 256.65 175.60 259.86 171.58 263.58 C 165.84 268.79 163.58 276.68 157.92 281.96 C 154.91 284.77 150.23 284.36 147.15 287.07 C 145.16 288.79 143.39 290.80 142.10 293.11 C 139.93 297.11 140.99 302.30 137.93 305.89 C 134.72 309.67 130.68 312.70 127.86 316.82 C 125.56 320.19 123.16 323.50 120.22 326.34 C 119.61 322.77 118.96 319.20 118.42 315.62 C 118.04 310.14 119.68 304.78 120.71 299.45 C 125.19 280.37 134.11 262.67 143.71 245.70 C 153.90 229.03 165.30 212.98 178.80 198.80 C 184.38 192.71 190.19 186.77 196.81 181.80 C 206.19 174.83 215.30 167.45 225.14 161.12 C 236.63 154.02 248.81 147.84 261.79 143.99 C 269.79 141.97 277.69 139.55 285.78 137.85 M 212.04 216.06 C 211.30 219.58 211.10 223.68 213.72 226.51 C 214.43 222.53 214.31 218.17 216.71 214.71 C 220.00 209.89 225.87 206.47 231.82 207.16 C 235.43 207.93 237.79 211.09 240.66 213.17 C 241.27 208.27 238.50 203.00 233.59 201.62 C 224.05 199.64 214.30 206.88 212.04 216.06 M 172.43 232.37 C 170.47 238.66 172.62 245.48 176.20 250.76 C 177.47 250.77 178.75 250.77 180.02 250.78 C 178.97 246.88 177.07 243.11 177.21 238.99 C 177.19 235.86 177.93 232.03 181.08 230.59 C 186.02 229.84 189.06 234.50 192.09 237.55 C 192.47 236.13 193.69 234.67 193.05 233.16 C 191.35 228.25 186.43 223.97 181.00 224.62 C 176.83 224.98 173.54 228.49 172.43 232.37 Z" />
<path fill="#393939" opacity="0.58" d=" M 262.04 138.20 C 262.58 136.09 266.58 135.21 268.31 136.54 C 266.27 137.27 264.18 137.87 262.04 138.20 Z" />
<path fill="#404040" opacity="0.55" d=" M 258.12 139.09 C 258.78 137.46 259.79 137.24 261.14 138.40 C 260.22 139.02 259.21 139.24 258.12 139.09 Z" />
<path fill="#414141" opacity="0.49" d=" M 255.34 139.16 C 255.79 139.17 256.70 139.18 257.15 139.19 C 256.65 139.40 255.63 139.83 255.12 140.04 L 255.34 139.16 Z" />
<path fill="#f4f2ed" opacity="1.00" d=" M 252.35 141.22 C 252.63 140.87 253.18 140.17 253.46 139.82 L 254.26 140.21 C 253.78 140.46 252.83 140.97 252.35 141.22 Z" />
<path fill="#393939" opacity="0.67" d=" M 245.25 144.11 C 244.74 142.33 248.02 141.07 249.12 142.41 C 248.01 143.33 246.70 143.98 245.25 144.11 Z" />
<path fill="#f4f2ed" opacity="1.00" d=" M 234.10 149.10 C 235.99 147.90 238.02 146.90 240.11 146.09 C 238.15 147.19 236.15 148.19 234.10 149.10 Z" />
<path fill="#f4f2ed" opacity="1.00" d=" M 431.04 149.42 C 431.47 149.46 432.32 149.55 432.75 149.59 L 432.79 150.48 C 432.35 150.21 431.48 149.68 431.04 149.42 Z" />
<path fill="#f4f2ed" opacity="1.00" d=" M 433.88 150.96 C 435.56 150.11 438.95 152.75 438.57 154.58 C 436.69 153.84 435.20 152.44 433.88 150.96 Z" />
<path fill="#f4f2ed" opacity="1.00" d=" M 227.30 153.31 C 227.50 152.91 227.92 152.13 228.13 151.73 L 228.94 152.05 C 228.53 152.36 227.71 152.99 227.30 153.31 Z" />
<path fill="#464646" opacity="0.65" d=" M 442.94 163.89 C 443.18 163.42 443.64 162.47 443.88 162.00 L 444.31 162.80 L 443.84 163.76 L 442.94 163.89 Z" />
<path fill="#f5f3ee" opacity="1.00" d=" M 328.66 167.68 C 328.93 167.24 329.47 166.36 329.74 165.92 L 330.12 166.72 L 329.57 167.62 L 328.66 167.68 Z" />
<path fill="#f4f2ed" opacity="1.00" d=" M 437.09 169.12 C 437.45 168.74 438.17 167.99 438.53 167.61 C 438.38 168.03 438.09 168.86 437.95 169.28 L 437.09 169.12 Z" />
<path fill="#303030" opacity="0.67" d=" M 337.91 168.80 C 340.11 169.82 342.34 170.78 344.61 171.62 C 342.04 171.70 339.79 170.44 337.91 168.80 Z" />
<path fill="#f4f2ed" opacity="1.00" d=" M 431.80 171.38 C 432.90 170.41 434.19 169.55 435.70 169.44 C 436.18 171.22 433.04 172.39 431.80 171.38 Z" />
<path fill="#f4f2ed" opacity="1.00" d=" M 325.57 172.74 C 325.86 172.31 326.43 171.47 326.71 171.04 L 327.05 171.85 C 326.68 172.07 325.94 172.51 325.57 172.74 Z" />
<path fill="#f4f2ed" opacity="1.00" d=" M 345.30 171.69 C 346.81 171.64 348.14 172.42 349.36 173.22 C 348.25 174.32 344.86 173.54 345.30 171.69 Z" />
<path fill="#353535" opacity="0.65" d=" M 424.90 174.50 C 426.04 173.66 427.34 173.05 428.77 172.85 C 429.29 174.66 425.93 175.98 424.90 174.50 Z" />
<path fill="#3b3b3b" opacity="0.62" d=" M 350.58 173.91 C 353.24 174.57 355.91 175.21 358.58 175.85 C 355.78 175.94 353.00 175.33 350.58 173.91 Z" />
<path fill="#373737" opacity="0.64" d=" M 415.44 177.82 C 418.39 176.81 421.34 175.83 424.30 174.85 C 421.78 176.87 418.60 177.62 415.44 177.82 Z" />
<path fill="#85785a" opacity="1.00" d=" M 318.03 188.09 C 319.44 183.77 321.41 179.64 324.07 175.95 C 322.14 180.03 320.16 184.10 318.03 188.09 Z" />
<path fill="#454545" opacity="0.63" d=" M 360.25 175.95 C 361.31 175.76 362.25 176.01 363.08 176.71 C 361.72 177.85 360.78 177.59 360.25 175.95 Z" />
<path fill="#434343" opacity="0.60" d=" M 365.20 176.94 C 366.54 176.83 367.88 177.08 369.12 177.61 C 368.29 178.94 365.29 178.67 365.20 176.94 Z" />
<path fill="#3e3e3e" opacity="0.46" d=" M 370.07 177.76 C 371.68 177.83 373.27 178.10 374.81 178.62 C 373.72 180.04 370.31 179.69 370.07 177.76 Z" />
<path fill="#404040" opacity="0.54" d=" M 411.95 178.71 C 412.72 178.01 413.63 177.74 414.67 177.89 C 414.21 179.59 413.30 179.86 411.95 178.71 Z" />
<path fill="#f4f2ed" opacity="1.00" d=" M 375.65 178.82 C 387.10 180.26 398.77 180.94 410.23 179.19 C 398.87 181.38 387.02 180.63 375.65 178.82 Z" />
<path fill="#404040" opacity="0.53" d=" M 315.93 192.85 C 316.14 192.38 316.57 191.42 316.78 190.94 L 317.27 191.72 L 316.83 192.70 L 315.93 192.85 Z" />
<path fill="#ab9a6e" opacity="1.00" d=" M 300.50 212.50 C 303.14 207.08 304.51 201.03 308.08 196.04 C 306.46 202.68 303.79 209.04 302.79 215.84 C 301.13 226.25 300.14 236.87 301.07 247.40 C 298.54 249.32 295.78 251.05 292.62 251.69 C 285.48 253.35 278.23 254.75 271.39 257.46 C 267.89 258.83 264.66 260.81 261.15 262.16 C 258.06 263.36 254.75 263.81 251.64 264.95 C 248.72 266.03 246.44 268.28 243.60 269.52 C 239.80 270.36 235.81 269.01 232.05 270.13 C 228.63 271.42 225.72 273.70 222.64 275.61 C 217.82 278.76 212.45 281.20 208.30 285.29 C 206.16 287.12 204.32 289.55 201.58 290.50 C 198.58 290.85 195.60 290.07 192.66 289.56 C 187.62 288.37 182.15 288.16 177.30 290.22 C 172.57 292.17 168.06 295.89 166.97 301.11 C 166.00 305.81 168.25 310.46 171.02 314.14 C 172.53 316.31 175.35 317.98 175.65 320.75 C 175.26 324.01 172.37 326.06 170.42 328.43 C 167.81 331.14 166.73 334.82 165.09 338.11 C 163.10 342.24 160.05 345.71 157.37 349.40 C 153.03 355.15 149.80 361.62 145.76 367.57 C 142.76 366.82 139.74 366.11 136.79 365.21 C 132.05 362.81 127.74 359.64 123.46 356.51 C 119.90 353.91 119.52 349.23 118.85 345.24 C 117.70 335.45 116.47 325.38 118.42 315.62 C 118.96 319.20 119.61 322.77 120.22 326.34 C 123.16 323.50 125.56 320.19 127.86 316.82 C 130.68 312.70 134.72 309.67 137.93 305.89 C 140.99 302.30 139.93 297.11 142.10 293.11 C 143.39 290.80 145.16 288.79 147.15 287.07 C 150.23 284.36 154.91 284.77 157.92 281.96 C 163.58 276.68 165.84 268.79 171.58 263.58 C 175.60 259.86 180.07 256.65 184.67 253.69 C 190.28 250.07 197.13 248.70 202.21 244.21 C 207.40 239.46 214.70 238.42 220.25 234.21 C 223.71 231.65 227.67 229.94 231.71 228.49 C 237.42 226.52 242.00 222.05 248.00 220.83 C 252.22 219.99 256.58 219.48 260.46 217.48 C 263.51 216.19 266.63 213.91 270.11 214.94 C 275.01 216.04 279.98 216.81 284.99 217.17 C 290.46 217.81 296.35 216.07 300.50 212.50 M 174.21 268.20 C 173.03 273.88 173.65 279.90 175.55 285.36 C 175.99 286.77 176.98 287.64 178.51 287.95 C 177.63 280.70 176.53 272.44 181.17 266.17 C 184.31 263.28 188.69 261.66 192.95 261.80 C 196.45 262.45 198.92 265.34 201.94 267.02 C 202.34 266.51 203.15 265.50 203.55 265.00 C 201.73 261.85 199.92 258.25 196.32 256.84 C 187.53 253.99 176.68 259.08 174.21 268.20 M 142.86 296.84 C 141.27 303.21 141.93 310.59 146.08 315.90 C 148.35 318.89 151.03 322.30 155.21 322.06 C 153.37 319.51 151.09 317.32 149.18 314.83 C 143.64 307.83 146.10 295.87 154.13 291.88 C 158.35 291.27 162.31 293.90 166.55 293.69 C 167.34 292.81 168.11 291.90 168.85 290.98 C 166.08 286.74 160.53 286.44 156.00 285.74 C 149.45 285.18 144.79 291.27 142.86 296.84 Z" />
<path fill="#343434" opacity="0.67" d=" M 309.86 210.37 C 310.80 205.22 312.31 200.15 314.92 195.58 C 313.65 200.64 312.12 205.67 309.86 210.37 Z" />
<path fill="#010101" opacity="1.00" d=" M 212.04 216.06 C 214.30 206.88 224.05 199.64 233.59 201.62 C 238.50 203.00 241.27 208.27 240.66 213.17 C 237.79 211.09 235.43 207.93 231.82 207.16 C 225.87 206.47 220.00 209.89 216.71 214.71 C 214.31 218.17 214.43 222.53 213.72 226.51 C 211.10 223.68 211.30 219.58 212.04 216.06 Z" />
<path fill="#414141" opacity="0.60" d=" M 308.87 214.03 C 308.69 212.98 308.92 212.03 309.57 211.19 C 310.77 212.48 310.54 213.43 308.87 214.03 Z" />
<path fill="#f4f2ed" opacity="1.00" d=" M 307.50 221.65 C 307.32 219.27 307.80 216.94 308.74 214.76 C 309.88 216.48 308.88 220.66 307.50 221.65 Z" />
<path fill="#f5f3ee" opacity="1.00" d=" M 150.66 223.10 C 151.07 222.93 151.90 222.59 152.31 222.42 C 151.95 222.80 151.24 223.57 150.89 223.95 L 150.66 223.10 Z" />
<path fill="#f4f2ed" opacity="1.00" d=" M 307.61 252.57 C 306.08 242.58 306.71 232.45 307.49 222.42 C 307.11 232.47 306.57 242.54 307.61 252.57 Z" />
<path fill="#010101" opacity="1.00" d=" M 172.43 232.37 C 173.54 228.49 176.83 224.98 181.00 224.62 C 186.43 223.97 191.35 228.25 193.05 233.16 C 193.69 234.67 192.47 236.13 192.09 237.55 C 189.06 234.50 186.02 229.84 181.08 230.59 C 177.93 232.03 177.19 235.86 177.21 238.99 C 177.07 243.11 178.97 246.88 180.02 250.78 C 178.75 250.77 177.47 250.77 176.20 250.76 C 172.62 245.48 170.47 238.66 172.43 232.37 Z" />
<path fill="#85785a" opacity="1.00" d=" M 134.45 251.09 C 133.33 249.90 134.76 246.85 136.46 247.38 C 136.31 248.84 135.57 250.15 134.45 251.09 Z" />
<path fill="#a39166" opacity="1.00" d=" M 292.62 251.69 C 295.78 251.05 298.54 249.32 301.07 247.40 C 302.07 253.44 302.86 259.53 304.56 265.42 C 305.63 269.57 307.26 273.57 308.16 277.77 C 308.87 282.13 309.57 286.49 310.61 290.78 C 307.26 290.02 303.73 289.13 300.33 290.16 C 291.87 292.45 284.23 296.87 276.14 300.14 C 271.20 302.12 266.45 304.57 262.00 307.50 C 263.66 307.83 265.32 308.16 266.99 308.50 C 246.79 319.57 228.14 333.59 212.76 350.79 C 210.49 353.77 206.75 354.60 203.32 355.48 C 198.93 356.36 194.28 359.25 193.85 364.12 C 193.19 369.97 192.44 375.95 189.34 381.11 C 183.71 381.38 176.85 383.62 176.20 390.19 C 175.48 393.31 175.41 396.54 175.32 399.73 C 175.26 403.84 176.16 408.02 175.05 412.06 C 173.83 416.32 171.87 420.32 170.57 424.56 C 169.05 429.19 168.42 434.10 166.41 438.57 C 164.97 441.82 163.17 444.97 162.56 448.52 C 161.03 457.96 160.25 467.52 160.19 477.09 C 155.94 473.91 152.03 470.32 147.95 466.94 C 145.48 464.73 143.66 461.94 141.69 459.30 C 136.53 452.28 131.65 444.99 127.84 437.13 C 131.59 437.44 135.24 438.55 139.00 438.63 C 141.79 438.72 144.05 436.75 145.82 434.83 C 152.06 427.94 155.11 418.87 156.93 409.91 C 159.01 400.52 158.85 390.49 155.50 381.41 C 154.18 378.37 152.55 375.15 149.58 373.43 C 145.28 370.75 140.65 368.55 136.79 365.21 C 139.74 366.11 142.76 366.82 145.76 367.57 C 149.80 361.62 153.03 355.15 157.37 349.40 C 160.05 345.71 163.10 342.24 165.09 338.11 C 166.73 334.82 167.81 331.14 170.42 328.43 C 172.37 326.06 175.26 324.01 175.65 320.75 C 175.35 317.98 172.53 316.31 171.02 314.14 C 172.59 314.39 174.17 314.63 175.75 314.86 C 174.09 311.43 171.56 308.04 171.68 304.07 C 172.92 299.05 177.75 295.75 182.60 294.75 C 188.28 293.46 193.92 295.62 199.58 295.94 C 198.32 292.85 195.71 290.74 192.66 289.56 C 195.60 290.07 198.58 290.85 201.58 290.50 C 204.32 289.55 206.16 287.12 208.30 285.29 C 212.45 281.20 217.82 278.76 222.64 275.61 C 225.72 273.70 228.63 271.42 232.05 270.13 C 235.81 269.01 239.80 270.36 243.60 269.52 C 246.44 268.28 248.72 266.03 251.64 264.95 C 254.75 263.81 258.06 263.36 261.15 262.16 C 264.66 260.81 267.89 258.83 271.39 257.46 C 278.23 254.75 285.48 253.35 292.62 251.69 Z" />
<path fill="#f4f2ed" opacity="1.00" d=" M 307.65 253.38 C 309.30 253.22 310.07 256.25 308.45 256.82 C 307.84 255.77 307.54 254.58 307.65 253.38 Z" />
<path fill="#010101" opacity="1.00" d=" M 174.21 268.20 C 176.68 259.08 187.53 253.99 196.32 256.84 C 199.92 258.25 201.73 261.85 203.55 265.00 C 203.15 265.50 202.34 266.51 201.94 267.02 C 198.92 265.34 196.45 262.45 192.95 261.80 C 188.69 261.66 184.31 263.28 181.17 266.17 C 176.53 272.44 177.63 280.70 178.51 287.95 C 176.98 287.64 175.99 286.77 175.55 285.36 C 173.65 279.90 173.03 273.88 174.21 268.20 Z" />
<path fill="#413e38" opacity="0.68" d=" M 308.95 258.46 C 310.84 261.84 311.51 265.70 311.76 269.52 C 310.47 265.93 309.54 262.23 308.95 258.46 Z" />
<path fill="#474747" opacity="0.52" d=" M 348.36 262.09 C 347.58 260.22 351.45 260.21 350.68 262.08 C 350.10 262.09 348.94 262.09 348.36 262.09 Z" />
<path fill="#f4f2ed" opacity="1.00" d=" M 354.62 263.73 C 355.55 271.28 354.81 278.93 355.73 286.49 C 354.54 278.96 354.89 271.32 354.62 263.73 Z" />
<path fill="#f4f2ed" opacity="1.00" d=" M 124.61 271.17 C 123.64 269.98 124.64 266.84 126.41 267.31 C 126.47 268.82 125.59 270.10 124.61 271.17 Z" />
<path fill="#454545" opacity="0.54" d=" M 311.94 270.30 L 312.84 270.40 L 313.34 271.36 L 312.93 272.17 C 312.68 271.70 312.19 270.77 311.94 270.30 Z" />
<path fill="#85785a" opacity="1.00" d=" M 341.43 279.42 C 343.00 275.64 345.33 272.18 348.52 269.59 C 349.05 281.21 350.60 292.76 352.47 304.23 C 353.34 314.97 354.92 325.63 357.10 336.17 C 350.17 331.49 344.29 325.42 338.84 319.13 C 335.79 315.89 335.57 311.21 335.71 307.01 C 336.14 297.60 337.74 288.13 341.43 279.42 Z" />
<path fill="#424242" opacity="0.54" d=" M 312.94 272.99 L 313.83 273.19 L 314.25 274.19 L 313.76 274.96 C 313.56 274.47 313.14 273.49 312.94 272.99 Z" />
<path fill="#313131" opacity="0.69" d=" M 335.26 279.68 C 335.36 277.11 336.53 274.82 338.13 272.87 C 337.14 275.12 336.17 277.39 335.26 279.68 Z" />
<path fill="#383838" opacity="0.65" d=" M 121.54 278.10 C 120.07 277.08 121.30 273.69 123.12 274.20 C 122.96 275.63 122.37 276.94 121.54 278.10 Z" />
<path fill="#9c8a5f" opacity="1.00" d=" M 308.16 277.77 C 312.39 286.50 316.17 295.48 321.16 303.83 C 324.07 308.50 327.54 312.80 330.68 317.32 C 338.32 329.19 349.17 338.63 360.72 346.57 C 357.05 350.53 354.61 355.38 352.25 360.18 C 336.10 350.11 318.82 338.85 299.00 339.60 C 289.87 339.15 280.87 341.09 272.31 344.11 C 261.04 347.11 253.05 356.16 244.73 363.73 C 240.76 367.75 236.55 371.58 232.95 375.94 C 225.25 387.69 218.50 400.24 214.66 413.83 C 211.50 421.93 210.35 430.56 208.93 439.08 C 207.72 454.42 210.06 469.76 213.10 484.76 C 215.93 496.72 221.27 507.93 227.54 518.45 C 231.34 525.38 236.75 531.22 241.07 537.80 C 228.35 536.14 217.19 529.31 206.77 522.25 C 189.35 510.76 173.90 496.54 159.64 481.37 C 155.52 476.76 150.99 472.39 147.95 466.94 C 152.03 470.32 155.94 473.91 160.19 477.09 C 160.25 467.52 161.03 457.96 162.56 448.52 C 163.17 444.97 164.97 441.82 166.41 438.57 C 168.42 434.10 169.05 429.19 170.57 424.56 C 171.87 420.32 173.83 416.32 175.05 412.06 C 176.16 408.02 175.26 403.84 175.32 399.73 C 177.64 403.63 180.55 407.80 185.24 408.93 C 188.32 410.03 191.33 408.41 194.02 407.06 C 190.09 405.11 185.45 403.88 182.70 400.22 C 179.81 396.51 181.69 390.27 186.23 388.91 C 190.82 387.40 194.89 390.89 199.09 392.15 C 198.15 387.93 195.32 383.82 190.78 383.10 C 184.84 381.55 179.47 385.63 176.20 390.19 C 176.85 383.62 183.71 381.38 189.34 381.11 C 192.44 375.95 193.19 369.97 193.85 364.12 C 194.28 359.25 198.93 356.36 203.32 355.48 C 206.75 354.60 210.49 353.77 212.76 350.79 C 228.14 333.59 246.79 319.57 266.99 308.50 C 265.32 308.16 263.66 307.83 262.00 307.50 C 266.45 304.57 271.20 302.12 276.14 300.14 C 284.23 296.87 291.87 292.45 300.33 290.16 C 303.73 289.13 307.26 290.02 310.61 290.78 C 309.57 286.49 308.87 282.13 308.16 277.77 M 195.68 363.65 C 193.63 370.27 197.23 377.55 202.78 381.27 C 204.45 382.22 206.38 381.32 208.14 381.15 C 205.73 378.09 201.95 375.63 201.45 371.47 C 201.06 368.75 200.48 364.90 203.69 363.66 C 208.79 361.84 213.45 365.45 217.39 368.22 C 218.70 363.33 214.33 359.50 210.20 357.92 C 204.81 355.74 198.17 358.44 195.68 363.65 Z" />
<path fill="#414141" opacity="0.51" d=" M 314.93 278.08 L 315.82 278.26 L 316.23 279.26 L 315.74 280.03 C 315.53 279.54 315.13 278.57 314.93 278.08 Z" />
<path fill="#353535" opacity="0.66" d=" M 118.25 286.71 C 118.52 283.83 119.34 280.97 121.19 278.71 C 120.20 281.37 119.21 284.03 118.25 286.71 Z" />
<path fill="#393939" opacity="0.62" d=" M 333.40 285.32 C 331.99 283.98 333.01 280.10 335.08 280.36 C 334.73 282.08 334.13 283.73 333.40 285.32 Z" />
<path fill="#85785a" opacity="1.00" d=" M 317.98 284.92 C 320.13 288.91 322.27 292.92 324.05 297.09 C 321.49 293.33 319.44 289.23 317.98 284.92 Z" />
<path fill="#010101" opacity="1.00" d=" M 142.86 296.84 C 144.79 291.27 149.45 285.18 156.00 285.74 C 160.53 286.44 166.08 286.74 168.85 290.98 C 168.11 291.90 167.34 292.81 166.55 293.69 C 162.31 293.90 158.35 291.27 154.13 291.88 C 146.10 295.87 143.64 307.83 149.18 314.83 C 151.09 317.32 153.37 319.51 155.21 322.06 C 151.03 322.30 148.35 318.89 146.08 315.90 C 141.93 310.59 141.27 303.21 142.86 296.84 Z" />
<path fill="#404040" opacity="0.57" d=" M 332.28 289.08 C 331.20 287.68 331.49 286.69 333.15 286.11 C 333.24 287.21 332.95 288.20 332.28 289.08 Z" />
<path fill="#f4f2ed" opacity="1.00" d=" M 117.33 287.55 L 118.15 287.60 C 117.83 288.01 117.20 288.82 116.88 289.23 C 116.99 288.81 117.22 287.97 117.33 287.55 Z" />
<path fill="#3d3d3d" opacity="0.46" d=" M 355.86 288.33 C 357.92 288.77 357.85 292.63 356.62 294.03 C 356.11 292.16 355.83 290.25 355.86 288.33 Z" />
<path fill="#010101" opacity="1.00" d=" M 177.30 290.22 C 182.15 288.16 187.62 288.37 192.66 289.56 C 195.71 290.74 198.32 292.85 199.58 295.94 C 193.92 295.62 188.28 293.46 182.60 294.75 C 177.75 295.75 172.92 299.05 171.68 304.07 C 171.56 308.04 174.09 311.43 175.75 314.86 C 174.17 314.63 172.59 314.39 171.02 314.14 C 168.25 310.46 166.00 305.81 166.97 301.11 C 168.06 295.89 172.57 292.17 177.30 290.22 Z" />
<path fill="#3d3d3d" opacity="0.49" d=" M 116.30 293.09 C 115.27 291.75 115.53 290.78 117.09 290.20 C 117.37 291.28 117.11 292.25 116.30 293.09 Z" />
<path fill="#404040" opacity="0.45" d=" M 331.36 293.02 C 330.22 291.67 330.46 290.68 332.08 290.04 C 332.25 291.13 332.01 292.12 331.36 293.02 Z" />
<path fill="#404040" opacity="0.52" d=" M 115.30 297.08 C 114.21 295.69 114.48 294.69 116.10 294.07 C 116.24 295.18 115.97 296.18 115.30 297.08 Z" />
<path fill="#3e3e3e" opacity="0.47" d=" M 330.38 299.85 C 329.00 298.82 329.19 295.38 331.11 295.20 C 331.16 296.78 330.91 298.36 330.38 299.85 Z" />
<path fill="#3d3d3d" opacity="0.44" d=" M 356.88 296.12 C 358.63 296.02 359.07 299.11 357.55 299.75 C 357.01 298.61 356.78 297.37 356.88 296.12 Z" />
<path fill="#404040" opacity="0.46" d=" M 114.35 301.01 C 113.22 299.66 113.47 298.67 115.10 298.03 C 115.26 299.13 115.01 300.12 114.35 301.01 Z" />
<path fill="#3b3b3b" opacity="0.51" d=" M 357.80 300.55 C 359.20 303.74 359.25 307.27 358.79 310.67 C 358.34 307.31 358.04 303.93 357.80 300.55 Z" />
<path fill="#424242" opacity="0.56" d=" M 113.38 307.12 C 112.04 306.28 112.33 303.29 114.06 303.19 C 114.16 304.54 113.91 305.87 113.38 307.12 Z" />
<path fill="#898989" opacity="1.00" d=" M 328.19 304.10 C 328.63 304.06 329.50 303.98 329.93 303.93 C 330.86 306.14 328.01 306.31 328.19 304.10 Z" />
<path fill="#3d3d3d" opacity="0.43" d=" M 112.20 313.16 C 111.11 311.79 111.34 308.56 113.23 308.07 C 113.14 309.81 112.89 311.55 112.20 313.16 Z" />
<path fill="#3c3c3c" opacity="0.42" d=" M 358.85 311.50 C 360.88 311.55 360.91 315.21 359.44 316.15 C 359.08 314.62 358.86 313.07 358.85 311.50 Z" />
<path fill="#f4f2ed" opacity="1.00" d=" M 71.13 314.90 L 71.97 314.69 C 72.13 315.10 72.45 315.93 72.61 316.34 C 72.24 315.98 71.50 315.26 71.13 314.90 Z" />
<path fill="#f4f2ed" opacity="1.00" d=" M 112.40 342.01 C 111.17 333.11 111.58 324.07 111.66 315.13 C 111.82 326.14 111.56 337.18 113.36 348.09 C 112.90 347.78 112.44 347.48 111.98 347.17 C 113.70 345.99 112.34 343.66 112.40 342.01 Z" />
<path fill="#4a4a4a" opacity="0.75" d=" M 67.33 319.03 C 66.29 317.66 66.56 316.70 68.13 316.17 C 68.40 317.24 68.13 318.20 67.33 319.03 Z" />
<path fill="#f4f2ed" opacity="1.00" d=" M 359.51 317.02 C 360.84 318.19 361.93 321.79 360.52 323.35 C 359.84 321.30 359.45 319.18 359.51 317.02 Z" />
<path fill="#464646" opacity="0.65" d=" M 65.75 321.17 C 66.06 320.85 66.68 320.20 66.99 319.88 C 66.80 320.39 66.44 321.41 66.25 321.92 L 65.75 321.17 Z" />
<path fill="#f4f2ed" opacity="1.00" d=" M 65.08 345.00 C 65.11 337.92 64.89 330.79 65.87 323.76 C 65.27 335.28 64.76 346.85 65.90 358.36 C 65.01 353.96 65.12 349.46 65.08 345.00 Z" />
<path fill="#85785a" opacity="1.00" d=" M 71.92 323.83 C 76.49 327.30 80.35 331.60 84.91 335.08 C 91.92 340.82 99.69 345.55 106.68 351.32 C 118.75 361.63 132.31 370.01 145.94 378.06 C 151.67 383.25 152.21 391.76 152.28 399.01 C 151.50 411.08 148.43 423.91 139.62 432.74 C 131.39 432.08 123.25 430.04 116.00 426.02 C 101.55 419.67 90.20 407.39 83.85 393.07 C 80.68 386.16 77.47 379.26 74.75 372.15 C 71.13 362.90 71.17 352.78 71.14 343.00 C 71.24 336.60 71.00 330.17 71.92 323.83 Z" />
<path fill="#f4f2ed" opacity="1.00" d=" M 360.57 324.12 C 361.98 324.94 362.98 328.04 361.62 329.35 C 360.98 327.67 360.48 325.93 360.57 324.12 Z" />
<path fill="#f4f2ed" opacity="1.00" d=" M 361.67 330.21 C 363.32 330.74 363.66 331.69 362.70 333.06 C 361.92 332.25 361.58 331.30 361.67 330.21 Z" />
<path fill="#414141" opacity="0.65" d=" M 362.91 334.05 C 364.51 334.70 364.77 335.71 363.67 337.09 C 363.01 336.17 362.76 335.16 362.91 334.05 Z" />
<path fill="#4f4e4e" opacity="0.73" d=" M 363.76 338.09 C 365.34 337.97 366.01 340.69 364.86 341.59 C 363.71 340.81 363.76 339.31 363.76 338.09 Z" />
<path fill="#85785a" opacity="1.00" d=" M 367.96 344.55 C 369.27 343.76 372.78 344.46 372.62 346.31 C 370.90 346.36 369.09 345.94 367.96 344.55 Z" />
<path fill="#e3c47a" opacity="1.00" d=" M 265.60 353.61 C 277.87 346.97 292.18 344.41 306.03 345.70 C 324.01 348.37 339.22 359.10 354.10 368.74 C 359.37 364.25 358.83 355.78 364.68 351.70 C 367.72 350.71 371.32 351.05 373.87 353.11 C 379.28 357.28 384.26 362.08 388.54 367.41 C 390.64 369.74 389.50 373.16 389.81 375.99 C 390.24 384.05 388.31 391.99 385.52 399.49 C 383.39 406.40 380.06 412.93 375.65 418.66 C 373.33 421.78 369.74 423.47 366.37 425.20 C 368.09 431.12 371.07 437.10 376.34 440.62 C 379.75 442.94 383.90 443.61 387.90 444.18 C 387.36 448.97 385.85 454.13 388.43 458.62 C 391.92 464.58 397.99 469.46 405.07 470.02 C 410.09 471.01 415.07 469.10 419.09 466.19 C 422.53 470.61 424.04 476.50 423.22 482.03 C 422.13 485.54 420.43 490.42 415.99 490.39 C 410.65 490.35 406.53 486.48 402.44 483.56 C 396.52 478.35 391.32 472.31 386.89 465.80 C 385.54 470.65 388.18 475.25 391.05 478.96 C 395.69 484.36 400.81 489.41 406.68 493.49 C 406.97 501.00 405.36 508.55 402.08 515.32 C 397.62 508.87 391.14 503.92 383.79 501.25 C 374.66 498.87 365.38 502.27 357.15 506.05 C 351.35 509.79 345.79 514.02 340.93 518.94 C 331.68 529.71 324.22 542.06 319.55 555.51 C 311.43 558.04 302.60 558.66 294.36 556.36 C 300.13 551.10 306.39 546.41 312.09 541.07 C 316.70 536.71 320.00 530.90 320.94 524.59 C 317.11 526.57 316.20 531.29 313.13 534.11 C 303.95 543.74 293.54 552.32 282.02 559.03 C 274.12 562.99 266.21 567.00 257.94 570.14 C 271.81 561.58 284.50 551.29 297.48 541.48 C 303.76 535.10 310.99 529.41 315.56 521.58 C 318.25 517.16 322.48 513.33 322.88 507.88 C 320.16 508.72 319.18 511.55 317.62 513.65 C 312.36 521.52 305.91 528.58 298.51 534.51 C 292.33 540.81 285.03 545.82 278.03 551.14 C 267.94 547.44 256.67 545.05 248.84 537.16 C 235.81 522.21 224.91 504.97 219.50 485.75 C 214.49 463.48 212.45 439.70 219.63 417.66 C 222.10 411.93 223.24 405.70 226.11 400.13 C 230.87 390.66 235.72 380.92 243.47 373.48 C 250.52 366.53 257.39 359.21 265.60 353.61 M 245.07 385.07 C 239.82 389.41 238.19 396.51 237.78 403.00 C 238.12 413.72 242.64 424.22 250.03 431.97 C 253.43 436.15 257.11 440.07 261.11 443.68 C 255.11 447.99 248.72 452.90 246.37 460.22 C 244.19 467.69 244.71 476.76 250.41 482.58 C 255.04 487.17 260.54 491.60 267.23 492.40 C 279.30 493.82 292.28 487.85 298.30 477.12 C 301.30 471.68 301.06 465.20 300.14 459.25 C 308.27 460.30 318.07 459.49 323.42 452.44 C 327.54 446.90 331.52 440.13 330.35 432.96 C 329.48 430.68 328.26 428.21 326.05 427.00 C 316.73 425.58 306.61 426.57 298.06 421.92 C 291.94 418.31 286.01 414.08 281.66 408.39 C 277.54 401.88 275.63 394.34 273.00 387.19 C 271.65 383.75 269.87 379.72 265.97 378.68 C 258.51 377.53 250.79 380.31 245.07 385.07 M 344.04 422.43 C 346.09 426.17 349.57 429.49 349.69 434.01 C 350.02 440.47 345.66 446.05 340.83 449.84 C 339.38 450.77 339.26 452.51 339.03 454.04 C 344.28 452.91 349.99 450.59 352.59 445.55 C 355.84 440.27 356.59 433.43 354.22 427.67 C 352.40 424.06 348.05 421.69 344.04 422.43 M 302.04 490.01 C 293.64 499.30 284.75 508.19 274.74 515.75 C 268.09 520.59 259.52 522.99 251.36 521.44 C 247.50 520.62 243.98 518.08 242.76 514.22 C 240.22 506.80 241.27 498.59 243.80 491.31 C 242.64 491.32 241.49 491.35 240.34 491.38 C 237.81 495.46 236.34 500.17 236.58 505.00 C 236.17 511.21 237.17 518.47 242.56 522.41 C 247.39 525.60 253.14 527.99 259.04 527.29 C 266.13 526.52 273.32 524.48 279.01 520.00 C 286.64 514.07 294.17 507.75 299.84 499.85 C 303.79 494.28 308.29 488.99 311.10 482.71 C 307.02 483.54 304.50 486.98 302.04 490.01 Z" />
<path fill="#010100" opacity="1.00" d=" M 195.68 363.65 C 198.17 358.44 204.81 355.74 210.20 357.92 C 214.33 359.50 218.70 363.33 217.39 368.22 C 213.45 365.45 208.79 361.84 203.69 363.66 C 200.48 364.90 201.06 368.75 201.45 371.47 C 201.95 375.63 205.73 378.09 208.14 381.15 C 206.38 381.32 204.45 382.22 202.78 381.27 C 197.23 377.55 193.63 370.27 195.68 363.65 Z" />
<path fill="#404040" opacity="0.66" d=" M 66.38 360.15 C 66.97 361.28 67.23 362.54 67.09 363.82 C 65.36 363.89 64.95 360.85 66.38 360.15 Z" />
<path fill="#f5f3ee" opacity="1.00" d=" M 391.73 362.46 C 392.13 362.66 392.94 363.08 393.34 363.29 L 393.08 364.16 C 392.74 363.74 392.06 362.88 391.73 362.46 Z" />
<path fill="#3d3d3d" opacity="0.40" d=" M 394.47 365.05 C 395.80 364.02 399.37 364.23 399.61 366.14 C 397.85 366.13 395.90 366.25 394.47 365.05 Z" />
<path fill="#3f3f3f" opacity="0.53" d=" M 67.29 365.95 C 67.98 366.79 68.24 367.75 68.06 368.83 C 66.42 368.25 66.16 367.30 67.29 365.95 Z" />
<path fill="#f4f2ed" opacity="1.00" d=" M 68.30 370.68 C 68.53 371.17 68.98 372.14 69.21 372.63 C 68.87 372.34 68.21 371.76 67.88 371.47 L 68.30 370.68 Z" />
<path fill="#85785a" opacity="1.00" d=" M 396.16 371.45 C 402.51 371.88 406.41 378.00 408.81 383.26 C 412.29 392.20 412.95 402.53 409.60 411.62 C 406.41 419.49 399.18 424.55 394.24 431.21 C 392.46 433.43 391.02 436.04 388.65 437.69 C 382.24 438.80 376.31 434.21 374.03 428.47 C 380.56 423.28 385.15 416.12 388.51 408.58 C 391.76 400.27 394.85 391.74 395.63 382.78 C 395.89 379.01 395.91 375.22 396.16 371.45 Z" />
<path fill="#f4f2ed" opacity="1.00" d=" M 412.50 378.32 C 414.38 377.96 415.43 381.30 414.38 382.58 C 413.57 381.25 412.78 379.86 412.50 378.32 Z" />
<path fill="#414141" opacity="0.62" d=" M 71.21 378.97 C 71.42 379.46 71.84 380.43 72.05 380.91 L 71.16 380.74 L 70.73 379.75 L 71.21 378.97 Z" />
<path fill="#000000" opacity="1.00" d=" M 245.07 385.07 C 250.79 380.31 258.51 377.53 265.97 378.68 C 269.87 379.72 271.65 383.75 273.00 387.19 C 275.63 394.34 277.54 401.88 281.66 408.39 C 286.01 414.08 291.94 418.31 298.06 421.92 C 306.61 426.57 316.73 425.58 326.05 427.00 C 328.26 428.21 329.48 430.68 330.35 432.96 C 331.52 440.13 327.54 446.90 323.42 452.44 C 318.07 459.49 308.27 460.30 300.14 459.25 C 301.06 465.20 301.30 471.68 298.30 477.12 C 292.28 487.85 279.30 493.82 267.23 492.40 C 260.54 491.60 255.04 487.17 250.41 482.58 C 244.71 476.76 244.19 467.69 246.37 460.22 C 248.72 452.90 255.11 447.99 261.11 443.68 C 257.11 440.07 253.43 436.15 250.03 431.97 C 242.64 424.22 238.12 413.72 237.78 403.00 C 238.19 396.51 239.82 389.41 245.07 385.07 M 244.44 398.35 C 242.99 408.94 246.86 420.08 254.24 427.76 C 260.03 434.63 266.49 441.09 274.20 445.81 C 280.45 449.73 288.01 450.18 294.99 452.00 C 301.77 453.57 309.47 455.23 316.00 452.02 C 320.91 446.92 325.28 440.01 324.54 432.64 C 314.38 431.62 303.39 432.15 294.35 426.65 C 287.84 422.77 281.57 418.15 276.94 412.09 C 272.51 405.47 270.44 397.67 267.79 390.25 C 266.97 388.20 266.24 385.97 264.53 384.47 C 255.89 383.53 245.62 389.13 244.44 398.35 M 258.92 452.90 C 256.74 455.01 254.37 457.06 252.98 459.81 C 250.99 463.45 251.03 467.78 251.41 471.80 C 252.64 478.18 258.30 482.39 263.71 485.27 C 270.34 488.42 277.62 485.90 284.05 483.55 C 280.92 482.87 277.69 482.47 274.70 481.27 C 269.88 479.15 266.29 474.35 265.86 469.06 C 265.46 462.59 267.07 455.80 271.73 451.07 C 270.11 450.12 268.56 449.03 266.83 448.29 C 263.70 448.68 261.13 450.80 258.92 452.90 Z" />
<path fill="#010100" opacity="1.00" d=" M 176.20 390.19 C 179.47 385.63 184.84 381.55 190.78 383.10 C 195.32 383.82 198.15 387.93 199.09 392.15 C 194.89 390.89 190.82 387.40 186.23 388.91 C 181.69 390.27 179.81 396.51 182.70 400.22 C 185.45 403.88 190.09 405.11 194.02 407.06 C 191.33 408.41 188.32 410.03 185.24 408.93 C 180.55 407.80 177.64 403.63 175.32 399.73 C 175.41 396.54 175.48 393.31 176.20 390.19 Z" />
<path fill="#444444" opacity="0.61" d=" M 414.75 383.29 L 415.63 383.25 C 415.73 383.67 415.93 384.51 416.03 384.92 C 415.71 384.52 415.07 383.70 414.75 383.29 Z" />
<path fill="#f4f2ed" opacity="1.00" d=" M 73.61 383.75 C 74.61 384.82 75.45 386.14 75.43 387.67 C 73.65 388.09 72.66 384.96 73.61 383.75 Z" />
<path fill="#85785a" opacity="1.00" d=" M 244.44 398.35 C 245.62 389.13 255.89 383.53 264.53 384.47 C 266.24 385.97 266.97 388.20 267.79 390.25 C 270.44 397.67 272.51 405.47 276.94 412.09 C 281.57 418.15 287.84 422.77 294.35 426.65 C 303.39 432.15 314.38 431.62 324.54 432.64 C 325.28 440.01 320.91 446.92 316.00 452.02 C 309.47 455.23 301.77 453.57 294.99 452.00 C 288.01 450.18 280.45 449.73 274.20 445.81 C 266.49 441.09 260.03 434.63 254.24 427.76 C 246.86 420.08 242.99 408.94 244.44 398.35 Z" />
<path fill="#3f3f3f" opacity="0.47" d=" M 415.88 386.10 C 417.54 386.07 417.99 388.99 416.61 389.73 C 416.02 388.61 415.53 387.36 415.88 386.10 Z" />
<path fill="#424242" opacity="0.66" d=" M 416.94 390.53 C 418.71 395.97 418.48 401.94 417.02 407.43 C 417.08 401.79 417.13 396.16 416.94 390.53 Z" />
<path fill="#f4f2ed" opacity="1.00" d=" M 77.13 392.86 C 78.18 394.85 79.12 396.88 80.01 398.95 C 78.85 397.02 77.90 394.97 77.13 392.86 Z" />
<path fill="#3e3e3e" opacity="0.45" d=" M 415.89 411.05 C 415.69 409.99 415.93 409.04 416.61 408.20 C 417.77 409.51 417.53 410.46 415.89 411.05 Z" />
<path fill="#f4f2ed" opacity="1.00" d=" M 415.67 419.77 C 414.56 417.62 414.83 415.30 415.58 413.10 C 416.70 414.86 416.80 418.02 415.67 419.77 Z" />
<path fill="#353535" opacity="0.53" d=" M 415.89 420.50 C 417.24 423.48 416.79 426.77 417.01 429.94 C 417.65 432.88 419.22 435.53 419.97 438.46 C 418.63 435.98 416.91 433.65 416.17 430.91 C 415.64 427.46 416.02 423.96 415.89 420.50 Z" />
<path fill="#010100" opacity="1.00" d=" M 344.04 422.43 C 348.05 421.69 352.40 424.06 354.22 427.67 C 356.59 433.43 355.84 440.27 352.59 445.55 C 349.99 450.59 344.28 452.91 339.03 454.04 C 339.26 452.51 339.38 450.77 340.83 449.84 C 345.66 446.05 350.02 440.47 349.69 434.01 C 349.57 429.49 346.09 426.17 344.04 422.43 Z" />
<path fill="#e1c279" opacity="1.00" d=" M 408.63 423.63 C 409.12 423.50 410.09 423.24 410.57 423.10 C 410.61 423.78 410.68 425.14 410.72 425.82 C 410.06 425.82 408.76 425.83 408.11 425.84 C 408.24 425.29 408.50 424.18 408.63 423.63 Z" />
<path fill="#85785a" opacity="1.00" d=" M 115.43 431.71 C 116.91 431.75 118.26 432.56 118.92 433.90 C 117.73 434.92 114.97 433.22 115.43 431.71 Z" />
<path fill="#f4f2ed" opacity="1.00" d=" M 120.50 435.89 C 120.73 436.36 121.19 437.29 121.42 437.76 L 120.55 437.64 C 120.54 437.20 120.52 436.33 120.50 435.89 Z" />
<path fill="#f4f2ed" opacity="1.00" d=" M 393.13 452.03 C 393.33 446.72 393.76 440.87 397.56 436.77 C 397.37 442.09 396.27 447.98 399.38 452.72 C 402.37 457.82 408.26 460.15 413.81 461.21 C 413.33 461.99 412.86 462.79 412.40 463.60 C 408.22 463.71 403.49 464.70 399.82 462.14 C 396.39 459.89 392.74 456.52 393.13 452.03 Z" />
<path fill="#464646" opacity="0.65" d=" M 420.00 439.24 L 420.88 439.37 L 421.34 440.35 L 420.90 441.15 C 420.68 440.67 420.22 439.71 420.00 439.24 Z" />
<path fill="#f4f2ed" opacity="1.00" d=" M 123.50 440.99 C 124.62 441.89 125.48 443.17 125.56 444.65 C 123.87 445.18 122.53 442.20 123.50 440.99 Z" />
<path fill="#444444" opacity="0.56" d=" M 420.92 441.95 L 421.81 442.11 L 422.26 443.09 L 421.80 443.87 C 421.58 443.39 421.14 442.43 420.92 441.95 Z" />
<path fill="#414141" opacity="0.45" d=" M 422.09 444.68 C 423.33 448.83 423.61 453.36 422.16 457.50 C 422.08 453.22 422.08 448.95 422.09 444.68 Z" />
<path fill="#f5f3ee" opacity="1.00" d=" M 127.30 448.05 C 127.59 448.47 128.17 449.31 128.46 449.73 C 128.09 449.51 127.34 449.08 126.97 448.86 L 127.30 448.05 Z" />
<path fill="#f5f3ee" opacity="1.00" d=" M 258.92 452.90 C 261.13 450.80 263.70 448.68 266.83 448.29 C 268.56 449.03 270.11 450.12 271.73 451.07 C 267.07 455.80 265.46 462.59 265.86 469.06 C 266.29 474.35 269.88 479.15 274.70 481.27 C 277.69 482.47 280.92 482.87 284.05 483.55 C 277.62 485.90 270.34 488.42 263.71 485.27 C 258.30 482.39 252.64 478.18 251.41 471.80 C 251.03 467.78 250.99 463.45 252.98 459.81 C 254.37 457.06 256.74 455.01 258.92 452.90 Z" />
<path fill="#474747" opacity="0.70" d=" M 421.75 460.90 C 420.39 460.45 420.46 458.80 421.67 458.22 L 422.26 458.94 C 422.13 459.43 421.88 460.41 421.75 460.90 Z" />
<path fill="#f5f3ee" opacity="1.00" d=" M 424.68 464.49 C 425.09 464.64 425.91 464.93 426.32 465.08 L 426.17 465.93 C 425.80 465.57 425.05 464.85 424.68 464.49 Z" />
<path fill="#464646" opacity="0.64" d=" M 426.88 468.12 L 427.77 468.28 L 428.22 469.25 L 427.78 470.03 C 427.55 469.55 427.10 468.60 426.88 468.12 Z" />
<path fill="#f4f2ed" opacity="1.00" d=" M 428.44 471.66 C 429.58 475.68 429.53 479.93 429.19 484.06 C 429.28 479.91 429.05 475.76 428.44 471.66 Z" />
<path fill="#010101" opacity="1.00" d=" M 302.04 490.01 C 304.50 486.98 307.02 483.54 311.10 482.71 C 308.29 488.99 303.79 494.28 299.84 499.85 C 294.17 507.75 286.64 514.07 279.01 520.00 C 273.32 524.48 266.13 526.52 259.04 527.29 C 253.14 527.99 247.39 525.60 242.56 522.41 C 237.17 518.47 236.17 511.21 236.58 505.00 C 236.34 500.17 237.81 495.46 240.34 491.38 C 241.49 491.35 242.64 491.32 243.80 491.31 C 241.27 498.59 240.22 506.80 242.76 514.22 C 243.98 518.08 247.50 520.62 251.36 521.44 C 259.52 522.99 268.09 520.59 274.74 515.75 C 284.75 508.19 293.64 499.30 302.04 490.01 Z" />
<path fill="#f4f2ed" opacity="1.00" d=" M 426.54 488.79 C 426.78 488.34 427.26 487.44 427.50 486.98 C 427.48 487.41 427.44 488.27 427.42 488.70 L 426.54 488.79 Z" />
<path fill="#3d3d3d" opacity="0.63" d=" M 411.97 495.26 C 415.74 494.92 419.52 494.62 423.30 494.29 C 420.16 495.96 416.58 495.94 413.12 495.88 C 413.07 498.74 413.04 501.61 412.76 504.47 C 412.35 501.41 412.08 498.34 411.97 495.26 Z" />
<path fill="#404040" opacity="0.54" d=" M 412.82 505.25 L 413.73 505.31 L 414.27 506.23 L 413.88 507.05 C 413.62 506.60 413.09 505.70 412.82 505.25 Z" />
<path fill="#ffe29e" opacity="1.00" d=" M 371.33 507.16 C 375.53 506.20 380.24 505.78 384.19 507.88 C 388.88 510.18 393.38 513.28 396.22 517.77 C 402.61 527.34 409.20 537.37 411.03 548.96 C 411.73 552.10 410.94 555.48 409.14 558.12 C 405.82 560.24 401.66 558.95 398.00 558.83 C 382.79 558.42 367.09 558.27 352.64 563.73 C 344.53 566.34 337.57 572.14 329.00 573.33 C 325.24 574.13 323.00 569.72 323.77 566.56 C 325.21 551.75 333.25 538.64 342.03 527.02 C 345.84 521.51 351.34 517.55 356.67 513.64 C 360.97 510.38 366.19 508.64 371.33 507.16 M 367.23 522.27 C 360.22 525.22 356.39 532.19 351.90 537.89 C 347.68 542.88 343.96 548.34 341.26 554.30 C 340.36 555.84 340.52 557.63 340.47 559.35 C 346.10 557.31 351.29 554.29 356.77 551.91 C 367.99 547.62 380.03 545.14 392.07 545.62 C 393.75 545.53 395.56 545.76 397.14 545.04 C 398.74 543.93 398.92 541.77 398.10 540.14 C 395.14 534.04 390.95 528.58 386.15 523.82 C 380.99 519.29 373.17 519.46 367.23 522.27 Z" />
<path fill="#e1c279" opacity="1.00" d=" M 410.29 509.87 C 413.49 516.09 416.22 522.71 421.25 527.75 C 430.34 538.99 443.30 546.61 456.98 550.87 C 438.75 549.02 421.72 538.59 411.79 523.21 C 410.42 521.01 409.22 518.62 408.80 516.04 C 409.12 513.94 409.74 511.91 410.29 509.87 Z" />
<path fill="#383837" opacity="0.66" d=" M 414.89 510.28 C 416.64 509.77 417.94 513.01 416.61 514.11 C 415.64 513.04 415.01 511.72 414.89 510.28 Z" />
<path fill="#f4f2ed" opacity="1.00" d=" M 418.67 518.31 C 419.06 518.52 419.83 518.95 420.22 519.16 L 419.89 519.97 C 419.58 519.56 418.98 518.73 418.67 518.31 Z" />
<path fill="#010100" opacity="1.00" d=" M 367.23 522.27 C 373.17 519.46 380.99 519.29 386.15 523.82 C 390.95 528.58 395.14 534.04 398.10 540.14 C 398.92 541.77 398.74 543.93 397.14 545.04 C 395.56 545.76 393.75 545.53 392.07 545.62 C 380.03 545.14 367.99 547.62 356.77 551.91 C 351.29 554.29 346.10 557.31 340.47 559.35 C 340.52 557.63 340.36 555.84 341.26 554.30 C 343.96 548.34 347.68 542.88 351.90 537.89 C 356.39 532.19 360.22 525.22 367.23 522.27 M 371.71 526.88 C 366.83 528.41 363.25 532.34 360.38 536.38 C 357.64 540.28 354.57 543.94 351.74 547.77 C 364.04 542.28 377.49 539.36 390.98 539.64 C 388.57 535.63 385.81 531.79 382.41 528.56 C 379.60 525.87 375.24 525.79 371.71 526.88 Z" />
<path fill="#f4f2ed" opacity="1.00" d=" M 407.97 524.92 C 410.26 527.98 412.26 531.28 414.94 534.03 C 414.41 534.07 413.35 534.14 412.82 534.17 C 411.28 531.04 409.53 528.03 407.97 524.92 Z" />
<path fill="#bc8066" opacity="1.00" d=" M 371.71 526.88 C 375.24 525.79 379.60 525.87 382.41 528.56 C 385.81 531.79 388.57 535.63 390.98 539.64 C 377.49 539.36 364.04 542.28 351.74 547.77 C 354.57 543.94 357.64 540.28 360.38 536.38 C 363.25 532.34 366.83 528.41 371.71 526.88 Z" />
<path fill="#414141" opacity="0.55" d=" M 412.98 535.04 L 413.86 535.24 L 414.28 536.24 L 413.80 537.01 C 413.59 536.52 413.18 535.54 412.98 535.04 Z" />
<path fill="#3e3e3e" opacity="0.49" d=" M 414.86 540.17 C 416.54 540.65 416.81 541.55 415.66 542.89 C 414.93 542.11 414.67 541.20 414.86 540.17 Z" />
<path fill="#424242" opacity="0.67" d=" M 228.22 541.01 C 228.71 541.22 229.70 541.65 230.20 541.86 C 229.75 541.87 228.85 541.88 228.40 541.89 L 228.22 541.01 Z" />
<path fill="#f4f2ed" opacity="1.00" d=" M 441.91 541.04 C 444.72 542.27 447.55 543.54 450.13 545.24 C 447.35 543.90 444.53 542.65 441.91 541.04 Z" />
<path fill="#404040" opacity="0.70" d=" M 231.12 541.92 C 232.21 541.76 233.20 542.01 234.09 542.68 C 232.71 543.79 231.72 543.54 231.12 541.92 Z" />
<path fill="#f4f2ed" opacity="1.00" d=" M 495.35 543.48 C 495.69 541.93 496.22 541.91 496.93 543.42 C 496.54 543.44 495.74 543.47 495.35 543.48 Z" />
<path fill="#404040" opacity="0.80" d=" M 235.03 542.82 C 237.13 542.88 239.22 543.12 241.28 543.51 C 239.66 544.65 235.81 544.89 235.03 542.82 Z" />
<path fill="#f5f3ee" opacity="1.00" d=" M 426.41 542.70 C 426.79 543.05 427.55 543.76 427.93 544.11 L 427.08 544.34 C 426.91 543.93 426.58 543.11 426.41 542.70 Z" />
<path fill="#f4f2ed" opacity="1.00" d=" M 242.16 543.57 C 243.45 543.50 244.78 543.66 245.86 544.45 C 245.16 545.99 242.36 544.99 242.16 543.57 Z" />
<path fill="#333333" opacity="0.48" d=" M 416.12 543.62 C 418.09 548.06 418.24 553.09 416.52 557.64 C 416.79 552.96 416.80 548.26 416.12 543.62 Z" />
<path fill="#f4f2ed" opacity="1.00" d=" M 495.49 545.77 C 495.69 545.29 496.10 544.35 496.30 543.88 C 496.31 544.31 496.34 545.17 496.36 545.60 L 495.49 545.77 Z" />
<path fill="#85785a" opacity="1.00" d=" M 450.72 545.64 C 451.83 544.49 455.06 545.49 454.72 547.25 C 453.20 547.30 451.84 546.58 450.72 545.64 Z" />
<path fill="#424242" opacity="0.61" d=" M 488.14 545.25 L 489.14 544.80 L 489.91 545.28 C 489.42 545.50 488.45 545.93 487.96 546.15 L 488.14 545.25 Z" />
<path fill="#393939" opacity="0.68" d=" M 482.07 548.22 C 482.28 546.28 485.82 545.37 487.31 546.46 C 485.71 547.42 483.93 548.05 482.07 548.22 Z" />
<path fill="#f5f3ee" opacity="1.00" d=" M 432.20 546.45 C 432.64 546.71 433.53 547.22 433.97 547.48 C 433.54 547.44 432.69 547.37 432.27 547.33 L 432.20 546.45 Z" />
<path fill="#f4f2ed" opacity="1.00" d=" M 253.22 547.52 C 253.69 547.74 254.62 548.19 255.09 548.41 C 254.65 548.41 253.78 548.40 253.34 548.40 L 253.22 547.52 Z" />
<path fill="#444444" opacity="0.63" d=" M 458.02 548.14 L 458.83 547.74 L 459.78 548.27 L 459.85 549.17 C 459.39 548.92 458.48 548.40 458.02 548.14 Z" />
<path fill="#3d3d3d" opacity="0.49" d=" M 478.34 549.19 C 478.85 547.49 479.80 547.22 481.19 548.39 C 480.34 549.02 479.39 549.29 478.34 549.19 Z" />
<path fill="#f4f2ed" opacity="1.00" d=" M 460.64 549.28 C 466.24 550.21 471.89 549.81 477.50 549.29 C 471.95 550.41 466.18 550.68 460.64 549.28 Z" />
<path fill="#434343" opacity="0.59" d=" M 438.10 549.97 C 438.58 550.18 439.55 550.60 440.03 550.81 L 439.26 551.29 L 438.27 550.86 L 438.10 549.97 Z" />
<path fill="#f4f2ed" opacity="1.00" d=" M 261.32 551.59 C 261.73 551.89 262.55 552.51 262.96 552.81 L 262.15 553.12 C 261.94 552.74 261.52 551.97 261.32 551.59 Z" />
<path fill="#3f3f3f" opacity="0.55" d=" M 443.20 551.85 C 444.23 551.68 445.14 551.95 445.93 552.66 C 444.59 553.80 443.67 553.54 443.20 551.85 Z" />
<path fill="#474747" opacity="0.68" d=" M 477.29 552.52 C 479.04 552.01 480.87 551.80 482.71 551.89 C 482.46 553.95 478.48 553.86 477.29 552.52 Z" />
<path fill="#f4f2ed" opacity="1.00" d=" M 446.71 553.05 C 452.15 553.80 457.63 554.24 463.11 554.15 C 457.65 554.51 452.06 554.31 446.71 553.05 Z" />
<path fill="#434343" opacity="0.47" d=" M 467.50 553.74 C 470.49 553.24 473.51 552.97 476.54 552.68 C 473.90 554.64 470.53 553.96 467.50 553.74 Z" />
<path fill="#f4f2ed" opacity="1.00" d=" M 266.35 553.79 C 266.86 553.98 267.88 554.37 268.39 554.57 C 267.93 554.58 267.03 554.61 266.58 554.62 L 266.35 553.79 Z" />
<path fill="#f4f2ed" opacity="1.00" d=" M 270.51 554.83 C 271.86 554.37 273.24 556.22 271.47 556.79 C 271.23 556.30 270.75 555.32 270.51 554.83 Z" />
<path fill="#434343" opacity="0.57" d=" M 414.87 559.82 C 415.10 559.36 415.57 558.45 415.81 557.99 C 415.79 558.42 415.76 559.28 415.74 559.71 L 414.87 559.82 Z" />
<path fill="#f4f2ed" opacity="1.00" d=" M 265.28 560.49 C 265.71 560.49 266.56 560.48 266.99 560.47 C 266.53 560.69 265.61 561.14 265.15 561.36 L 265.28 560.49 Z" />
<path fill="#f4f2ed" opacity="1.00" d=" M 284.31 561.86 C 285.93 560.30 288.07 560.95 289.89 561.72 C 288.48 562.82 285.84 562.64 284.31 561.86 Z" />
<path fill="#b5a378" opacity="1.00" d=" M 261.16 563.31 C 261.44 562.97 261.99 562.30 262.27 561.96 L 263.05 562.40 C 262.57 562.63 261.63 563.08 261.16 563.31 Z" />
<path fill="#444444" opacity="0.67" d=" M 293.08 562.06 C 294.11 561.75 295.05 561.94 295.90 562.62 C 294.64 563.83 293.69 563.65 293.08 562.06 Z" />
<path fill="#454545" opacity="0.67" d=" M 297.53 563.14 C 304.65 563.22 311.79 562.95 318.84 561.91 C 319.09 565.72 319.05 569.54 318.98 573.36 C 317.19 570.20 318.18 566.38 317.88 562.90 C 311.15 563.59 304.18 565.14 297.53 563.14 Z" />
<path fill="#85785a" opacity="1.00" d=" M 408.80 564.59 C 409.60 563.27 411.14 562.82 412.53 562.44 C 413.09 564.14 410.08 565.55 408.80 564.59 Z" />
<path fill="#85785a" opacity="1.00" d=" M 258.31 564.38 L 259.15 563.72 L 260.00 563.99 C 259.59 564.31 258.76 564.96 258.35 565.29 L 258.31 564.38 Z" />
<path fill="#85785a" opacity="1.00" d=" M 268.76 569.80 C 272.75 567.64 276.79 565.57 280.94 563.74 C 277.21 566.34 273.09 568.40 268.76 569.80 Z" />
<path fill="#f4f2ed" opacity="1.00" d=" M 375.47 564.84 C 386.43 564.19 397.38 564.66 408.33 565.19 C 403.56 565.40 398.79 565.13 394.04 564.82 C 387.85 564.62 381.66 565.21 375.47 564.84 Z" />
<path fill="#3d3d3d" opacity="0.45" d=" M 367.76 565.56 C 370.02 565.12 372.32 564.81 374.63 564.86 C 373.78 566.98 369.55 566.69 367.76 565.56 Z" />
<path fill="#f4f2ed" opacity="1.00" d=" M 364.06 566.59 C 364.85 565.83 365.80 565.51 366.89 565.63 C 366.29 567.30 365.35 567.62 364.06 566.59 Z" />
<path fill="#3e3e3e" opacity="0.49" d=" M 358.94 567.71 C 359.80 567.01 360.79 566.76 361.88 566.94 C 361.28 568.55 360.30 568.81 358.94 567.71 Z" />
<path fill="#85785a" opacity="1.00" d=" M 250.36 570.22 C 249.93 568.63 252.85 567.05 254.00 568.22 C 253.14 569.39 251.85 570.22 250.36 570.22 Z" />
<path fill="#454545" opacity="0.62" d=" M 355.87 568.61 C 356.41 568.47 357.49 568.19 358.03 568.05 L 357.68 568.89 C 357.23 568.82 356.32 568.68 355.87 568.61 Z" />
<path fill="#383838" opacity="0.65" d=" M 350.87 570.59 C 352.02 569.60 353.45 569.03 354.95 568.84 C 355.21 570.61 352.06 571.83 350.87 570.59 Z" />
<path fill="#434343" opacity="0.56" d=" M 245.22 571.21 L 246.20 570.75 L 246.98 571.21 C 246.51 571.43 245.55 571.88 245.07 572.11 L 245.22 571.21 Z" />
<path fill="#313131" opacity="0.65" d=" M 259.72 573.94 C 261.82 572.84 263.96 571.83 266.17 570.97 C 264.17 572.26 262.02 573.30 259.72 573.94 Z" />
<path fill="#414141" opacity="0.53" d=" M 238.31 574.15 L 239.30 573.73 L 240.07 574.22 C 239.59 574.42 238.62 574.83 238.13 575.04 L 238.31 574.15 Z" />
<path fill="#f5f3ee" opacity="1.00" d=" M 342.97 574.46 C 343.42 574.21 344.33 573.72 344.78 573.48 L 344.69 574.35 C 344.26 574.38 343.40 574.43 342.97 574.46 Z" />
<path fill="#444444" opacity="0.66" d=" M 253.85 575.85 C 254.35 575.65 255.35 575.25 255.85 575.04 L 255.64 575.92 C 255.19 575.90 254.30 575.87 253.85 575.85 Z" />
<path fill="#454544" opacity="0.56" d=" M 250.90 576.83 C 251.41 576.62 252.42 576.20 252.93 575.99 L 252.71 576.87 C 252.26 576.86 251.35 576.84 250.90 576.83 Z" />
<path fill="#373737" opacity="0.61" d=" M 335.60 577.56 C 336.87 576.75 338.25 576.10 339.76 575.91 C 340.10 577.75 336.76 578.86 335.60 577.56 Z" />
<path fill="#414141" opacity="0.70" d=" M 229.18 578.15 C 229.62 576.45 230.52 576.17 231.90 577.32 C 231.12 578.02 230.22 578.30 229.18 578.15 Z" />
<path fill="#3f3f3e" opacity="0.42" d=" M 247.93 577.76 C 248.44 577.56 249.46 577.18 249.97 576.98 C 249.65 577.30 249.01 577.93 248.69 578.24 L 247.93 577.76 Z" />
<path fill="#85785a" opacity="1.00" d=" M 198.76 579.45 C 200.76 577.61 203.57 578.64 205.99 578.60 C 213.17 579.18 220.35 578.72 227.53 578.29 C 218.43 580.32 209.11 578.84 199.91 579.44 L 198.76 579.45 Z" />
<path fill="#444444" opacity="0.60" d=" M 243.18 578.54 C 244.01 577.89 244.94 577.69 245.96 577.94 C 245.36 579.58 244.44 579.78 243.18 578.54 Z" />
<path fill="#444444" opacity="0.55" d=" M 332.99 578.88 C 333.44 578.63 334.35 578.14 334.80 577.89 L 334.69 578.76 C 334.27 578.79 333.41 578.85 332.99 578.88 Z" />
<path fill="#3d3d3d" opacity="0.66" d=" M 231.54 580.73 C 235.09 579.64 238.77 579.21 242.45 578.85 C 239.17 580.76 235.19 580.31 231.54 580.73 Z" />
<path fill="#f4f2ed" opacity="1.00" d=" M 325.31 578.63 C 327.49 578.43 329.72 578.27 331.90 578.69 C 331.09 580.17 325.89 580.28 325.31 578.63 Z" />
<path fill="#444444" opacity="0.64" d=" M 201.07 579.59 C 202.34 579.61 203.56 579.98 204.66 580.61 C 203.89 582.08 200.86 581.30 201.07 579.59 Z" />
<path fill="#393939" opacity="0.79" d=" M 204.66 580.61 C 213.02 581.29 221.40 580.53 229.75 581.08 L 230.74 581.12 C 228.87 581.53 227.01 582.03 225.10 582.15 C 220.69 582.16 216.28 582.05 211.86 582.11 C 209.39 582.12 206.84 581.88 204.66 580.61 Z" />
<path fill="#222222" opacity="0.17" d=" M 211.86 582.11 C 216.28 582.05 220.69 582.16 225.10 582.15 C 220.91 584.04 216.21 582.67 211.86 582.11 Z" />
</svg>
