<?xml version="1.0" encoding="UTF-8" ?>
<!DOCTYPE svg PUBLIC "-//W3C//DTD SVG 1.1//EN" "http://www.w3.org/Graphics/SVG/1.1/DTD/svg11.dtd">
<svg width="591pt" height="591pt" viewBox="0 0 591 591" version="1.1" xmlns="http://www.w3.org/2000/svg">
<path fill="#49312b" opacity="1.00" d=" M 427.53 31.96 C 431.07 31.10 434.81 31.02 438.33 32.07 C 434.73 32.08 431.13 32.08 427.53 31.96 Z" />
<path fill="#49312b" opacity="1.00" d=" M 424.22 32.38 L 425.19 31.89 L 426.01 32.31 C 425.53 32.55 424.59 33.03 424.12 33.27 L 424.22 32.38 Z" />
<path fill="#000000" opacity="1.00" d=" M 426.01 32.31 C 426.39 32.22 427.15 32.05 427.53 31.96 C 431.13 32.08 434.73 32.08 438.33 32.07 L 439.00 32.41 C 440.15 33.09 441.56 33.79 442.93 33.23 L 443.90 32.99 L 444.15 33.08 C 448.82 35.02 453.70 36.39 458.68 37.27 L 459.45 37.47 C 459.48 37.48 459.54 37.51 459.57 37.52 L 460.84 38.31 C 461.32 38.52 462.28 38.92 462.76 39.13 C 463.40 39.21 464.69 39.36 465.34 39.44 C 465.38 39.45 465.46 39.49 465.50 39.50 L 467.44 40.39 C 467.48 40.41 467.57 40.46 467.62 40.48 L 469.40 41.37 C 469.44 41.40 469.53 41.44 469.58 41.47 L 471.35 42.47 C 471.39 42.50 471.46 42.55 471.49 42.57 L 472.43 43.52 C 473.48 45.00 474.99 46.25 476.93 46.17 L 477.64 46.25 C 477.82 47.43 478.55 48.04 479.81 48.09 L 481.37 48.32 C 481.41 48.35 481.49 48.41 481.53 48.44 C 483.93 50.15 486.16 52.11 488.31 54.14 C 493.38 59.57 498.87 64.58 504.00 69.96 C 507.43 73.75 512.49 75.47 515.96 79.23 C 522.32 85.87 528.21 93.04 535.45 98.78 C 538.80 101.55 542.02 104.71 546.26 106.07 L 547.43 106.56 C 547.46 106.58 547.53 106.62 547.56 106.64 L 548.65 107.54 C 549.69 108.57 551.04 109.83 552.65 109.24 L 553.24 109.12 C 555.84 110.93 558.68 112.40 561.80 113.04 L 562.23 113.18 C 566.24 115.10 570.67 115.70 574.84 117.13 C 577.45 118.01 577.94 120.94 578.27 123.30 L 577.65 124.46 C 577.63 124.49 577.59 124.55 577.58 124.58 L 577.05 125.36 C 573.15 130.98 567.76 135.21 562.09 138.91 L 561.69 138.94 C 559.86 138.79 558.10 139.85 557.60 141.66 L 556.99 141.74 C 555.65 141.76 554.32 142.48 553.83 143.76 L 552.93 143.76 C 551.02 143.50 549.30 144.39 547.86 145.53 L 546.74 145.71 C 546.28 145.96 545.35 146.47 544.89 146.72 L 543.66 146.73 C 543.19 146.96 542.26 147.42 541.79 147.66 L 540.75 147.63 C 539.37 147.42 538.01 147.78 536.89 148.56 L 536.10 148.97 C 525.69 149.20 515.28 148.39 504.97 147.01 C 502.42 146.43 501.08 149.12 499.46 150.54 C 494.66 156.08 489.09 160.85 483.06 165.00 L 482.67 165.10 C 480.79 165.25 479.05 165.94 477.80 167.39 L 476.82 167.71 C 475.25 167.85 473.40 168.12 472.68 169.73 L 471.77 169.66 C 471.30 169.88 470.36 170.34 469.89 170.57 L 469.65 170.88 C 465.12 171.61 460.55 172.03 455.97 172.21 C 455.60 179.60 456.71 187.02 458.70 194.12 L 458.88 195.03 C 459.19 197.70 459.45 200.40 460.16 203.01 C 462.62 212.36 465.13 221.70 468.26 230.86 C 470.21 236.53 471.84 242.35 474.73 247.64 L 474.75 247.70 C 475.48 251.29 476.81 254.73 478.91 257.75 L 479.02 257.96 C 479.93 260.14 480.82 262.34 481.81 264.49 L 481.97 264.87 C 483.75 269.15 485.77 273.34 487.92 277.45 L 488.41 278.38 C 488.43 278.43 488.47 278.52 488.49 278.56 L 489.05 279.71 C 490.95 283.78 493.40 287.56 495.71 291.41 L 495.73 291.44 C 498.63 298.27 503.67 303.81 508.06 309.69 L 508.48 310.49 C 508.50 310.53 508.53 310.60 508.55 310.64 L 508.88 311.48 C 510.21 315.51 512.34 319.18 514.31 322.92 C 516.52 327.08 518.13 331.56 520.81 335.47 L 520.85 335.67 C 521.22 338.50 522.42 341.10 523.80 343.57 L 523.84 343.67 C 524.41 346.74 525.33 349.74 526.75 352.54 L 526.82 352.75 C 527.46 356.86 528.36 360.93 529.81 364.84 L 529.68 365.28 C 528.94 366.89 529.63 368.63 530.60 369.98 L 530.98 370.65 C 530.72 380.47 531.23 390.29 530.81 400.10 C 529.81 412.00 527.02 423.72 522.98 434.94 C 522.11 437.39 521.45 439.90 520.78 442.41 L 520.75 442.47 C 518.84 445.26 517.36 448.33 516.80 451.70 C 516.44 453.12 515.69 454.39 514.93 455.64 C 512.74 458.98 510.93 462.55 509.11 466.10 L 508.92 466.46 C 507.64 468.65 506.41 470.86 505.11 473.03 L 504.98 473.20 C 503.07 475.24 501.44 477.56 500.76 480.32 L 500.65 480.62 C 499.51 480.75 498.92 481.44 498.88 482.68 C 498.69 483.11 498.30 483.97 498.11 484.40 C 496.33 486.19 494.62 488.07 493.22 490.19 C 490.63 494.09 487.20 497.37 484.85 501.45 C 482.87 503.98 480.65 506.69 477.68 508.04 C 475.59 508.28 474.19 509.81 473.95 511.87 C 472.70 514.78 469.94 516.85 467.51 518.79 C 465.15 520.04 463.15 521.82 461.50 523.91 L 460.82 523.98 C 459.21 523.88 457.91 525.10 457.61 526.63 L 456.77 526.84 C 455.27 527.00 454.02 528.06 453.61 529.51 C 453.45 529.87 453.13 530.60 452.97 530.96 L 451.68 530.95 C 450.40 530.85 449.73 531.43 449.66 532.70 L 448.87 532.81 C 447.77 532.92 446.96 533.49 446.44 534.52 L 445.51 535.48 C 445.47 535.50 445.41 535.54 445.38 535.56 L 443.63 536.42 L 443.51 536.48 L 443.39 536.55 L 441.59 537.55 C 441.51 537.60 441.35 537.69 441.27 537.73 L 439.54 537.69 C 439.14 537.99 438.32 538.59 437.92 538.89 L 436.70 538.71 C 436.23 538.93 435.29 539.37 434.82 539.59 C 434.33 539.68 433.36 539.85 432.87 539.94 C 432.39 540.14 431.44 540.55 430.96 540.75 L 429.82 540.80 C 429.35 541.04 428.43 541.52 427.96 541.76 L 426.90 541.67 C 425.77 541.44 424.79 541.73 423.96 542.53 L 423.13 543.07 C 413.80 544.68 404.57 547.62 394.99 547.15 C 377.63 547.42 360.29 546.27 342.98 544.98 C 340.25 544.80 337.55 544.37 334.85 543.95 L 334.39 543.87 C 327.33 542.61 320.13 542.57 313.05 541.53 C 304.73 540.32 296.29 541.53 287.97 540.27 C 272.33 539.80 256.66 540.27 241.02 540.39 C 230.32 540.17 219.74 542.33 209.04 542.11 C 198.97 541.75 189.02 543.95 178.95 543.91 C 171.64 543.78 164.31 543.83 157.00 544.03 C 156.40 544.06 155.20 544.14 154.60 544.18 C 153.53 542.27 152.57 540.29 151.89 538.22 C 150.77 534.41 148.93 530.87 146.48 527.75 L 146.38 527.59 C 145.36 525.29 144.00 523.18 142.28 521.36 L 142.26 521.34 C 140.45 517.88 138.05 514.79 134.94 512.42 C 134.75 512.16 134.38 511.63 134.20 511.37 C 133.17 508.93 131.27 507.11 129.16 505.60 C 128.91 505.32 128.42 504.75 128.17 504.47 C 125.06 499.69 121.01 495.15 116.08 492.25 L 115.28 491.76 C 113.16 488.53 109.61 486.70 106.46 484.65 C 101.30 481.65 96.34 478.01 90.40 476.75 L 89.61 476.47 C 89.58 476.46 89.52 476.43 89.49 476.41 L 88.87 476.00 C 76.54 468.03 64.57 459.21 54.92 448.04 C 50.42 443.65 47.40 438.07 43.19 433.46 L 42.90 433.11 C 41.59 431.00 40.41 428.83 39.25 426.64 L 39.25 426.62 C 38.10 423.41 36.73 420.30 35.29 417.22 L 35.26 417.13 C 34.21 413.69 33.03 410.27 31.19 407.16 L 31.23 406.66 C 31.56 405.07 30.77 403.43 29.34 402.68 C 29.13 402.14 28.70 401.05 28.49 400.50 C 28.48 400.46 28.45 400.39 28.44 400.35 C 28.41 399.69 28.34 398.37 28.31 397.71 C 28.53 396.62 28.24 395.68 27.46 394.88 L 27.17 394.41 C 26.94 391.22 26.35 388.07 25.20 385.08 L 25.16 384.93 C 18.81 363.90 19.82 341.68 19.85 319.98 C 20.10 315.37 19.46 310.52 21.30 306.15 C 21.52 304.40 21.65 302.64 21.91 300.90 L 22.47 300.15 C 22.68 299.67 23.10 298.70 23.31 298.21 L 23.27 297.15 C 23.52 296.69 24.01 295.76 24.26 295.29 L 24.29 294.16 C 24.54 293.70 25.06 292.78 25.31 292.32 L 25.28 291.43 C 27.11 290.73 28.18 289.05 29.09 287.44 L 29.93 286.09 L 30.44 286.78 C 33.20 289.93 33.67 294.20 34.98 298.01 C 35.87 300.76 37.34 303.26 38.84 305.72 L 38.99 305.97 C 40.75 308.97 42.34 312.08 43.89 315.20 C 40.66 301.38 38.88 286.97 40.91 272.84 L 41.46 272.10 C 42.30 271.32 42.63 270.38 42.46 269.28 L 42.35 268.11 C 44.28 266.80 44.71 264.31 44.19 262.17 L 43.88 260.10 C 44.70 260.29 46.35 260.65 47.17 260.83 C 48.21 262.80 48.62 265.01 49.14 267.16 C 50.63 274.63 53.12 281.85 55.81 288.96 C 53.55 281.79 51.87 274.42 51.23 266.91 C 50.73 260.26 49.38 253.51 51.08 246.92 L 51.25 246.09 C 53.15 245.19 53.31 242.97 53.15 241.14 C 52.37 236.98 58.24 238.99 57.88 242.08 C 58.00 243.18 58.56 244.02 59.55 244.58 C 64.39 248.97 68.23 254.63 74.05 257.86 C 76.22 259.29 78.15 261.05 80.33 262.46 C 80.38 262.49 80.48 262.55 80.53 262.58 L 82.26 263.46 C 82.30 263.48 82.39 263.53 82.43 263.55 L 83.50 264.08 C 86.75 265.75 90.25 267.30 93.98 267.22 C 102.98 267.20 112.00 267.34 120.98 266.63 C 126.88 265.73 132.78 264.71 138.54 263.13 L 138.85 263.05 C 152.70 259.33 167.02 257.79 181.00 254.64 C 198.72 251.98 216.71 251.42 234.61 252.09 C 251.41 253.12 267.91 256.68 284.18 260.87 C 284.60 260.98 285.43 261.21 285.85 261.32 C 286.33 261.54 287.28 261.99 287.76 262.21 L 289.03 262.22 C 289.50 262.46 290.44 262.96 290.91 263.21 L 291.96 263.29 C 292.42 263.54 293.35 264.05 293.82 264.30 L 295.36 264.27 C 295.41 264.31 295.50 264.39 295.54 264.43 L 296.84 265.52 C 297.34 265.69 298.35 266.04 298.85 266.21 C 301.26 266.06 303.29 267.78 305.23 268.99 C 307.33 270.73 309.88 271.72 312.51 272.36 L 312.84 272.49 C 313.32 272.65 314.27 272.99 314.75 273.16 L 315.22 273.00 C 317.44 274.61 320.00 275.62 322.65 276.27 L 323.45 276.54 C 323.48 276.55 323.53 276.57 323.56 276.59 L 324.23 277.00 C 327.28 279.30 330.84 280.81 334.64 281.32 L 334.81 281.35 C 335.61 282.85 337.38 283.18 338.94 283.27 L 340.38 283.49 C 340.41 283.50 340.48 283.53 340.52 283.55 L 341.26 284.02 C 343.36 285.60 345.82 286.55 348.34 287.25 L 348.42 287.28 C 350.98 288.69 353.72 289.70 356.60 290.23 L 357.47 290.47 C 357.50 290.48 357.57 290.51 357.60 290.52 L 359.34 291.45 C 359.37 291.47 359.44 291.52 359.47 291.54 L 360.07 291.98 C 362.15 293.70 364.41 295.30 367.04 296.06 L 367.85 296.34 C 369.81 298.73 372.68 299.96 375.39 301.28 L 375.53 301.50 C 375.97 302.42 376.72 302.91 377.78 302.97 C 380.94 304.23 383.27 306.99 385.86 309.13 C 389.55 312.84 393.82 315.90 398.35 318.50 C 398.39 318.52 398.46 318.57 398.50 318.60 L 400.17 319.79 C 401.20 321.08 403.22 320.06 403.12 318.51 L 403.41 316.75 C 403.44 316.70 403.49 316.60 403.51 316.55 L 404.44 314.77 C 404.47 314.73 404.52 314.64 404.54 314.60 L 405.41 313.23 C 405.64 312.75 406.10 311.79 406.33 311.32 L 406.39 310.93 C 408.57 303.47 409.19 295.67 409.99 287.98 C 410.04 277.96 410.91 267.72 407.95 257.99 C 405.99 251.82 405.08 245.30 402.31 239.43 L 402.26 239.31 C 401.51 236.50 400.61 233.72 399.16 231.19 L 399.20 230.65 C 399.56 229.04 398.74 227.37 397.25 226.68 L 397.32 225.78 C 397.08 225.31 396.61 224.37 396.38 223.91 L 396.26 223.55 C 395.61 220.49 394.60 217.53 393.24 214.71 C 391.40 210.93 390.64 206.62 388.03 203.23 L 387.53 202.52 C 387.50 202.48 387.44 202.40 387.41 202.35 L 387.25 201.70 C 386.31 196.45 383.87 191.67 381.00 187.25 L 380.90 187.03 C 372.86 162.20 369.58 136.00 370.04 109.96 L 370.13 109.41 C 371.48 100.83 372.99 92.22 375.96 84.02 L 376.08 83.79 C 377.65 81.53 378.65 78.97 379.25 76.30 L 379.48 75.58 C 379.50 75.55 379.53 75.49 379.55 75.46 L 379.96 74.87 C 382.28 72.14 383.89 68.92 385.27 65.63 L 385.49 65.46 C 386.58 65.02 387.11 64.25 387.09 63.15 L 387.09 62.74 C 388.73 60.86 390.07 58.74 391.23 56.53 L 391.24 56.52 C 393.53 54.46 395.77 52.27 397.19 49.49 C 397.53 48.89 398.00 48.42 398.59 48.06 C 403.04 45.23 407.66 42.60 411.53 38.98 C 411.84 38.75 412.45 38.31 412.75 38.08 C 415.57 37.01 418.35 35.80 420.82 34.04 L 421.26 34.17 C 421.72 33.95 422.64 33.53 423.10 33.32 L 424.12 33.27 C 424.59 33.03 425.53 32.55 426.01 32.31 M 422.44 39.64 C 415.63 42.69 408.38 45.62 403.33 51.36 C 395.44 59.43 389.31 69.04 384.28 79.10 C 379.10 90.63 375.55 103.23 376.42 115.98 C 375.66 133.13 377.30 150.40 381.44 167.07 C 383.02 173.39 384.28 179.88 387.14 185.78 C 390.06 192.81 392.54 200.06 396.19 206.77 C 398.14 209.03 401.26 209.89 404.07 210.60 C 412.18 212.02 420.48 211.17 428.62 210.42 C 438.04 208.55 446.70 203.68 453.68 197.11 C 451.55 189.01 450.86 180.65 449.98 172.36 C 446.22 171.39 441.17 172.48 438.53 169.02 C 438.55 168.40 438.59 167.17 438.62 166.56 C 445.15 166.45 451.52 168.65 458.06 168.24 C 464.93 167.45 471.67 165.24 477.58 161.64 C 484.46 157.71 491.36 152.95 495.82 146.34 C 491.18 143.67 486.08 140.49 484.58 134.98 C 484.45 130.36 487.84 126.76 489.80 122.86 C 493.52 116.20 494.82 108.56 495.44 101.06 C 495.55 94.47 495.75 87.65 498.31 81.48 C 499.17 79.26 501.55 77.58 501.78 75.21 C 489.94 62.77 477.24 50.17 460.78 44.12 C 452.07 41.34 443.35 37.60 434.02 37.93 C 430.13 38.14 426.05 37.95 422.44 39.64 M 507.46 78.93 C 501.48 84.59 501.38 93.42 501.32 101.07 C 500.90 108.37 499.64 115.75 496.61 122.46 C 494.91 126.56 492.25 130.14 490.28 134.09 C 492.55 136.84 495.12 139.91 498.82 140.57 C 504.85 141.56 510.88 142.76 517.01 142.89 C 525.00 143.33 533.31 144.93 541.07 142.21 C 547.01 140.72 553.27 139.25 558.04 135.16 C 563.02 131.14 570.44 128.53 572.01 121.62 C 562.52 120.06 553.91 115.70 545.12 112.03 C 537.47 108.40 531.52 102.22 525.08 96.88 C 519.44 90.68 514.02 84.19 507.46 78.93 M 449.17 208.19 C 444.67 211.63 439.22 213.44 433.97 215.36 C 424.83 217.74 415.28 217.32 405.91 217.20 C 403.72 216.59 401.50 216.07 399.32 215.43 C 402.39 223.20 404.91 231.20 408.26 238.87 C 410.39 246.39 412.18 254.01 414.56 261.47 C 423.51 265.41 433.52 265.24 443.05 264.23 C 451.43 262.64 459.97 259.35 465.72 252.79 C 467.10 251.19 469.77 249.50 468.41 247.06 C 463.08 233.07 458.59 218.75 455.11 204.18 C 453.03 205.37 451.07 206.75 449.17 208.19 M 56.23 249.88 C 55.34 269.06 60.83 287.84 67.41 305.65 C 68.89 309.79 71.71 313.51 71.98 318.03 C 64.85 313.60 59.24 307.02 55.26 299.69 C 50.88 292.34 47.43 284.43 45.46 276.08 C 45.60 289.88 46.18 303.96 50.84 317.09 C 57.27 334.58 66.35 350.95 76.19 366.72 C 86.94 383.24 100.10 398.17 114.87 411.20 C 118.07 414.50 122.34 416.36 126.05 419.00 C 132.44 423.40 138.94 427.72 145.99 431.00 C 153.43 434.42 161.08 437.37 168.65 440.48 C 188.79 448.88 209.94 455.91 231.93 456.71 C 238.63 456.67 245.35 456.81 252.05 456.55 C 272.38 454.50 292.13 449.01 311.84 443.89 C 316.23 442.27 320.50 440.33 324.92 438.78 C 335.65 434.86 345.69 429.30 355.41 423.35 C 357.13 422.22 359.05 421.48 361.05 421.05 C 347.14 436.49 327.54 445.27 307.91 450.96 C 290.78 455.98 273.34 459.96 255.64 462.33 C 248.79 462.74 241.91 462.90 235.05 462.82 C 211.59 462.65 188.87 455.48 167.41 446.53 C 156.55 441.86 145.19 438.16 135.01 432.05 C 128.89 428.64 123.41 424.23 117.37 420.69 C 112.10 417.81 108.18 413.18 103.72 409.28 C 94.98 400.65 86.71 391.51 79.30 381.71 C 68.12 366.56 59.01 349.98 50.96 332.99 C 48.88 329.22 44.93 326.98 42.49 323.47 C 36.45 315.09 32.24 305.56 28.55 295.96 C 26.02 305.40 25.17 315.23 25.31 324.98 C 25.28 344.42 25.09 364.26 30.63 383.08 C 31.76 387.67 32.44 392.35 33.33 396.99 C 34.11 400.93 36.43 404.30 37.72 408.06 C 40.37 415.51 43.57 422.76 47.29 429.73 C 53.59 438.58 60.51 447.07 68.55 454.39 C 76.97 461.12 85.23 468.47 95.37 472.49 C 106.58 477.27 116.24 484.82 125.85 492.15 C 130.79 496.57 134.40 502.21 138.83 507.10 C 146.57 515.49 153.20 525.03 157.36 535.71 C 158.00 536.83 158.33 538.80 160.03 538.65 C 165.36 538.99 170.70 538.67 176.03 538.62 C 186.08 538.71 195.94 535.95 206.01 536.39 C 214.05 536.56 222.05 535.54 230.04 534.70 C 242.68 534.29 255.38 535.20 267.99 533.84 C 273.98 533.72 280.00 533.49 285.98 533.94 C 292.94 535.02 299.99 534.83 307.00 535.25 C 312.04 535.29 316.99 536.40 322.02 536.62 C 332.74 537.28 343.27 539.77 354.03 539.83 C 362.31 541.26 370.74 540.07 379.06 541.11 C 384.70 541.72 390.38 541.31 396.05 541.45 C 403.24 541.64 410.14 539.28 417.21 538.34 C 433.92 535.48 448.64 526.19 461.33 515.33 C 469.56 507.92 477.79 500.43 484.91 491.92 C 492.42 483.73 497.74 473.86 503.37 464.34 C 513.49 446.97 521.30 428.05 524.58 408.14 C 526.31 396.51 525.80 384.72 525.79 373.01 C 525.95 369.38 524.36 366.06 523.49 362.62 C 521.48 353.86 518.63 345.29 515.17 337.00 C 512.23 330.64 509.86 323.97 505.92 318.13 C 499.70 306.35 491.04 296.07 484.85 284.26 C 480.08 274.86 475.68 265.27 471.79 255.47 C 468.59 257.66 466.35 260.99 462.97 262.93 C 456.60 266.69 449.53 269.40 442.16 270.30 C 433.16 271.11 423.89 271.20 415.31 268.01 C 415.30 275.27 415.96 282.60 414.72 289.80 C 413.94 295.08 414.45 300.54 412.69 305.66 C 411.36 312.89 408.43 319.97 403.63 325.59 C 403.22 325.78 402.41 326.16 402.01 326.35 C 392.42 323.82 385.25 316.36 377.70 310.33 C 370.50 303.76 361.81 299.09 353.05 294.96 C 344.73 292.23 337.04 287.93 328.72 285.22 C 323.19 283.35 318.26 280.11 312.73 278.29 C 301.30 274.60 291.18 267.00 279.04 265.61 C 269.70 263.15 260.28 260.87 250.71 259.53 C 228.95 256.28 206.77 257.12 184.99 259.75 C 173.02 262.07 161.04 264.26 149.04 266.40 C 139.81 268.85 130.53 271.16 121.05 272.44 C 110.67 272.91 100.29 273.20 89.90 273.21 C 94.33 277.54 99.59 280.92 104.88 284.10 C 107.42 285.69 110.50 286.79 112.05 289.53 C 99.31 285.35 86.80 279.38 77.21 269.80 C 70.08 263.30 62.97 256.79 56.23 249.88 Z" />
<path fill="#49312b" opacity="1.00" d=" M 439.00 32.41 C 440.01 31.55 442.83 31.62 442.93 33.23 C 441.56 33.79 440.15 33.09 439.00 32.41 Z" />
<path fill="#49312b" opacity="1.00" d=" M 421.40 33.31 C 421.82 33.31 422.67 33.32 423.10 33.32 C 422.64 33.53 421.72 33.95 421.26 34.17 L 421.40 33.31 Z" />
<path fill="#49312b" opacity="1.00" d=" M 444.15 33.08 C 449.14 33.78 454.02 35.36 458.68 37.27 C 453.70 36.39 448.82 35.02 444.15 33.08 Z" />
<path fill="#49312b" opacity="1.00" d=" M 412.75 38.08 C 414.97 35.94 417.90 34.85 420.82 34.04 C 418.35 35.80 415.57 37.01 412.75 38.08 Z" />
<path fill="#49312b" opacity="1.00" d=" M 459.45 37.47 C 459.48 37.48 459.54 37.51 459.57 37.52 C 459.54 37.51 459.48 37.48 459.45 37.47 Z" />
<path fill="#368034" opacity="1.00" d=" M 422.44 39.64 C 426.05 37.95 430.13 38.14 434.02 37.93 C 443.35 37.60 452.07 41.34 460.78 44.12 C 477.24 50.17 489.94 62.77 501.78 75.21 C 501.55 77.58 499.17 79.26 498.31 81.48 C 495.75 87.65 495.55 94.47 495.44 101.06 C 494.82 108.56 493.52 116.20 489.80 122.86 C 487.84 126.76 484.45 130.36 484.58 134.98 C 486.08 140.49 491.18 143.67 495.82 146.34 C 491.36 152.95 484.46 157.71 477.58 161.64 C 471.67 165.24 464.93 167.45 458.06 168.24 C 451.52 168.65 445.15 166.45 438.62 166.56 C 438.59 167.17 438.55 168.40 438.53 169.02 C 441.17 172.48 446.22 171.39 449.98 172.36 C 450.86 180.65 451.55 189.01 453.68 197.11 C 446.70 203.68 438.04 208.55 428.62 210.42 C 420.48 211.17 412.18 212.02 404.07 210.60 C 401.26 209.89 398.14 209.03 396.19 206.77 C 392.54 200.06 390.06 192.81 387.14 185.78 C 384.28 179.88 383.02 173.39 381.44 167.07 C 377.30 150.40 375.66 133.13 376.42 115.98 C 375.55 103.23 379.10 90.63 384.28 79.10 C 389.31 69.04 395.44 59.43 403.33 51.36 C 408.38 45.62 415.63 42.69 422.44 39.64 M 429.43 77.65 C 424.15 79.34 418.99 82.62 416.64 87.84 C 412.86 95.77 412.38 105.96 417.56 113.37 C 422.06 117.51 427.94 120.14 433.95 121.14 C 441.03 121.35 449.03 119.55 453.36 113.42 C 457.57 108.53 456.97 101.70 456.22 95.76 C 454.95 90.21 452.82 84.31 448.08 80.79 C 442.53 77.52 435.75 76.33 429.43 77.65 Z" />
<path fill="#49312b" opacity="1.00" d=" M 460.84 38.31 L 461.62 37.83 L 462.60 38.25 L 462.76 39.13 C 462.28 38.92 461.32 38.52 460.84 38.31 Z" />
<path fill="#49312b" opacity="1.00" d=" M 398.59 48.06 C 402.30 44.26 406.95 41.57 411.53 38.98 C 407.66 42.60 403.04 45.23 398.59 48.06 Z" />
<path fill="#49312b" opacity="1.00" d=" M 465.34 39.44 C 465.38 39.45 465.46 39.49 465.50 39.50 C 465.46 39.49 465.38 39.45 465.34 39.44 Z" />
<path fill="#49312b" opacity="1.00" d=" M 467.44 40.39 C 467.48 40.41 467.57 40.46 467.62 40.48 C 467.57 40.46 467.48 40.41 467.44 40.39 Z" />
<path fill="#49312b" opacity="1.00" d=" M 469.40 41.37 C 469.44 41.40 469.53 41.44 469.58 41.47 C 469.53 41.44 469.44 41.40 469.40 41.37 Z" />
<path fill="#49312b" opacity="1.00" d=" M 471.35 42.47 C 471.39 42.50 471.46 42.55 471.49 42.57 C 471.46 42.55 471.39 42.50 471.35 42.47 Z" />
<path fill="#49312b" opacity="1.00" d=" M 472.43 43.52 C 474.03 43.11 476.88 44.41 476.93 46.17 C 474.99 46.25 473.48 45.00 472.43 43.52 Z" />
<path fill="#49312b" opacity="1.00" d=" M 477.64 46.25 C 479.22 45.97 479.95 46.59 479.81 48.09 C 478.55 48.04 477.82 47.43 477.64 46.25 Z" />
<path fill="#49312b" opacity="1.00" d=" M 481.37 48.32 C 481.41 48.35 481.49 48.41 481.53 48.44 C 481.49 48.41 481.41 48.35 481.37 48.32 Z" />
<path fill="#49312b" opacity="1.00" d=" M 391.24 56.52 C 392.59 53.71 394.92 51.55 397.19 49.49 C 395.77 52.27 393.53 54.46 391.24 56.52 Z" />
<path fill="#49312b" opacity="1.00" d=" M 488.31 54.14 C 495.35 59.20 500.85 66.06 507.22 71.89 C 516.46 76.52 522.39 85.39 529.47 92.59 C 534.79 97.42 540.34 102.00 546.26 106.07 C 542.02 104.71 538.80 101.55 535.45 98.78 C 528.21 93.04 522.32 85.87 515.96 79.23 C 512.49 75.47 507.43 73.75 504.00 69.96 C 498.87 64.58 493.38 59.57 488.31 54.14 Z" />
<path fill="#49312b" opacity="1.00" d=" M 387.09 62.74 C 387.90 60.34 389.33 58.21 391.23 56.53 C 390.07 58.74 388.73 60.86 387.09 62.74 Z" />
<path fill="#49312b" opacity="1.00" d=" M 386.38 62.95 L 387.09 63.15 C 387.11 64.25 386.58 65.02 385.49 65.46 C 385.71 64.84 386.16 63.58 386.38 62.95 Z" />
<path fill="#49312b" opacity="1.00" d=" M 379.96 74.87 C 381.14 71.50 382.80 68.25 385.27 65.63 C 383.89 68.92 382.28 72.14 379.96 74.87 Z" />
<path fill="#49312b" opacity="1.00" d=" M 379.48 75.58 C 379.50 75.55 379.53 75.49 379.55 75.46 C 379.53 75.49 379.50 75.55 379.48 75.58 Z" />
<path fill="#49312b" opacity="1.00" d=" M 376.08 83.79 C 376.66 81.12 377.62 78.52 379.25 76.30 C 378.65 78.97 377.65 81.53 376.08 83.79 Z" />
<path fill="#000000" opacity="1.00" d=" M 429.43 77.65 C 435.75 76.33 442.53 77.52 448.08 80.79 C 452.82 84.31 454.95 90.21 456.22 95.76 C 456.97 101.70 457.57 108.53 453.36 113.42 C 449.03 119.55 441.03 121.35 433.95 121.14 C 427.94 120.14 422.06 117.51 417.56 113.37 C 412.38 105.96 412.86 95.77 416.64 87.84 C 418.99 82.62 424.15 79.34 429.43 77.65 M 443.36 84.80 C 446.48 88.84 447.94 93.98 447.24 99.06 C 445.64 105.45 442.28 111.51 436.52 115.02 C 436.52 115.09 436.53 115.23 436.53 115.30 C 439.22 114.68 442.05 114.51 444.59 113.34 C 447.93 111.44 450.76 107.99 450.70 103.98 C 451.17 97.05 449.35 88.97 443.36 84.80 Z" />
<path fill="#e48912" opacity="1.00" d=" M 507.46 78.93 C 514.02 84.19 519.44 90.68 525.08 96.88 C 531.52 102.22 537.47 108.40 545.12 112.03 C 553.91 115.70 562.52 120.06 572.01 121.62 C 570.44 128.53 563.02 131.14 558.04 135.16 C 553.27 139.25 547.01 140.72 541.07 142.21 C 533.31 144.93 525.00 143.33 517.01 142.89 C 510.88 142.76 504.85 141.56 498.82 140.57 C 495.12 139.91 492.55 136.84 490.28 134.09 C 492.25 130.14 494.91 126.56 496.61 122.46 C 499.64 115.75 500.90 108.37 501.32 101.07 C 501.38 93.42 501.48 84.59 507.46 78.93 M 513.53 122.54 C 513.46 123.10 513.32 124.24 513.25 124.81 C 515.31 127.19 519.03 126.74 521.87 126.35 C 520.28 123.19 516.84 122.06 513.53 122.54 Z" />
<path fill="#ffffff" opacity="1.00" d=" M 371.85 96.16 C 373.56 92.23 374.01 87.85 375.96 84.02 C 372.99 92.22 371.48 100.83 370.13 109.41 C 370.47 104.96 371.54 100.61 371.85 96.16 Z" />
<path fill="#ffffff" opacity="1.00" d=" M 443.36 84.80 C 449.35 88.97 451.17 97.05 450.70 103.98 C 450.76 107.99 447.93 111.44 444.59 113.34 C 442.05 114.51 439.22 114.68 436.53 115.30 C 436.53 115.23 436.52 115.09 436.52 115.02 C 442.28 111.51 445.64 105.45 447.24 99.06 C 447.94 93.98 446.48 88.84 443.36 84.80 Z" />
<path fill="#49312b" opacity="1.00" d=" M 547.43 106.56 C 547.46 106.58 547.53 106.62 547.56 106.64 C 547.53 106.62 547.46 106.58 547.43 106.56 Z" />
<path fill="#49312b" opacity="1.00" d=" M 548.65 107.54 C 549.89 106.85 552.80 107.57 552.65 109.24 C 551.04 109.83 549.69 108.57 548.65 107.54 Z" />
<path fill="#49312b" opacity="1.00" d=" M 553.24 109.12 C 556.57 110.01 559.69 111.55 562.70 113.22 L 561.80 113.04 C 558.68 112.40 555.84 110.93 553.24 109.12 Z" />
<path fill="#ffffff" opacity="1.00" d=" M 370.99 140.91 C 370.39 130.61 369.16 120.26 370.04 109.96 C 369.58 136.00 372.86 162.20 380.90 187.03 C 375.57 172.20 372.85 156.52 370.99 140.91 Z" />
<path fill="#49312b" opacity="1.00" d=" M 562.23 113.18 C 566.57 113.73 570.72 115.22 574.96 116.23 C 578.02 117.17 578.81 120.48 578.27 123.30 C 577.94 120.94 577.45 118.01 574.84 117.13 C 570.67 115.70 566.24 115.10 562.23 113.18 Z" />
<path fill="#000000" opacity="1.00" d=" M 513.53 122.54 C 516.84 122.06 520.28 123.19 521.87 126.35 C 519.03 126.74 515.31 127.19 513.25 124.81 C 513.32 124.24 513.46 123.10 513.53 122.54 Z" />
<path fill="#49312b" opacity="1.00" d=" M 577.58 124.58 C 577.59 124.55 577.63 124.49 577.65 124.46 C 577.63 124.49 577.59 124.55 577.58 124.58 Z" />
<path fill="#49312b" opacity="1.00" d=" M 562.09 138.91 C 567.76 135.21 573.15 130.98 577.05 125.36 C 574.56 131.84 568.38 136.43 562.09 138.91 Z" />
<path fill="#49312b" opacity="1.00" d=" M 557.60 141.66 C 558.10 139.85 559.86 138.79 561.69 138.94 C 561.77 140.59 559.09 141.81 557.60 141.66 Z" />
<path fill="#49312b" opacity="1.00" d=" M 553.83 143.76 C 554.32 142.48 555.65 141.76 556.99 141.74 C 557.40 143.21 555.01 144.37 553.83 143.76 Z" />
<path fill="#49312b" opacity="1.00" d=" M 547.86 145.53 C 549.30 144.39 551.02 143.50 552.93 143.76 C 552.69 145.65 549.39 146.19 547.86 145.53 Z" />
<path fill="#49312b" opacity="1.00" d=" M 544.89 146.72 C 545.35 146.47 546.28 145.96 546.74 145.71 L 546.66 146.60 L 545.72 147.11 L 544.89 146.72 Z" />
<path fill="#49312b" opacity="1.00" d=" M 499.46 150.54 C 501.08 149.12 502.42 146.43 504.97 147.01 C 515.28 148.39 525.69 149.20 536.10 148.97 C 525.32 150.08 514.41 149.26 503.73 147.59 C 501.15 148.91 499.89 151.86 497.77 153.77 C 493.31 158.01 488.95 162.76 483.06 165.00 C 489.09 160.85 494.66 156.08 499.46 150.54 Z" />
<path fill="#49312b" opacity="1.00" d=" M 541.79 147.66 C 542.26 147.42 543.19 146.96 543.66 146.73 L 543.57 147.61 L 542.61 148.09 L 541.79 147.66 Z" />
<path fill="#49312b" opacity="1.00" d=" M 536.89 148.56 C 538.01 147.78 539.37 147.42 540.75 147.63 C 540.70 149.26 537.86 149.63 536.89 148.56 Z" />
<path fill="#ffffff" opacity="1.00" d=" M 477.80 167.39 C 479.05 165.94 480.79 165.25 482.67 165.10 C 482.87 167.14 479.39 168.23 477.80 167.39 Z" />
<path fill="#49312b" opacity="1.00" d=" M 472.68 169.73 C 473.40 168.12 475.25 167.85 476.82 167.71 C 476.83 169.42 474.07 170.15 472.68 169.73 Z" />
<path fill="#49312b" opacity="1.00" d=" M 469.89 170.57 C 470.36 170.34 471.30 169.88 471.77 169.66 L 471.64 170.55 L 470.68 171.01 L 469.89 170.57 Z" />
<path fill="#49312b" opacity="1.00" d=" M 455.97 172.21 C 460.55 172.03 465.12 171.61 469.65 170.88 C 465.39 172.71 460.70 172.85 456.17 173.44 C 456.55 180.39 458.23 187.19 458.70 194.12 C 456.71 187.02 455.60 179.60 455.97 172.21 Z" />
<path fill="#49312b" opacity="1.00" d=" M 381.00 187.25 C 383.87 191.67 386.31 196.45 387.25 201.70 C 385.15 196.89 382.69 192.20 381.00 187.25 Z" />
<path fill="#49312b" opacity="1.00" d=" M 458.88 195.03 C 462.32 207.72 465.41 220.57 469.81 233.00 C 471.21 237.96 473.73 242.57 474.73 247.64 C 471.84 242.35 470.21 236.53 468.26 230.86 C 465.13 221.70 462.62 212.36 460.16 203.01 C 459.45 200.40 459.19 197.70 458.88 195.03 Z" />
<path fill="#49312b" opacity="1.00" d=" M 387.41 202.35 C 387.44 202.40 387.50 202.48 387.53 202.52 C 387.50 202.48 387.44 202.40 387.41 202.35 Z" />
<path fill="#49312b" opacity="1.00" d=" M 388.03 203.23 C 390.64 206.62 391.40 210.93 393.24 214.71 C 394.60 217.53 395.61 220.49 396.26 223.55 C 393.15 216.94 390.27 210.20 388.03 203.23 Z" />
<path fill="#ffffff" opacity="1.00" d=" M 449.17 208.19 C 451.07 206.75 453.03 205.37 455.11 204.18 C 458.59 218.75 463.08 233.07 468.41 247.06 C 469.77 249.50 467.10 251.19 465.72 252.79 C 459.97 259.35 451.43 262.64 443.05 264.23 C 433.52 265.24 423.51 265.41 414.56 261.47 C 412.18 254.01 410.39 246.39 408.26 238.87 C 404.91 231.20 402.39 223.20 399.32 215.43 C 401.50 216.07 403.72 216.59 405.91 217.20 C 415.28 217.32 424.83 217.74 433.97 215.36 C 439.22 213.44 444.67 211.63 449.17 208.19 Z" />
<path fill="#49312b" opacity="1.00" d=" M 396.38 223.91 C 396.61 224.37 397.08 225.31 397.32 225.78 L 396.41 225.65 L 395.94 224.70 L 396.38 223.91 Z" />
<path fill="#49312b" opacity="1.00" d=" M 397.25 226.68 C 398.74 227.37 399.56 229.04 399.20 230.65 C 397.57 230.70 396.94 228.00 397.25 226.68 Z" />
<path fill="#49312b" opacity="1.00" d=" M 399.16 231.19 C 400.61 233.72 401.51 236.50 402.26 239.31 C 400.45 236.97 399.61 234.07 399.16 231.19 Z" />
<path fill="#49312b" opacity="1.00" d=" M 402.31 239.43 C 405.08 245.30 405.99 251.82 407.95 257.99 C 410.91 267.72 410.04 277.96 409.99 287.98 C 409.19 295.67 408.57 303.47 406.39 310.93 C 407.30 301.25 409.49 291.70 409.73 281.95 C 409.49 276.60 409.84 271.19 408.81 265.90 C 407.41 256.90 404.05 248.35 402.31 239.43 Z" />
<path fill="#49312b" opacity="1.00" d=" M 51.25 246.09 C 51.08 244.51 51.43 241.56 53.15 241.14 C 53.31 242.97 53.15 245.19 51.25 246.09 Z" />
<path fill="#49312b" opacity="1.00" d=" M 57.88 242.08 C 59.48 242.02 60.04 242.85 59.55 244.58 C 58.56 244.02 58.00 243.18 57.88 242.08 Z" />
<path fill="#ffffff" opacity="1.00" d=" M 50.83 266.48 C 50.69 259.97 48.82 253.27 51.08 246.92 C 49.38 253.51 50.73 260.26 51.23 266.91 C 51.87 274.42 53.55 281.79 55.81 288.96 C 53.12 281.85 50.63 274.63 49.14 267.16 C 48.62 265.01 48.21 262.80 47.17 260.83 C 46.35 260.65 44.70 260.29 43.88 260.10 C 44.84 260.15 45.81 260.23 46.76 260.36 C 49.19 261.61 47.62 266.14 50.83 266.48 Z" />
<path fill="#49312b" opacity="1.00" d=" M 474.75 247.70 C 476.60 250.83 477.91 254.26 478.91 257.75 C 476.81 254.73 475.48 251.29 474.75 247.70 Z" />
<path fill="#49312b" opacity="1.00" d=" M 56.23 249.88 C 62.97 256.79 70.08 263.30 77.21 269.80 C 86.80 279.38 99.31 285.35 112.05 289.53 C 110.50 286.79 107.42 285.69 104.88 284.10 C 99.59 280.92 94.33 277.54 89.90 273.21 C 100.29 273.20 110.67 272.91 121.05 272.44 C 130.53 271.16 139.81 268.85 149.04 266.40 C 161.04 264.26 173.02 262.07 184.99 259.75 C 206.77 257.12 228.95 256.28 250.71 259.53 C 260.28 260.87 269.70 263.15 279.04 265.61 C 291.18 267.00 301.30 274.60 312.73 278.29 C 318.26 280.11 323.19 283.35 328.72 285.22 C 337.04 287.93 344.73 292.23 353.05 294.96 C 361.81 299.09 370.50 303.76 377.70 310.33 C 385.25 316.36 392.42 323.82 402.01 326.35 C 402.41 326.16 403.22 325.78 403.63 325.59 C 408.43 319.97 411.36 312.89 412.69 305.66 C 414.45 300.54 413.94 295.08 414.72 289.80 C 415.96 282.60 415.30 275.27 415.31 268.01 C 423.89 271.20 433.16 271.11 442.16 270.30 C 449.53 269.40 456.60 266.69 462.97 262.93 C 466.35 260.99 468.59 257.66 471.79 255.47 C 475.68 265.27 480.08 274.86 484.85 284.26 C 491.04 296.07 499.70 306.35 505.92 318.13 C 509.86 323.97 512.23 330.64 515.17 337.00 C 518.63 345.29 521.48 353.86 523.49 362.62 C 524.36 366.06 525.95 369.38 525.79 373.01 C 525.80 384.72 526.31 396.51 524.58 408.14 C 521.30 428.05 513.49 446.97 503.37 464.34 C 497.74 473.86 492.42 483.73 484.91 491.92 C 477.79 500.43 469.56 507.92 461.33 515.33 C 448.64 526.19 433.92 535.48 417.21 538.34 C 410.14 539.28 403.24 541.64 396.05 541.45 C 390.38 541.31 384.70 541.72 379.06 541.11 C 370.74 540.07 362.31 541.26 354.03 539.83 C 343.27 539.77 332.74 537.28 322.02 536.62 C 316.99 536.40 312.04 535.29 307.00 535.25 C 299.99 534.83 292.94 535.02 285.98 533.94 C 280.00 533.49 273.98 533.72 267.99 533.84 C 255.38 535.20 242.68 534.29 230.04 534.70 C 222.05 535.54 214.05 536.56 206.01 536.39 C 195.94 535.95 186.08 538.71 176.03 538.62 C 170.70 538.67 165.36 538.99 160.03 538.65 C 158.33 538.80 158.00 536.83 157.36 535.71 C 153.20 525.03 146.57 515.49 138.83 507.10 C 134.40 502.21 130.79 496.57 125.85 492.15 C 116.24 484.82 106.58 477.27 95.37 472.49 C 85.23 468.47 76.97 461.12 68.55 454.39 C 60.51 447.07 53.59 438.58 47.29 429.73 C 43.57 422.76 40.37 415.51 37.72 408.06 C 36.43 404.30 34.11 400.93 33.33 396.99 C 32.44 392.35 31.76 387.67 30.63 383.08 C 25.09 364.26 25.28 344.42 25.31 324.98 C 25.17 315.23 26.02 305.40 28.55 295.96 C 32.24 305.56 36.45 315.09 42.49 323.47 C 44.93 326.98 48.88 329.22 50.96 332.99 C 59.01 349.98 68.12 366.56 79.30 381.71 C 86.71 391.51 94.98 400.65 103.72 409.28 C 108.18 413.18 112.10 417.81 117.37 420.69 C 123.41 424.23 128.89 428.64 135.01 432.05 C 145.19 438.16 156.55 441.86 167.41 446.53 C 188.87 455.48 211.59 462.65 235.05 462.82 C 241.91 462.90 248.79 462.74 255.64 462.33 C 273.34 459.96 290.78 455.98 307.91 450.96 C 327.54 445.27 347.14 436.49 361.05 421.05 C 359.05 421.48 357.13 422.22 355.41 423.35 C 345.69 429.30 335.65 434.86 324.92 438.78 C 320.50 440.33 316.23 442.27 311.84 443.89 C 292.13 449.01 272.38 454.50 252.05 456.55 C 245.35 456.81 238.63 456.67 231.93 456.71 C 209.94 455.91 188.79 448.88 168.65 440.48 C 161.08 437.37 153.43 434.42 145.99 431.00 C 138.94 427.72 132.44 423.40 126.05 419.00 C 122.34 416.36 118.07 414.50 114.87 411.20 C 100.10 398.17 86.94 383.24 76.19 366.72 C 66.35 350.95 57.27 334.58 50.84 317.09 C 46.18 303.96 45.60 289.88 45.46 276.08 C 47.43 284.43 50.88 292.34 55.26 299.69 C 59.24 307.02 64.85 313.60 71.98 318.03 C 71.71 313.51 68.89 309.79 67.41 305.65 C 60.83 287.84 55.34 269.06 56.23 249.88 Z" />
<path fill="#ffffff" opacity="1.00" d=" M 170.97 256.41 C 193.01 251.48 215.79 251.05 238.28 252.02 C 246.66 253.23 255.18 253.69 263.40 255.82 C 270.34 257.46 277.44 258.47 284.18 260.87 C 267.91 256.68 251.41 253.12 234.61 252.09 C 216.71 251.42 198.72 251.98 181.00 254.64 C 167.02 257.79 152.70 259.33 138.85 263.05 C 149.26 259.64 160.27 258.60 170.97 256.41 Z" />
<path fill="#ffffff" opacity="1.00" d=" M 479.02 257.96 C 480.22 260.00 481.14 262.21 481.81 264.49 C 480.82 262.34 479.93 260.14 479.02 257.96 Z" />
<path fill="#49312b" opacity="1.00" d=" M 285.85 261.32 L 286.66 260.86 L 287.63 261.32 L 287.76 262.21 C 287.28 261.99 286.33 261.54 285.85 261.32 Z" />
<path fill="#49312b" opacity="1.00" d=" M 42.35 268.11 C 42.24 266.20 42.64 263.27 44.19 262.17 C 44.71 264.31 44.28 266.80 42.35 268.11 Z" />
<path fill="#49312b" opacity="1.00" d=" M 80.33 262.46 C 80.38 262.49 80.48 262.55 80.53 262.58 C 80.48 262.55 80.38 262.49 80.33 262.46 Z" />
<path fill="#49312b" opacity="1.00" d=" M 289.03 262.22 L 289.85 261.81 L 290.80 262.31 L 290.91 263.21 C 290.44 262.96 289.50 262.46 289.03 262.22 Z" />
<path fill="#49312b" opacity="1.00" d=" M 82.26 263.46 C 82.30 263.48 82.39 263.53 82.43 263.55 C 82.39 263.53 82.30 263.48 82.26 263.46 Z" />
<path fill="#ffffff" opacity="1.00" d=" M 118.95 266.61 C 125.55 265.95 132.02 264.33 138.54 263.13 C 132.78 264.71 126.88 265.73 120.98 266.63 C 112.00 267.34 102.98 267.20 93.98 267.22 C 90.25 267.30 86.75 265.75 83.50 264.08 C 86.62 265.10 89.59 266.95 92.97 266.90 C 101.63 266.92 110.29 267.00 118.95 266.61 Z" />
<path fill="#49312b" opacity="1.00" d=" M 291.96 263.29 L 292.75 262.88 L 293.70 263.39 L 293.82 264.30 C 293.35 264.05 292.42 263.54 291.96 263.29 Z" />
<path fill="#49312b" opacity="1.00" d=" M 295.36 264.27 C 295.41 264.31 295.50 264.39 295.54 264.43 C 295.50 264.39 295.41 264.31 295.36 264.27 Z" />
<path fill="#49312b" opacity="1.00" d=" M 296.84 265.52 L 297.63 264.98 L 298.66 265.35 L 298.85 266.21 C 298.35 266.04 297.34 265.69 296.84 265.52 Z" />
<path fill="#ffffff" opacity="1.00" d=" M 481.97 264.87 C 484.08 268.99 486.17 273.15 487.92 277.45 C 485.77 273.34 483.75 269.15 481.97 264.87 Z" />
<path fill="#49312b" opacity="1.00" d=" M 41.46 272.10 C 40.54 270.61 40.87 269.67 42.46 269.28 C 42.63 270.38 42.30 271.32 41.46 272.10 Z" />
<path fill="#49312b" opacity="1.00" d=" M 305.23 268.99 C 307.79 269.78 310.26 270.89 312.51 272.36 C 309.88 271.72 307.33 270.73 305.23 268.99 Z" />
<path fill="#49312b" opacity="1.00" d=" M 312.84 272.49 C 313.27 272.44 314.12 272.36 314.55 272.31 L 314.75 273.16 C 314.27 272.99 313.32 272.65 312.84 272.49 Z" />
<path fill="#ffffff" opacity="1.00" d=" M 42.06 308.41 C 40.27 296.69 38.55 284.60 40.91 272.84 C 38.88 286.97 40.66 301.38 43.89 315.20 C 42.34 312.08 40.75 308.97 38.99 305.97 C 39.75 306.58 41.29 307.80 42.06 308.41 Z" />
<path fill="#49312b" opacity="1.00" d=" M 315.22 273.00 C 317.89 273.57 320.41 274.71 322.65 276.27 C 320.00 275.62 317.44 274.61 315.22 273.00 Z" />
<path fill="#49312b" opacity="1.00" d=" M 323.45 276.54 C 323.48 276.55 323.53 276.57 323.56 276.59 C 323.53 276.57 323.48 276.55 323.45 276.54 Z" />
<path fill="#49312b" opacity="1.00" d=" M 324.23 277.00 C 327.76 278.27 331.31 279.56 334.64 281.32 C 330.84 280.81 327.28 279.30 324.23 277.00 Z" />
<path fill="#49312b" opacity="1.00" d=" M 488.41 278.38 C 488.43 278.43 488.47 278.52 488.49 278.56 C 488.47 278.52 488.43 278.43 488.41 278.38 Z" />
<path fill="#ffffff" opacity="1.00" d=" M 489.05 279.71 C 491.29 283.59 493.75 287.37 495.71 291.41 C 493.40 287.56 490.95 283.78 489.05 279.71 Z" />
<path fill="#49312b" opacity="1.00" d=" M 334.81 281.35 C 336.16 280.79 339.03 281.59 338.94 283.27 C 337.38 283.18 335.61 282.85 334.81 281.35 Z" />
<path fill="#49312b" opacity="1.00" d=" M 340.38 283.49 C 340.41 283.50 340.48 283.53 340.52 283.55 C 340.48 283.53 340.41 283.50 340.38 283.49 Z" />
<path fill="#49312b" opacity="1.00" d=" M 341.26 284.02 C 343.77 284.71 346.34 285.50 348.34 287.25 C 345.82 286.55 343.36 285.60 341.26 284.02 Z" />
<path fill="#49312b" opacity="1.00" d=" M 25.28 291.43 C 25.19 289.59 26.91 286.52 29.09 287.44 C 28.18 289.05 27.11 290.73 25.28 291.43 Z" />
<path fill="#49312b" opacity="1.00" d=" M 30.44 286.78 C 33.55 287.89 33.68 291.35 34.55 294.00 C 35.52 298.07 37.75 301.69 38.84 305.72 C 37.34 303.26 35.87 300.76 34.98 298.01 C 33.67 294.20 33.20 289.93 30.44 286.78 Z" />
<path fill="#49312b" opacity="1.00" d=" M 348.42 287.28 C 351.32 287.69 354.09 288.73 356.60 290.23 C 353.72 289.70 350.98 288.69 348.42 287.28 Z" />
<path fill="#49312b" opacity="1.00" d=" M 357.47 290.47 C 357.50 290.48 357.57 290.51 357.60 290.52 C 357.57 290.51 357.50 290.48 357.47 290.47 Z" />
<path fill="#49312b" opacity="1.00" d=" M 359.34 291.45 C 359.37 291.47 359.44 291.52 359.47 291.54 C 359.44 291.52 359.37 291.47 359.34 291.45 Z" />
<path fill="#49312b" opacity="1.00" d=" M 24.40 292.43 L 25.31 292.32 C 25.06 292.78 24.54 293.70 24.29 294.16 C 24.32 293.73 24.37 292.86 24.40 292.43 Z" />
<path fill="#49312b" opacity="1.00" d=" M 360.07 291.98 C 362.42 292.99 366.00 294.23 367.04 296.06 C 364.41 295.30 362.15 293.70 360.07 291.98 Z" />
<path fill="#49312b" opacity="1.00" d=" M 495.73 291.44 C 498.56 294.73 500.59 298.60 503.21 302.06 C 504.95 304.52 507.38 306.61 508.06 309.69 C 503.67 303.81 498.63 298.27 495.73 291.44 Z" />
<path fill="#49312b" opacity="1.00" d=" M 23.37 295.39 L 24.26 295.29 C 24.01 295.76 23.52 296.69 23.27 297.15 C 23.30 296.71 23.35 295.83 23.37 295.39 Z" />
<path fill="#49312b" opacity="1.00" d=" M 367.85 296.34 C 370.60 297.54 373.17 299.26 375.39 301.28 C 372.68 299.96 369.81 298.73 367.85 296.34 Z" />
<path fill="#49312b" opacity="1.00" d=" M 22.42 298.37 L 23.31 298.21 C 23.10 298.70 22.68 299.67 22.47 300.15 L 21.99 299.36 L 22.42 298.37 Z" />
<path fill="#ffffff" opacity="1.00" d=" M 19.88 311.07 C 20.26 307.62 20.85 304.20 21.91 300.90 C 21.65 302.64 21.52 304.40 21.30 306.15 C 19.46 310.52 20.10 315.37 19.85 319.98 C 19.82 341.68 18.81 363.90 25.16 384.93 C 24.38 382.53 23.34 380.22 22.54 377.86 C 21.85 369.20 19.88 360.66 19.79 351.94 C 19.54 338.32 19.27 324.68 19.88 311.07 Z" />
<path fill="#ffffff" opacity="1.00" d=" M 375.53 301.50 C 377.13 300.85 377.88 301.34 377.78 302.97 C 376.72 302.91 375.97 302.42 375.53 301.50 Z" />
<path fill="#49312b" opacity="1.00" d=" M 508.48 310.49 C 508.50 310.53 508.53 310.60 508.55 310.64 C 508.53 310.60 508.50 310.53 508.48 310.49 Z" />
<path fill="#49312b" opacity="1.00" d=" M 405.42 311.44 L 406.33 311.32 C 406.10 311.79 405.64 312.75 405.41 313.23 L 404.95 312.42 L 405.42 311.44 Z" />
<path fill="#49312b" opacity="1.00" d=" M 508.88 311.48 C 513.52 319.09 517.86 327.03 520.81 335.47 C 518.13 331.56 516.52 327.08 514.31 322.92 C 512.34 319.18 510.21 315.51 508.88 311.48 Z" />
<path fill="#49312b" opacity="1.00" d=" M 404.44 314.77 C 404.47 314.73 404.52 314.64 404.54 314.60 C 404.52 314.64 404.47 314.73 404.44 314.77 Z" />
<path fill="#49312b" opacity="1.00" d=" M 403.41 316.75 C 403.44 316.70 403.49 316.60 403.51 316.55 C 403.49 316.60 403.44 316.70 403.41 316.75 Z" />
<path fill="#49312b" opacity="1.00" d=" M 398.35 318.50 C 398.39 318.52 398.46 318.57 398.50 318.60 C 398.46 318.57 398.39 318.52 398.35 318.50 Z" />
<path fill="#49312b" opacity="1.00" d=" M 400.17 319.79 C 400.87 318.57 401.85 318.14 403.12 318.51 C 403.22 320.06 401.20 321.08 400.17 319.79 Z" />
<path fill="#49312b" opacity="1.00" d=" M 520.85 335.67 C 522.30 338.09 523.34 340.76 523.80 343.57 C 522.42 341.10 521.22 338.50 520.85 335.67 Z" />
<path fill="#49312b" opacity="1.00" d=" M 523.84 343.67 C 525.41 346.38 526.42 349.42 526.75 352.54 C 525.33 349.74 524.41 346.74 523.84 343.67 Z" />
<path fill="#49312b" opacity="1.00" d=" M 526.82 352.75 C 528.55 356.55 529.58 360.67 529.81 364.84 C 528.36 360.93 527.46 356.86 526.82 352.75 Z" />
<path fill="#49312b" opacity="1.00" d=" M 529.68 365.28 C 531.17 365.78 531.34 368.69 530.60 369.98 C 529.63 368.63 528.94 366.89 529.68 365.28 Z" />
<path fill="#49312b" opacity="1.00" d=" M 530.98 370.65 C 533.19 390.12 531.89 410.17 525.85 428.91 C 524.28 433.44 523.20 438.22 520.78 442.41 C 521.45 439.90 522.11 437.39 522.98 434.94 C 527.02 423.72 529.81 412.00 530.81 400.10 C 531.23 390.29 530.72 380.47 530.98 370.65 Z" />
<path fill="#49312b" opacity="1.00" d=" M 25.20 385.08 C 26.35 388.07 26.94 391.22 27.17 394.41 C 26.00 391.43 25.37 388.27 25.20 385.08 Z" />
<path fill="#49312b" opacity="1.00" d=" M 27.46 394.88 C 28.24 395.68 28.53 396.62 28.31 397.71 C 26.73 397.28 26.44 396.34 27.46 394.88 Z" />
<path fill="#49312b" opacity="1.00" d=" M 28.44 400.35 C 28.45 400.39 28.48 400.46 28.49 400.50 C 28.48 400.46 28.45 400.39 28.44 400.35 Z" />
<path fill="#49312b" opacity="1.00" d=" M 29.34 402.68 C 30.77 403.43 31.56 405.07 31.23 406.66 C 29.58 406.78 28.93 403.98 29.34 402.68 Z" />
<path fill="#49312b" opacity="1.00" d=" M 31.19 407.16 C 33.03 410.27 34.21 413.69 35.26 417.13 L 34.71 417.29 C 33.37 413.98 31.92 410.68 31.19 407.16 Z" />
<path fill="#49312b" opacity="1.00" d=" M 35.29 417.22 C 36.73 420.30 38.10 423.41 39.25 426.62 C 37.07 423.94 35.61 420.66 35.29 417.22 Z" />
<path fill="#ffffff" opacity="1.00" d=" M 39.25 426.64 C 40.41 428.83 41.59 431.00 42.90 433.11 C 41.25 431.23 40.15 428.95 39.25 426.64 Z" />
<path fill="#49312b" opacity="1.00" d=" M 43.19 433.46 C 47.40 438.07 50.42 443.65 54.92 448.04 C 64.57 459.21 76.54 468.03 88.87 476.00 C 81.76 473.43 76.16 468.13 70.21 463.66 C 61.76 457.54 54.94 449.55 48.36 441.54 C 46.30 439.08 44.76 436.24 43.19 433.46 Z" />
<path fill="#49312b" opacity="1.00" d=" M 516.80 451.70 C 517.36 448.33 518.84 445.26 520.75 442.47 C 519.88 445.71 518.39 448.75 516.80 451.70 Z" />
<path fill="#ffffff" opacity="1.00" d=" M 509.11 466.10 C 510.93 462.55 512.74 458.98 514.93 455.64 C 513.05 459.15 511.28 462.75 509.11 466.10 Z" />
<path fill="#ffffff" opacity="1.00" d=" M 505.11 473.03 C 506.41 470.86 507.64 468.65 508.92 466.46 C 507.93 468.80 506.73 471.07 505.11 473.03 Z" />
<path fill="#49312b" opacity="1.00" d=" M 500.76 480.32 C 501.44 477.56 503.07 475.24 504.98 473.20 C 503.85 475.73 502.42 478.11 500.76 480.32 Z" />
<path fill="#49312b" opacity="1.00" d=" M 89.49 476.41 C 89.52 476.43 89.58 476.46 89.61 476.47 C 89.58 476.46 89.52 476.43 89.49 476.41 Z" />
<path fill="#49312b" opacity="1.00" d=" M 90.40 476.75 C 96.34 478.01 101.30 481.65 106.46 484.65 C 109.61 486.70 113.16 488.53 115.28 491.76 C 107.53 485.92 99.15 480.93 90.40 476.75 Z" />
<path fill="#49312b" opacity="1.00" d=" M 498.88 482.68 C 498.92 481.44 499.51 480.75 500.65 480.62 C 500.99 482.20 500.41 482.89 498.88 482.68 Z" />
<path fill="#49312b" opacity="1.00" d=" M 493.22 490.19 C 494.62 488.07 496.33 486.19 498.11 484.40 C 494.37 490.54 490.04 496.44 484.85 501.45 C 487.20 497.37 490.63 494.09 493.22 490.19 Z" />
<path fill="#49312b" opacity="1.00" d=" M 116.08 492.25 C 121.01 495.15 125.06 499.69 128.17 504.47 C 124.05 500.49 120.16 496.26 116.07 492.25 L 116.08 492.25 Z" />
<path fill="#49312b" opacity="1.00" d=" M 129.16 505.60 C 131.27 507.11 133.17 508.93 134.20 511.37 C 132.29 509.66 130.56 507.75 129.16 505.60 Z" />
<path fill="#49312b" opacity="1.00" d=" M 473.95 511.87 C 474.19 509.81 475.59 508.28 477.68 508.04 C 477.86 509.64 475.55 511.98 473.95 511.87 Z" />
<path fill="#49312b" opacity="1.00" d=" M 134.94 512.42 C 138.05 514.79 140.45 517.88 142.26 521.34 C 139.58 518.58 137.13 515.58 134.94 512.42 Z" />
<path fill="#49312b" opacity="1.00" d=" M 461.50 523.91 C 463.15 521.82 465.15 520.04 467.51 518.79 C 465.76 520.77 463.77 522.56 461.50 523.91 Z" />
<path fill="#49312b" opacity="1.00" d=" M 142.28 521.36 C 144.00 523.18 145.36 525.29 146.38 527.59 C 144.61 525.80 143.28 523.64 142.28 521.36 Z" />
<path fill="#49312b" opacity="1.00" d=" M 457.61 526.63 C 457.91 525.10 459.21 523.88 460.82 523.98 L 460.98 524.41 C 460.49 525.64 459.01 527.06 457.61 526.63 Z" />
<path fill="#49312b" opacity="1.00" d=" M 453.61 529.51 C 454.02 528.06 455.27 527.00 456.77 526.84 L 456.98 527.33 C 456.66 528.66 455.00 530.07 453.61 529.51 Z" />
<path fill="#ffffff" opacity="1.00" d=" M 146.48 527.75 C 148.93 530.87 150.77 534.41 151.89 538.22 C 150.36 534.58 148.68 531.03 146.48 527.75 Z" />
<path fill="#49312b" opacity="1.00" d=" M 449.66 532.70 C 449.73 531.43 450.40 530.85 451.68 530.95 C 451.86 532.39 451.19 532.98 449.66 532.70 Z" />
<path fill="#49312b" opacity="1.00" d=" M 446.44 534.52 C 446.96 533.49 447.77 532.92 448.87 532.81 C 448.94 534.42 448.13 534.99 446.44 534.52 Z" />
<path fill="#49312b" opacity="1.00" d=" M 445.38 535.56 C 445.41 535.54 445.47 535.50 445.51 535.48 C 445.47 535.50 445.41 535.54 445.38 535.56 Z" />
<path fill="#49312b" opacity="1.00" d=" M 443.51 536.48 L 443.63 536.42 C 443.57 536.45 443.45 536.51 443.39 536.55 L 443.51 536.48 Z" />
<path fill="#49312b" opacity="1.00" d=" M 441.27 537.73 C 441.35 537.69 441.51 537.60 441.59 537.55 C 441.51 537.60 441.35 537.69 441.27 537.73 Z" />
<path fill="#49312b" opacity="1.00" d=" M 437.92 538.89 C 438.32 538.59 439.14 537.99 439.54 537.69 L 439.54 538.56 C 439.13 538.65 438.32 538.81 437.92 538.89 Z" />
<path fill="#49312b" opacity="1.00" d=" M 434.82 539.59 C 435.29 539.37 436.23 538.93 436.70 538.71 L 436.56 539.58 C 436.12 539.58 435.25 539.59 434.82 539.59 Z" />
<path fill="#ffffff" opacity="1.00" d=" M 209.04 542.11 C 219.74 542.33 230.32 540.17 241.02 540.39 C 256.66 540.27 272.33 539.80 287.97 540.27 C 296.29 541.53 304.73 540.32 313.05 541.53 C 320.13 542.57 327.33 542.61 334.39 543.87 C 326.94 543.12 319.46 542.65 312.04 541.66 C 305.72 540.73 299.31 541.52 292.96 541.02 C 284.36 539.83 275.65 540.37 267.00 540.34 C 251.11 540.58 235.20 540.29 219.40 541.97 C 212.25 542.81 205.03 541.76 197.90 542.80 C 184.32 544.40 170.63 544.09 157.00 544.03 C 164.31 543.83 171.64 543.78 178.95 543.91 C 189.02 543.95 198.97 541.75 209.04 542.11 Z" />
<path fill="#49312b" opacity="1.00" d=" M 430.96 540.75 C 431.44 540.55 432.39 540.14 432.87 539.94 L 432.71 540.81 C 432.27 540.79 431.40 540.77 430.96 540.75 Z" />
<path fill="#49312b" opacity="1.00" d=" M 427.96 541.76 C 428.43 541.52 429.35 541.04 429.82 540.80 L 429.72 541.69 L 428.78 542.18 L 427.96 541.76 Z" />
<path fill="#49312b" opacity="1.00" d=" M 423.96 542.53 C 424.79 541.73 425.77 541.44 426.90 541.67 C 426.42 543.19 425.44 543.47 423.96 542.53 Z" />
<path fill="#ffffff" opacity="1.00" d=" M 394.99 547.15 C 404.57 547.62 413.80 544.68 423.13 543.07 C 416.83 544.81 410.33 545.83 403.90 547.04 C 395.26 547.78 386.57 547.05 377.92 547.46 C 363.59 546.08 349.00 546.71 334.85 543.95 C 337.55 544.37 340.25 544.80 342.98 544.98 C 360.29 546.27 377.63 547.42 394.99 547.15 Z" />
</svg>
