<?xml version="1.0" encoding="UTF-8" ?>
<!DOCTYPE svg PUBLIC "-//W3C//DTD SVG 1.1//EN" "http://www.w3.org/Graphics/SVG/1.1/DTD/svg11.dtd">
<svg width="591pt" height="591pt" viewBox="0 0 591 591" version="1.1" xmlns="http://www.w3.org/2000/svg">
<path fill="#010000" opacity="1.00" d=" M 316.97 8.60 C 331.18 6.15 345.65 6.98 359.99 6.04 C 373.69 6.79 387.33 10.22 399.57 16.51 C 405.19 19.32 411.45 20.48 417.18 23.03 C 422.13 25.29 426.40 28.71 431.05 31.49 C 436.63 34.86 442.11 38.55 446.41 43.51 C 453.96 51.07 460.84 59.24 467.61 67.49 C 474.00 76.12 476.85 86.68 481.58 96.21 C 484.63 104.94 490.15 112.43 493.97 120.80 C 496.64 127.00 500.66 132.50 503.16 138.78 C 506.12 146.00 509.71 152.94 512.67 160.16 C 518.31 171.80 528.93 179.82 536.18 190.33 C 540.75 197.25 546.19 203.54 550.64 210.55 C 552.13 213.02 556.07 215.24 554.43 218.54 C 551.82 222.63 547.22 224.82 542.83 226.49 C 535.86 229.20 528.45 230.54 521.49 233.28 C 514.62 235.90 507.12 236.48 500.31 239.21 C 499.04 243.77 498.24 248.45 497.42 253.10 C 496.09 260.71 497.84 268.45 496.76 276.09 C 495.12 286.98 492.98 298.31 486.21 307.33 C 479.22 318.30 469.28 326.87 458.98 334.62 C 455.20 337.53 450.17 337.21 445.68 337.44 C 442.57 351.68 436.96 365.25 429.69 377.85 C 424.58 386.14 419.94 394.76 414.11 402.59 C 405.52 414.13 393.42 422.40 381.06 429.44 C 369.85 434.95 357.91 438.73 346.41 443.58 C 346.48 450.41 345.22 457.16 345.27 463.99 C 345.21 469.72 345.11 475.44 345.28 481.16 C 348.79 483.96 352.11 487.22 356.47 488.65 C 360.00 490.28 364.90 491.20 366.29 495.38 C 367.81 500.44 368.18 505.76 369.40 510.89 C 370.74 517.58 373.69 523.79 375.49 530.35 C 378.18 540.14 379.30 550.33 382.72 559.93 C 383.61 564.72 385.03 569.67 384.47 574.54 C 380.15 576.51 375.44 574.18 371.00 573.88 C 356.90 572.99 344.82 564.92 331.52 561.11 C 324.73 558.81 318.05 556.02 310.98 554.69 C 308.91 554.15 306.92 555.13 305.02 555.83 C 299.74 558.04 294.61 560.64 289.83 563.81 C 288.35 564.59 286.53 566.20 284.84 564.96 C 275.23 559.24 266.22 552.35 255.78 548.17 C 247.54 545.70 239.10 548.72 231.07 550.56 C 221.21 553.47 211.12 555.41 201.17 557.93 C 193.97 559.62 186.54 560.14 179.43 562.22 C 178.02 562.79 175.65 562.08 176.07 560.19 C 177.88 552.91 181.70 546.32 186.34 540.49 C 192.84 531.91 197.75 522.30 203.05 512.97 C 207.25 505.55 213.27 499.37 217.51 491.98 C 219.07 489.33 220.28 486.49 222.07 483.98 C 223.68 481.25 227.21 482.87 229.72 482.71 C 228.66 472.20 228.51 461.52 225.62 451.29 C 217.11 449.61 209.01 446.44 200.77 443.81 C 193.70 440.35 186.42 437.08 180.17 432.21 C 174.40 428.06 169.57 422.79 163.86 418.57 C 153.94 410.03 145.58 399.77 139.16 388.36 C 127.74 368.58 118.92 347.22 113.63 324.98 C 107.93 325.39 101.99 326.08 96.45 324.28 C 90.49 322.34 86.06 317.25 83.72 311.58 C 81.46 305.93 80.00 300.00 77.89 294.30 C 75.92 288.09 73.26 282.11 71.72 275.78 C 69.71 267.65 66.98 259.48 67.64 250.98 C 67.73 242.36 73.75 235.33 80.04 230.08 C 78.12 219.50 78.42 208.70 78.82 198.00 C 79.78 189.97 79.92 181.83 81.69 173.90 C 84.76 159.20 87.79 144.32 93.80 130.48 C 97.28 121.34 101.79 112.57 107.38 104.54 C 110.10 100.58 112.50 96.33 116.01 92.99 C 123.19 85.97 130.38 78.92 136.79 71.17 C 143.28 63.18 151.40 56.65 160.14 51.26 C 173.43 43.89 186.87 36.10 201.90 32.93 C 210.19 31.32 218.52 29.78 226.95 29.06 C 230.88 28.67 234.79 29.57 238.51 30.79 C 243.35 32.43 248.46 33.08 253.26 34.87 C 260.23 29.50 267.24 23.92 275.43 20.50 C 288.75 14.88 302.93 11.78 316.97 8.60 M 320.84 13.98 C 309.36 16.31 297.93 19.00 286.79 22.63 C 278.88 25.12 271.33 28.76 264.65 33.70 C 261.54 36.13 257.01 37.77 255.98 41.99 C 254.62 47.86 256.91 53.73 256.75 59.63 C 251.56 54.57 251.80 46.58 250.46 39.91 C 245.70 38.94 240.94 37.95 236.34 36.39 C 230.96 34.52 225.13 35.13 219.59 35.85 C 211.97 37.26 204.21 38.13 196.80 40.49 C 185.32 43.79 175.05 50.06 164.60 55.67 C 156.30 60.70 148.39 66.66 142.20 74.20 C 136.02 81.32 129.76 88.39 122.84 94.81 C 116.28 100.85 111.79 108.69 107.21 116.25 C 96.10 135.88 90.71 158.07 86.74 180.10 C 85.13 195.57 82.97 211.25 85.68 226.74 C 90.55 226.67 95.68 225.85 100.33 227.72 C 105.75 229.86 107.84 235.82 112.05 239.44 C 114.19 234.28 115.92 228.65 120.24 224.81 C 119.79 214.10 121.91 203.56 122.76 192.92 C 125.08 179.26 130.39 165.95 138.91 154.95 C 143.09 148.29 148.08 142.14 154.33 137.31 C 162.12 129.94 170.38 122.79 180.14 118.15 C 195.64 110.95 211.28 103.77 227.87 99.41 C 236.17 96.82 244.83 95.83 253.39 94.47 C 254.16 88.78 255.60 83.19 257.77 77.87 C 258.15 77.69 258.92 77.34 259.30 77.16 C 256.40 91.98 256.08 107.65 260.52 122.19 C 264.99 140.74 275.27 157.75 288.96 170.95 C 297.47 178.81 308.01 183.91 317.55 190.36 C 321.20 192.32 324.52 195.69 328.89 195.76 C 339.57 196.03 350.21 194.25 360.46 191.35 C 340.15 178.66 326.63 158.20 315.22 137.69 C 308.79 125.87 301.54 113.70 300.60 99.96 C 303.42 105.20 306.37 110.38 309.62 115.37 C 313.85 122.26 319.76 127.87 325.58 133.39 C 338.21 146.63 352.83 157.81 367.95 168.04 C 383.43 178.45 400.63 186.66 419.02 190.26 C 427.23 191.59 435.52 192.58 443.85 192.46 C 434.59 186.56 426.17 179.35 418.55 171.45 C 408.69 160.72 400.39 148.67 392.59 136.40 C 388.46 130.07 385.64 123.02 382.77 116.07 C 381.50 113.05 380.78 109.84 380.53 106.59 C 383.48 110.76 385.62 115.40 388.09 119.85 C 391.23 125.53 395.82 130.20 399.23 135.70 C 409.36 151.47 420.54 166.94 435.28 178.74 C 443.70 185.32 452.16 191.89 459.79 199.40 C 459.78 200.03 459.76 201.31 459.75 201.95 C 457.36 201.49 455.14 200.51 453.08 199.24 C 456.36 216.47 459.52 233.90 459.33 251.51 C 462.66 248.17 466.47 245.04 471.15 243.87 C 478.32 242.48 486.53 242.75 492.24 247.90 C 492.80 245.10 493.39 242.32 493.92 239.52 C 488.69 238.61 483.31 238.44 478.22 236.88 C 475.98 236.32 475.08 234.00 474.00 232.24 C 478.31 233.06 482.55 234.46 486.98 234.42 C 495.84 234.59 504.26 231.49 512.79 229.54 C 518.32 228.29 523.49 225.89 528.98 224.49 C 535.46 222.64 542.13 220.94 547.85 217.23 C 543.19 210.55 538.56 203.87 533.68 197.35 C 528.49 188.75 520.73 182.19 514.82 174.14 C 512.19 170.42 508.07 168.26 504.99 164.99 C 480.49 140.52 455.95 116.08 431.33 91.72 C 430.00 90.33 429.00 88.66 428.04 87.00 C 437.85 93.65 446.90 101.37 456.05 108.89 C 467.35 118.56 477.44 129.52 488.11 139.86 C 493.67 145.56 499.64 150.88 504.93 156.86 C 500.46 149.10 497.96 140.38 493.26 132.74 C 490.24 127.85 488.39 122.35 485.48 117.40 C 483.48 113.71 480.69 110.44 479.25 106.46 C 477.58 101.94 475.70 97.51 473.64 93.16 C 469.82 84.91 467.23 75.82 461.02 68.94 C 456.45 63.86 452.53 58.21 447.56 53.48 C 443.46 49.57 440.14 44.83 435.48 41.53 C 430.40 37.82 424.79 34.92 419.65 31.30 C 414.40 27.55 408.00 26.22 402.03 24.07 C 397.74 22.58 393.85 20.20 389.63 18.57 C 378.97 14.36 367.49 11.81 356.00 12.25 C 344.27 12.37 332.50 12.68 320.84 13.98 M 185.87 122.08 C 173.20 127.38 163.26 137.14 153.32 146.30 C 149.22 150.02 146.40 154.81 143.23 159.29 C 135.41 169.35 130.80 181.67 128.59 194.13 C 128.10 204.15 125.60 214.03 126.29 224.10 C 157.05 219.23 188.81 222.02 218.52 231.20 C 223.77 232.94 229.97 233.80 233.43 238.65 C 239.58 245.44 241.96 254.68 241.71 263.67 C 246.45 262.35 251.14 260.71 256.03 259.96 C 268.90 257.99 281.99 256.50 295.01 257.73 C 303.35 259.16 311.94 260.01 319.68 263.70 C 319.16 255.06 318.77 246.20 320.86 237.74 C 322.47 234.05 325.57 231.21 328.23 228.25 C 332.29 223.91 338.20 222.30 343.87 221.37 C 364.22 216.77 385.19 217.15 405.92 217.38 C 418.67 217.65 431.02 221.19 443.22 224.57 C 446.19 225.36 449.03 226.53 451.86 227.72 C 450.36 217.88 449.19 207.94 446.55 198.33 C 445.28 198.31 444.01 198.30 442.75 198.29 C 442.41 201.87 444.20 206.97 440.53 209.26 C 437.54 209.99 434.33 209.67 431.48 208.55 C 427.01 206.82 422.21 206.21 417.74 204.50 C 410.31 201.76 402.62 199.76 394.84 198.27 C 388.58 197.11 382.43 194.95 375.99 195.19 C 371.33 195.03 366.84 196.58 362.20 196.71 C 351.61 200.51 340.23 201.60 329.04 201.83 C 323.99 202.08 319.92 198.73 315.82 196.31 C 303.67 188.33 290.28 181.73 280.40 170.79 C 270.38 159.75 262.21 146.85 257.22 132.76 C 253.47 122.47 252.82 111.42 252.73 100.56 C 229.21 103.08 207.07 112.05 185.87 122.08 M 322.36 138.44 C 328.71 148.76 335.08 159.12 342.99 168.34 C 346.00 166.62 349.19 165.26 352.48 164.16 C 341.56 156.71 331.39 148.11 322.36 138.44 M 347.21 172.87 C 353.48 179.27 361.06 184.07 368.02 189.62 C 374.01 189.20 380.12 188.83 386.03 190.16 C 396.38 192.63 406.97 194.21 417.00 197.87 C 423.43 200.35 430.32 201.34 436.72 203.95 C 436.65 202.18 436.58 200.41 436.50 198.64 C 410.25 197.32 384.98 187.35 363.56 172.37 C 361.52 171.17 359.63 169.07 357.07 169.35 C 353.58 169.80 350.42 171.53 347.21 172.87 M 348.95 226.30 C 343.92 227.56 338.36 227.77 334.06 230.97 C 329.78 234.49 326.09 239.30 325.48 244.96 C 324.50 261.97 325.47 279.62 332.60 295.35 C 335.84 301.54 339.01 307.91 343.91 313.00 C 348.28 317.92 354.15 321.26 360.32 323.39 C 365.62 325.46 371.42 324.43 376.97 324.68 C 389.81 324.88 402.07 320.46 413.85 315.86 C 417.92 314.53 422.26 313.44 425.50 310.48 C 429.79 306.73 433.87 302.57 436.73 297.61 C 444.78 282.26 450.06 265.34 451.23 248.00 C 451.78 242.83 449.88 237.93 449.04 232.91 C 440.33 229.37 431.10 227.31 421.96 225.24 C 409.19 222.17 395.98 223.51 382.99 223.25 C 371.57 222.99 360.18 224.30 348.95 226.30 M 123.84 230.74 C 121.57 236.81 118.21 242.49 117.08 248.95 C 114.33 262.69 112.24 276.96 114.50 290.92 C 119.26 303.56 129.64 312.75 139.10 321.90 C 146.87 326.56 156.28 325.54 164.95 325.68 C 172.01 325.88 178.98 324.63 186.02 324.48 C 196.74 323.37 207.51 320.54 216.70 314.76 C 225.27 309.89 230.79 300.76 233.04 291.35 C 235.92 280.46 236.14 269.10 235.56 257.91 C 234.90 250.84 231.39 243.64 225.47 239.59 C 206.95 233.30 187.65 228.92 168.08 227.99 C 153.31 227.30 138.34 227.65 123.84 230.74 M 86.39 233.48 C 80.36 236.64 75.58 242.30 73.79 248.90 C 72.35 257.95 75.83 266.72 77.83 275.40 C 80.58 284.57 84.28 293.42 86.97 302.61 C 88.62 308.05 90.55 314.09 95.65 317.28 C 100.72 320.17 107.01 320.12 112.51 318.59 C 111.40 313.42 110.84 308.14 109.62 302.99 C 105.59 297.50 99.50 294.15 95.15 288.98 C 91.28 284.57 90.43 278.52 89.60 272.93 C 87.96 263.22 87.20 252.88 90.55 243.45 C 91.58 243.39 92.61 243.33 93.63 243.27 C 92.55 247.46 92.21 251.76 92.15 256.08 C 92.00 261.19 93.33 266.15 94.78 271.00 C 95.93 274.56 95.69 278.44 97.06 281.92 C 100.11 286.78 104.88 290.18 109.24 293.79 C 108.32 291.22 107.24 288.68 106.79 285.97 C 107.35 275.89 107.95 265.81 108.84 255.75 L 109.18 254.96 C 109.64 252.03 110.19 249.11 110.64 246.18 C 106.87 243.57 105.15 239.14 101.86 236.07 C 98.03 231.87 91.40 231.36 86.39 233.48 M 459.92 258.95 C 457.72 261.27 454.73 263.51 454.60 266.99 C 453.92 273.97 454.71 281.01 454.20 288.01 C 453.73 290.01 453.40 292.05 452.98 294.06 C 452.53 296.56 452.36 299.10 452.24 301.63 C 451.90 302.18 451.22 303.27 450.88 303.81 C 453.58 301.39 456.60 299.31 460.07 298.13 C 461.77 297.55 463.47 296.96 465.18 296.40 C 467.53 294.64 469.47 292.42 471.09 289.97 C 472.47 282.61 474.82 275.17 473.99 267.63 C 473.23 267.38 471.69 266.89 470.93 266.64 C 467.41 267.50 464.11 268.99 460.93 270.69 C 461.58 263.58 470.42 258.76 476.73 262.21 C 479.92 264.24 480.34 268.56 480.29 272.01 C 479.97 277.25 478.65 282.37 477.89 287.55 C 476.65 295.13 470.76 301.48 463.38 303.49 C 458.00 304.88 454.37 309.25 450.38 312.77 C 448.93 319.00 447.62 325.27 446.49 331.57 C 449.79 331.27 453.51 331.44 456.21 329.20 C 459.21 326.87 462.07 324.39 465.03 322.01 C 473.16 315.70 479.36 307.25 484.66 298.52 C 489.50 288.11 491.37 276.42 490.81 264.99 C 491.19 260.12 489.64 255.16 486.65 251.34 C 482.86 248.31 477.57 249.19 473.08 249.48 C 467.70 250.89 463.82 255.26 459.92 258.95 M 245.90 268.78 L 245.21 269.35 C 244.62 269.42 243.43 269.55 242.84 269.62 C 242.55 270.12 241.98 271.11 241.69 271.61 C 241.64 273.45 241.58 275.30 241.52 277.16 C 249.36 274.12 257.27 270.87 265.73 270.17 C 276.13 269.21 286.68 267.65 297.05 269.78 C 305.29 272.01 313.69 274.07 320.96 278.76 C 320.57 276.03 320.12 273.32 319.58 270.63 C 311.22 265.69 301.37 264.99 291.99 263.54 C 276.51 262.98 260.81 264.48 245.90 268.78 M 260.88 277.07 C 253.85 278.75 247.00 281.30 240.61 284.67 C 239.36 290.48 238.27 296.42 235.80 301.86 C 233.35 306.53 230.38 311.00 226.71 314.78 C 215.28 324.63 200.22 329.35 185.37 330.51 C 175.28 331.58 165.11 331.68 154.98 331.59 C 148.26 331.60 141.45 329.69 135.93 325.82 C 135.55 325.68 134.79 325.42 134.41 325.29 C 127.93 319.29 120.92 313.56 116.23 305.96 C 117.28 312.28 118.86 318.48 119.86 324.80 C 123.58 340.63 129.41 355.91 136.55 370.49 C 141.46 381.35 147.64 391.65 155.05 400.99 C 159.94 407.09 166.27 411.76 171.63 417.41 C 179.02 424.22 187.06 430.53 196.24 434.77 C 203.56 439.13 211.98 440.90 219.95 443.65 C 228.39 445.40 236.56 448.68 245.25 448.95 C 265.60 451.69 286.54 453.57 306.77 448.91 C 319.61 446.82 331.73 442.00 344.01 437.94 C 363.12 431.07 381.94 422.64 398.14 410.22 C 404.82 405.27 411.04 399.37 415.18 392.07 C 419.87 384.32 424.03 376.27 428.51 368.41 C 434.33 358.09 436.05 346.19 439.88 335.11 C 441.84 323.42 444.91 311.90 446.01 300.07 C 446.55 295.66 447.53 291.31 447.73 286.86 C 447.21 288.60 446.73 290.36 446.24 292.12 C 443.66 296.57 441.96 301.56 438.60 305.53 C 434.63 310.52 430.14 315.31 424.46 318.36 C 421.12 319.77 417.74 321.06 414.59 322.85 C 402.94 327.47 390.52 330.25 377.99 330.68 C 370.88 330.62 363.46 331.39 356.76 328.50 C 345.70 324.71 336.84 316.06 331.47 305.83 C 328.53 299.35 324.24 293.49 322.32 286.56 C 313.45 280.85 303.39 277.21 293.03 275.41 C 282.30 274.89 271.49 275.28 260.88 277.07 M 327.16 450.20 C 326.15 450.47 325.14 450.77 324.14 451.07 C 321.79 451.71 319.46 452.42 317.12 453.08 C 315.73 453.38 314.35 453.69 313.01 454.12 C 311.04 454.37 309.07 454.58 307.12 454.89 C 305.76 455.34 304.40 455.78 303.04 456.23 C 296.70 456.98 290.32 457.22 284.01 458.13 C 276.95 458.93 269.96 457.64 262.94 457.14 C 256.66 456.25 250.31 455.82 243.99 455.09 C 241.32 454.59 238.60 454.44 235.90 454.23 C 235.20 453.95 233.80 453.37 233.10 453.08 C 233.27 456.06 233.43 459.06 234.13 461.99 C 234.39 465.31 234.42 468.68 235.16 471.96 C 235.49 479.00 235.73 486.06 235.50 493.11 C 240.73 500.27 246.01 507.47 252.35 513.72 C 256.50 517.94 261.47 521.22 266.25 524.67 C 272.05 528.82 279.89 528.91 285.34 533.64 C 286.61 541.24 285.88 549.07 287.93 556.58 C 288.15 548.62 292.19 541.60 294.66 534.23 C 295.35 532.27 296.35 530.45 297.51 528.74 C 299.41 528.60 301.37 528.65 303.22 528.09 C 311.32 525.39 319.63 522.70 326.51 517.46 C 331.65 513.23 338.00 509.74 340.61 503.26 C 341.19 500.21 340.47 497.07 339.81 494.09 C 338.72 477.98 339.37 461.85 339.77 445.73 C 335.59 447.27 331.41 448.83 327.16 450.20 M 206.00 519.96 C 202.05 527.29 197.86 534.50 193.18 541.39 C 189.95 545.79 186.66 550.16 183.71 554.76 C 196.52 553.45 208.93 549.87 221.44 547.00 C 233.00 544.08 244.98 539.44 257.03 542.24 C 265.85 545.65 273.93 550.77 281.75 556.04 C 280.16 549.76 280.24 543.28 279.46 536.91 C 274.32 533.92 268.11 533.27 263.24 529.75 C 256.86 525.24 250.32 520.79 245.10 514.91 C 238.00 506.81 231.18 498.36 226.12 488.82 C 220.84 500.11 211.75 508.96 206.00 519.96 M 345.49 488.53 C 344.90 493.49 348.85 497.90 347.15 502.78 C 345.17 510.27 339.08 515.62 333.06 520.01 C 325.08 526.89 315.07 530.65 305.13 533.69 C 303.37 534.45 300.79 534.66 300.17 536.83 C 297.92 542.93 294.81 548.81 293.94 555.33 C 299.62 551.21 306.80 546.92 314.04 549.21 C 322.99 551.23 331.42 554.99 340.19 557.62 C 348.96 561.24 357.65 565.27 366.95 567.36 C 370.95 567.89 374.96 568.40 378.97 568.96 C 377.69 564.34 376.11 559.81 374.91 555.18 C 372.34 544.46 370.88 533.43 366.77 523.14 C 363.37 514.71 362.66 505.59 360.46 496.85 C 355.76 494.83 350.93 493.06 346.55 490.38 C 346.29 489.92 345.76 488.99 345.49 488.53 Z" />
<path fill="#b98b54" opacity="1.00" d=" M 320.84 13.98 C 332.50 12.68 344.27 12.37 356.00 12.25 C 367.49 11.81 378.97 14.36 389.63 18.57 C 393.85 20.20 397.74 22.58 402.03 24.07 C 408.00 26.22 414.40 27.55 419.65 31.30 C 424.79 34.92 430.40 37.82 435.48 41.53 C 440.14 44.83 443.46 49.57 447.56 53.48 C 452.53 58.21 456.45 63.86 461.02 68.94 C 467.23 75.82 469.82 84.91 473.64 93.16 C 475.70 97.51 477.58 101.94 479.25 106.46 C 480.69 110.44 483.48 113.71 485.48 117.40 C 488.39 122.35 490.24 127.85 493.26 132.74 C 497.96 140.38 500.46 149.10 504.93 156.86 C 499.64 150.88 493.67 145.56 488.11 139.86 C 477.44 129.52 467.35 118.56 456.05 108.89 C 446.90 101.37 437.85 93.65 428.04 87.00 C 429.00 88.66 430.00 90.33 431.33 91.72 C 455.95 116.08 480.49 140.52 504.99 164.99 C 508.07 168.26 512.19 170.42 514.82 174.14 C 520.73 182.19 528.49 188.75 533.68 197.35 C 538.56 203.87 543.19 210.55 547.85 217.23 C 542.13 220.94 535.46 222.64 528.98 224.49 C 523.49 225.89 518.32 228.29 512.79 229.54 C 504.26 231.49 495.84 234.59 486.98 234.42 C 482.55 234.46 478.31 233.06 474.00 232.24 C 475.08 234.00 475.98 236.32 478.22 236.88 C 483.31 238.44 488.69 238.61 493.92 239.52 C 493.39 242.32 492.80 245.10 492.24 247.90 C 486.53 242.75 478.32 242.48 471.15 243.87 C 466.47 245.04 462.66 248.17 459.33 251.51 C 459.52 233.90 456.36 216.47 453.08 199.24 C 455.14 200.51 457.36 201.49 459.75 201.95 C 459.76 201.31 459.78 200.03 459.79 199.40 C 452.16 191.89 443.70 185.32 435.28 178.74 C 420.54 166.94 409.36 151.47 399.23 135.70 C 395.82 130.20 391.23 125.53 388.09 119.85 C 385.62 115.40 383.48 110.76 380.53 106.59 C 380.78 109.84 381.50 113.05 382.77 116.07 C 385.64 123.02 388.46 130.07 392.59 136.40 C 400.39 148.67 408.69 160.72 418.55 171.45 C 426.17 179.35 434.59 186.56 443.85 192.46 C 435.52 192.58 427.23 191.59 419.02 190.26 C 400.63 186.66 383.43 178.45 367.95 168.04 C 352.83 157.81 338.21 146.63 325.58 133.39 C 319.76 127.87 313.85 122.26 309.62 115.37 C 306.37 110.38 303.42 105.20 300.60 99.96 C 301.54 113.70 308.79 125.87 315.22 137.69 C 326.63 158.20 340.15 178.66 360.46 191.35 C 350.21 194.25 339.57 196.03 328.89 195.76 C 324.52 195.69 321.20 192.32 317.55 190.36 C 308.01 183.91 297.47 178.81 288.96 170.95 C 275.27 157.75 264.99 140.74 260.52 122.19 C 256.08 107.65 256.40 91.98 259.30 77.16 C 258.92 77.34 258.15 77.69 257.77 77.87 C 255.60 83.19 254.16 88.78 253.39 94.47 C 244.83 95.83 236.17 96.82 227.87 99.41 C 211.28 103.77 195.64 110.95 180.14 118.15 C 170.38 122.79 162.12 129.94 154.33 137.31 C 148.08 142.14 143.09 148.29 138.91 154.95 C 130.39 165.95 125.08 179.26 122.76 192.92 C 121.91 203.56 119.79 214.10 120.24 224.81 C 115.92 228.65 114.19 234.28 112.05 239.44 C 107.84 235.82 105.75 229.86 100.33 227.72 C 95.68 225.85 90.55 226.67 85.68 226.74 C 82.97 211.25 85.13 195.57 86.74 180.10 C 90.71 158.07 96.10 135.88 107.21 116.25 C 111.79 108.69 116.28 100.85 122.84 94.81 C 129.76 88.39 136.02 81.32 142.20 74.20 C 148.39 66.66 156.30 60.70 164.60 55.67 C 175.05 50.06 185.32 43.79 196.80 40.49 C 204.21 38.13 211.97 37.26 219.59 35.85 C 225.13 35.13 230.96 34.52 236.34 36.39 C 240.94 37.95 245.70 38.94 250.46 39.91 C 251.80 46.58 251.56 54.57 256.75 59.63 C 256.91 53.73 254.62 47.86 255.98 41.99 C 257.01 37.77 261.54 36.13 264.65 33.70 C 271.33 28.76 278.88 25.12 286.79 22.63 C 297.93 19.00 309.36 16.31 320.84 13.98 Z" />
<path fill="#f6c4a0" opacity="1.00" d=" M 185.87 122.08 C 207.07 112.05 229.21 103.08 252.73 100.56 C 252.82 111.42 253.47 122.47 257.22 132.76 C 262.21 146.85 270.38 159.75 280.40 170.79 C 290.28 181.73 303.67 188.33 315.82 196.31 C 319.92 198.73 323.99 202.08 329.04 201.83 C 340.23 201.60 351.61 200.51 362.20 196.71 C 366.84 196.58 371.33 195.03 375.99 195.19 C 382.43 194.95 388.58 197.11 394.84 198.27 C 402.62 199.76 410.31 201.76 417.74 204.50 C 422.21 206.21 427.01 206.82 431.48 208.55 C 434.33 209.67 437.54 209.99 440.53 209.26 C 444.20 206.97 442.41 201.87 442.75 198.29 C 444.01 198.30 445.28 198.31 446.55 198.33 C 449.19 207.94 450.36 217.88 451.86 227.72 C 449.03 226.53 446.19 225.36 443.22 224.57 C 431.02 221.19 418.67 217.65 405.92 217.38 C 385.19 217.15 364.22 216.77 343.87 221.37 C 338.20 222.30 332.29 223.91 328.23 228.25 C 325.57 231.21 322.47 234.05 320.86 237.74 C 318.77 246.20 319.16 255.06 319.68 263.70 C 311.94 260.01 303.35 259.16 295.01 257.73 C 281.99 256.50 268.90 257.99 256.03 259.96 C 251.14 260.71 246.45 262.35 241.71 263.67 C 241.96 254.68 239.58 245.44 233.43 238.65 C 229.97 233.80 223.77 232.94 218.52 231.20 C 188.81 222.02 157.05 219.23 126.29 224.10 C 125.60 214.03 128.10 204.15 128.59 194.13 C 130.80 181.67 135.41 169.35 143.23 159.29 C 146.40 154.81 149.22 150.02 153.32 146.30 C 163.26 137.14 173.20 127.38 185.87 122.08 M 145.72 175.71 C 139.13 182.28 133.75 190.68 132.23 199.98 C 131.50 202.69 133.68 204.66 135.02 206.70 C 139.37 207.45 142.87 204.48 146.19 202.20 C 150.36 199.13 155.11 197.02 159.82 194.94 C 171.90 189.14 185.64 187.80 198.87 188.75 C 202.61 189.32 206.24 190.47 209.85 191.62 C 214.94 193.28 219.08 196.86 223.89 199.11 C 225.49 199.94 227.35 199.54 229.07 199.54 C 229.45 198.64 229.84 197.75 230.23 196.85 C 227.28 190.75 225.13 184.26 221.57 178.46 C 219.12 174.92 215.43 172.54 212.47 169.48 C 207.86 164.93 201.23 163.84 195.16 162.57 C 189.86 161.33 184.39 161.74 179.01 161.75 C 166.64 162.12 155.21 168.15 145.72 175.71 Z" />
<path fill="#f6c4a0" opacity="1.00" d=" M 322.36 138.44 C 331.39 148.11 341.56 156.71 352.48 164.16 C 349.19 165.26 346.00 166.62 342.99 168.34 C 335.08 159.12 328.71 148.76 322.36 138.44 Z" />
<path fill="#010000" opacity="1.00" d=" M 145.72 175.71 C 155.21 168.15 166.64 162.12 179.01 161.75 C 184.39 161.74 189.86 161.33 195.16 162.57 C 201.23 163.84 207.86 164.93 212.47 169.48 C 215.43 172.54 219.12 174.92 221.57 178.46 C 225.13 184.26 227.28 190.75 230.23 196.85 C 229.84 197.75 229.45 198.64 229.07 199.54 C 227.35 199.54 225.49 199.94 223.89 199.11 C 219.08 196.86 214.94 193.28 209.85 191.62 C 206.24 190.47 202.61 189.32 198.87 188.75 C 185.64 187.80 171.90 189.14 159.82 194.94 C 155.11 197.02 150.36 199.13 146.19 202.20 C 142.87 204.48 139.37 207.45 135.02 206.70 C 133.68 204.66 131.50 202.69 132.23 199.98 C 133.75 190.68 139.13 182.28 145.72 175.71 M 162.18 172.32 C 157.52 174.77 152.75 177.27 148.95 180.97 C 143.88 186.39 139.99 192.97 138.15 200.18 C 149.23 192.61 161.50 186.21 174.85 183.94 C 183.10 182.15 191.62 182.38 200.00 182.82 C 207.43 184.32 215.12 186.16 221.28 190.84 C 219.93 188.41 218.74 185.90 217.42 183.45 C 215.47 179.57 211.73 177.15 208.66 174.25 C 203.86 169.58 196.79 169.15 190.57 167.92 C 180.98 167.09 170.82 167.69 162.18 172.32 Z" />
<path fill="#b98b54" opacity="1.00" d=" M 162.18 172.32 C 170.82 167.69 180.98 167.09 190.57 167.92 C 196.79 169.15 203.86 169.58 208.66 174.25 C 211.73 177.15 215.47 179.57 217.42 183.45 C 218.74 185.90 219.93 188.41 221.28 190.84 C 215.12 186.16 207.43 184.32 200.00 182.82 C 191.62 182.38 183.10 182.15 174.85 183.94 C 161.50 186.21 149.23 192.61 138.15 200.18 C 139.99 192.97 143.88 186.39 148.95 180.97 C 152.75 177.27 157.52 174.77 162.18 172.32 Z" />
<path fill="#b98b54" opacity="1.00" d=" M 347.21 172.87 C 350.42 171.53 353.58 169.80 357.07 169.35 C 359.63 169.07 361.52 171.17 363.56 172.37 C 384.98 187.35 410.25 197.32 436.50 198.64 C 436.58 200.41 436.65 202.18 436.72 203.95 C 430.32 201.34 423.43 200.35 417.00 197.87 C 406.97 194.21 396.38 192.63 386.03 190.16 C 380.12 188.83 374.01 189.20 368.02 189.62 C 361.06 184.07 353.48 179.27 347.21 172.87 Z" />
<path fill="#e0cabc" opacity="1.00" d=" M 348.95 226.30 C 360.18 224.30 371.57 222.99 382.99 223.25 C 395.98 223.51 409.19 222.17 421.96 225.24 C 431.10 227.31 440.33 229.37 449.04 232.91 C 449.88 237.93 451.78 242.83 451.23 248.00 C 450.06 265.34 444.78 282.26 436.73 297.61 C 433.87 302.57 429.79 306.73 425.50 310.48 C 422.26 313.44 417.92 314.53 413.85 315.86 C 402.07 320.46 389.81 324.88 376.97 324.68 C 371.42 324.43 365.62 325.46 360.32 323.39 C 354.15 321.26 348.28 317.92 343.91 313.00 C 339.01 307.91 335.84 301.54 332.60 295.35 C 325.47 279.62 324.50 261.97 325.48 244.96 C 326.09 239.30 329.78 234.49 334.06 230.97 C 338.36 227.77 343.92 227.56 348.95 226.30 M 355.58 256.61 C 353.95 258.75 352.51 261.25 352.60 264.04 C 352.51 269.20 352.97 274.50 354.81 279.35 C 357.31 284.03 360.43 288.70 365.00 291.57 C 366.64 292.89 368.55 291.71 370.27 291.28 C 361.99 284.53 357.10 273.65 358.55 262.95 C 363.37 253.72 373.54 249.08 383.15 246.46 C 384.20 246.43 385.96 245.74 386.70 246.64 C 385.76 247.05 384.80 247.43 383.83 247.78 C 375.62 253.42 371.05 265.17 375.72 274.47 C 378.66 282.54 384.88 290.51 393.93 291.63 C 400.22 293.88 406.46 290.00 411.28 286.28 C 417.58 278.94 418.89 268.37 417.15 259.11 C 416.30 254.15 413.02 249.64 408.43 247.52 C 403.64 245.26 398.95 242.66 393.87 241.13 C 379.60 238.96 364.37 245.16 355.58 256.61 Z" />
<path fill="#e0cabc" opacity="1.00" d=" M 123.84 230.74 C 138.34 227.65 153.31 227.30 168.08 227.99 C 187.65 228.92 206.95 233.30 225.47 239.59 C 231.39 243.64 234.90 250.84 235.56 257.91 C 236.14 269.10 235.92 280.46 233.04 291.35 C 230.79 300.76 225.27 309.89 216.70 314.76 C 207.51 320.54 196.74 323.37 186.02 324.48 C 178.98 324.63 172.01 325.88 164.95 325.68 C 156.28 325.54 146.87 326.56 139.10 321.90 C 129.64 312.75 119.26 303.56 114.50 290.92 C 112.24 276.96 114.33 262.69 117.08 248.95 C 118.21 242.49 121.57 236.81 123.84 230.74 M 165.12 240.28 C 158.43 242.97 152.73 247.67 147.94 252.99 C 144.12 257.36 143.84 263.87 145.76 269.14 C 148.09 274.74 152.38 279.23 156.50 283.57 C 158.29 285.46 159.57 287.89 161.80 289.33 C 163.21 289.61 164.66 289.56 166.09 289.63 C 161.90 283.77 158.53 277.36 153.98 271.75 C 150.57 267.64 148.71 261.02 152.58 256.60 C 158.33 250.06 166.12 244.65 175.05 244.00 C 169.89 247.18 165.56 252.01 164.55 258.16 C 163.81 265.65 165.51 274.33 172.05 278.90 C 177.44 282.12 183.62 286.04 190.17 284.12 C 196.09 282.91 200.25 277.78 202.24 272.35 C 204.48 267.57 203.90 262.17 203.53 257.08 C 202.98 250.72 199.84 244.09 193.94 241.08 C 185.10 236.27 174.36 237.11 165.12 240.28 Z" />
<path fill="#f6c4a0" opacity="1.00" d=" M 86.39 233.48 C 91.40 231.36 98.03 231.87 101.86 236.07 C 105.15 239.14 106.87 243.57 110.64 246.18 C 110.19 249.11 109.64 252.03 109.18 254.96 L 108.84 255.75 C 108.10 257.47 107.37 259.20 106.65 260.93 C 101.52 260.34 96.66 258.52 92.15 256.08 C 92.21 251.76 92.55 247.46 93.63 243.27 C 92.61 243.33 91.58 243.39 90.55 243.45 C 87.20 252.88 87.96 263.22 89.60 272.93 C 90.43 278.52 91.28 284.57 95.15 288.98 C 99.50 294.15 105.59 297.50 109.62 302.99 C 110.84 308.14 111.40 313.42 112.51 318.59 C 107.01 320.12 100.72 320.17 95.65 317.28 C 90.55 314.09 88.62 308.05 86.97 302.61 C 84.28 293.42 80.58 284.57 77.83 275.40 C 75.83 266.72 72.35 257.95 73.79 248.90 C 75.58 242.30 80.36 236.64 86.39 233.48 Z" />
<path fill="#010000" opacity="1.00" d=" M 165.12 240.28 C 174.36 237.11 185.10 236.27 193.94 241.08 C 199.84 244.09 202.98 250.72 203.53 257.08 C 203.90 262.17 204.48 267.57 202.24 272.35 C 200.25 277.78 196.09 282.91 190.17 284.12 C 183.62 286.04 177.44 282.12 172.05 278.90 C 165.51 274.33 163.81 265.65 164.55 258.16 C 165.56 252.01 169.89 247.18 175.05 244.00 C 166.12 244.65 158.33 250.06 152.58 256.60 C 148.71 261.02 150.57 267.64 153.98 271.75 C 158.53 277.36 161.90 283.77 166.09 289.63 C 164.66 289.56 163.21 289.61 161.80 289.33 C 159.57 287.89 158.29 285.46 156.50 283.57 C 152.38 279.23 148.09 274.74 145.76 269.14 C 143.84 263.87 144.12 257.36 147.94 252.99 C 152.73 247.67 158.43 242.97 165.12 240.28 M 179.48 249.58 C 176.26 250.57 174.27 253.79 173.62 256.95 C 172.79 261.06 171.54 265.65 173.70 269.58 C 176.07 274.77 181.74 277.37 187.10 278.23 C 190.10 279.21 192.66 276.63 194.28 274.43 C 198.96 268.23 198.21 259.87 196.58 252.75 C 194.18 251.47 191.94 249.50 189.11 249.36 C 185.90 249.20 182.66 249.13 179.48 249.58 Z" />
<path fill="#010000" opacity="1.00" d=" M 355.58 256.61 C 364.37 245.16 379.60 238.96 393.87 241.13 C 398.95 242.66 403.64 245.26 408.43 247.52 C 413.02 249.64 416.30 254.15 417.15 259.11 C 418.89 268.37 417.58 278.94 411.28 286.28 C 406.46 290.00 400.22 293.88 393.93 291.63 C 384.88 290.51 378.66 282.54 375.72 274.47 C 371.05 265.17 375.62 253.42 383.83 247.78 C 384.80 247.43 385.76 247.05 386.70 246.64 C 385.96 245.74 384.20 246.43 383.15 246.46 C 373.54 249.08 363.37 253.72 358.55 262.95 C 357.10 273.65 361.99 284.53 370.27 291.28 C 368.55 291.71 366.64 292.89 365.00 291.57 C 360.43 288.70 357.31 284.03 354.81 279.35 C 352.97 274.50 352.51 269.20 352.60 264.04 C 352.51 261.25 353.95 258.75 355.58 256.61 M 386.45 253.43 C 382.26 256.23 380.62 261.29 379.66 265.99 C 380.97 273.57 384.70 281.65 392.06 284.99 C 397.49 286.71 404.13 285.47 407.85 280.91 C 411.87 274.77 412.45 266.98 411.17 259.92 C 410.05 254.26 404.18 251.96 399.50 249.89 C 394.84 248.15 390.18 250.85 386.45 253.43 Z" />
<path fill="#a9b4b9" opacity="1.00" d=" M 179.48 249.58 C 182.66 249.13 185.90 249.20 189.11 249.36 C 191.94 249.50 194.18 251.47 196.58 252.75 C 198.21 259.87 198.96 268.23 194.28 274.43 C 192.66 276.63 190.10 279.21 187.10 278.23 C 181.74 277.37 176.07 274.77 173.70 269.58 C 171.54 265.65 172.79 261.06 173.62 256.95 C 174.27 253.79 176.26 250.57 179.48 249.58 Z" />
<path fill="#a9b4b9" opacity="1.00" d=" M 386.45 253.43 C 390.18 250.85 394.84 248.15 399.50 249.89 C 404.18 251.96 410.05 254.26 411.17 259.92 C 412.45 266.98 411.87 274.77 407.85 280.91 C 404.13 285.47 397.49 286.71 392.06 284.99 C 384.70 281.65 380.97 273.57 379.66 265.99 C 380.62 261.29 382.26 256.23 386.45 253.43 Z" />
<path fill="#f6c4a0" opacity="1.00" d=" M 459.92 258.95 C 463.82 255.26 467.70 250.89 473.08 249.48 C 477.57 249.19 482.86 248.31 486.65 251.34 C 489.64 255.16 491.19 260.12 490.81 264.99 C 491.37 276.42 489.50 288.11 484.66 298.52 C 479.36 307.25 473.16 315.70 465.03 322.01 C 462.07 324.39 459.21 326.87 456.21 329.20 C 453.51 331.44 449.79 331.27 446.49 331.57 C 447.62 325.27 448.93 319.00 450.38 312.77 C 454.37 309.25 458.00 304.88 463.38 303.49 C 470.76 301.48 476.65 295.13 477.89 287.55 C 478.65 282.37 479.97 277.25 480.29 272.01 C 480.34 268.56 479.92 264.24 476.73 262.21 C 470.42 258.76 461.58 263.58 460.93 270.69 C 464.11 268.99 467.41 267.50 470.93 266.64 C 471.69 266.89 473.23 267.38 473.99 267.63 C 474.82 275.17 472.47 282.61 471.09 289.97 C 469.47 292.42 467.53 294.64 465.18 296.40 C 463.47 296.96 461.77 297.55 460.07 298.13 C 456.60 299.31 453.58 301.39 450.88 303.81 C 451.22 303.27 451.90 302.18 452.24 301.63 C 452.36 299.10 452.53 296.56 452.98 294.06 C 453.40 292.05 453.73 290.01 454.20 288.01 C 454.71 281.01 453.92 273.97 454.60 266.99 C 454.73 263.51 457.72 261.27 459.92 258.95 Z" />
<path fill="#b98b54" opacity="1.00" d=" M 92.15 256.08 C 96.66 258.52 101.52 260.34 106.65 260.93 C 107.37 259.20 108.10 257.47 108.84 255.75 C 107.95 265.81 107.35 275.89 106.79 285.97 C 107.24 288.68 108.32 291.22 109.24 293.79 C 104.88 290.18 100.11 286.78 97.06 281.92 C 95.69 278.44 95.93 274.56 94.78 271.00 C 93.33 266.15 92.00 261.19 92.15 256.08 Z" />
<path fill="#b98b54" opacity="1.00" d=" M 245.90 268.78 C 260.81 264.48 276.51 262.98 291.99 263.54 C 301.37 264.99 311.22 265.69 319.58 270.63 C 320.12 273.32 320.57 276.03 320.96 278.76 C 313.69 274.07 305.29 272.01 297.05 269.78 C 286.68 267.65 276.13 269.21 265.73 270.17 C 257.27 270.87 249.36 274.12 241.52 277.16 C 241.58 275.30 241.64 273.45 241.69 271.61 C 241.98 271.11 242.55 270.12 242.84 269.62 C 243.43 269.55 244.62 269.42 245.21 269.35 L 245.90 268.78 Z" />
<path fill="#f6c4a0" opacity="1.00" d=" M 260.88 277.07 C 271.49 275.28 282.30 274.89 293.03 275.41 C 303.39 277.21 313.45 280.85 322.32 286.56 C 324.24 293.49 328.53 299.35 331.47 305.83 C 336.84 316.06 345.70 324.71 356.76 328.50 C 363.46 331.39 370.88 330.62 377.99 330.68 C 390.52 330.25 402.94 327.47 414.59 322.85 C 417.74 321.06 421.12 319.77 424.46 318.36 C 430.14 315.31 434.63 310.52 438.60 305.53 C 441.96 301.56 443.66 296.57 446.24 292.12 C 446.73 290.36 447.21 288.60 447.73 286.86 C 447.53 291.31 446.55 295.66 446.01 300.07 C 444.91 311.90 441.84 323.42 439.88 335.11 C 436.05 346.19 434.33 358.09 428.51 368.41 C 424.03 376.27 419.87 384.32 415.18 392.07 C 411.04 399.37 404.82 405.27 398.14 410.22 C 381.94 422.64 363.12 431.07 344.01 437.94 C 331.73 442.00 319.61 446.82 306.77 448.91 C 286.54 453.57 265.60 451.69 245.25 448.95 C 236.56 448.68 228.39 445.40 219.95 443.65 C 211.98 440.90 203.56 439.13 196.24 434.77 C 187.06 430.53 179.02 424.22 171.63 417.41 C 166.27 411.76 159.94 407.09 155.05 400.99 C 147.64 391.65 141.46 381.35 136.55 370.49 C 129.41 355.91 123.58 340.63 119.86 324.80 C 118.86 318.48 117.28 312.28 116.23 305.96 C 120.92 313.56 127.93 319.29 134.41 325.29 C 134.79 325.42 135.55 325.68 135.93 325.82 C 141.45 329.69 148.26 331.60 154.98 331.59 C 165.11 331.68 175.28 331.58 185.37 330.51 C 200.22 329.35 215.28 324.63 226.71 314.78 C 230.38 311.00 233.35 306.53 235.80 301.86 C 238.27 296.42 239.36 290.48 240.61 284.67 C 247.00 281.30 253.85 278.75 260.88 277.07 M 315.94 358.68 C 315.26 362.11 314.21 365.48 312.24 368.41 C 308.23 368.78 304.17 368.95 300.25 369.94 C 296.65 371.37 293.40 373.73 289.48 374.30 C 285.02 374.86 280.49 374.74 276.00 374.62 C 266.35 373.80 256.58 370.65 246.92 373.16 C 245.61 373.68 244.38 372.31 243.76 371.33 C 242.93 367.92 242.44 364.42 241.14 361.13 C 236.62 362.39 237.43 367.48 237.47 371.07 C 237.51 374.84 240.94 377.51 244.06 379.00 C 246.29 380.12 248.70 378.90 250.97 378.53 C 258.85 377.32 266.61 379.74 274.41 380.47 C 279.61 380.80 284.84 380.60 290.03 380.24 C 294.25 379.86 297.92 377.60 301.66 375.82 C 305.72 374.66 310.06 374.94 314.15 373.84 C 316.87 373.26 318.00 370.35 318.94 368.06 C 320.01 364.75 320.57 359.29 315.94 358.68 M 341.79 376.22 C 339.99 380.89 337.86 385.71 333.42 388.45 C 317.98 398.84 299.21 402.72 280.97 404.55 C 272.46 405.23 264.12 402.99 255.68 402.29 C 245.44 401.27 235.76 397.58 225.95 394.68 C 219.78 392.71 213.43 389.84 209.52 384.44 C 207.65 381.96 205.64 378.82 202.00 379.34 C 202.55 383.58 205.35 386.96 207.67 390.39 C 211.47 395.83 217.91 398.31 223.95 400.36 C 233.50 403.29 242.99 406.58 252.89 408.13 C 259.31 408.39 265.60 409.85 272.00 410.34 C 288.87 411.02 305.73 407.48 321.48 401.56 C 327.73 398.42 335.00 396.19 339.55 390.56 C 342.14 386.36 345.61 381.89 344.68 376.64 C 343.71 376.49 342.75 376.35 341.79 376.22 Z" />
<path fill="#010000" opacity="1.00" d=" M 315.94 358.68 C 320.57 359.29 320.01 364.75 318.94 368.06 C 318.00 370.35 316.87 373.26 314.15 373.84 C 310.06 374.94 305.72 374.66 301.66 375.82 C 297.92 377.60 294.25 379.86 290.03 380.24 C 284.84 380.60 279.61 380.80 274.41 380.47 C 266.61 379.74 258.85 377.32 250.97 378.53 C 248.70 378.90 246.29 380.12 244.06 379.00 C 240.94 377.51 237.51 374.84 237.47 371.07 C 237.43 367.48 236.62 362.39 241.14 361.13 C 242.44 364.42 242.93 367.92 243.76 371.33 C 244.38 372.31 245.61 373.68 246.92 373.16 C 256.58 370.65 266.35 373.80 276.00 374.62 C 280.49 374.74 285.02 374.86 289.48 374.30 C 293.40 373.73 296.65 371.37 300.25 369.94 C 304.17 368.95 308.23 368.78 312.24 368.41 C 314.21 365.48 315.26 362.11 315.94 358.68 Z" />
<path fill="#010000" opacity="1.00" d=" M 341.79 376.22 C 342.75 376.35 343.71 376.49 344.68 376.64 C 345.61 381.89 342.14 386.36 339.55 390.56 C 335.00 396.19 327.73 398.42 321.48 401.56 C 305.73 407.48 288.87 411.02 272.00 410.34 C 265.60 409.85 259.31 408.39 252.89 408.13 C 242.99 406.58 233.50 403.29 223.95 400.36 C 217.91 398.31 211.47 395.83 207.67 390.39 C 205.35 386.96 202.55 383.58 202.00 379.34 C 205.64 378.82 207.65 381.96 209.52 384.44 C 213.43 389.84 219.78 392.71 225.95 394.68 C 235.76 397.58 245.44 401.27 255.68 402.29 C 264.12 402.99 272.46 405.23 280.97 404.55 C 299.21 402.72 317.98 398.84 333.42 388.45 C 337.86 385.71 339.99 380.89 341.79 376.22 Z" />
<path fill="#f6c4a0" opacity="1.00" d=" M 327.16 450.20 C 331.41 448.83 335.59 447.27 339.77 445.73 C 339.37 461.85 338.72 477.98 339.81 494.09 C 340.47 497.07 341.19 500.21 340.61 503.26 C 338.00 509.74 331.65 513.23 326.51 517.46 C 319.63 522.70 311.32 525.39 303.22 528.09 C 301.37 528.65 299.41 528.60 297.51 528.74 C 296.35 530.45 295.35 532.27 294.66 534.23 C 292.19 541.60 288.15 548.62 287.93 556.58 C 285.88 549.07 286.61 541.24 285.34 533.64 C 279.89 528.91 272.05 528.82 266.25 524.67 C 261.47 521.22 256.50 517.94 252.35 513.72 C 246.01 507.47 240.73 500.27 235.50 493.11 C 235.73 486.06 235.49 479.00 235.16 471.96 C 234.42 468.68 234.39 465.31 234.13 461.99 C 233.43 459.06 233.27 456.06 233.10 453.08 C 233.80 453.37 235.20 453.95 235.90 454.23 C 238.60 454.44 241.32 454.59 243.99 455.09 C 250.31 455.82 256.66 456.25 262.94 457.14 C 269.96 457.64 276.95 458.93 284.01 458.13 C 290.32 457.22 296.70 456.98 303.04 456.23 C 304.40 455.78 305.76 455.34 307.12 454.89 C 309.07 454.58 311.04 454.37 313.01 454.12 C 314.35 453.69 315.73 453.38 317.12 453.08 C 319.46 452.42 321.79 451.71 324.14 451.07 C 325.14 450.77 326.15 450.47 327.16 450.20 Z" />
<path fill="#a9b4b9" opacity="1.00" d=" M 206.00 519.96 C 211.75 508.96 220.84 500.11 226.12 488.82 C 231.18 498.36 238.00 506.81 245.10 514.91 C 250.32 520.79 256.86 525.24 263.24 529.75 C 268.11 533.27 274.32 533.92 279.46 536.91 C 280.24 543.28 280.16 549.76 281.75 556.04 C 273.93 550.77 265.85 545.65 257.03 542.24 C 244.98 539.44 233.00 544.08 221.44 547.00 C 208.93 549.87 196.52 553.45 183.71 554.76 C 186.66 550.16 189.95 545.79 193.18 541.39 C 197.86 534.50 202.05 527.29 206.00 519.96 Z" />
<path fill="#a9b4b9" opacity="1.00" d=" M 345.49 488.53 C 345.76 488.99 346.29 489.92 346.55 490.38 C 350.93 493.06 355.76 494.83 360.46 496.85 C 362.66 505.59 363.37 514.71 366.77 523.14 C 370.88 533.43 372.34 544.46 374.91 555.18 C 376.11 559.81 377.69 564.34 378.97 568.96 C 374.96 568.40 370.95 567.89 366.95 567.36 C 357.65 565.27 348.96 561.24 340.19 557.62 C 331.42 554.99 322.99 551.23 314.04 549.21 C 306.80 546.92 299.62 551.21 293.94 555.33 C 294.81 548.81 297.92 542.93 300.17 536.83 C 300.79 534.66 303.37 534.45 305.13 533.69 C 315.07 530.65 325.08 526.89 333.06 520.01 C 339.08 515.62 345.17 510.27 347.15 502.78 C 348.85 497.90 344.90 493.49 345.49 488.53 Z" />
</svg>
