<?xml version="1.0" encoding="UTF-8" ?>
<!DOCTYPE svg PUBLIC "-//W3C//DTD SVG 1.1//EN" "http://www.w3.org/Graphics/SVG/1.1/DTD/svg11.dtd">
<svg width="591pt" height="591pt" viewBox="0 0 591 591" version="1.1" xmlns="http://www.w3.org/2000/svg">
<path fill="#3e3e3e" opacity="1.00" d=" M 154.45 10.91 C 161.03 8.33 167.91 6.25 174.96 5.51 C 184.94 6.15 194.05 10.68 202.73 15.28 C 198.49 14.68 195.14 11.82 191.13 10.56 C 186.07 8.19 180.60 6.75 175.06 6.11 C 168.25 6.93 161.76 9.19 155.22 11.10 L 154.45 10.91 Z" />
<path fill="#3e3e3e" opacity="1.00" d=" M 132.30 8.68 C 136.88 7.22 141.98 5.61 146.72 7.24 C 149.81 8.16 151.19 12.58 154.87 11.25 C 151.63 13.85 149.45 9.53 146.94 8.14 C 142.52 5.61 137.63 8.31 133.08 8.91 L 132.30 8.68 Z" />
<path fill="#000000" opacity="1.00" d=" M 155.22 11.10 C 161.76 9.19 168.25 6.93 175.06 6.11 C 180.60 6.75 186.07 8.19 191.13 10.56 C 195.14 11.82 198.49 14.68 202.73 15.28 L 203.24 15.44 C 203.38 15.50 203.65 15.62 203.78 15.69 L 204.40 16.35 C 205.19 18.05 206.91 19.13 208.79 19.02 L 209.07 19.04 C 211.27 21.15 213.88 22.79 216.06 24.93 C 219.78 28.88 222.97 33.29 226.12 37.70 L 226.01 38.16 C 226.19 38.64 226.56 39.62 226.74 40.10 L 226.85 40.42 C 227.42 43.09 228.33 45.71 230.02 47.90 L 229.97 48.18 C 230.20 48.65 230.65 49.59 230.88 50.06 L 230.91 51.14 C 231.13 51.62 231.59 52.59 231.81 53.07 L 231.91 53.51 C 233.21 60.62 235.22 67.72 234.98 75.02 C 235.22 84.03 237.84 93.45 234.42 102.18 C 232.95 110.57 232.44 119.25 229.24 127.24 C 228.27 129.50 227.70 131.91 227.85 134.38 L 227.84 134.86 C 226.94 135.59 226.62 136.57 226.89 137.81 L 226.88 138.93 C 226.64 139.40 226.15 140.34 225.90 140.81 L 225.86 141.10 C 224.27 145.17 222.89 149.33 221.83 153.56 L 221.78 153.79 C 220.21 154.49 219.97 156.36 219.84 157.86 L 219.57 158.61 C 218.38 159.35 217.75 160.66 217.98 162.04 L 217.80 162.81 C 215.28 164.90 214.13 168.18 213.02 171.17 L 212.81 171.80 C 211.18 173.11 210.46 175.20 209.99 177.18 L 209.68 178.17 C 209.59 178.30 209.39 178.57 209.30 178.71 L 209.00 179.10 C 206.29 182.13 204.53 185.81 202.28 189.16 C 200.95 191.14 199.52 193.11 198.88 195.45 L 198.60 195.49 C 197.38 195.70 196.83 196.45 196.95 197.74 L 196.95 198.10 C 190.68 206.46 184.69 215.09 179.04 223.88 L 178.77 224.24 C 171.46 233.73 164.66 243.71 158.97 254.26 L 158.84 254.41 C 157.00 255.85 155.70 257.80 154.87 259.97 L 154.79 260.11 C 151.89 264.06 149.00 268.09 146.92 272.55 L 146.60 273.23 C 146.52 273.37 146.37 273.66 146.29 273.81 L 145.71 274.54 C 144.57 275.05 143.98 275.90 143.95 277.10 L 143.85 278.12 C 143.72 278.27 143.45 278.57 143.31 278.73 C 142.92 279.36 142.12 280.64 141.72 281.28 C 141.62 281.41 141.41 281.68 141.30 281.81 L 140.63 282.51 C 139.05 282.75 137.64 284.12 137.94 285.81 L 137.98 286.94 C 137.62 287.15 136.91 287.56 136.55 287.76 C 134.48 288.13 132.67 289.67 132.91 291.95 L 132.84 292.70 C 131.61 292.96 130.96 293.74 130.88 295.03 L 130.80 295.50 C 128.74 295.76 127.91 297.91 127.84 299.74 L 127.76 300.36 C 126.50 300.62 125.89 301.43 125.91 302.78 L 125.82 303.69 C 123.86 304.19 123.00 306.24 122.97 308.10 L 122.83 309.19 C 122.68 309.33 122.39 309.60 122.25 309.74 L 121.65 310.48 C 120.57 311.04 119.99 311.90 119.93 313.07 L 119.85 313.74 C 117.85 314.10 117.00 316.18 116.97 318.02 L 116.88 318.67 C 114.84 319.09 114.04 321.18 113.96 323.05 L 113.86 323.67 C 111.87 324.11 111.02 326.19 110.95 328.03 L 110.86 328.65 C 108.80 329.09 108.04 331.24 107.98 333.12 L 107.69 334.18 C 107.61 334.34 107.45 334.67 107.37 334.83 L 106.69 336.13 C 106.60 336.29 106.44 336.62 106.35 336.79 L 105.66 338.21 C 105.57 338.38 105.41 338.72 105.33 338.89 L 104.70 340.22 C 104.62 340.37 104.46 340.69 104.38 340.85 L 103.68 342.19 C 103.59 342.35 103.42 342.68 103.33 342.84 L 102.65 344.18 C 102.57 344.35 102.40 344.69 102.32 344.86 L 101.69 346.19 C 101.61 346.34 101.45 346.64 101.37 346.79 L 100.72 347.60 C 99.55 348.08 98.96 348.92 98.93 350.12 L 98.86 351.15 C 98.73 351.28 98.47 351.55 98.33 351.69 L 97.99 352.16 C 96.40 354.11 95.66 356.54 94.97 358.92 C 92.50 367.80 90.50 376.81 89.09 385.93 C 88.87 387.62 89.06 389.33 89.08 391.03 L 88.74 391.83 C 87.14 397.23 88.29 403.32 87.89 409.00 C 87.33 417.57 89.12 426.73 94.73 433.46 L 94.97 434.07 C 96.35 437.80 99.58 442.05 104.04 441.44 C 111.21 441.38 118.65 439.76 124.80 436.02 L 125.28 435.70 C 125.40 435.64 125.63 435.50 125.75 435.43 L 126.55 435.11 C 133.86 432.18 139.41 426.15 144.97 420.76 C 148.80 417.30 151.77 413.04 155.47 409.45 C 162.24 403.22 169.39 397.26 175.33 390.21 C 176.50 388.67 177.95 387.37 179.36 386.05 L 180.09 386.03 C 181.78 386.27 183.13 384.91 183.35 383.30 C 183.62 383.01 184.16 382.41 184.43 382.11 C 185.63 381.47 186.91 380.92 187.89 379.95 C 196.03 372.40 204.10 364.77 212.07 357.02 C 222.00 348.30 230.86 338.46 240.52 329.45 C 246.07 324.81 251.55 320.08 256.94 315.26 C 260.40 312.13 264.41 309.63 267.56 306.15 L 267.56 306.15 C 271.80 304.59 275.36 301.73 278.98 299.11 L 279.28 298.95 C 281.59 298.15 283.71 296.90 285.52 295.26 L 285.87 295.07 C 290.07 293.62 293.98 291.43 297.81 289.19 L 297.99 289.11 C 302.44 287.60 306.67 285.47 310.77 283.17 L 310.86 283.13 C 313.32 282.42 315.75 281.54 317.87 280.05 L 318.19 280.05 C 319.80 280.19 321.47 279.56 322.41 278.20 L 323.16 278.11 C 323.64 277.87 324.60 277.38 325.08 277.13 L 326.11 277.09 C 326.60 276.87 327.57 276.44 328.05 276.22 L 328.34 276.14 C 331.85 275.46 335.25 274.37 338.61 273.16 L 338.97 273.08 C 344.15 272.46 349.03 270.43 354.16 269.46 C 358.20 268.35 362.46 268.39 366.47 267.11 L 366.58 267.09 C 374.73 266.66 382.86 265.89 391.00 265.39 C 398.34 265.58 405.66 264.78 412.99 265.04 C 424.55 264.70 436.09 263.57 447.66 264.22 C 452.53 264.82 457.44 265.21 462.35 264.98 L 462.92 265.21 C 464.14 265.98 465.59 266.48 467.07 266.16 L 468.02 266.08 C 468.79 267.02 469.81 267.38 471.10 267.13 L 471.96 267.13 C 472.44 267.35 473.38 267.81 473.86 268.04 L 474.13 268.00 C 477.00 270.20 480.58 271.22 484.07 271.99 L 484.84 272.35 C 489.08 275.64 494.82 275.79 499.40 278.47 C 504.80 281.65 510.37 284.92 514.35 289.88 C 516.51 292.33 518.07 295.22 520.10 297.78 L 520.08 298.12 C 520.92 305.19 513.73 308.36 509.74 312.76 L 508.94 313.11 C 508.70 313.15 508.21 313.25 507.96 313.30 C 504.99 315.73 501.46 317.27 498.18 319.21 C 490.04 323.78 482.19 328.92 475.05 334.95 C 488.42 328.05 501.12 319.89 514.79 313.58 C 516.05 312.85 517.86 312.76 518.67 311.41 L 518.84 311.15 C 521.75 311.07 524.30 309.62 526.69 308.10 L 527.26 307.94 C 529.93 307.58 532.37 306.39 534.75 305.17 L 534.78 305.15 C 539.82 303.13 545.10 303.56 550.37 304.10 L 551.16 304.40 C 551.32 304.47 551.63 304.60 551.79 304.67 L 553.12 305.29 C 553.27 305.38 553.56 305.56 553.71 305.65 L 554.10 305.95 C 557.17 308.60 561.04 310.12 564.05 312.87 C 571.64 319.24 580.61 324.95 584.90 334.25 C 585.27 338.60 580.69 341.00 578.34 344.05 L 578.07 344.06 C 576.10 344.20 573.82 345.03 572.77 346.80 L 572.43 346.84 C 568.01 347.34 563.86 349.43 560.26 351.96 L 559.71 352.32 C 559.59 352.39 559.34 352.53 559.22 352.60 L 558.64 352.78 C 555.85 353.32 553.15 354.25 550.67 355.64 L 550.05 355.88 C 547.31 356.51 544.68 357.50 542.24 358.89 L 542.19 358.91 C 538.57 359.42 535.13 360.88 532.11 362.93 L 531.86 362.93 C 530.33 362.78 528.47 363.27 527.82 364.81 L 527.62 364.85 C 521.08 366.44 515.10 370.12 509.64 373.98 C 518.38 374.51 527.22 373.28 535.89 374.93 C 541.78 375.07 547.35 377.10 552.68 379.45 C 552.80 380.61 552.93 381.77 553.06 382.94 C 550.66 384.54 548.26 386.14 546.02 387.96 L 545.64 388.27 C 545.51 388.41 545.25 388.71 545.12 388.85 L 543.85 388.94 C 542.02 388.86 540.10 389.70 539.54 391.55 L 539.35 391.89 C 536.20 392.86 533.58 394.89 530.97 396.82 L 530.95 396.83 C 528.38 398.01 526.04 399.63 524.15 401.75 C 529.40 401.50 534.54 398.81 539.81 400.00 C 542.44 400.61 542.49 404.08 540.59 405.56 C 535.12 410.85 528.64 414.99 522.61 419.62 C 515.27 426.53 507.14 432.90 502.03 441.77 L 501.89 441.96 C 497.99 446.73 494.73 451.99 491.52 457.23 L 491.81 457.60 C 489.74 457.69 488.99 460.03 488.86 461.76 L 488.76 462.40 C 486.75 462.71 485.93 464.97 485.97 466.76 L 485.95 467.04 C 483.56 469.81 482.14 473.21 480.53 476.45 C 478.86 479.95 476.81 483.32 475.87 487.13 L 475.82 487.24 C 474.33 489.35 473.27 491.71 472.85 494.27 L 472.77 494.43 C 471.40 496.32 470.27 498.39 469.99 500.74 L 469.83 501.15 C 467.07 506.17 464.69 511.62 463.89 517.31 L 463.80 517.91 C 463.58 518.40 463.16 519.38 462.95 519.88 L 462.82 520.94 C 461.98 521.73 461.65 522.70 461.83 523.83 L 461.91 525.16 C 461.76 525.30 461.45 525.57 461.30 525.71 L 460.95 526.16 C 457.11 530.25 453.08 534.15 449.07 538.07 C 444.20 543.07 437.23 545.18 432.17 549.96 L 432.06 549.99 C 430.70 550.05 429.39 550.58 428.69 551.81 L 427.78 552.35 C 427.62 552.44 427.30 552.61 427.14 552.70 L 425.83 553.34 C 425.68 553.41 425.38 553.55 425.23 553.62 L 424.56 553.91 C 421.21 555.13 418.00 556.77 415.17 558.96 L 414.55 559.36 C 414.43 559.43 414.20 559.56 414.08 559.62 C 413.52 559.81 412.39 560.18 411.83 560.37 C 411.65 560.48 411.30 560.72 411.13 560.83 L 409.79 560.89 C 408.28 560.89 406.30 561.21 405.75 562.85 L 405.37 562.94 C 402.21 563.55 399.21 564.71 396.26 565.95 L 395.86 565.96 C 395.37 566.17 394.41 566.60 393.93 566.82 L 393.28 566.94 C 389.54 567.51 385.79 568.25 382.31 569.77 L 382.21 569.80 C 361.62 573.72 340.98 578.55 319.93 579.04 C 311.30 580.15 302.61 580.64 293.92 581.12 C 289.96 581.77 285.95 582.15 281.93 581.97 C 274.88 581.61 268.00 583.57 261.00 583.97 C 253.28 583.86 245.59 583.07 237.88 582.83 C 228.35 581.26 218.64 581.33 209.11 579.72 C 199.18 578.86 189.29 577.63 179.40 576.43 C 172.95 575.13 166.38 574.62 159.81 574.94 L 159.12 574.74 C 157.98 573.89 156.57 573.64 155.21 573.93 L 154.51 573.97 C 150.65 572.98 146.74 572.16 142.75 571.86 L 142.69 571.85 C 140.07 570.70 137.28 570.02 134.42 569.97 C 134.06 569.92 133.35 569.83 133.00 569.78 C 132.47 569.59 131.43 569.20 130.90 569.01 C 130.48 568.98 129.62 568.90 129.19 568.86 C 128.70 568.62 127.72 568.15 127.23 567.91 L 125.86 567.89 C 125.71 567.75 125.40 567.47 125.25 567.32 L 124.62 567.02 C 120.42 565.16 115.89 564.07 111.46 562.91 L 111.01 562.83 C 110.32 561.91 109.37 561.57 108.16 561.84 L 107.15 561.84 C 106.66 561.62 105.67 561.17 105.18 560.95 L 104.86 560.88 C 101.05 559.14 96.92 558.39 92.95 557.15 C 88.88 556.04 84.92 554.48 80.72 553.89 L 80.70 553.88 C 77.65 552.67 74.56 551.52 71.33 550.87 L 71.04 550.77 C 70.56 550.59 69.61 550.21 69.13 550.02 L 68.83 550.10 C 65.71 547.92 61.98 546.87 58.37 545.85 L 57.75 545.64 L 57.41 545.37 L 56.97 545.33 L 55.79 544.71 C 55.62 544.62 55.29 544.45 55.13 544.36 L 53.83 543.70 C 53.67 543.61 53.33 543.45 53.17 543.36 L 51.83 542.71 C 51.68 542.63 51.39 542.47 51.25 542.39 L 50.73 542.03 C 48.70 540.03 46.87 537.85 44.71 535.99 C 44.85 535.18 45.14 533.57 45.28 532.77 C 48.66 533.66 51.10 536.33 54.26 537.69 C 72.95 546.49 93.08 551.51 112.83 557.29 C 117.59 558.82 122.51 559.91 127.08 561.97 C 132.68 564.51 138.72 565.83 144.65 567.36 C 155.26 568.84 165.96 569.50 176.62 570.58 C 184.15 571.89 191.80 572.30 199.35 573.51 C 209.90 574.00 220.32 575.84 230.87 576.40 C 240.24 578.31 249.83 577.79 259.31 578.54 C 263.25 578.93 267.06 577.69 270.94 577.22 C 276.92 576.34 282.99 577.06 288.98 576.33 C 298.94 575.06 309.02 575.19 318.97 573.85 C 328.22 573.32 337.45 572.52 346.65 571.44 C 373.02 566.03 400.41 561.79 424.08 548.19 C 430.76 544.69 437.11 540.61 443.19 536.16 C 447.08 532.72 450.82 529.10 454.47 525.41 C 457.71 522.48 457.41 517.73 458.88 513.91 C 463.84 498.91 470.63 484.59 477.52 470.39 C 484.90 457.16 492.84 444.16 502.20 432.22 C 506.57 426.25 512.49 421.76 517.79 416.69 C 521.62 413.11 526.43 410.77 530.12 407.02 C 524.75 406.74 519.58 410.88 514.30 408.66 C 511.89 406.83 513.35 402.94 515.33 401.28 C 523.92 393.58 534.38 388.44 543.95 382.14 C 538.54 380.04 532.67 379.97 526.96 379.63 C 518.62 379.38 510.28 379.80 501.95 380.08 C 498.00 380.00 495.17 383.11 491.96 384.91 C 483.45 389.93 475.67 396.04 467.42 401.46 C 461.44 406.28 454.34 409.48 448.48 414.46 C 442.75 419.06 436.69 423.27 431.35 428.34 C 424.59 435.17 416.01 439.70 408.14 445.08 C 402.80 448.87 396.56 451.26 391.67 455.70 C 386.36 459.43 381.34 463.75 375.27 466.22 C 366.73 469.94 358.30 474.28 349.07 475.98 C 344.00 476.42 339.05 477.81 333.96 477.92 C 324.64 478.01 315.25 477.79 306.11 475.78 C 292.57 472.36 278.38 475.69 265.61 480.54 C 247.11 487.25 228.02 492.13 209.36 498.34 C 200.05 501.11 190.72 504.24 181.00 505.14 C 173.87 504.62 166.47 504.79 159.66 502.32 C 155.72 500.85 151.73 497.67 151.71 493.08 C 151.27 482.35 154.68 471.99 157.90 461.90 C 160.41 454.62 163.64 447.45 168.27 441.27 C 169.31 439.62 171.34 439.74 173.02 439.94 C 172.41 441.92 171.59 443.83 170.53 445.62 C 165.23 454.70 162.91 465.08 160.17 475.13 C 158.82 480.97 157.15 486.96 157.77 493.00 C 157.96 495.24 160.23 496.24 162.06 496.93 C 167.51 498.65 173.30 498.74 178.96 498.83 C 187.83 499.18 196.20 495.74 204.63 493.52 C 225.74 486.56 247.28 480.97 268.12 473.23 C 279.02 469.95 290.60 466.02 302.04 468.93 C 323.54 473.61 347.15 473.56 367.06 463.17 C 375.15 460.18 382.29 455.32 389.03 450.02 C 393.35 446.47 398.56 444.28 403.14 441.11 C 409.17 436.75 415.79 433.26 421.74 428.76 C 426.25 425.69 429.62 421.29 434.00 418.05 C 441.20 412.52 448.06 406.48 455.97 401.96 C 464.22 396.63 472.12 390.76 480.19 385.16 C 492.68 377.23 505.27 369.40 518.32 362.41 C 530.47 356.76 543.23 352.59 555.62 347.53 C 559.55 345.86 563.32 343.81 567.36 342.40 C 571.22 340.86 575.49 339.51 578.31 336.28 C 579.38 334.73 578.10 333.07 577.15 331.86 C 572.48 326.17 566.45 321.87 560.78 317.27 C 556.22 313.54 551.07 310.59 545.64 308.35 C 544.38 307.83 543.05 308.55 541.83 308.82 C 523.41 314.65 506.17 323.63 489.67 333.56 C 480.94 338.15 472.55 343.37 463.68 347.70 C 459.72 349.57 455.49 352.44 450.93 350.94 C 451.60 347.47 455.01 345.64 457.21 343.18 C 465.59 334.42 475.36 327.13 485.38 320.36 C 494.08 314.26 504.34 310.51 512.29 303.32 C 513.39 302.19 514.94 300.73 514.32 298.98 C 510.45 291.58 503.33 286.61 496.12 282.79 C 494.22 281.75 492.10 281.27 490.03 280.73 C 478.67 276.37 467.54 270.13 455.05 270.07 C 444.40 269.02 433.70 269.48 423.03 269.47 C 412.71 269.02 402.36 269.58 392.05 268.90 C 387.01 268.92 381.95 269.16 376.97 269.90 C 354.58 274.56 331.99 279.52 311.13 289.16 C 303.75 292.40 296.66 296.23 289.40 299.71 C 282.95 302.83 276.84 306.73 271.33 311.32 C 268.35 313.74 264.71 315.21 261.91 317.88 C 253.31 326.00 243.79 333.10 235.59 341.65 C 231.16 346.44 226.21 350.71 221.90 355.62 C 213.83 361.50 207.59 369.48 199.91 375.84 C 194.32 381.67 187.82 386.48 182.05 392.12 C 174.58 398.30 168.21 405.69 160.65 411.76 C 153.59 420.29 145.48 427.84 137.44 435.43 C 132.20 440.26 125.20 442.13 118.65 444.48 C 112.97 446.39 106.94 447.11 100.96 447.06 C 97.22 447.19 95.16 443.50 92.87 441.15 C 88.22 434.51 84.21 427.12 82.93 419.02 C 81.44 398.64 83.79 378.02 89.62 358.44 C 94.51 344.03 105.11 332.51 110.45 318.33 C 114.16 311.60 118.63 305.32 123.08 299.07 C 125.63 293.92 128.86 289.20 132.21 284.55 C 134.96 280.56 138.04 276.81 140.78 272.81 C 145.58 265.51 149.38 257.58 154.62 250.57 C 158.93 244.07 162.69 237.23 167.16 230.83 C 174.33 220.81 181.62 210.87 188.38 200.57 C 193.94 192.31 199.78 184.20 204.24 175.27 C 210.11 165.16 216.05 154.87 219.23 143.53 C 224.14 127.66 228.58 111.58 230.47 95.02 C 231.48 86.50 230.17 77.93 229.39 69.44 C 228.46 59.08 224.59 49.28 220.14 39.97 C 217.69 33.92 213.02 28.99 207.92 25.05 C 200.43 20.21 192.78 15.04 183.89 13.26 C 179.99 12.45 175.99 11.14 171.99 12.05 C 166.71 13.18 161.29 14.22 156.48 16.78 C 157.04 18.71 157.57 20.65 158.07 22.60 C 157.87 25.12 157.71 27.65 157.53 30.17 C 154.50 27.25 153.26 22.80 149.91 20.21 C 144.53 22.01 139.89 25.91 135.90 29.90 C 131.38 35.36 126.72 40.79 123.31 47.04 C 119.95 52.17 118.24 58.09 116.80 64.00 C 115.65 68.01 118.17 71.76 119.59 75.36 C 123.80 84.03 132.84 88.36 140.37 93.60 C 143.23 95.55 146.88 94.68 150.07 94.30 C 157.21 92.87 164.65 93.77 171.68 91.65 C 177.65 90.57 183.78 88.35 189.86 90.00 C 192.68 92.94 195.32 96.10 196.87 99.91 C 197.59 107.41 197.69 115.08 195.33 122.33 C 193.67 130.23 190.73 137.76 186.81 144.80 C 182.80 151.93 180.91 160.19 175.64 166.59 C 172.45 170.25 170.83 174.88 168.36 178.99 C 164.25 185.64 159.81 192.08 155.57 198.64 C 152.06 204.07 147.47 208.68 143.62 213.86 C 140.78 217.87 137.77 221.79 134.11 225.09 C 125.66 233.72 116.75 242.00 109.57 251.77 C 106.54 255.10 104.23 258.99 101.39 262.46 C 95.03 269.10 89.16 276.18 83.21 283.19 C 74.05 294.06 66.89 306.38 59.22 318.30 C 55.11 324.77 49.55 330.29 46.26 337.29 C 31.50 366.22 24.39 398.26 19.42 430.14 C 18.35 448.38 19.69 466.96 25.57 484.36 C 29.60 497.27 35.48 509.47 41.28 521.66 C 42.46 524.77 44.86 527.77 44.50 531.25 C 43.40 530.83 42.29 530.43 41.18 530.04 C 38.65 526.46 36.84 522.41 33.97 519.07 L 33.64 518.65 C 33.55 518.52 33.37 518.26 33.27 518.13 L 32.96 517.22 C 32.72 515.92 32.14 514.72 31.16 513.83 L 30.62 512.80 C 30.54 512.64 30.38 512.31 30.29 512.15 L 29.64 510.86 C 29.55 510.69 29.38 510.36 29.29 510.19 L 28.65 508.93 C 28.60 508.77 28.49 508.46 28.43 508.30 L 28.25 507.69 C 26.99 503.34 25.40 499.01 23.02 495.14 L 23.03 494.86 C 22.82 494.39 22.42 493.44 22.21 492.97 L 22.12 492.57 C 21.85 491.00 21.58 489.44 21.06 487.94 C 18.12 479.53 16.11 470.79 14.99 461.96 C 13.34 452.04 14.20 441.96 14.00 431.97 C 13.77 427.79 14.93 423.74 15.20 419.61 L 15.31 419.13 C 16.08 417.96 16.40 416.54 16.10 415.17 L 16.08 414.96 C 17.74 411.48 17.84 407.53 18.77 403.84 C 19.72 398.18 21.48 392.68 22.10 386.98 L 22.16 386.70 C 23.38 383.10 24.41 379.45 25.21 375.74 L 25.27 375.57 C 27.54 369.76 29.59 363.81 31.13 357.77 L 31.13 357.76 C 33.28 354.10 34.44 350.00 36.17 346.15 C 37.71 342.54 39.72 339.13 41.06 335.44 L 41.35 334.80 C 41.43 334.65 41.58 334.35 41.66 334.20 L 42.14 333.31 C 44.11 332.88 45.01 330.84 45.07 329.00 L 45.15 328.35 C 46.35 328.07 47.00 327.27 47.08 325.96 L 47.24 325.39 C 48.45 324.96 49.05 324.15 49.04 322.95 L 49.06 322.03 C 49.35 321.88 49.93 321.58 50.23 321.43 C 51.34 321.00 51.96 320.18 52.09 319.00 L 52.26 318.38 C 53.44 317.95 54.03 317.15 54.04 315.97 L 54.05 315.79 C 58.03 310.89 61.35 305.43 64.20 299.81 L 64.35 299.54 C 65.55 298.07 66.81 296.64 67.81 295.03 C 67.85 294.76 67.92 294.22 67.96 293.95 L 68.26 293.24 C 69.34 292.30 70.38 291.32 71.19 290.13 C 81.13 275.94 93.73 263.92 104.09 250.05 C 113.15 237.59 124.72 227.35 135.38 216.33 C 143.53 205.25 152.91 194.97 159.25 182.66 L 159.31 182.54 C 160.54 182.32 161.13 181.56 161.06 180.25 L 161.07 179.91 C 163.37 177.04 165.28 173.89 167.10 170.70 L 167.23 170.48 C 168.49 170.29 169.14 169.53 169.18 168.20 L 169.28 167.50 C 170.58 167.38 171.20 166.65 171.16 165.30 L 171.20 164.43 C 172.39 164.08 173.00 163.26 173.06 161.96 L 173.28 160.88 C 173.37 160.74 173.55 160.44 173.64 160.29 L 174.00 159.72 C 175.89 157.02 177.41 154.05 178.15 150.82 L 178.19 150.75 C 180.18 148.35 181.73 145.59 182.25 142.48 L 182.47 141.75 C 182.53 141.60 182.64 141.30 182.70 141.15 L 183.32 139.80 C 183.41 139.64 183.57 139.31 183.66 139.15 L 184.18 138.30 C 185.71 137.40 186.19 135.63 186.07 133.95 L 186.29 132.85 C 186.38 132.71 186.56 132.43 186.65 132.30 L 186.99 131.80 C 189.21 128.76 189.06 124.78 190.23 121.32 C 192.11 115.44 192.51 109.20 191.82 103.09 C 191.58 101.66 190.85 100.40 190.18 99.15 L 190.14 99.06 C 189.31 97.49 188.12 96.17 186.93 94.88 C 178.64 94.57 170.86 98.06 162.66 98.61 C 157.83 99.13 152.96 98.74 148.12 99.12 C 145.98 100.01 144.24 101.59 142.34 102.86 L 141.86 103.00 C 138.18 103.82 134.62 105.14 131.24 106.80 L 131.06 106.86 C 128.54 107.29 126.17 108.28 124.18 109.89 L 124.08 109.95 C 120.75 111.46 118.72 114.63 116.33 117.23 C 113.65 120.51 110.14 122.94 107.15 125.92 L 107.10 125.95 C 101.69 128.06 96.79 131.43 91.09 132.76 C 86.28 133.45 81.34 133.09 76.90 131.05 L 76.18 130.74 C 74.89 129.01 73.33 127.50 71.88 125.91 C 73.63 121.03 78.63 118.59 81.14 114.20 C 85.35 107.60 90.11 101.37 94.25 94.74 L 94.34 94.57 C 96.45 93.95 97.07 91.60 97.10 89.66 L 97.38 89.10 C 97.58 88.98 97.98 88.73 98.18 88.61 C 99.76 86.19 101.07 83.61 102.16 80.93 L 102.18 80.90 C 105.56 75.79 108.62 70.29 110.26 64.35 L 110.48 63.73 C 110.53 63.62 110.63 63.39 110.69 63.28 L 110.93 62.80 C 113.16 58.23 114.37 53.23 116.25 48.51 L 116.31 48.34 C 118.37 47.63 118.96 45.24 119.05 43.29 L 119.07 43.06 C 120.63 41.19 121.94 39.14 123.10 37.01 L 123.11 37.00 C 126.83 32.74 130.18 28.15 134.45 24.40 C 137.96 20.84 142.32 18.35 146.19 15.24 C 144.42 13.96 142.33 12.47 140.02 13.19 C 134.98 14.31 129.67 13.88 124.84 15.92 C 126.14 12.55 129.81 11.19 132.47 9.08 L 133.08 8.91 C 137.63 8.31 142.52 5.61 146.94 8.14 C 149.45 9.53 151.63 13.85 154.87 11.25 L 155.22 11.10 M 93.05 106.01 C 89.91 110.87 86.59 115.60 83.31 120.36 C 82.07 122.28 79.56 123.39 79.13 125.76 C 85.52 129.96 93.54 126.91 99.61 123.55 C 106.91 120.36 112.11 114.08 117.21 108.20 C 122.87 102.48 131.14 101.36 138.11 97.99 C 137.60 97.84 136.58 97.54 136.06 97.39 C 125.88 92.33 115.71 84.66 112.39 73.23 C 106.86 84.64 100.80 95.93 93.05 106.01 Z" />
<path fill="#3e3e3e" opacity="1.00" d=" M 125.37 13.41 C 127.53 11.70 129.69 9.63 132.47 9.08 C 129.81 11.19 126.14 12.55 124.84 15.92 C 129.67 13.88 134.98 14.31 140.02 13.19 C 142.33 12.47 144.42 13.96 146.19 15.24 C 142.32 18.35 137.96 20.84 134.45 24.40 C 130.18 28.15 126.83 32.74 123.11 37.00 C 123.17 35.41 124.55 34.38 125.38 33.16 C 130.76 26.50 136.99 20.45 144.24 15.86 L 144.85 14.94 C 141.06 12.93 136.91 14.84 132.96 14.92 C 129.97 14.92 127.22 16.22 124.33 16.75 C 124.26 15.51 124.09 14.12 125.37 13.41 Z" />
<path fill="#3e3e3e" opacity="1.00" d=" M 156.48 16.78 C 161.29 14.22 166.71 13.18 171.99 12.05 C 175.99 11.14 179.99 12.45 183.89 13.26 C 192.78 15.04 200.43 20.21 207.92 25.05 C 213.02 28.99 217.69 33.92 220.14 39.97 C 224.59 49.28 228.46 59.08 229.39 69.44 C 230.17 77.93 231.48 86.50 230.47 95.02 C 230.03 94.68 229.16 93.99 228.72 93.65 C 227.58 93.66 226.45 93.68 225.32 93.70 C 225.47 92.48 225.63 91.26 225.80 90.04 C 224.29 89.48 222.77 88.95 221.24 88.45 C 221.02 86.40 220.84 84.35 220.69 82.30 C 219.62 82.46 218.55 82.63 217.47 82.79 C 217.29 81.29 217.40 79.79 217.60 78.31 C 215.85 78.12 214.10 77.92 212.36 77.73 C 212.10 76.24 211.85 74.75 211.61 73.26 C 209.32 72.62 206.95 72.37 204.61 72.02 C 204.63 70.83 204.65 69.65 204.68 68.46 C 203.08 68.02 201.48 67.58 199.88 67.14 C 199.28 65.70 198.69 64.25 198.10 62.81 C 195.54 62.13 192.89 61.69 190.47 60.57 C 190.18 59.09 191.35 57.12 190.03 56.02 C 187.62 54.89 185.03 54.20 182.54 53.28 C 182.51 51.76 182.48 50.25 182.46 48.73 C 178.33 47.66 174.26 46.34 170.39 44.55 C 170.33 43.01 171.24 41.13 170.28 39.83 C 165.15 37.28 159.12 36.04 155.05 31.74 C 156.23 31.30 157.42 30.90 158.56 30.37 C 159.83 27.94 158.81 25.05 158.07 22.60 C 157.57 20.65 157.04 18.71 156.48 16.78 Z" />
<path fill="#444444" opacity="0.49" d=" M 203.24 15.44 C 203.38 15.50 203.65 15.62 203.78 15.69 C 203.65 15.62 203.38 15.50 203.24 15.44 Z" />
<path fill="#3e3e3e" opacity="1.00" d=" M 204.40 16.35 C 205.94 16.09 208.70 17.37 208.79 19.02 C 206.91 19.13 205.19 18.05 204.40 16.35 Z" />
<path fill="#3e3e3e" opacity="1.00" d=" M 209.07 19.04 C 213.77 20.82 217.02 24.94 220.24 28.63 C 222.38 31.52 225.22 34.08 226.12 37.70 C 222.97 33.29 219.78 28.88 216.06 24.93 C 213.88 22.79 211.27 21.15 209.07 19.04 Z" />
<path fill="#383838" opacity="1.00" d=" M 135.90 29.90 C 139.89 25.91 144.53 22.01 149.91 20.21 C 153.26 22.80 154.50 27.25 157.53 30.17 C 157.71 27.65 157.87 25.12 158.07 22.60 C 158.81 25.05 159.83 27.94 158.56 30.37 C 157.42 30.90 156.23 31.30 155.05 31.74 C 159.12 36.04 165.15 37.28 170.28 39.83 C 171.24 41.13 170.33 43.01 170.39 44.55 C 174.26 46.34 178.33 47.66 182.46 48.73 C 182.48 50.25 182.51 51.76 182.54 53.28 C 185.03 54.20 187.62 54.89 190.03 56.02 C 191.35 57.12 190.18 59.09 190.47 60.57 C 192.89 61.69 195.54 62.13 198.10 62.81 C 198.69 64.25 199.28 65.70 199.88 67.14 C 201.48 67.58 203.08 68.02 204.68 68.46 C 204.65 69.65 204.63 70.83 204.61 72.02 C 206.95 72.37 209.32 72.62 211.61 73.26 C 211.85 74.75 212.10 76.24 212.36 77.73 C 214.10 77.92 215.85 78.12 217.60 78.31 C 217.40 79.79 217.29 81.29 217.47 82.79 C 218.55 82.63 219.62 82.46 220.69 82.30 C 220.84 84.35 221.02 86.40 221.24 88.45 C 222.77 88.95 224.29 89.48 225.80 90.04 C 225.63 91.26 225.47 92.48 225.32 93.70 C 226.45 93.68 227.58 93.66 228.72 93.65 C 229.16 93.99 230.03 94.68 230.47 95.02 C 228.58 111.58 224.14 127.66 219.23 143.53 C 215.70 142.25 215.75 138.59 215.68 135.44 C 214.12 134.97 212.25 135.09 210.94 134.03 C 210.27 132.26 209.97 130.37 209.56 128.53 C 207.86 127.64 205.29 127.36 204.78 125.16 C 204.50 123.67 204.50 122.14 204.24 120.64 C 202.96 119.91 201.37 120.49 199.98 120.45 C 195.43 114.52 200.58 106.21 196.87 99.91 C 195.32 96.10 192.68 92.94 189.86 90.00 C 187.53 86.35 182.82 89.59 179.83 87.23 C 178.00 86.17 175.89 85.79 173.95 85.00 C 172.78 83.55 173.19 81.39 172.26 79.80 C 168.89 78.24 165.12 77.54 162.06 75.32 C 162.67 74.49 163.28 73.66 163.89 72.83 C 162.75 68.48 157.74 67.69 153.95 67.01 C 150.89 66.00 153.29 62.65 153.93 60.73 C 159.35 54.73 164.88 48.24 165.92 39.88 C 164.29 40.44 162.53 40.91 161.28 42.18 C 157.36 46.06 153.59 50.26 148.68 52.93 C 148.19 48.01 146.53 42.43 141.68 40.16 C 140.18 38.99 138.56 40.26 139.06 42.01 C 140.23 45.85 142.51 49.34 142.85 53.44 C 140.88 53.75 138.30 53.62 137.51 55.92 C 137.76 57.22 138.07 58.52 138.46 59.79 C 138.23 60.58 137.78 62.16 137.55 62.95 C 135.32 62.80 133.07 62.05 131.63 60.26 C 130.87 58.17 132.94 55.59 131.22 53.78 C 128.81 51.28 125.68 49.60 123.31 47.04 C 126.72 40.79 131.38 35.36 135.90 29.90 Z" />
<path fill="#3e3e3e" opacity="1.00" d=" M 119.07 43.06 C 119.77 40.80 121.07 38.30 123.10 37.01 C 121.94 39.14 120.63 41.19 119.07 43.06 Z" />
<path fill="#3f3f3f" opacity="0.51" d=" M 226.01 38.16 L 226.84 38.30 C 226.81 38.75 226.77 39.65 226.74 40.10 C 226.56 39.62 226.19 38.64 226.01 38.16 Z" />
<path fill="#000000" opacity="1.00" d=" M 139.06 42.01 C 138.56 40.26 140.18 38.99 141.68 40.16 C 146.53 42.43 148.19 48.01 148.68 52.93 C 153.59 50.26 157.36 46.06 161.28 42.18 C 162.53 40.91 164.29 40.44 165.92 39.88 C 164.88 48.24 159.35 54.73 153.93 60.73 C 150.76 63.52 147.40 66.35 143.11 67.11 C 138.39 68.07 133.77 73.09 128.94 69.81 C 131.47 67.08 135.91 67.32 138.32 64.39 C 139.12 62.96 138.92 61.29 138.46 59.79 C 138.07 58.52 137.76 57.22 137.51 55.92 C 138.30 53.62 140.88 53.75 142.85 53.44 C 142.51 49.34 140.23 45.85 139.06 42.01 Z" />
<path fill="#313131" opacity="0.69" d=" M 226.85 40.42 C 228.85 42.11 229.34 45.38 230.02 47.90 C 228.33 45.71 227.42 43.09 226.85 40.42 Z" />
<path fill="#3e3e3e" opacity="1.00" d=" M 116.31 48.34 C 116.29 46.72 117.23 43.43 119.05 43.29 C 118.96 45.24 118.37 47.63 116.31 48.34 Z" />
<path fill="#323232" opacity="1.00" d=" M 116.80 64.00 C 118.24 58.09 119.95 52.17 123.31 47.04 C 125.68 49.60 128.81 51.28 131.22 53.78 C 132.94 55.59 130.87 58.17 131.63 60.26 C 133.07 62.05 135.32 62.80 137.55 62.95 C 137.78 62.16 138.23 60.58 138.46 59.79 C 138.92 61.29 139.12 62.96 138.32 64.39 C 135.91 67.32 131.47 67.08 128.94 69.81 C 133.77 73.09 138.39 68.07 143.11 67.11 C 147.40 66.35 150.76 63.52 153.93 60.73 C 153.29 62.65 150.89 66.00 153.95 67.01 C 157.74 67.69 162.75 68.48 163.89 72.83 C 163.28 73.66 162.67 74.49 162.06 75.32 C 165.12 77.54 168.89 78.24 172.26 79.80 C 173.19 81.39 172.78 83.55 173.95 85.00 C 175.89 85.79 178.00 86.17 179.83 87.23 C 182.82 89.59 187.53 86.35 189.86 90.00 C 183.78 88.35 177.65 90.57 171.68 91.65 C 164.65 93.77 157.21 92.87 150.07 94.30 C 146.88 94.68 143.23 95.55 140.37 93.60 C 132.84 88.36 123.80 84.03 119.59 75.36 C 118.17 71.76 115.65 68.01 116.80 64.00 Z" />
<path fill="#414141" opacity="0.56" d=" M 229.97 48.18 L 230.79 48.25 C 230.81 48.70 230.86 49.61 230.88 50.06 C 230.65 49.59 230.20 48.65 229.97 48.18 Z" />
<path fill="#303030" opacity="0.69" d=" M 115.41 48.85 L 116.25 48.51 C 114.37 53.23 113.16 58.23 110.93 62.80 C 111.46 57.92 113.55 53.35 115.41 48.85 Z" />
<path fill="#3d3d3d" opacity="0.49" d=" M 230.91 51.14 L 231.77 51.25 L 232.24 52.23 L 231.81 53.07 C 231.59 52.59 231.13 51.62 230.91 51.14 Z" />
<path fill="#3e3e3e" opacity="1.00" d=" M 231.91 53.51 C 236.36 64.01 235.54 75.81 236.63 86.97 C 237.28 90.27 237.42 93.68 236.60 96.97 C 233.53 106.58 233.95 116.98 230.33 126.47 C 229.23 129.01 228.57 131.71 227.85 134.38 C 227.70 131.91 228.27 129.50 229.24 127.24 C 232.44 119.25 232.95 110.57 234.42 102.18 C 237.84 93.45 235.22 84.03 234.98 75.02 C 235.22 67.72 233.21 60.62 231.91 53.51 Z" />
<path fill="#414141" opacity="0.44" d=" M 110.48 63.73 C 110.53 63.62 110.63 63.39 110.69 63.28 C 110.63 63.39 110.53 63.62 110.48 63.73 Z" />
<path fill="#3e3e3e" opacity="1.00" d=" M 102.18 80.90 C 104.36 75.21 107.52 69.81 110.26 64.35 C 108.62 70.29 105.56 75.79 102.18 80.90 Z" />
<path fill="#bb501c" opacity="1.00" d=" M 93.05 106.01 C 100.80 95.93 106.86 84.64 112.39 73.23 C 115.71 84.66 125.88 92.33 136.06 97.39 C 136.58 97.54 137.60 97.84 138.11 97.99 C 131.14 101.36 122.87 102.48 117.21 108.20 C 112.11 114.08 106.91 120.36 99.61 123.55 C 93.54 126.91 85.52 129.96 79.13 125.76 C 79.56 123.39 82.07 122.28 83.31 120.36 C 86.59 115.60 89.91 110.87 93.05 106.01 Z" />
<path fill="#3e3e3e" opacity="1.00" d=" M 97.09 89.27 C 98.74 86.51 99.72 83.11 102.16 80.93 C 101.07 83.61 99.76 86.19 98.18 88.61 C 97.98 88.73 97.58 88.98 97.38 89.10 L 97.09 89.27 Z" />
<path fill="#3e3e3e" opacity="1.00" d=" M 94.34 94.57 C 94.34 92.88 95.71 90.42 97.10 89.66 C 97.07 91.60 96.45 93.95 94.34 94.57 Z" />
<path fill="#3e3e3e" opacity="1.00" d=" M 73.30 121.92 C 82.00 114.31 86.33 102.76 94.25 94.74 C 90.11 101.37 85.35 107.60 81.14 114.20 C 78.63 118.59 73.63 121.03 71.88 125.91 C 73.33 127.50 74.89 129.01 76.18 130.74 L 76.20 130.75 C 72.59 129.49 69.88 124.92 73.30 121.92 Z" />
<path fill="#3e3e3e" opacity="1.00" d=" M 162.66 98.61 C 170.86 98.06 178.64 94.57 186.93 94.88 C 188.12 96.17 189.31 97.49 190.14 99.06 C 188.65 98.02 187.70 96.36 186.11 95.47 C 178.68 95.55 171.62 98.44 164.28 99.25 C 159.15 99.22 154.05 99.66 148.95 100.10 C 146.34 99.92 144.96 102.94 142.34 102.86 C 144.24 101.59 145.98 100.01 148.12 99.12 C 152.96 98.74 157.83 99.13 162.66 98.61 Z" />
<path fill="#3e3e3e" opacity="1.00" d=" M 190.18 99.15 C 190.85 100.40 191.58 101.66 191.82 103.09 C 192.51 109.20 192.11 115.44 190.23 121.32 C 189.06 124.78 189.21 128.76 186.99 131.80 C 188.55 123.22 192.32 114.85 191.30 105.98 C 191.09 103.68 190.57 101.42 190.18 99.15 Z" />
<path fill="#313131" opacity="1.00" d=" M 196.87 99.91 C 200.58 106.21 195.43 114.52 199.98 120.45 C 201.37 120.49 202.96 119.91 204.24 120.64 C 204.50 122.14 204.50 123.67 204.78 125.16 C 205.29 127.36 207.86 127.64 209.56 128.53 C 209.97 130.37 210.27 132.26 210.94 134.03 C 212.25 135.09 214.12 134.97 215.68 135.44 C 215.75 138.59 215.70 142.25 219.23 143.53 C 216.05 154.87 210.11 165.16 204.24 175.27 C 202.77 172.82 200.15 171.85 197.51 171.23 C 196.80 167.97 196.28 164.67 195.65 161.40 C 193.04 160.62 190.42 159.90 187.78 159.23 C 186.72 154.49 185.95 149.66 186.81 144.80 C 190.73 137.76 193.67 130.23 195.33 122.33 C 197.69 115.08 197.59 107.41 196.87 99.91 Z" />
<path fill="#323232" opacity="0.64" d=" M 131.24 106.80 C 134.62 105.14 138.18 103.82 141.86 103.00 L 142.57 103.40 C 138.76 104.38 135.19 106.68 131.24 106.80 Z" />
<path fill="#313131" opacity="0.65" d=" M 124.18 109.89 C 126.17 108.28 128.54 107.29 131.06 106.86 L 131.52 107.53 C 128.94 107.93 126.74 109.51 124.18 109.89 Z" />
<path fill="#3e3e3e" opacity="1.00" d=" M 116.33 117.23 C 118.72 114.63 120.75 111.46 124.08 109.95 C 118.48 115.27 114.20 122.38 107.15 125.92 C 110.14 122.94 113.65 120.51 116.33 117.23 Z" />
<path fill="#3e3e3e" opacity="1.00" d=" M 91.09 132.76 C 96.79 131.43 101.69 128.06 107.10 125.95 C 106.85 126.22 106.36 126.76 106.11 127.03 C 100.94 129.61 95.80 132.77 89.97 133.55 C 85.50 133.65 80.34 134.30 76.69 131.11 L 76.90 131.05 C 81.34 133.09 86.28 133.45 91.09 132.76 Z" />
<path fill="#464646" opacity="0.60" d=" M 186.29 132.85 C 186.38 132.71 186.56 132.43 186.65 132.30 C 186.56 132.43 186.38 132.71 186.29 132.85 Z" />
<path fill="#303030" opacity="0.67" d=" M 184.18 138.30 C 183.76 136.95 184.53 134.12 186.07 133.95 C 186.19 135.63 185.71 137.40 184.18 138.30 Z" />
<path fill="#3d3d3d" opacity="0.48" d=" M 226.89 137.81 C 226.62 136.57 226.94 135.59 227.84 134.86 C 228.65 136.38 228.33 137.37 226.89 137.81 Z" />
<path fill="#454545" opacity="0.64" d=" M 183.32 139.80 C 183.41 139.64 183.57 139.31 183.66 139.15 C 183.57 139.31 183.41 139.64 183.32 139.80 Z" />
<path fill="#3e3e3e" opacity="0.51" d=" M 225.90 140.81 C 226.15 140.34 226.64 139.40 226.88 138.93 C 226.85 139.39 226.80 140.29 226.77 140.75 L 225.90 140.81 Z" />
<path fill="#424242" opacity="0.47" d=" M 182.47 141.75 C 182.53 141.60 182.64 141.30 182.70 141.15 C 182.64 141.30 182.53 141.60 182.47 141.75 Z" />
<path fill="#333333" opacity="0.63" d=" M 221.83 153.56 C 222.89 149.33 224.27 145.17 225.86 141.10 C 226.09 144.15 224.60 146.95 223.77 149.81 C 223.14 151.04 223.19 152.87 221.83 153.56 Z" />
<path fill="#3e3e3e" opacity="1.00" d=" M 178.19 150.75 C 179.24 147.86 180.71 145.13 182.25 142.48 C 181.73 145.59 180.18 148.35 178.19 150.75 Z" />
<path fill="#2c2c2c" opacity="1.00" d=" M 175.64 166.59 C 180.91 160.19 182.80 151.93 186.81 144.80 C 185.95 149.66 186.72 154.49 187.78 159.23 C 190.42 159.90 193.04 160.62 195.65 161.40 C 196.28 164.67 196.80 167.97 197.51 171.23 C 200.15 171.85 202.77 172.82 204.24 175.27 C 199.78 184.20 193.94 192.31 188.38 200.57 C 187.84 200.54 186.75 200.47 186.21 200.44 C 185.52 199.71 184.83 198.98 184.15 198.25 C 183.47 198.66 182.80 199.09 182.13 199.51 C 180.30 198.61 177.74 198.10 177.09 195.87 C 175.50 191.36 174.93 186.50 172.89 182.14 C 172.09 180.15 169.37 180.78 168.36 178.99 C 170.83 174.88 172.45 170.25 175.64 166.59 Z" />
<path fill="#3e3e3e" opacity="1.00" d=" M 174.00 159.72 C 174.92 156.58 176.48 153.63 178.15 150.82 C 177.41 154.05 175.89 157.02 174.00 159.72 Z" />
<path fill="#363636" opacity="0.62" d=" M 219.84 157.86 C 219.97 156.36 220.21 154.49 221.78 153.79 C 222.41 155.09 221.45 157.92 219.84 157.86 Z" />
<path fill="#3e3e3e" opacity="1.00" d=" M 217.98 162.04 C 217.75 160.66 218.38 159.35 219.57 158.61 C 219.42 159.48 219.11 161.22 218.95 162.09 C 218.71 162.08 218.22 162.05 217.98 162.04 Z" />
<path fill="#464646" opacity="0.61" d=" M 173.28 160.88 C 173.37 160.74 173.55 160.44 173.64 160.29 C 173.55 160.44 173.37 160.74 173.28 160.88 Z" />
<path fill="#2d2d2d" opacity="0.70" d=" M 171.20 164.43 C 170.97 162.82 171.58 162.00 173.06 161.96 C 173.00 163.26 172.39 164.08 171.20 164.43 Z" />
<path fill="#3e3e3e" opacity="1.00" d=" M 213.02 171.17 C 214.13 168.18 215.28 164.90 217.80 162.81 C 217.82 163.04 217.87 163.50 217.90 163.73 C 215.87 165.95 215.12 169.01 213.02 171.17 Z" />
<path fill="#3e3e3e" opacity="1.00" d=" M 169.28 167.50 C 169.16 165.95 169.78 165.22 171.16 165.30 C 171.20 166.65 170.58 167.38 169.28 167.50 Z" />
<path fill="#3e3e3e" opacity="1.00" d=" M 167.23 170.48 C 167.08 168.95 167.73 168.18 169.18 168.20 C 169.14 169.53 168.49 170.29 167.23 170.48 Z" />
<path fill="#3e3e3e" opacity="1.00" d=" M 161.07 179.91 C 162.32 176.49 164.46 173.22 167.10 170.70 C 165.28 173.89 163.37 177.04 161.07 179.91 Z" />
<path fill="#2c2c2c" opacity="0.49" d=" M 209.99 177.18 C 210.46 175.20 211.18 173.11 212.81 171.80 C 213.51 173.52 211.80 177.02 209.99 177.18 Z" />
<path fill="#454545" opacity="0.54" d=" M 209.30 178.71 C 209.39 178.57 209.59 178.30 209.68 178.17 C 209.59 178.30 209.39 178.57 209.30 178.71 Z" />
<path fill="#272727" opacity="1.00" d=" M 155.57 198.64 C 159.81 192.08 164.25 185.64 168.36 178.99 C 169.37 180.78 172.09 180.15 172.89 182.14 C 174.93 186.50 175.50 191.36 177.09 195.87 C 177.74 198.10 180.30 198.61 182.13 199.51 C 182.80 199.09 183.47 198.66 184.15 198.25 C 184.83 198.98 185.52 199.71 186.21 200.44 C 186.75 200.47 187.84 200.54 188.38 200.57 C 181.62 210.87 174.33 220.81 167.16 230.83 C 162.98 229.67 161.39 225.34 160.79 221.47 C 160.01 221.74 159.23 222.02 158.46 222.30 C 156.26 220.47 153.50 220.17 150.74 220.23 C 148.55 219.52 146.63 218.02 144.37 217.41 C 144.11 216.22 143.86 215.04 143.62 213.86 C 147.47 208.68 152.06 204.07 155.57 198.64 Z" />
<path fill="#3e3e3e" opacity="1.00" d=" M 159.31 182.54 C 159.05 180.97 159.63 180.21 161.06 180.25 C 161.13 181.56 160.54 182.32 159.31 182.54 Z" />
<path fill="#3e3e3e" opacity="1.00" d=" M 202.28 189.16 C 204.53 185.81 206.29 182.13 209.00 179.10 C 206.23 184.86 202.57 190.23 198.88 195.45 C 199.52 193.11 200.95 191.14 202.28 189.16 Z" />
<path fill="#3e3e3e" opacity="1.00" d=" M 152.70 191.99 C 155.12 189.06 156.31 184.97 159.25 182.66 C 152.91 194.97 143.53 205.25 135.38 216.33 C 124.72 227.35 113.15 237.59 104.09 250.05 C 93.73 263.92 81.13 275.94 71.19 290.13 C 70.38 291.32 69.34 292.30 68.26 293.24 C 68.22 293.03 68.14 292.60 68.10 292.39 C 69.82 290.95 70.99 289.05 72.31 287.28 C 78.28 279.13 84.97 271.53 91.78 264.09 C 98.40 256.37 104.37 248.12 110.88 240.31 C 118.71 231.65 127.36 223.77 135.31 215.23 C 140.71 207.19 147.76 200.36 152.70 191.99 Z" />
<path fill="#3e3e3e" opacity="1.00" d=" M 196.95 197.74 C 196.83 196.45 197.38 195.70 198.60 195.49 C 198.93 197.06 198.38 197.81 196.95 197.74 Z" />
<path fill="#3e3e3e" opacity="1.00" d=" M 179.04 223.88 C 184.69 215.09 190.68 206.46 196.95 198.10 C 196.56 199.68 195.57 200.98 194.69 202.31 C 190.20 208.83 185.59 215.26 181.13 221.80 C 180.53 222.58 179.97 223.48 179.04 223.88 Z" />
<path fill="#232323" opacity="1.00" d=" M 134.11 225.09 C 137.77 221.79 140.78 217.87 143.62 213.86 C 143.86 215.04 144.11 216.22 144.37 217.41 C 146.63 218.02 148.55 219.52 150.74 220.23 C 153.50 220.17 156.26 220.47 158.46 222.30 C 159.23 222.02 160.01 221.74 160.79 221.47 C 161.39 225.34 162.98 229.67 167.16 230.83 C 162.69 237.23 158.93 244.07 154.62 250.57 C 149.38 257.58 145.58 265.51 140.78 272.81 C 138.04 276.81 134.96 280.56 132.21 284.55 C 130.68 283.67 129.16 282.78 127.66 281.86 C 127.71 280.33 127.89 278.79 127.65 277.28 C 125.82 273.93 122.30 271.94 120.42 268.63 C 120.79 268.17 121.55 267.25 121.93 266.79 C 120.35 265.79 118.78 264.78 117.22 263.77 C 117.26 262.62 117.29 261.49 117.32 260.35 C 116.04 259.03 114.67 257.77 113.61 256.26 C 113.32 254.83 113.52 253.36 113.52 251.92 C 112.08 252.76 110.85 253.90 109.72 255.11 C 109.68 254.00 109.62 252.88 109.57 251.77 C 116.75 242.00 125.66 233.72 134.11 225.09 Z" />
<path fill="#3e3e3e" opacity="1.00" d=" M 158.97 254.26 C 164.66 243.71 171.46 233.73 178.77 224.24 C 178.58 225.77 177.40 226.89 176.62 228.14 C 172.34 234.30 168.00 240.41 164.10 246.81 C 162.38 249.29 161.23 252.20 158.97 254.26 Z" />
<path fill="#1e1e1e" opacity="1.00" d=" M 101.39 262.46 C 104.23 258.99 106.54 255.10 109.57 251.77 C 109.62 252.88 109.68 254.00 109.72 255.11 C 110.85 253.90 112.08 252.76 113.52 251.92 C 113.52 253.36 113.32 254.83 113.61 256.26 C 114.67 257.77 116.04 259.03 117.32 260.35 C 117.29 261.49 117.26 262.62 117.22 263.77 C 118.78 264.78 120.35 265.79 121.93 266.79 C 121.55 267.25 120.79 268.17 120.42 268.63 C 122.30 271.94 125.82 273.93 127.65 277.28 C 127.89 278.79 127.71 280.33 127.66 281.86 C 129.16 282.78 130.68 283.67 132.21 284.55 C 128.86 289.20 125.63 293.92 123.08 299.07 C 118.63 305.32 114.16 311.60 110.45 318.33 C 105.11 332.51 94.51 344.03 89.62 358.44 C 83.79 378.02 81.44 398.64 82.93 419.02 C 84.21 427.12 88.22 434.51 92.87 441.15 C 95.16 443.50 97.22 447.19 100.96 447.06 C 106.94 447.11 112.97 446.39 118.65 444.48 C 125.20 442.13 132.20 440.26 137.44 435.43 C 145.48 427.84 153.59 420.29 160.65 411.76 C 168.21 405.69 174.58 398.30 182.05 392.12 C 187.82 386.48 194.32 381.67 199.91 375.84 C 207.59 369.48 213.83 361.50 221.90 355.62 C 218.98 360.63 214.01 363.91 210.28 368.27 C 213.27 371.13 216.61 373.59 220.26 375.55 C 220.49 376.40 220.72 377.25 220.96 378.11 C 224.68 378.54 227.94 380.56 231.50 381.59 C 232.69 382.95 233.33 384.70 234.19 386.29 C 237.10 386.99 240.31 386.36 242.97 388.00 C 245.01 389.33 247.45 388.80 249.72 388.66 C 250.32 389.18 250.92 389.70 251.53 390.23 C 254.38 389.04 257.57 389.10 260.46 387.95 C 262.92 388.34 265.35 387.92 267.79 387.61 C 269.97 387.96 271.88 389.40 274.14 389.40 C 277.11 389.79 280.00 387.82 282.89 389.10 C 286.66 390.74 290.18 386.86 293.98 387.98 C 296.03 388.42 298.08 388.94 300.12 389.48 C 301.38 388.96 302.61 388.29 303.97 388.06 C 305.64 388.68 307.25 389.52 309.06 389.67 C 313.61 390.17 317.86 392.11 322.47 392.36 C 322.69 392.92 323.15 394.06 323.38 394.63 C 323.92 393.73 324.47 392.83 325.02 391.94 C 325.93 393.22 326.84 394.51 327.76 395.79 C 329.17 395.50 330.58 395.22 331.99 394.96 C 335.18 396.92 339.01 396.79 342.56 397.56 C 343.24 398.14 343.93 398.74 344.63 399.33 C 347.39 397.77 350.21 395.63 353.57 396.57 C 353.61 395.88 353.65 395.20 353.69 394.53 C 355.39 394.41 356.84 393.54 358.35 392.85 C 360.11 392.59 361.93 392.59 363.62 391.91 C 363.56 390.69 363.50 389.48 363.46 388.27 C 370.06 388.65 376.66 388.82 383.21 389.77 C 389.55 391.62 396.07 389.45 402.47 389.13 C 405.75 386.20 409.89 384.64 413.57 382.35 C 413.98 381.06 414.06 379.70 414.26 378.38 C 414.56 378.66 415.16 379.22 415.46 379.50 C 415.81 378.82 416.18 378.15 416.55 377.48 C 418.46 377.34 420.33 376.95 422.17 376.43 C 425.22 375.59 428.49 376.51 431.52 375.50 C 434.06 374.69 436.68 374.12 439.18 373.18 C 441.56 371.70 442.79 369.05 444.35 366.84 C 444.91 366.69 445.47 366.54 446.04 366.40 C 447.11 363.61 450.13 362.86 452.78 362.39 C 457.97 361.15 464.74 360.95 467.60 355.68 C 468.69 352.56 471.94 351.14 473.15 348.07 C 476.22 343.61 482.31 345.30 486.19 342.14 C 489.22 339.98 492.18 337.22 493.20 333.52 C 492.02 333.51 490.84 333.53 489.67 333.56 C 506.17 323.63 523.41 314.65 541.83 308.82 C 543.05 308.55 544.38 307.83 545.64 308.35 C 551.07 310.59 556.22 313.54 560.78 317.27 C 566.45 321.87 572.48 326.17 577.15 331.86 C 578.10 333.07 579.38 334.73 578.31 336.28 C 575.49 339.51 571.22 340.86 567.36 342.40 C 563.32 343.81 559.55 345.86 555.62 347.53 C 543.23 352.59 530.47 356.76 518.32 362.41 C 505.27 369.40 492.68 377.23 480.19 385.16 C 472.12 390.76 464.22 396.63 455.97 401.96 C 448.06 406.48 441.20 412.52 434.00 418.05 C 429.62 421.29 426.25 425.69 421.74 428.76 C 415.79 433.26 409.17 436.75 403.14 441.11 C 398.56 444.28 393.35 446.47 389.03 450.02 C 382.29 455.32 375.15 460.18 367.06 463.17 C 347.15 473.56 323.54 473.61 302.04 468.93 C 290.60 466.02 279.02 469.95 268.12 473.23 C 247.28 480.97 225.74 486.56 204.63 493.52 C 196.20 495.74 187.83 499.18 178.96 498.83 C 173.30 498.74 167.51 498.65 162.06 496.93 C 160.23 496.24 157.96 495.24 157.77 493.00 C 157.15 486.96 158.82 480.97 160.17 475.13 C 162.91 465.08 165.23 454.70 170.53 445.62 C 171.59 443.83 172.41 441.92 173.02 439.94 C 171.34 439.74 169.31 439.62 168.27 441.27 C 163.64 447.45 160.41 454.62 157.90 461.90 C 154.68 471.99 151.27 482.35 151.71 493.08 C 151.73 497.67 155.72 500.85 159.66 502.32 C 166.47 504.79 173.87 504.62 181.00 505.14 C 190.72 504.24 200.05 501.11 209.36 498.34 C 228.02 492.13 247.11 487.25 265.61 480.54 C 278.38 475.69 292.57 472.36 306.11 475.78 C 315.25 477.79 324.64 478.01 333.96 477.92 C 339.05 477.81 344.00 476.42 349.07 475.98 C 358.30 474.28 366.73 469.94 375.27 466.22 C 381.34 463.75 386.36 459.43 391.67 455.70 C 396.56 451.26 402.80 448.87 408.14 445.08 C 416.01 439.70 424.59 435.17 431.35 428.34 C 436.69 423.27 442.75 419.06 448.48 414.46 C 454.34 409.48 461.44 406.28 467.42 401.46 C 475.67 396.04 483.45 389.93 491.96 384.91 C 495.17 383.11 498.00 380.00 501.95 380.08 C 510.28 379.80 518.62 379.38 526.96 379.63 C 532.67 379.97 538.54 380.04 543.95 382.14 C 534.38 388.44 523.92 393.58 515.33 401.28 C 513.35 402.94 511.89 406.83 514.30 408.66 C 519.58 410.88 524.75 406.74 530.12 407.02 C 526.43 410.77 521.62 413.11 517.79 416.69 C 512.49 421.76 506.57 426.25 502.20 432.22 C 492.84 444.16 484.90 457.16 477.52 470.39 C 470.63 484.59 463.84 498.91 458.88 513.91 C 457.41 517.73 457.71 522.48 454.47 525.41 C 450.82 529.10 447.08 532.72 443.19 536.16 C 437.11 540.61 430.76 544.69 424.08 548.19 C 400.41 561.79 373.02 566.03 346.65 571.44 C 337.45 572.52 328.22 573.32 318.97 573.85 C 309.02 575.19 298.94 575.06 288.98 576.33 C 282.99 577.06 276.92 576.34 270.94 577.22 C 267.06 577.69 263.25 578.93 259.31 578.54 C 249.83 577.79 240.24 578.31 230.87 576.40 C 220.32 575.84 209.90 574.00 199.35 573.51 C 191.80 572.30 184.15 571.89 176.62 570.58 C 165.96 569.50 155.26 568.84 144.65 567.36 C 138.72 565.83 132.68 564.51 127.08 561.97 C 122.51 559.91 117.59 558.82 112.83 557.29 C 93.08 551.51 72.95 546.49 54.26 537.69 C 51.10 536.33 48.66 533.66 45.28 532.77 C 45.14 533.57 44.85 535.18 44.71 535.99 L 43.76 535.50 L 43.96 534.77 C 44.43 533.58 44.11 532.69 43.02 532.11 C 41.77 531.72 41.16 531.03 41.18 530.04 C 42.29 530.43 43.40 530.83 44.50 531.25 C 44.86 527.77 42.46 524.77 41.28 521.66 C 35.48 509.47 29.60 497.27 25.57 484.36 C 19.69 466.96 18.35 448.38 19.42 430.14 C 24.39 398.26 31.50 366.22 46.26 337.29 C 49.55 330.29 55.11 324.77 59.22 318.30 C 66.89 306.38 74.05 294.06 83.21 283.19 C 89.16 276.18 95.03 269.10 101.39 262.46 Z" />
<path fill="#3e3e3e" opacity="1.00" d=" M 154.87 259.97 C 155.70 257.80 157.00 255.85 158.84 254.41 C 157.76 256.38 156.82 258.72 154.87 259.97 Z" />
<path fill="#383838" opacity="1.00" d=" M 146.92 272.55 C 149.00 268.09 151.89 264.06 154.79 260.11 C 153.19 264.71 149.87 268.66 146.92 272.55 Z" />
<path fill="#3e3e3e" opacity="1.00" d=" M 409.08 264.09 C 416.06 263.81 423.05 263.90 430.03 263.62 C 434.69 263.59 439.39 264.26 444.00 263.27 C 450.04 264.56 456.34 263.45 462.35 264.98 C 457.44 265.21 452.53 264.82 447.66 264.22 C 436.09 263.57 424.55 264.70 412.99 265.04 C 405.66 264.78 398.34 265.58 391.00 265.39 C 382.86 265.89 374.73 266.66 366.58 267.09 C 370.20 265.71 374.16 266.22 377.93 265.68 C 388.29 264.54 398.72 265.07 409.08 264.09 Z" />
<path fill="#383838" opacity="0.61" d=" M 462.92 265.21 C 464.02 264.43 466.93 264.55 467.07 266.16 C 465.59 266.48 464.14 265.98 462.92 265.21 Z" />
<path fill="#3a3a3a" opacity="0.69" d=" M 468.02 266.08 C 469.58 265.38 470.60 265.73 471.10 267.13 C 469.81 267.38 468.79 267.02 468.02 266.08 Z" />
<path fill="#3e3e3e" opacity="1.00" d=" M 338.34 272.83 C 347.59 270.42 356.85 267.37 366.47 267.11 C 362.46 268.39 358.20 268.35 354.16 269.46 C 349.03 270.43 344.15 272.46 338.97 273.08 L 338.34 272.83 Z" />
<path fill="#404040" opacity="0.61" d=" M 471.96 267.13 C 472.41 267.14 473.31 267.18 473.75 267.20 L 473.86 268.04 C 473.38 267.81 472.44 267.35 471.96 267.13 Z" />
<path fill="#3e3e3e" opacity="1.00" d=" M 474.13 268.00 C 477.54 269.17 481.04 270.19 484.25 271.86 L 484.07 271.99 C 480.58 271.22 477.00 270.20 474.13 268.00 Z" />
<path fill="#2d2d2d" opacity="1.00" d=" M 376.97 269.90 C 381.95 269.16 387.01 268.92 392.05 268.90 C 402.36 269.58 412.71 269.02 423.03 269.47 C 433.70 269.48 444.40 269.02 455.05 270.07 C 467.54 270.13 478.67 276.37 490.03 280.73 C 491.42 281.80 492.77 282.92 494.14 284.01 C 491.80 285.41 489.52 287.08 488.80 289.86 C 487.70 293.53 483.30 293.83 480.48 295.61 C 475.81 298.46 470.14 298.80 465.41 301.49 C 462.13 303.35 458.27 303.48 454.81 304.82 C 454.74 306.06 454.66 307.30 454.60 308.55 C 447.80 312.96 439.37 312.40 431.87 314.76 C 428.62 316.06 424.68 314.45 421.78 316.71 C 419.72 317.82 417.93 320.09 415.36 319.64 C 412.19 319.08 410.24 322.33 407.48 323.27 C 405.86 323.10 404.28 322.44 402.63 322.68 C 389.02 324.18 375.51 321.35 362.03 319.91 C 350.77 317.23 339.30 315.02 328.53 310.65 C 324.66 309.38 320.54 308.72 317.13 306.33 C 316.44 306.74 315.75 307.15 315.06 307.57 C 313.92 306.87 312.79 306.18 311.66 305.49 C 310.28 306.16 308.90 306.82 307.51 307.47 C 305.43 306.59 302.73 306.88 301.10 305.20 C 301.62 304.41 302.17 303.64 302.74 302.90 C 300.66 303.22 298.57 303.90 296.46 303.67 C 293.85 302.87 291.64 301.20 289.40 299.71 C 296.66 296.23 303.75 292.40 311.13 289.16 C 331.99 279.52 354.58 274.56 376.97 269.90 Z" />
<path fill="#3e3e3e" opacity="1.00" d=" M 484.84 272.35 L 485.05 272.17 C 491.02 274.89 497.70 275.93 503.13 279.78 C 510.21 284.05 517.24 289.80 520.10 297.78 C 518.07 295.22 516.51 292.33 514.35 289.88 C 510.37 284.92 504.80 281.65 499.40 278.47 C 494.82 275.79 489.08 275.64 484.84 272.35 Z" />
<path fill="#464646" opacity="0.56" d=" M 146.29 273.81 C 146.37 273.66 146.52 273.37 146.60 273.23 C 146.52 273.37 146.37 273.66 146.29 273.81 Z" />
<path fill="#303030" opacity="0.52" d=" M 328.34 276.14 C 331.06 274.15 335.17 273.14 338.61 273.16 C 335.25 274.37 331.85 275.46 328.34 276.14 Z" />
<path fill="#2c2c2c" opacity="0.72" d=" M 143.95 277.10 C 143.98 275.90 144.57 275.05 145.71 274.54 C 146.04 276.21 145.45 277.06 143.95 277.10 Z" />
<path fill="#404040" opacity="0.56" d=" M 326.22 276.22 L 327.21 275.77 L 328.05 276.22 C 327.57 276.44 326.60 276.87 326.11 277.09 L 326.22 276.22 Z" />
<path fill="#404040" opacity="0.52" d=" M 323.23 277.25 C 323.69 277.22 324.61 277.16 325.08 277.13 C 324.60 277.38 323.64 277.87 323.16 278.11 L 323.23 277.25 Z" />
<path fill="#454545" opacity="0.58" d=" M 143.31 278.73 C 143.45 278.57 143.72 278.27 143.85 278.12 C 143.72 278.27 143.45 278.57 143.31 278.73 Z" />
<path fill="#343434" opacity="0.61" d=" M 318.19 280.05 C 318.18 278.46 321.10 277.60 322.41 278.20 C 321.47 279.56 319.80 280.19 318.19 280.05 Z" />
<path fill="#313131" opacity="0.69" d=" M 310.86 283.13 C 312.36 281.07 315.44 280.42 317.87 280.05 C 315.75 281.54 313.32 282.42 310.86 283.13 Z" />
<path fill="#444444" opacity="0.65" d=" M 141.30 281.81 C 141.41 281.68 141.62 281.41 141.72 281.28 C 141.62 281.41 141.41 281.68 141.30 281.81 Z" />
<path fill="#242424" opacity="1.00" d=" M 490.03 280.73 C 492.10 281.27 494.22 281.75 496.12 282.79 C 503.33 286.61 510.45 291.58 514.32 298.98 C 514.94 300.73 513.39 302.19 512.29 303.32 C 504.34 310.51 494.08 314.26 485.38 320.36 C 475.36 327.13 465.59 334.42 457.21 343.18 C 455.01 345.64 451.60 347.47 450.93 350.94 C 455.49 352.44 459.72 349.57 463.68 347.70 C 472.55 343.37 480.94 338.15 489.67 333.56 C 490.84 333.53 492.02 333.51 493.20 333.52 C 492.18 337.22 489.22 339.98 486.19 342.14 C 482.31 345.30 476.22 343.61 473.15 348.07 C 471.94 351.14 468.69 352.56 467.60 355.68 C 464.74 360.95 457.97 361.15 452.78 362.39 C 450.13 362.86 447.11 363.61 446.04 366.40 C 445.47 366.54 444.91 366.69 444.35 366.84 C 442.79 369.05 441.56 371.70 439.18 373.18 C 436.68 374.12 434.06 374.69 431.52 375.50 C 428.49 376.51 425.22 375.59 422.17 376.43 C 420.33 376.95 418.46 377.34 416.55 377.48 C 416.18 378.15 415.81 378.82 415.46 379.50 C 415.16 379.22 414.56 378.66 414.26 378.38 C 414.06 379.70 413.98 381.06 413.57 382.35 C 409.89 384.64 405.75 386.20 402.47 389.13 C 396.07 389.45 389.55 391.62 383.21 389.77 C 376.66 388.82 370.06 388.65 363.46 388.27 C 363.50 389.48 363.56 390.69 363.62 391.91 C 361.93 392.59 360.11 392.59 358.35 392.85 C 356.84 393.54 355.39 394.41 353.69 394.53 C 353.65 395.20 353.61 395.88 353.57 396.57 C 350.21 395.63 347.39 397.77 344.63 399.33 C 343.93 398.74 343.24 398.14 342.56 397.56 C 339.01 396.79 335.18 396.92 331.99 394.96 C 330.58 395.22 329.17 395.50 327.76 395.79 C 326.84 394.51 325.93 393.22 325.02 391.94 C 324.47 392.83 323.92 393.73 323.38 394.63 C 323.15 394.06 322.69 392.92 322.47 392.36 C 317.86 392.11 313.61 390.17 309.06 389.67 C 307.25 389.52 305.64 388.68 303.97 388.06 C 302.61 388.29 301.38 388.96 300.12 389.48 C 298.08 388.94 296.03 388.42 293.98 387.98 C 290.18 386.86 286.66 390.74 282.89 389.10 C 280.00 387.82 277.11 389.79 274.14 389.40 C 271.88 389.40 269.97 387.96 267.79 387.61 C 265.35 387.92 262.92 388.34 260.46 387.95 C 257.57 389.10 254.38 389.04 251.53 390.23 C 250.92 389.70 250.32 389.18 249.72 388.66 C 247.45 388.80 245.01 389.33 242.97 388.00 C 240.31 386.36 237.10 386.99 234.19 386.29 C 233.33 384.70 232.69 382.95 231.50 381.59 C 227.94 380.56 224.68 378.54 220.96 378.11 C 220.72 377.25 220.49 376.40 220.26 375.55 C 216.61 373.59 213.27 371.13 210.28 368.27 C 214.01 363.91 218.98 360.63 221.90 355.62 C 226.21 350.71 231.16 346.44 235.59 341.65 C 243.79 333.10 253.31 326.00 261.91 317.88 C 264.71 315.21 268.35 313.74 271.33 311.32 C 276.84 306.73 282.95 302.83 289.40 299.71 C 291.64 301.20 293.85 302.87 296.46 303.67 C 298.57 303.90 300.66 303.22 302.74 302.90 C 302.17 303.64 301.62 304.41 301.10 305.20 C 302.73 306.88 305.43 306.59 307.51 307.47 C 308.90 306.82 310.28 306.16 311.66 305.49 C 312.79 306.18 313.92 306.87 315.06 307.57 C 315.75 307.15 316.44 306.74 317.13 306.33 C 320.54 308.72 324.66 309.38 328.53 310.65 C 339.30 315.02 350.77 317.23 362.03 319.91 C 375.51 321.35 389.02 324.18 402.63 322.68 C 404.28 322.44 405.86 323.10 407.48 323.27 C 410.24 322.33 412.19 319.08 415.36 319.64 C 417.93 320.09 419.72 317.82 421.78 316.71 C 424.68 314.45 428.62 316.06 431.87 314.76 C 439.37 312.40 447.80 312.96 454.60 308.55 C 454.66 307.30 454.74 306.06 454.81 304.82 C 458.27 303.48 462.13 303.35 465.41 301.49 C 470.14 298.80 475.81 298.46 480.48 295.61 C 483.30 293.83 487.70 293.53 488.80 289.86 C 489.52 287.08 491.80 285.41 494.14 284.01 C 492.77 282.92 491.42 281.80 490.03 280.73 Z" />
<path fill="#3e3e3e" opacity="1.00" d=" M 137.94 285.81 C 137.64 284.12 139.05 282.75 140.63 282.51 C 140.80 283.88 139.37 285.92 137.94 285.81 Z" />
<path fill="#3e3e3e" opacity="1.00" d=" M 297.99 289.11 C 301.66 286.48 306.30 284.33 310.77 283.17 C 306.67 285.47 302.44 287.60 297.99 289.11 Z" />
<path fill="#3e3e3e" opacity="1.00" d=" M 132.91 291.95 C 132.67 289.67 134.48 288.13 136.55 287.76 C 136.53 289.54 134.43 290.77 133.39 292.10 L 132.91 291.95 Z" />
<path fill="#3e3e3e" opacity="1.00" d=" M 290.72 292.17 C 293.07 291.16 295.19 289.45 297.81 289.19 C 293.98 291.43 290.07 293.62 285.87 295.07 C 287.09 293.57 289.08 293.08 290.72 292.17 Z" />
<path fill="#2b2b2b" opacity="0.78" d=" M 130.88 295.03 C 130.96 293.74 131.61 292.96 132.84 292.70 C 133.01 294.28 132.36 295.06 130.88 295.03 Z" />
<path fill="#3e3e3e" opacity="1.00" d=" M 64.35 299.54 C 64.82 297.38 66.25 295.32 67.96 293.95 C 67.92 294.22 67.85 294.76 67.81 295.03 C 66.81 296.64 65.55 298.07 64.35 299.54 Z" />
<path fill="#3e3e3e" opacity="1.00" d=" M 278.51 298.86 C 280.79 297.57 282.95 295.92 285.52 295.26 C 283.71 296.90 281.59 298.15 279.28 298.95 L 278.51 298.86 Z" />
<path fill="#3e3e3e" opacity="1.00" d=" M 127.84 299.74 C 127.91 297.91 128.74 295.76 130.80 295.50 C 130.47 296.92 129.56 299.76 127.84 299.74 Z" />
<path fill="#3e3e3e" opacity="1.00" d=" M 520.08 298.12 L 520.29 297.29 C 522.24 303.13 517.27 307.50 513.07 310.57 C 511.84 311.11 511.30 313.41 509.74 312.76 C 513.73 308.36 520.92 305.19 520.08 298.12 Z" />
<path fill="#3e3e3e" opacity="1.00" d=" M 267.56 306.15 C 271.21 303.63 274.79 300.59 278.98 299.11 C 275.36 301.73 271.80 304.59 267.56 306.15 Z" />
<path fill="#3e3e3e" opacity="1.00" d=" M 63.66 299.95 L 64.20 299.81 C 61.35 305.43 58.03 310.89 54.05 315.79 C 56.78 310.28 60.48 305.24 63.66 299.95 Z" />
<path fill="#3e3e3e" opacity="1.00" d=" M 125.91 302.78 C 125.89 301.43 126.50 300.62 127.76 300.36 C 127.93 301.92 127.32 302.73 125.91 302.78 Z" />
<path fill="#343434" opacity="0.59" d=" M 534.78 305.15 C 536.78 302.95 540.20 302.96 542.99 302.97 C 545.46 303.13 548.26 302.42 550.37 304.10 C 545.10 303.56 539.82 303.13 534.78 305.15 Z" />
<path fill="#303030" opacity="0.74" d=" M 122.97 308.10 C 123.00 306.24 123.86 304.19 125.82 303.69 C 125.75 305.18 124.60 307.95 122.97 308.10 Z" />
<path fill="#424242" opacity="0.45" d=" M 551.16 304.40 C 551.32 304.47 551.63 304.60 551.79 304.67 C 551.63 304.60 551.32 304.47 551.16 304.40 Z" />
<path fill="#323232" opacity="0.63" d=" M 526.63 307.97 C 529.15 306.69 531.83 305.04 534.75 305.17 C 532.37 306.39 529.93 307.58 527.26 307.94 L 526.63 307.97 Z" />
<path fill="#464646" opacity="0.58" d=" M 553.12 305.29 C 553.27 305.38 553.56 305.56 553.71 305.65 C 553.56 305.56 553.27 305.38 553.12 305.29 Z" />
<path fill="#3e3e3e" opacity="1.00" d=" M 258.08 313.30 C 261.16 310.83 264.06 308.03 267.56 306.15 C 264.41 309.63 260.40 312.13 256.94 315.26 C 251.55 320.08 246.07 324.81 240.52 329.45 C 230.86 338.46 222.00 348.30 212.07 357.02 C 204.10 364.77 196.03 372.40 187.89 379.95 C 186.91 380.92 185.63 381.47 184.43 382.11 C 199.35 368.23 214.17 354.23 228.72 339.94 C 237.72 330.23 248.27 322.16 258.08 313.30 Z" />
<path fill="#3e3e3e" opacity="1.00" d=" M 554.10 305.95 C 560.48 308.40 565.48 313.18 570.80 317.31 C 576.59 321.83 582.10 326.99 585.51 333.60 C 586.03 335.07 585.70 336.81 584.73 338.03 C 582.97 340.37 581.27 343.10 578.34 344.05 C 580.69 341.00 585.27 338.60 584.90 334.25 C 580.61 324.95 571.64 319.24 564.05 312.87 C 561.04 310.12 557.17 308.60 554.10 305.95 Z" />
<path fill="#323232" opacity="0.66" d=" M 518.84 311.15 C 521.33 309.90 523.83 308.27 526.69 308.10 C 524.30 309.62 521.75 311.07 518.84 311.15 Z" />
<path fill="#444444" opacity="0.53" d=" M 122.25 309.74 C 122.39 309.60 122.68 309.33 122.83 309.19 C 122.68 309.33 122.39 309.60 122.25 309.74 Z" />
<path fill="#2c2c2c" opacity="0.68" d=" M 119.93 313.07 C 119.99 311.90 120.57 311.04 121.65 310.48 C 122.04 312.17 121.47 313.03 119.93 313.07 Z" />
<path fill="#8f8f8f" opacity="0.95" d=" M 509.92 315.33 C 512.66 313.72 516.32 313.27 518.28 310.68 C 518.37 310.86 518.57 311.23 518.67 311.41 C 517.86 312.76 516.05 312.85 514.79 313.58 C 501.12 319.89 488.42 328.05 475.05 334.95 C 482.19 328.92 490.04 323.78 498.18 319.21 C 501.46 317.27 504.99 315.73 507.96 313.30 C 508.21 313.25 508.70 313.15 508.94 313.11 C 509.19 313.66 509.68 314.77 509.92 315.33 Z" />
<path fill="#2c2c2c" opacity="0.73" d=" M 116.97 318.02 C 117.00 316.18 117.85 314.10 119.85 313.74 C 119.69 315.17 118.61 318.00 116.97 318.02 Z" />
<path fill="#303030" opacity="0.70" d=" M 53.41 315.79 L 54.04 315.97 C 54.03 317.15 53.44 317.95 52.26 318.38 C 52.55 317.73 53.12 316.44 53.41 315.79 Z" />
<path fill="#2e2e2e" opacity="0.74" d=" M 50.23 321.43 C 49.93 319.74 50.55 318.93 52.09 319.00 C 51.96 320.18 51.34 321.00 50.23 321.43 Z" />
<path fill="#2a2a2a" opacity="0.75" d=" M 113.96 323.05 C 114.04 321.18 114.84 319.09 116.88 318.67 C 116.59 320.13 115.68 323.04 113.96 323.05 Z" />
<path fill="#2f2f2f" opacity="0.76" d=" M 47.24 325.39 C 46.96 323.77 47.56 322.95 49.04 322.95 C 49.05 324.15 48.45 324.96 47.24 325.39 Z" />
<path fill="#2d2d2d" opacity="0.69" d=" M 110.95 328.03 C 111.02 326.19 111.87 324.11 113.86 323.67 C 113.56 325.13 112.70 328.07 110.95 328.03 Z" />
<path fill="#2e2e2e" opacity="0.74" d=" M 45.15 328.35 C 44.99 326.72 45.64 325.93 47.08 325.96 C 47.00 327.27 46.35 328.07 45.15 328.35 Z" />
<path fill="#2d2d2d" opacity="0.70" d=" M 42.14 333.31 C 42.34 331.85 43.37 328.99 45.07 329.00 C 45.01 330.84 44.11 332.88 42.14 333.31 Z" />
<path fill="#2d2d2d" opacity="0.69" d=" M 107.98 333.12 C 108.04 331.24 108.80 329.09 110.86 328.65 C 110.58 330.13 109.66 332.99 107.98 333.12 Z" />
<path fill="#454545" opacity="0.65" d=" M 41.35 334.80 C 41.43 334.65 41.58 334.35 41.66 334.20 C 41.58 334.35 41.43 334.65 41.35 334.80 Z" />
<path fill="#444444" opacity="0.65" d=" M 107.37 334.83 C 107.45 334.67 107.61 334.34 107.69 334.18 C 107.61 334.34 107.45 334.67 107.37 334.83 Z" />
<path fill="#3e3e3e" opacity="1.00" d=" M 31.13 357.76 C 33.37 349.98 36.56 342.21 41.06 335.44 C 39.72 339.13 37.71 342.54 36.17 346.15 C 34.44 350.00 33.28 354.10 31.13 357.76 Z" />
<path fill="#454545" opacity="0.58" d=" M 106.35 336.79 C 106.44 336.62 106.60 336.29 106.69 336.13 C 106.60 336.29 106.44 336.62 106.35 336.79 Z" />
<path fill="#454545" opacity="0.64" d=" M 105.33 338.89 C 105.41 338.72 105.57 338.38 105.66 338.21 C 105.57 338.38 105.41 338.72 105.33 338.89 Z" />
<path fill="#434343" opacity="0.71" d=" M 104.38 340.85 C 104.46 340.69 104.62 340.37 104.70 340.22 C 104.62 340.37 104.46 340.69 104.38 340.85 Z" />
<path fill="#454545" opacity="0.65" d=" M 103.33 342.84 C 103.42 342.68 103.59 342.35 103.68 342.19 C 103.59 342.35 103.42 342.68 103.33 342.84 Z" />
<path fill="#464646" opacity="0.58" d=" M 102.32 344.86 C 102.40 344.69 102.57 344.35 102.65 344.18 C 102.57 344.35 102.40 344.69 102.32 344.86 Z" />
<path fill="#313131" opacity="0.65" d=" M 572.77 346.80 C 573.82 345.03 576.10 344.20 578.07 344.06 L 578.21 344.54 C 576.84 345.78 574.65 347.20 572.77 346.80 Z" />
<path fill="#444444" opacity="0.67" d=" M 101.37 346.79 C 101.45 346.64 101.61 346.34 101.69 346.19 C 101.61 346.34 101.45 346.64 101.37 346.79 Z" />
<path fill="#3e3e3e" opacity="1.00" d=" M 560.26 351.96 C 563.86 349.43 568.01 347.34 572.43 346.84 C 568.37 348.53 564.42 350.51 560.26 351.96 Z" />
<path fill="#2e2e2e" opacity="0.71" d=" M 98.93 350.12 C 98.96 348.92 99.55 348.08 100.72 347.60 C 101.03 349.25 100.44 350.09 98.93 350.12 Z" />
<path fill="#454545" opacity="0.63" d=" M 98.33 351.69 C 98.47 351.55 98.73 351.28 98.86 351.15 C 98.73 351.28 98.47 351.55 98.33 351.69 Z" />
<path fill="#444444" opacity="0.51" d=" M 559.22 352.60 C 559.34 352.53 559.59 352.39 559.71 352.32 C 559.59 352.39 559.34 352.53 559.22 352.60 Z" />
<path fill="#3e3e3e" opacity="1.00" d=" M 94.97 358.92 C 95.66 356.54 96.40 354.11 97.99 352.16 C 93.47 364.69 91.08 378.04 89.08 391.03 C 89.06 389.33 88.87 387.62 89.09 385.93 C 90.50 376.81 92.50 367.80 94.97 358.92 Z" />
<path fill="#333333" opacity="0.63" d=" M 550.67 355.64 C 553.15 354.25 555.85 353.32 558.64 352.78 C 556.45 354.39 553.40 355.71 550.67 355.64 Z" />
<path fill="#323232" opacity="0.66" d=" M 542.24 358.89 C 544.68 357.50 547.31 356.51 550.05 355.88 L 550.14 356.63 C 547.46 357.24 545.02 358.92 542.24 358.89 Z" />
<path fill="#3e3e3e" opacity="1.00" d=" M 25.27 375.57 C 26.37 369.46 28.46 363.35 31.13 357.77 C 29.59 363.81 27.54 369.76 25.27 375.57 Z" />
<path fill="#3e3e3e" opacity="1.00" d=" M 532.11 362.93 C 535.13 360.88 538.57 359.42 542.19 358.91 C 539.02 360.60 535.56 361.94 532.11 362.93 Z" />
<path fill="#343434" opacity="0.64" d=" M 527.82 364.81 C 528.47 363.27 530.33 362.78 531.86 362.93 C 531.87 364.47 529.08 365.33 527.82 364.81 Z" />
<path fill="#3e3e3e" opacity="1.00" d=" M 509.64 373.98 C 515.10 370.12 521.08 366.44 527.62 364.85 C 522.78 367.38 517.70 369.48 513.09 372.45 L 513.24 373.74 C 526.61 373.45 540.90 372.50 553.10 379.01 C 556.17 383.87 549.41 386.43 546.02 387.96 C 548.26 386.14 550.66 384.54 553.06 382.94 C 552.93 381.77 552.80 380.61 552.68 379.45 C 547.35 377.10 541.78 375.07 535.89 374.93 C 527.22 373.28 518.38 374.51 509.64 373.98 Z" />
<path fill="#343434" opacity="0.62" d=" M 24.41 375.84 L 25.21 375.74 C 24.41 379.45 23.38 383.10 22.16 386.70 C 21.71 382.96 23.79 379.48 24.41 375.84 Z" />
<path fill="#3e3e3e" opacity="1.00" d=" M 180.09 386.03 C 179.94 384.66 182.00 383.05 183.35 383.30 C 183.13 384.91 181.78 386.27 180.09 386.03 Z" />
<path fill="#3e3e3e" opacity="1.00" d=" M 21.81 386.37 L 22.10 386.98 C 21.48 392.68 19.72 398.18 18.77 403.84 C 17.84 407.53 17.74 411.48 16.08 414.96 C 17.44 405.34 19.67 395.84 21.81 386.37 Z" />
<path fill="#444444" opacity="0.51" d=" M 545.12 388.85 C 545.25 388.71 545.51 388.41 545.64 388.27 C 545.51 388.41 545.25 388.71 545.12 388.85 Z" />
<path fill="#3e3e3e" opacity="1.00" d=" M 539.54 391.55 C 540.10 389.70 542.02 388.86 543.85 388.94 C 543.61 390.51 541.07 391.88 539.54 391.55 Z" />
<path fill="#383838" opacity="1.00" d=" M 161.59 402.76 C 166.15 398.55 170.59 394.20 175.33 390.21 C 169.39 397.26 162.24 403.22 155.47 409.45 C 151.77 413.04 148.80 417.30 144.97 420.76 C 139.41 426.15 133.86 432.18 126.55 435.11 C 140.18 426.58 149.70 413.32 161.59 402.76 Z" />
<path fill="#3e3e3e" opacity="1.00" d=" M 87.89 409.00 C 88.29 403.32 87.14 397.23 88.74 391.83 C 89.78 394.79 88.56 397.96 88.55 401.01 C 88.36 408.56 87.71 416.32 90.29 423.57 C 90.95 427.23 93.89 429.91 94.73 433.46 C 89.12 426.73 87.33 417.57 87.89 409.00 Z" />
<path fill="#3e3e3e" opacity="1.00" d=" M 530.97 396.82 C 533.58 394.89 536.20 392.86 539.35 391.89 C 536.81 393.82 534.07 396.00 530.97 396.82 Z" />
<path fill="#3e3e3e" opacity="1.00" d=" M 524.15 401.75 C 526.04 399.63 528.38 398.01 530.95 396.83 C 530.28 397.94 529.04 398.64 528.86 400.03 C 533.26 399.86 539.35 396.59 542.46 401.23 C 543.62 405.14 539.52 407.46 537.04 409.65 C 530.80 414.93 523.55 418.96 517.96 424.98 C 511.97 430.14 506.54 435.95 502.19 442.57 L 502.03 441.77 C 507.14 432.90 515.27 426.53 522.61 419.62 C 528.64 414.99 535.12 410.85 540.59 405.56 C 542.49 404.08 542.44 400.61 539.81 400.00 C 534.54 398.81 529.40 401.50 524.15 401.75 Z" />
<path fill="#3b3b3b" opacity="0.45" d=" M 15.31 419.13 C 14.40 418.14 14.43 415.14 16.10 415.17 C 16.40 416.54 16.08 417.96 15.31 419.13 Z" />
<path fill="#3e3e3e" opacity="1.00" d=" M 12.93 434.96 C 13.47 429.82 13.31 424.50 15.20 419.61 C 14.93 423.74 13.77 427.79 14.00 431.97 C 14.20 441.96 13.34 452.04 14.99 461.96 C 16.11 470.79 18.12 479.53 21.06 487.94 C 21.58 489.44 21.85 491.00 22.12 492.57 C 14.61 474.44 12.52 454.45 12.93 434.96 Z" />
<path fill="#3e3e3e" opacity="1.00" d=" M 94.97 434.07 C 97.12 436.04 98.35 438.93 100.93 440.51 C 109.21 441.96 117.09 438.44 124.80 436.02 C 118.65 439.76 111.21 441.38 104.04 441.44 C 99.58 442.05 96.35 437.80 94.97 434.07 Z" />
<path fill="#434343" opacity="0.49" d=" M 125.28 435.70 C 125.40 435.64 125.63 435.50 125.75 435.43 C 125.63 435.50 125.40 435.64 125.28 435.70 Z" />
<path fill="#3e3e3e" opacity="1.00" d=" M 491.52 457.23 C 494.73 451.99 497.99 446.73 501.89 441.96 C 499.45 447.36 495.35 451.99 492.34 457.13 L 491.52 457.23 Z" />
<path fill="#3e3e3e" opacity="1.00" d=" M 488.86 461.76 C 488.99 460.03 489.74 457.69 491.81 457.60 C 491.62 459.03 490.51 461.67 488.86 461.76 Z" />
<path fill="#3e3e3e" opacity="1.00" d=" M 485.97 466.76 C 485.93 464.97 486.75 462.71 488.76 462.40 C 488.61 463.90 487.59 466.56 485.97 466.76 Z" />
<path fill="#3e3e3e" opacity="1.00" d=" M 480.53 476.45 C 482.14 473.21 483.56 469.81 485.95 467.04 C 484.41 471.25 481.84 475.02 480.02 479.14 C 478.54 481.74 477.88 484.85 475.87 487.13 C 476.81 483.32 478.86 479.95 480.53 476.45 Z" />
<path fill="#3e3e3e" opacity="1.00" d=" M 472.85 494.27 C 473.27 491.71 474.33 489.35 475.82 487.24 C 475.24 489.72 474.34 492.18 472.85 494.27 Z" />
<path fill="#404040" opacity="0.55" d=" M 22.21 492.97 C 22.42 493.44 22.82 494.39 23.03 494.86 L 22.17 494.76 C 22.18 494.31 22.20 493.42 22.21 492.97 Z" />
<path fill="#3e3e3e" opacity="1.00" d=" M 469.99 500.74 C 470.27 498.39 471.40 496.32 472.77 494.43 C 472.22 496.89 471.11 499.16 470.02 501.41 L 469.99 500.74 Z" />
<path fill="#303030" opacity="0.68" d=" M 23.02 495.14 C 25.40 499.01 26.99 503.34 28.25 507.69 C 25.74 503.96 24.00 499.54 23.02 495.14 Z" />
<path fill="#3e3e3e" opacity="1.00" d=" M 463.89 517.31 C 464.69 511.62 467.07 506.17 469.83 501.15 C 468.24 506.65 465.81 511.91 463.89 517.31 Z" />
<path fill="#464646" opacity="0.56" d=" M 28.43 508.30 C 28.49 508.46 28.60 508.77 28.65 508.93 C 28.60 508.77 28.49 508.46 28.43 508.30 Z" />
<path fill="#454545" opacity="0.61" d=" M 29.29 510.19 C 29.38 510.36 29.55 510.69 29.64 510.86 C 29.55 510.69 29.38 510.36 29.29 510.19 Z" />
<path fill="#464646" opacity="0.58" d=" M 30.29 512.15 C 30.38 512.31 30.54 512.64 30.62 512.80 C 30.54 512.64 30.38 512.31 30.29 512.15 Z" />
<path fill="#2d2d2d" opacity="0.35" d=" M 31.16 513.83 C 32.14 514.72 32.72 515.92 32.96 517.22 C 31.38 517.82 30.19 514.95 31.16 513.83 Z" />
<path fill="#454545" opacity="0.56" d=" M 33.27 518.13 C 33.37 518.26 33.55 518.52 33.64 518.65 C 33.55 518.52 33.37 518.26 33.27 518.13 Z" />
<path fill="#404040" opacity="0.54" d=" M 462.95 519.88 C 463.16 519.38 463.58 518.40 463.80 517.91 L 464.25 518.76 L 463.81 519.76 L 462.95 519.88 Z" />
<path fill="#3e3e3e" opacity="1.00" d=" M 33.97 519.07 C 36.84 522.41 38.65 526.46 41.18 530.04 L 40.42 530.21 C 38.07 526.64 35.57 523.06 33.97 519.07 Z" />
<path fill="#383838" opacity="0.59" d=" M 461.83 523.83 C 461.65 522.70 461.98 521.73 462.82 520.94 C 463.70 522.46 463.37 523.43 461.83 523.83 Z" />
<path fill="#454545" opacity="0.56" d=" M 461.30 525.71 C 461.45 525.57 461.76 525.30 461.91 525.16 C 461.76 525.30 461.45 525.57 461.30 525.71 Z" />
<path fill="#383838" opacity="1.00" d=" M 449.07 538.07 C 453.08 534.15 457.11 530.25 460.95 526.16 C 459.15 530.31 455.28 533.11 452.15 536.24 C 448.98 539.01 446.08 542.18 442.28 544.11 C 438.78 545.84 435.89 548.68 432.17 549.96 C 437.23 545.18 444.20 543.07 449.07 538.07 Z" />
<path fill="#3c3c3c" opacity="0.44" d=" M 43.02 532.11 C 44.11 532.69 44.43 533.58 43.96 534.77 C 42.55 534.38 42.24 533.49 43.02 532.11 Z" />
<path fill="#383838" opacity="1.00" d=" M 43.76 535.50 L 44.71 535.99 C 46.87 537.85 48.70 540.03 50.73 542.03 C 47.75 540.70 45.63 538.08 43.76 535.50 Z" />
<path fill="#454545" opacity="0.61" d=" M 51.25 542.39 C 51.39 542.47 51.68 542.63 51.83 542.71 C 51.68 542.63 51.39 542.47 51.25 542.39 Z" />
<path fill="#454545" opacity="0.65" d=" M 53.17 543.36 C 53.33 543.45 53.67 543.61 53.83 543.70 C 53.67 543.61 53.33 543.45 53.17 543.36 Z" />
<path fill="#444444" opacity="0.65" d=" M 55.13 544.36 C 55.29 544.45 55.62 544.62 55.79 544.71 C 55.62 544.62 55.29 544.45 55.13 544.36 Z" />
<path fill="#454545" opacity="0.65" d=" M 56.97 545.33 L 57.41 545.37 L 57.75 545.64 C 57.56 545.56 57.16 545.41 56.97 545.33 Z" />
<path fill="#303030" opacity="0.69" d=" M 58.37 545.85 C 61.98 546.87 65.71 547.92 68.83 550.10 C 65.19 549.28 61.38 548.03 58.37 545.85 Z" />
<path fill="#404040" opacity="0.59" d=" M 69.13 550.02 C 69.61 550.21 70.56 550.59 71.04 550.77 C 70.59 550.79 69.70 550.83 69.25 550.85 L 69.13 550.02 Z" />
<path fill="#2d2d2d" opacity="0.69" d=" M 428.69 551.81 C 429.39 550.58 430.70 550.05 432.06 549.99 C 432.50 551.45 429.80 552.53 428.69 551.81 Z" />
<path fill="#313131" opacity="0.50" d=" M 71.33 550.87 C 74.56 551.52 77.65 552.67 80.70 553.88 C 77.50 553.91 73.84 552.77 71.33 550.87 Z" />
<path fill="#464646" opacity="0.60" d=" M 427.14 552.70 C 427.30 552.61 427.62 552.44 427.78 552.35 C 427.62 552.44 427.30 552.61 427.14 552.70 Z" />
<path fill="#454545" opacity="0.58" d=" M 425.23 553.62 C 425.38 553.55 425.68 553.41 425.83 553.34 C 425.68 553.41 425.38 553.55 425.23 553.62 Z" />
<path fill="#3e3e3e" opacity="1.00" d=" M 80.72 553.89 C 84.92 554.48 88.88 556.04 92.95 557.15 C 96.92 558.39 101.05 559.14 104.86 560.88 C 99.44 560.23 94.32 558.09 89.04 556.78 C 86.26 555.83 83.24 555.47 80.72 553.89 Z" />
<path fill="#282828" opacity="0.59" d=" M 415.17 558.96 C 418.00 556.77 421.21 555.13 424.56 553.91 C 422.02 556.37 418.42 557.66 415.17 558.96 Z" />
<path fill="#3a3a3a" opacity="0.35" d=" M 414.08 559.62 C 414.20 559.56 414.43 559.43 414.55 559.36 C 414.43 559.43 414.20 559.56 414.08 559.62 Z" />
<path fill="#444444" opacity="0.65" d=" M 411.13 560.83 C 411.30 560.72 411.65 560.48 411.83 560.37 C 411.65 560.48 411.30 560.72 411.13 560.83 Z" />
<path fill="#414141" opacity="0.55" d=" M 105.18 560.95 C 105.67 561.17 106.66 561.62 107.15 561.84 C 106.68 561.83 105.75 561.81 105.28 561.80 L 105.18 560.95 Z" />
<path fill="#2d2d2d" opacity="0.60" d=" M 405.75 562.85 C 406.30 561.21 408.28 560.89 409.79 560.89 C 409.66 562.39 407.07 563.43 405.75 562.85 Z" />
<path fill="#3a3a3a" opacity="0.51" d=" M 108.16 561.84 C 109.37 561.57 110.32 561.91 111.01 562.83 C 109.52 563.65 108.57 563.32 108.16 561.84 Z" />
<path fill="#2d2d2d" opacity="0.69" d=" M 111.46 562.91 C 115.89 564.07 120.42 565.16 124.62 567.02 C 120.14 566.22 115.37 565.41 111.46 562.91 Z" />
<path fill="#303030" opacity="0.66" d=" M 396.26 565.95 C 399.21 564.71 402.21 563.55 405.37 562.94 C 402.71 564.72 399.48 565.98 396.26 565.95 Z" />
<path fill="#404040" opacity="0.59" d=" M 393.93 566.82 C 394.41 566.60 395.37 566.17 395.86 565.96 L 395.77 566.81 C 395.31 566.81 394.39 566.82 393.93 566.82 Z" />
<path fill="#464646" opacity="0.58" d=" M 125.25 567.32 C 125.40 567.47 125.71 567.75 125.86 567.89 C 125.71 567.75 125.40 567.47 125.25 567.32 Z" />
<path fill="#3e3e3e" opacity="1.00" d=" M 382.31 569.77 C 385.79 568.25 389.54 567.51 393.28 566.94 C 389.91 568.71 386.03 569.27 382.31 569.77 Z" />
<path fill="#383838" opacity="0.47" d=" M 127.23 567.91 C 127.72 568.15 128.70 568.62 129.19 568.86 C 128.73 568.84 127.81 568.80 127.34 568.78 L 127.23 567.91 Z" />
<path fill="#414141" opacity="0.60" d=" M 130.90 569.01 C 131.43 569.20 132.47 569.59 133.00 569.78 C 132.51 569.78 131.53 569.79 131.04 569.80 L 130.90 569.01 Z" />
<path fill="#313131" opacity="0.72" d=" M 134.42 569.97 C 137.28 570.02 140.07 570.70 142.69 571.85 C 139.92 571.86 136.84 571.26 134.42 569.97 Z" />
<path fill="#3e3e3e" opacity="1.00" d=" M 319.93 579.04 C 340.98 578.55 361.62 573.72 382.21 569.80 C 375.11 572.59 367.37 573.18 359.99 574.96 C 347.40 577.06 334.77 579.39 321.98 579.55 C 313.71 580.69 305.37 581.34 297.02 581.49 C 288.44 582.93 279.69 582.58 271.05 583.39 C 268.04 583.77 265.06 584.51 262.00 584.51 C 251.65 584.29 241.25 584.36 231.02 582.55 C 223.97 581.99 216.87 581.76 209.90 580.43 C 203.24 580.21 196.64 579.29 190.06 578.36 C 183.33 578.18 176.80 576.18 170.07 576.07 C 166.64 575.75 163.22 575.39 159.81 574.94 C 166.38 574.62 172.95 575.13 179.40 576.43 C 189.29 577.63 199.18 578.86 209.11 579.72 C 218.64 581.33 228.35 581.26 237.88 582.83 C 245.59 583.07 253.28 583.86 261.00 583.97 C 268.00 583.57 274.88 581.61 281.93 581.97 C 285.95 582.15 289.96 581.77 293.92 581.12 C 302.61 580.64 311.30 580.15 319.93 579.04 Z" />
<path fill="#303030" opacity="0.67" d=" M 142.75 571.86 C 146.74 572.16 150.65 572.98 154.51 573.97 C 150.57 573.99 146.34 573.44 142.75 571.86 Z" />
<path fill="#3c3c3c" opacity="0.62" d=" M 155.21 573.93 C 156.57 573.64 157.98 573.89 159.12 574.74 C 158.14 575.60 155.15 575.61 155.21 573.93 Z" />
</svg>
