<?xml version="1.0" encoding="UTF-8" ?>
<!DOCTYPE svg PUBLIC "-//W3C//DTD SVG 1.1//EN" "http://www.w3.org/Graphics/SVG/1.1/DTD/svg11.dtd">
<svg width="591pt" height="591pt" viewBox="0 0 591 591" version="1.1" xmlns="http://www.w3.org/2000/svg">
<path fill="#5d5656" opacity="1.00" d=" M 59.58 86.10 C 68.95 80.44 80.17 79.08 90.91 78.69 C 94.76 78.71 98.70 78.24 102.49 79.22 C 92.81 78.98 83.05 79.43 73.55 81.35 C 68.67 82.26 64.30 84.70 59.58 86.10 Z" />
<path fill="#000000" opacity="1.00" d=" M 73.55 81.35 C 83.05 79.43 92.81 78.98 102.49 79.22 C 114.30 80.31 125.15 85.60 135.37 91.29 C 143.76 96.07 149.75 103.80 156.42 110.57 C 162.69 116.84 168.17 123.82 173.55 130.85 C 176.70 134.71 179.73 138.73 181.81 143.28 C 185.65 151.30 189.42 159.42 194.08 166.99 L 194.44 167.55 C 194.47 167.60 194.53 167.71 194.56 167.76 L 195.40 169.38 C 195.42 169.42 195.45 169.48 195.46 169.51 L 195.73 170.23 C 196.65 173.40 198.16 176.33 199.84 179.16 L 200.01 179.96 C 200.38 182.89 201.03 185.82 202.41 188.47 C 202.50 188.65 202.68 189.01 202.77 189.19 L 203.11 190.05 C 203.62 193.70 204.83 197.20 205.79 200.74 L 205.73 201.35 C 205.50 202.42 205.78 203.37 206.56 204.18 L 206.84 204.62 C 207.20 208.40 207.85 212.14 208.70 215.84 L 208.71 216.39 C 208.45 217.60 208.82 218.49 209.80 219.07 L 209.65 220.28 C 209.37 221.66 209.56 223.27 210.65 224.27 L 210.55 225.26 C 210.23 226.98 210.62 228.75 211.53 230.25 L 211.73 230.68 C 212.99 235.82 213.44 241.17 215.17 246.19 C 216.05 248.65 219.03 249.00 221.18 249.74 C 228.08 251.36 234.94 253.43 242.05 253.94 L 242.86 254.21 C 247.99 256.22 253.61 255.98 258.99 256.77 C 270.42 257.73 281.52 260.77 292.76 262.88 L 293.35 263.11 C 298.69 265.66 304.82 266.61 309.51 270.44 C 313.87 273.49 316.89 277.98 318.89 282.85 C 320.86 281.69 322.80 280.48 324.58 279.04 L 325.32 278.72 C 329.07 277.16 332.77 275.45 336.16 273.20 L 336.95 272.88 C 340.66 271.89 344.32 270.66 347.80 269.01 L 348.21 269.13 C 348.68 268.94 349.63 268.55 350.10 268.35 L 351.27 268.26 C 351.76 268.05 352.72 267.62 353.21 267.41 L 353.39 267.23 C 374.26 262.23 396.17 261.12 417.33 265.06 L 417.47 265.08 C 423.17 267.41 429.14 269.11 435.21 270.11 L 435.52 270.21 C 438.89 271.80 442.39 273.13 446.05 273.91 L 446.82 274.22 C 450.32 276.12 454.09 277.61 457.98 278.50 C 461.77 277.23 465.26 275.12 469.19 274.24 C 475.56 272.29 482.26 273.33 488.79 272.86 L 488.95 273.31 C 489.20 273.58 489.71 274.11 489.96 274.37 L 490.68 274.10 L 491.03 273.97 C 494.92 276.38 499.87 277.60 502.46 281.68 C 505.11 285.26 504.63 291.17 500.61 293.58 C 496.96 295.74 492.71 296.46 488.68 297.60 C 492.42 300.52 496.60 302.79 500.61 305.32 C 503.42 307.03 505.63 310.03 509.03 310.59 C 512.99 310.54 516.83 308.70 520.84 309.60 C 530.11 310.13 539.58 311.99 547.19 317.64 C 560.70 325.53 571.38 339.07 573.63 354.79 C 575.15 362.32 573.81 370.06 571.47 377.27 C 569.55 382.90 565.52 387.40 562.63 392.50 C 560.90 395.50 562.27 399.03 562.97 402.14 C 568.14 419.63 567.26 438.16 565.08 456.06 L 564.81 456.85 C 563.14 460.69 562.36 464.83 560.93 468.76 C 557.21 479.21 551.72 489.05 544.62 497.58 C 534.58 509.52 523.86 521.07 511.26 530.36 C 507.51 533.27 503.32 535.59 499.79 538.78 L 499.05 539.13 C 493.88 541.48 488.82 544.08 483.84 546.79 L 483.05 547.09 C 480.14 547.62 477.34 548.60 474.66 549.84 L 473.96 550.10 C 468.03 551.27 462.08 553.16 455.97 552.42 C 449.61 552.27 443.16 552.91 436.97 551.00 L 436.79 550.93 C 431.98 548.91 426.99 547.36 422.00 545.92 C 416.97 546.04 412.02 547.58 406.96 547.01 C 390.78 545.37 375.38 538.50 362.71 528.40 C 358.41 524.89 352.77 523.91 347.48 522.92 L 347.23 522.62 C 346.33 521.14 344.52 520.84 342.95 520.75 C 338.68 520.07 335.11 517.28 331.19 515.61 C 325.83 513.28 321.88 508.86 317.05 505.73 C 305.36 498.12 296.26 487.25 288.25 475.99 C 283.13 468.85 278.80 461.16 274.87 453.32 C 273.85 450.96 272.33 448.70 272.21 446.07 C 272.14 444.50 271.98 442.62 270.46 441.77 L 270.08 441.48 C 268.20 434.25 265.40 427.26 264.06 419.88 C 259.65 400.50 261.08 380.45 263.49 360.90 C 255.87 360.95 248.01 361.74 240.75 358.90 L 240.52 358.80 C 238.44 357.64 236.25 356.70 233.95 356.08 L 233.18 355.77 C 229.12 352.32 223.24 351.49 219.97 347.08 C 216.43 342.36 212.93 337.46 210.97 331.85 C 208.15 323.45 205.82 314.84 204.89 306.01 C 203.76 297.34 202.06 288.74 201.91 279.97 C 200.25 275.37 197.75 270.97 194.90 266.98 L 194.55 266.49 C 194.53 266.46 194.49 266.39 194.47 266.36 L 194.22 265.81 C 191.88 257.80 189.58 249.77 188.46 241.48 C 183.12 218.74 180.47 194.94 169.92 173.79 C 165.24 165.39 160.09 157.23 154.90 149.14 C 150.46 143.33 147.13 136.66 141.84 131.51 C 133.73 123.34 125.81 114.22 114.76 110.01 C 108.54 105.97 101.13 104.80 93.99 103.37 C 88.66 102.34 83.33 104.02 77.97 103.93 C 69.09 103.82 60.46 106.77 52.60 110.70 L 52.04 110.99 C 37.55 117.92 31.06 134.32 28.94 149.33 C 28.27 152.87 27.75 156.44 27.23 160.01 C 25.53 168.09 27.49 176.30 27.29 184.43 L 25.96 184.62 C 24.71 182.41 23.87 180.01 23.05 177.62 L 22.99 177.33 C 22.32 167.35 21.33 157.31 22.33 147.32 C 23.30 141.55 24.93 135.92 26.20 130.21 C 27.15 125.90 29.37 122.06 30.88 117.95 L 31.23 117.17 C 33.84 113.97 35.66 110.25 37.14 106.42 C 39.84 101.01 44.68 97.15 49.03 93.12 C 50.84 91.60 52.57 89.74 54.93 89.13 C 56.66 88.74 58.67 88.24 59.40 86.41 L 59.58 86.10 C 64.30 84.70 68.67 82.26 73.55 81.35 M 88.03 85.32 C 76.50 85.25 64.87 88.72 55.60 95.64 C 49.65 100.66 43.88 106.11 39.97 112.92 C 46.62 105.29 56.69 102.75 65.87 99.61 C 70.43 98.09 75.31 98.79 80.01 98.28 C 85.69 97.69 91.53 96.84 97.15 98.34 C 101.23 99.47 105.53 99.72 109.50 101.26 C 116.56 104.46 124.26 106.61 130.24 111.79 C 137.36 117.96 144.15 124.55 150.29 131.70 C 154.70 138.06 159.41 144.26 162.87 151.21 C 167.56 159.18 173.04 166.74 176.82 175.22 C 183.00 188.43 185.76 202.84 189.15 216.92 C 190.93 228.54 194.39 239.87 195.64 251.57 C 199.24 264.50 205.87 277.00 216.18 285.81 C 223.50 293.69 233.29 298.55 241.49 305.37 C 245.99 308.67 250.92 311.32 255.68 314.22 C 261.94 318.23 269.74 318.92 275.88 323.18 C 277.67 324.41 278.11 326.99 277.02 328.84 C 275.30 332.02 273.78 335.33 273.18 338.93 C 270.13 353.80 267.49 368.86 267.13 384.07 C 264.27 417.31 276.60 450.37 296.21 476.83 C 305.08 488.93 316.45 499.03 328.98 507.20 C 336.47 510.99 343.51 515.93 351.76 518.00 C 346.92 511.24 343.50 503.36 342.87 495.00 C 341.56 486.54 343.92 478.20 346.11 470.12 C 348.83 462.01 354.53 455.42 360.07 449.09 C 370.87 437.78 384.86 429.53 400.08 425.81 C 407.82 423.12 416.08 424.90 423.94 426.01 C 430.96 427.15 437.00 431.00 442.97 434.61 C 444.50 430.24 446.04 425.71 449.36 422.33 C 455.17 415.91 460.52 408.38 468.77 404.93 C 469.55 404.43 471.90 403.69 470.54 402.49 C 465.17 396.96 460.61 390.49 458.34 383.05 C 454.83 371.36 456.45 358.54 461.35 347.50 C 469.85 331.92 484.08 319.60 500.64 313.22 C 500.67 313.00 500.73 312.57 500.76 312.35 C 497.13 308.80 492.21 306.96 488.33 303.69 C 484.94 301.62 480.55 297.78 476.59 300.67 C 466.52 307.55 461.57 319.17 457.32 330.14 C 455.01 335.11 452.92 341.74 446.99 343.27 C 443.88 342.45 441.47 339.89 440.47 336.89 C 437.99 330.24 437.49 323.00 437.83 315.97 C 438.97 303.68 443.20 291.21 452.07 282.31 C 444.73 279.92 437.74 276.48 430.19 274.71 C 423.42 273.13 416.92 270.46 410.03 269.36 C 394.76 267.50 379.18 267.76 364.04 270.57 C 356.82 272.14 349.76 274.40 342.80 276.86 C 329.62 282.48 316.79 289.45 306.00 298.98 C 302.30 302.08 299.56 306.35 295.14 308.54 C 284.14 305.92 274.02 300.58 262.99 298.11 C 257.82 296.59 253.38 293.36 248.38 291.39 C 238.29 286.12 228.67 279.31 221.90 270.02 C 219.33 265.95 216.10 262.28 214.08 257.88 C 211.48 251.74 208.85 245.49 208.14 238.80 C 206.59 227.87 202.82 217.45 201.17 206.55 C 199.00 195.36 196.45 184.03 190.92 173.95 C 186.11 165.03 182.42 155.53 176.97 146.96 C 172.45 138.50 165.74 131.54 160.28 123.71 C 157.95 120.42 154.65 118.01 152.03 114.97 C 148.33 110.69 144.15 106.86 140.28 102.74 C 135.39 97.53 128.71 94.68 122.42 91.58 C 116.59 88.65 110.30 86.60 103.86 85.56 C 98.60 85.00 93.30 85.35 88.03 85.32 M 220.01 255.24 C 222.93 260.11 225.46 265.37 229.67 269.29 C 235.92 275.47 242.95 280.99 250.81 284.96 C 257.85 287.95 264.44 291.87 271.77 294.17 C 279.31 296.16 286.10 300.50 293.90 301.56 C 296.72 300.09 298.52 297.11 300.95 295.06 C 304.48 291.49 308.82 288.88 312.60 285.61 C 313.28 282.27 310.88 279.49 308.73 277.28 C 305.13 273.37 300.02 271.53 295.07 270.02 C 284.36 266.24 273.07 264.61 261.92 262.73 C 247.72 261.75 233.77 258.80 220.01 255.24 M 208.24 287.01 C 208.28 293.10 210.02 298.99 210.50 305.03 C 211.31 313.54 213.64 321.82 216.30 329.91 C 217.99 334.75 221.03 338.96 224.04 343.05 C 226.21 346.06 229.95 347.10 233.05 348.86 C 239.94 352.15 247.11 356.13 255.01 355.55 C 258.10 355.48 262.14 356.17 264.00 352.98 C 266.24 344.50 266.36 335.29 270.66 327.44 C 265.51 324.47 259.44 323.70 254.31 320.68 C 247.43 316.72 240.44 312.83 234.32 307.72 C 225.35 301.18 215.68 295.39 208.24 287.01 M 512.45 315.63 C 511.58 321.72 511.33 327.88 511.24 334.04 C 509.30 358.08 508.57 382.21 506.17 406.22 C 505.76 406.34 504.95 406.57 504.54 406.69 C 502.80 402.27 504.26 397.55 504.38 393.00 C 505.01 375.31 506.31 357.65 506.89 339.95 C 507.59 332.34 507.77 324.70 507.71 317.06 C 502.39 319.11 497.08 321.27 492.16 324.17 C 490.17 325.49 488.21 326.85 486.26 328.23 C 481.09 332.36 476.28 336.96 472.23 342.20 C 470.60 344.32 468.91 346.44 467.73 348.86 C 462.08 358.53 461.27 370.59 464.01 381.32 C 466.72 390.39 473.30 397.83 480.87 403.29 C 492.82 412.16 507.55 417.94 522.56 417.55 C 522.68 405.69 522.74 393.84 522.80 381.98 C 523.73 362.93 523.53 343.84 523.78 324.77 C 524.21 324.57 525.06 324.19 525.49 323.99 C 526.78 333.94 527.36 343.97 527.31 354.01 C 527.24 368.34 527.35 382.68 527.12 397.01 C 526.36 403.57 526.88 410.20 526.59 416.80 C 532.06 415.72 536.84 412.61 540.99 409.00 C 550.85 399.94 558.89 389.03 565.32 377.32 C 565.89 375.52 566.44 373.73 566.95 371.93 C 570.78 359.93 567.29 346.66 560.31 336.53 C 553.85 329.33 546.49 322.74 537.80 318.35 C 529.85 315.01 520.93 313.31 512.45 315.63 M 545.27 413.31 C 538.66 419.31 530.06 423.36 521.05 423.60 C 513.84 424.23 506.87 421.87 500.01 420.02 C 496.00 419.05 492.32 415.57 488.03 416.72 C 479.23 419.75 470.51 424.31 464.78 431.87 C 461.23 436.23 457.72 441.27 457.34 447.02 C 460.56 451.91 463.83 456.81 466.31 462.14 C 467.60 466.02 468.48 470.04 469.29 474.05 C 470.93 484.79 468.78 496.10 463.23 505.45 C 459.12 511.56 455.29 517.89 450.48 523.50 C 444.44 530.57 438.35 537.93 430.10 542.53 C 438.28 545.92 447.18 547.67 456.05 547.08 C 470.51 546.48 484.47 541.22 496.74 533.73 C 513.80 523.34 528.24 509.17 540.79 493.74 C 553.21 478.66 560.19 459.42 561.30 439.99 C 561.45 426.91 561.68 413.49 557.21 401.01 C 552.97 404.85 549.57 409.53 545.27 413.31 M 476.29 408.20 C 470.67 409.93 465.36 413.00 461.50 417.52 C 456.17 423.57 449.54 429.46 448.37 437.90 C 448.85 439.79 450.88 440.72 452.24 441.96 C 457.15 428.00 469.04 417.24 482.85 412.35 C 481.11 410.48 478.81 408.68 476.29 408.20 M 395.07 433.94 C 375.60 440.76 358.63 455.57 350.83 474.84 C 350.53 476.25 350.18 477.64 349.80 479.04 C 349.04 487.79 348.33 497.01 351.84 505.31 C 353.96 509.90 356.45 514.45 360.06 518.06 C 371.03 529.38 385.57 536.97 400.94 540.22 C 402.65 540.38 404.37 540.54 406.09 540.76 C 408.27 541.76 410.70 541.43 413.01 541.24 C 415.27 540.57 417.66 540.55 419.93 539.90 C 420.92 539.53 421.91 539.18 422.91 538.83 C 429.50 535.96 435.12 531.15 439.70 525.67 C 446.79 518.37 452.73 509.99 457.83 501.20 C 461.02 496.00 461.96 489.90 463.30 484.06 C 463.35 482.03 463.40 479.99 462.84 478.03 C 462.62 475.35 462.50 472.66 462.02 470.01 C 460.57 466.12 459.04 462.24 457.25 458.49 C 453.98 452.13 448.08 447.79 443.01 442.95 C 437.59 438.37 431.32 434.79 424.60 432.48 C 422.73 441.38 420.44 450.19 418.68 459.11 C 414.21 479.68 410.58 500.47 404.29 520.59 C 403.89 521.50 403.44 522.39 402.94 523.26 C 402.08 519.82 403.39 516.44 404.01 513.10 C 409.57 485.95 415.20 458.81 420.70 431.65 C 412.18 429.25 403.15 430.65 395.07 433.94 Z" />
<path fill="#5d5656" opacity="1.00" d=" M 88.03 85.32 C 93.30 85.35 98.60 85.00 103.86 85.56 C 110.30 86.60 116.59 88.65 122.42 91.58 C 128.71 94.68 135.39 97.53 140.28 102.74 C 144.15 106.86 148.33 110.69 152.03 114.97 C 154.65 118.01 157.95 120.42 160.28 123.71 C 165.74 131.54 172.45 138.50 176.97 146.96 C 182.42 155.53 186.11 165.03 190.92 173.95 C 196.45 184.03 199.00 195.36 201.17 206.55 C 202.82 217.45 206.59 227.87 208.14 238.80 C 208.85 245.49 211.48 251.74 214.08 257.88 C 216.10 262.28 219.33 265.95 221.90 270.02 C 228.67 279.31 238.29 286.12 248.38 291.39 C 253.38 293.36 257.82 296.59 262.99 298.11 C 274.02 300.58 284.14 305.92 295.14 308.54 C 299.56 306.35 302.30 302.08 306.00 298.98 C 316.79 289.45 329.62 282.48 342.80 276.86 C 349.76 274.40 356.82 272.14 364.04 270.57 C 379.18 267.76 394.76 267.50 410.03 269.36 C 416.92 270.46 423.42 273.13 430.19 274.71 C 437.74 276.48 444.73 279.92 452.07 282.31 C 443.20 291.21 438.97 303.68 437.83 315.97 C 437.49 323.00 437.99 330.24 440.47 336.89 C 441.47 339.89 443.88 342.45 446.99 343.27 C 452.92 341.74 455.01 335.11 457.32 330.14 C 461.57 319.17 466.52 307.55 476.59 300.67 C 480.55 297.78 484.94 301.62 488.33 303.69 C 492.21 306.96 497.13 308.80 500.76 312.35 C 500.73 312.57 500.67 313.00 500.64 313.22 C 484.08 319.60 469.85 331.92 461.35 347.50 C 456.45 358.54 454.83 371.36 458.34 383.05 C 460.61 390.49 465.17 396.96 470.54 402.49 C 471.90 403.69 469.55 404.43 468.77 404.93 C 460.52 408.38 455.17 415.91 449.36 422.33 C 446.04 425.71 444.50 430.24 442.97 434.61 C 437.00 431.00 430.96 427.15 423.94 426.01 C 416.08 424.90 407.82 423.12 400.08 425.81 C 384.86 429.53 370.87 437.78 360.07 449.09 C 354.53 455.42 348.83 462.01 346.11 470.12 C 343.92 478.20 341.56 486.54 342.87 495.00 C 343.50 503.36 346.92 511.24 351.76 518.00 C 343.51 515.93 336.47 510.99 328.98 507.20 C 316.45 499.03 305.08 488.93 296.21 476.83 C 276.60 450.37 264.27 417.31 267.13 384.07 C 267.49 368.86 270.13 353.80 273.18 338.93 C 273.78 335.33 275.30 332.02 277.02 328.84 C 278.11 326.99 277.67 324.41 275.88 323.18 C 269.74 318.92 261.94 318.23 255.68 314.22 C 250.92 311.32 245.99 308.67 241.49 305.37 C 233.29 298.55 223.50 293.69 216.18 285.81 C 205.87 277.00 199.24 264.50 195.64 251.57 C 194.39 239.87 190.93 228.54 189.15 216.92 C 185.76 202.84 183.00 188.43 176.82 175.22 C 173.04 166.74 167.56 159.18 162.87 151.21 C 159.41 144.26 154.70 138.06 150.29 131.70 C 144.15 124.55 137.36 117.96 130.24 111.79 C 124.26 106.61 116.56 104.46 109.50 101.26 C 105.53 99.72 101.23 99.47 97.15 98.34 C 91.53 96.84 85.69 97.69 80.01 98.28 C 75.31 98.79 70.43 98.09 65.87 99.61 C 56.69 102.75 46.62 105.29 39.97 112.92 C 43.88 106.11 49.65 100.66 55.60 95.64 C 64.87 88.72 76.50 85.25 88.03 85.32 M 336.76 377.09 C 329.82 378.88 322.42 380.07 316.46 384.31 C 312.70 387.19 309.18 390.54 306.63 394.55 C 300.34 405.49 298.75 418.64 300.94 430.96 C 302.15 435.95 303.53 440.91 305.14 445.79 C 306.68 450.47 310.74 453.57 314.30 456.70 C 316.60 458.87 320.17 458.36 322.64 456.76 C 325.51 454.48 326.55 450.54 326.20 447.01 C 325.61 437.85 324.83 427.94 329.49 419.63 C 331.82 414.46 337.12 411.84 341.94 409.47 C 347.61 406.84 353.26 404.10 359.19 402.08 C 363.97 400.50 368.06 397.23 371.46 393.62 C 372.51 387.80 368.65 381.54 363.11 379.58 C 354.86 375.77 345.54 376.70 336.76 377.09 Z" />
<path fill="#5d5656" opacity="1.00" d=" M 54.93 89.13 C 55.01 87.41 57.77 85.93 59.40 86.41 C 58.67 88.24 56.66 88.74 54.93 89.13 Z" />
<path fill="#5d5656" opacity="1.00" d=" M 77.97 103.93 C 83.33 104.02 88.66 102.34 93.99 103.37 C 101.13 104.80 108.54 105.97 114.76 110.01 C 110.87 109.21 107.60 106.68 103.64 106.09 C 98.42 105.21 93.24 103.14 87.87 103.87 C 82.63 104.48 77.33 104.31 72.10 105.01 C 65.25 105.50 59.18 109.06 52.60 110.70 C 60.46 106.77 69.09 103.82 77.97 103.93 Z" />
<path fill="#5d5656" opacity="1.00" d=" M 31.23 117.17 C 32.68 113.37 34.94 109.85 37.14 106.42 C 35.66 110.25 33.84 113.97 31.23 117.17 Z" />
<path fill="#5d5656" opacity="1.00" d=" M 28.94 149.33 C 31.06 134.32 37.55 117.92 52.04 110.99 C 49.58 113.22 46.67 114.89 44.25 117.16 C 39.98 121.15 36.85 126.20 34.38 131.45 C 31.91 137.19 31.11 143.48 28.94 149.33 Z" />
<path fill="#5d5656" opacity="1.00" d=" M 23.79 137.55 C 25.45 130.83 26.54 123.56 30.88 117.95 C 29.37 122.06 27.15 125.90 26.20 130.21 C 24.93 135.92 23.30 141.55 22.33 147.32 C 21.33 157.31 22.32 167.35 22.99 177.33 C 21.52 173.73 22.16 169.77 21.76 165.99 C 20.54 156.51 21.21 146.76 23.79 137.55 Z" />
<path fill="#5d5656" opacity="1.00" d=" M 181.81 143.28 C 186.58 150.79 190.45 158.88 194.08 166.99 C 189.42 159.42 185.65 151.30 181.81 143.28 Z" />
<path fill="#5d5656" opacity="1.00" d=" M 154.90 149.14 C 160.09 157.23 165.24 165.39 169.92 173.79 C 180.47 194.94 183.12 218.74 188.46 241.48 C 189.58 249.77 191.88 257.80 194.22 265.81 C 190.49 258.23 189.25 249.73 187.80 241.48 C 183.81 224.26 181.23 206.69 175.72 189.86 C 173.20 181.56 169.51 173.61 164.81 166.33 C 161.62 160.54 157.37 155.33 154.90 149.14 Z" />
<path fill="#5d5656" opacity="1.00" d=" M 27.29 184.43 C 27.49 176.30 25.53 168.09 27.23 160.01 C 26.93 168.27 27.92 176.48 27.90 184.73 C 27.09 185.13 26.28 185.54 25.47 185.95 C 24.38 183.26 23.32 180.52 23.05 177.62 C 23.87 180.01 24.71 182.41 25.96 184.62 L 27.29 184.43 Z" />
<path fill="#5d5656" opacity="1.00" d=" M 194.44 167.55 C 194.47 167.60 194.53 167.71 194.56 167.76 C 194.53 167.71 194.47 167.60 194.44 167.55 Z" />
<path fill="#5d5656" opacity="1.00" d=" M 195.40 169.38 C 195.42 169.42 195.45 169.48 195.46 169.51 C 195.45 169.48 195.42 169.42 195.40 169.38 Z" />
<path fill="#5d5656" opacity="1.00" d=" M 195.73 170.23 C 197.45 173.02 199.07 175.94 199.84 179.16 C 198.16 176.33 196.65 173.40 195.73 170.23 Z" />
<path fill="#5d5656" opacity="1.00" d=" M 200.01 179.96 C 201.41 182.85 202.42 186.00 202.77 189.19 C 202.68 189.01 202.50 188.65 202.41 188.47 C 201.03 185.82 200.38 182.89 200.01 179.96 Z" />
<path fill="#5d5656" opacity="1.00" d=" M 203.11 190.05 C 203.17 189.88 203.29 189.54 203.35 189.37 C 204.12 193.17 205.83 196.80 205.79 200.74 C 204.83 197.20 203.62 193.70 203.11 190.05 Z" />
<path fill="#5d5656" opacity="1.00" d=" M 205.73 201.35 C 207.31 201.78 207.58 202.72 206.56 204.18 C 205.78 203.37 205.50 202.42 205.73 201.35 Z" />
<path fill="#5d5656" opacity="1.00" d=" M 206.84 204.62 C 208.07 208.22 208.77 212.03 208.70 215.84 C 207.85 212.14 207.20 208.40 206.84 204.62 Z" />
<path fill="#5d5656" opacity="1.00" d=" M 208.71 216.39 C 210.23 216.73 210.59 217.62 209.80 219.07 C 208.82 218.49 208.45 217.60 208.71 216.39 Z" />
<path fill="#5d5656" opacity="1.00" d=" M 209.65 220.28 C 211.20 220.43 211.31 223.16 210.65 224.27 C 209.56 223.27 209.37 221.66 209.65 220.28 Z" />
<path fill="#5d5656" opacity="1.00" d=" M 210.55 225.26 C 212.24 225.77 212.29 228.86 211.53 230.25 C 210.62 228.75 210.23 226.98 210.55 225.26 Z" />
<path fill="#5d5656" opacity="1.00" d=" M 211.73 230.68 C 214.17 235.82 214.10 241.73 216.02 247.06 C 224.23 250.81 233.56 251.45 242.05 253.94 C 234.94 253.43 228.08 251.36 221.18 249.74 C 219.03 249.00 216.05 248.65 215.17 246.19 C 213.44 241.17 212.99 235.82 211.73 230.68 Z" />
<path fill="#5d5656" opacity="1.00" d=" M 242.86 254.21 C 249.92 255.17 257.01 255.94 264.10 256.69 C 272.66 257.87 281.09 259.76 289.52 261.61 C 290.61 261.90 291.96 261.94 292.76 262.88 C 281.52 260.77 270.42 257.73 258.99 256.77 C 253.61 255.98 247.99 256.22 242.86 254.21 Z" />
<path fill="#5d5656" opacity="1.00" d=" M 220.01 255.24 C 233.77 258.80 247.72 261.75 261.92 262.73 C 273.07 264.61 284.36 266.24 295.07 270.02 C 300.02 271.53 305.13 273.37 308.73 277.28 C 310.88 279.49 313.28 282.27 312.60 285.61 C 308.82 288.88 304.48 291.49 300.95 295.06 C 298.52 297.11 296.72 300.09 293.90 301.56 C 286.10 300.50 279.31 296.16 271.77 294.17 C 264.44 291.87 257.85 287.95 250.81 284.96 C 242.95 280.99 235.92 275.47 229.67 269.29 C 225.46 265.37 222.93 260.11 220.01 255.24 Z" />
<path fill="#5d5656" opacity="1.00" d=" M 353.39 267.23 C 362.85 263.68 373.08 262.98 383.08 262.20 C 388.71 261.64 394.40 261.81 400.03 262.42 C 405.84 262.79 411.87 262.69 417.33 265.06 C 396.17 261.12 374.26 262.23 353.39 267.23 Z" />
<path fill="#5d5656" opacity="1.00" d=" M 293.35 263.11 C 303.98 265.13 315.37 270.95 318.98 281.87 C 320.83 280.90 322.68 279.91 324.58 279.04 C 322.80 280.48 320.86 281.69 318.89 282.85 C 316.89 277.98 313.87 273.49 309.51 270.44 C 304.82 266.61 298.69 265.66 293.35 263.11 Z" />
<path fill="#5d5656" opacity="1.00" d=" M 417.47 265.08 C 423.49 266.31 429.40 268.16 435.21 270.11 C 429.14 269.11 423.17 267.41 417.47 265.08 Z" />
<path fill="#5d5656" opacity="1.00" d=" M 194.47 266.36 C 194.49 266.39 194.53 266.46 194.55 266.49 C 194.53 266.46 194.49 266.39 194.47 266.36 Z" />
<path fill="#5d5656" opacity="1.00" d=" M 351.42 267.37 L 352.41 266.94 L 353.21 267.41 C 352.72 267.62 351.76 268.05 351.27 268.26 L 351.42 267.37 Z" />
<path fill="#5d5656" opacity="1.00" d=" M 194.90 266.98 C 197.75 270.97 200.25 275.37 201.91 279.97 C 202.06 288.74 203.76 297.34 204.89 306.01 C 205.82 314.84 208.15 323.45 210.97 331.85 C 212.93 337.46 216.43 342.36 219.97 347.08 C 223.24 351.49 229.12 352.32 233.18 355.77 C 229.30 354.33 225.55 352.19 221.95 350.12 C 215.45 343.48 210.65 335.06 208.46 326.00 C 204.72 314.97 204.13 303.26 202.19 291.86 C 201.44 287.88 201.80 283.82 201.45 279.82 C 199.09 275.63 196.96 271.32 194.90 266.98 Z" />
<path fill="#5d5656" opacity="1.00" d=" M 348.39 268.29 C 348.82 268.30 349.68 268.33 350.10 268.35 C 349.63 268.55 348.68 268.94 348.21 269.13 L 348.39 268.29 Z" />
<path fill="#5d5656" opacity="1.00" d=" M 336.95 272.88 C 340.10 270.64 344.09 269.91 347.80 269.01 C 344.32 270.66 340.66 271.89 336.95 272.88 Z" />
<path fill="#5d5656" opacity="1.00" d=" M 435.52 270.21 C 439.10 271.09 442.97 271.83 446.05 273.91 C 442.39 273.13 438.89 271.80 435.52 270.21 Z" />
<path fill="#5d5656" opacity="1.00" d=" M 457.93 277.98 C 467.28 272.91 478.30 271.00 488.79 272.86 C 482.26 273.33 475.56 272.29 469.19 274.24 C 465.26 275.12 461.77 277.23 457.98 278.50 C 454.09 277.61 450.32 276.12 446.82 274.22 C 450.64 275.07 454.24 276.69 457.93 277.98 Z" />
<path fill="#5d5656" opacity="1.00" d=" M 324.50 279.05 C 328.08 276.59 332.05 274.56 336.16 273.20 C 332.77 275.45 329.07 277.16 325.32 278.72 L 324.50 279.05 Z" />
<path fill="#5d5656" opacity="1.00" d=" M 488.95 273.31 C 489.35 273.30 490.16 273.28 490.56 273.27 L 490.68 274.10 L 489.96 274.37 C 489.71 274.11 489.20 273.58 488.95 273.31 Z" />
<path fill="#5d5656" opacity="1.00" d=" M 491.03 273.97 C 495.66 275.38 500.66 277.37 503.27 281.72 C 505.94 285.51 505.09 291.57 501.07 294.11 C 497.89 296.06 494.14 296.73 490.64 297.88 C 494.50 301.62 499.78 303.28 503.78 306.83 C 505.55 308.19 507.39 310.23 509.86 309.85 C 513.25 309.40 516.61 308.35 520.07 308.77 C 527.55 309.63 535.41 310.05 542.14 313.79 C 556.84 321.52 570.12 334.40 573.58 351.15 C 576.21 360.78 574.89 371.23 570.91 380.30 C 568.67 385.55 564.41 389.70 562.31 394.99 C 562.62 400.48 565.03 405.64 565.78 411.09 C 568.14 425.67 567.87 440.64 565.60 455.21 C 565.47 455.43 565.21 455.85 565.08 456.06 C 567.26 438.16 568.14 419.63 562.97 402.14 C 562.27 399.03 560.90 395.50 562.63 392.50 C 565.52 387.40 569.55 382.90 571.47 377.27 C 573.81 370.06 575.15 362.32 573.63 354.79 C 571.38 339.07 560.70 325.53 547.19 317.64 C 539.58 311.99 530.11 310.13 520.84 309.60 C 516.83 308.70 512.99 310.54 509.03 310.59 C 505.63 310.03 503.42 307.03 500.61 305.32 C 496.60 302.79 492.42 300.52 488.68 297.60 C 492.71 296.46 496.96 295.74 500.61 293.58 C 504.63 291.17 505.11 285.26 502.46 281.68 C 499.87 277.60 494.92 276.38 491.03 273.97 Z" />
<path fill="#5d5656" opacity="1.00" d=" M 208.24 287.01 C 215.68 295.39 225.35 301.18 234.32 307.72 C 240.44 312.83 247.43 316.72 254.31 320.68 C 259.44 323.70 265.51 324.47 270.66 327.44 C 266.36 335.29 266.24 344.50 264.00 352.98 C 262.14 356.17 258.10 355.48 255.01 355.55 C 247.11 356.13 239.94 352.15 233.05 348.86 C 229.95 347.10 226.21 346.06 224.04 343.05 C 221.03 338.96 217.99 334.75 216.30 329.91 C 213.64 321.82 211.31 313.54 210.50 305.03 C 210.02 298.99 208.28 293.10 208.24 287.01 Z" />
<path fill="#bbd0d5" opacity="1.00" d=" M 512.45 315.63 C 520.93 313.31 529.85 315.01 537.80 318.35 C 546.49 322.74 553.85 329.33 560.31 336.53 C 567.29 346.66 570.78 359.93 566.95 371.93 C 566.44 373.73 565.89 375.52 565.32 377.32 C 558.89 389.03 550.85 399.94 540.99 409.00 C 536.84 412.61 532.06 415.72 526.59 416.80 C 526.88 410.20 526.36 403.57 527.12 397.01 C 527.35 382.68 527.24 368.34 527.31 354.01 C 527.36 343.97 526.78 333.94 525.49 323.99 C 525.06 324.19 524.21 324.57 523.78 324.77 C 523.53 343.84 523.73 362.93 522.80 381.98 C 522.74 393.84 522.68 405.69 522.56 417.55 C 507.55 417.94 492.82 412.16 480.87 403.29 C 473.30 397.83 466.72 390.39 464.01 381.32 C 461.27 370.59 462.08 358.53 467.73 348.86 C 468.91 346.44 470.60 344.32 472.23 342.20 C 476.28 336.96 481.09 332.36 486.26 328.23 C 488.21 326.85 490.17 325.49 492.16 324.17 C 497.08 321.27 502.39 319.11 507.71 317.06 C 507.77 324.70 507.59 332.34 506.89 339.95 C 506.31 357.65 505.01 375.31 504.38 393.00 C 504.26 397.55 502.80 402.27 504.54 406.69 C 504.95 406.57 505.76 406.34 506.17 406.22 C 508.57 382.21 509.30 358.08 511.24 334.04 C 511.33 327.88 511.58 321.72 512.45 315.63 Z" />
<path fill="#5d5656" opacity="1.00" d=" M 233.95 356.08 C 236.25 356.70 238.44 357.64 240.52 358.80 C 238.25 358.21 235.68 357.80 233.95 356.08 Z" />
<path fill="#5d5656" opacity="1.00" d=" M 240.75 358.90 C 248.01 361.74 255.87 360.95 263.49 360.90 C 261.08 380.45 259.65 400.50 264.06 419.88 C 265.40 427.26 268.20 434.25 270.08 441.48 C 263.57 426.27 260.54 409.51 260.83 392.97 C 260.27 382.42 261.50 371.89 262.92 361.46 C 255.56 361.46 247.37 362.91 240.75 358.90 Z" />
<path fill="#000000" opacity="1.00" d=" M 336.76 377.09 C 345.54 376.70 354.86 375.77 363.11 379.58 C 368.65 381.54 372.51 387.80 371.46 393.62 C 368.06 397.23 363.97 400.50 359.19 402.08 C 353.26 404.10 347.61 406.84 341.94 409.47 C 337.12 411.84 331.82 414.46 329.49 419.63 C 324.83 427.94 325.61 437.85 326.20 447.01 C 326.55 450.54 325.51 454.48 322.64 456.76 C 320.17 458.36 316.60 458.87 314.30 456.70 C 310.74 453.57 306.68 450.47 305.14 445.79 C 303.53 440.91 302.15 435.95 300.94 430.96 C 298.75 418.64 300.34 405.49 306.63 394.55 C 309.18 390.54 312.70 387.19 316.46 384.31 C 322.42 380.07 329.82 378.88 336.76 377.09 Z" />
<path fill="#5d5656" opacity="1.00" d=" M 545.27 413.31 C 549.57 409.53 552.97 404.85 557.21 401.01 C 561.68 413.49 561.45 426.91 561.30 439.99 C 560.19 459.42 553.21 478.66 540.79 493.74 C 528.24 509.17 513.80 523.34 496.74 533.73 C 484.47 541.22 470.51 546.48 456.05 547.08 C 447.18 547.67 438.28 545.92 430.10 542.53 C 438.35 537.93 444.44 530.57 450.48 523.50 C 455.29 517.89 459.12 511.56 463.23 505.45 C 468.78 496.10 470.93 484.79 469.29 474.05 C 468.48 470.04 467.60 466.02 466.31 462.14 C 463.83 456.81 460.56 451.91 457.34 447.02 C 457.72 441.27 461.23 436.23 464.78 431.87 C 470.51 424.31 479.23 419.75 488.03 416.72 C 492.32 415.57 496.00 419.05 500.01 420.02 C 506.87 421.87 513.84 424.23 521.05 423.60 C 530.06 423.36 538.66 419.31 545.27 413.31 M 527.45 457.64 C 525.79 465.40 521.19 472.15 516.04 478.04 C 512.05 482.13 507.84 486.50 502.19 488.18 C 497.56 489.48 492.65 489.85 487.90 489.06 C 485.64 488.71 483.35 488.23 481.07 488.64 C 482.64 491.06 485.23 492.46 488.02 492.95 C 495.49 494.19 503.83 494.77 510.41 490.29 C 521.22 483.38 529.34 472.23 532.93 459.94 C 533.57 457.09 535.06 452.40 530.97 451.59 C 528.06 452.17 528.08 455.35 527.45 457.64 Z" />
<path fill="#83673a" opacity="1.00" d=" M 476.29 408.20 C 478.81 408.68 481.11 410.48 482.85 412.35 C 469.04 417.24 457.15 428.00 452.24 441.96 C 450.88 440.72 448.85 439.79 448.37 437.90 C 449.54 429.46 456.17 423.57 461.50 417.52 C 465.36 413.00 470.67 409.93 476.29 408.20 Z" />
<path fill="#bbd0d5" opacity="1.00" d=" M 395.07 433.94 C 403.15 430.65 412.18 429.25 420.70 431.65 C 415.20 458.81 409.57 485.95 404.01 513.10 C 403.39 516.44 402.08 519.82 402.94 523.26 C 403.44 522.39 403.89 521.50 404.29 520.59 C 410.58 500.47 414.21 479.68 418.68 459.11 C 420.44 450.19 422.73 441.38 424.60 432.48 C 431.32 434.79 437.59 438.37 443.01 442.95 C 448.08 447.79 453.98 452.13 457.25 458.49 C 459.04 462.24 460.57 466.12 462.02 470.01 C 462.50 472.66 462.62 475.35 462.84 478.03 C 463.40 479.99 463.35 482.03 463.30 484.06 C 461.96 489.90 461.02 496.00 457.83 501.20 C 452.73 509.99 446.79 518.37 439.70 525.67 C 435.12 531.15 429.50 535.96 422.91 538.83 C 421.91 539.18 420.92 539.53 419.93 539.90 C 417.66 540.55 415.27 540.57 413.01 541.24 C 410.70 541.43 408.27 541.76 406.09 540.76 C 404.37 540.54 402.65 540.38 400.94 540.22 C 385.57 536.97 371.03 529.38 360.06 518.06 C 356.45 514.45 353.96 509.90 351.84 505.31 C 348.33 497.01 349.04 487.79 349.80 479.04 C 350.18 477.64 350.53 476.25 350.83 474.84 C 358.63 455.57 375.60 440.76 395.07 433.94 M 400.26 436.94 C 396.46 454.58 392.96 472.29 389.78 490.05 C 388.12 502.75 386.43 515.46 384.81 528.17 C 386.34 525.36 386.87 522.18 387.50 519.09 C 392.39 496.96 395.96 474.58 399.41 452.19 C 400.09 446.38 401.57 440.65 401.66 434.79 C 400.98 435.38 400.51 436.09 400.26 436.94 Z" />
<path fill="#000000" opacity="1.00" d=" M 400.26 436.94 C 400.51 436.09 400.98 435.38 401.66 434.79 C 401.57 440.65 400.09 446.38 399.41 452.19 C 395.96 474.58 392.39 496.96 387.50 519.09 C 386.87 522.18 386.34 525.36 384.81 528.17 C 386.43 515.46 388.12 502.75 389.78 490.05 C 392.96 472.29 396.46 454.58 400.26 436.94 Z" />
<path fill="#5d5656" opacity="1.00" d=" M 270.46 441.77 C 271.98 442.62 272.14 444.50 272.21 446.07 C 270.58 445.95 269.83 443.11 270.46 441.77 Z" />
<path fill="#000000" opacity="1.00" d=" M 527.45 457.64 C 528.08 455.35 528.06 452.17 530.97 451.59 C 535.06 452.40 533.57 457.09 532.93 459.94 C 529.34 472.23 521.22 483.38 510.41 490.29 C 503.83 494.77 495.49 494.19 488.02 492.95 C 485.23 492.46 482.64 491.06 481.07 488.64 C 483.35 488.23 485.64 488.71 487.90 489.06 C 492.65 489.85 497.56 489.48 502.19 488.18 C 507.84 486.50 512.05 482.13 516.04 478.04 C 521.19 472.15 525.79 465.40 527.45 457.64 Z" />
<path fill="#5d5656" opacity="1.00" d=" M 560.93 468.76 C 562.36 464.83 563.14 460.69 564.81 456.85 C 561.51 474.54 552.27 490.80 540.09 503.91 C 528.47 517.38 515.12 529.84 499.79 538.78 C 503.32 535.59 507.51 533.27 511.26 530.36 C 523.86 521.07 534.58 509.52 544.62 497.58 C 551.72 489.05 557.21 479.21 560.93 468.76 Z" />
<path fill="#5d5656" opacity="1.00" d=" M 342.95 520.75 C 344.52 520.84 346.33 521.14 347.23 522.62 C 345.85 523.22 343.00 522.40 342.95 520.75 Z" />
<path fill="#5d5656" opacity="1.00" d=" M 347.48 522.92 C 352.77 523.91 358.41 524.89 362.71 528.40 C 375.38 538.50 390.78 545.37 406.96 547.01 C 412.02 547.58 416.97 546.04 422.00 545.92 C 426.99 547.36 431.98 548.91 436.79 550.93 C 431.75 549.88 426.82 548.30 422.04 546.41 C 417.01 547.44 411.85 548.38 406.70 548.08 C 398.02 546.33 389.11 544.79 381.15 540.71 C 374.18 537.39 367.55 533.34 361.56 528.47 C 357.62 524.97 352.00 525.23 347.48 522.92 Z" />
<path fill="#5d5656" opacity="1.00" d=" M 483.84 546.79 C 488.82 544.08 493.88 541.48 499.05 539.13 C 494.51 542.47 489.20 545.13 483.84 546.79 Z" />
<path fill="#5d5656" opacity="1.00" d=" M 474.66 549.84 C 477.34 548.60 480.14 547.62 483.05 547.09 C 480.70 548.93 477.50 549.23 474.66 549.84 Z" />
<path fill="#bbd0d5" opacity="1.00" d=" M 455.97 552.42 C 462.08 553.16 468.03 551.27 473.96 550.10 C 462.06 553.79 448.93 555.22 436.97 551.00 C 443.16 552.91 449.61 552.27 455.97 552.42 Z" />
</svg>
