<?xml version="1.0" encoding="UTF-8" ?>
<!DOCTYPE svg PUBLIC "-//W3C//DTD SVG 1.1//EN" "http://www.w3.org/Graphics/SVG/1.1/DTD/svg11.dtd">
<svg width="591pt" height="591pt" viewBox="0 0 591 591" version="1.1" xmlns="http://www.w3.org/2000/svg">
<path fill="#000000" opacity="1.00" d=" M 308.62 15.63 C 309.18 14.04 310.69 13.30 312.15 12.72 C 311.51 16.15 310.71 19.56 309.62 22.88 C 309.46 23.39 309.13 24.40 308.96 24.90 C 308.94 27.62 308.39 30.31 307.70 32.92 C 307.52 33.42 307.17 34.42 307.00 34.92 C 307.22 36.66 306.96 38.42 306.56 40.11 C 306.03 41.92 305.77 43.80 305.98 45.68 C 306.08 48.00 306.09 50.34 305.80 52.65 C 304.63 60.19 304.44 67.93 305.78 75.45 C 306.38 79.55 307.17 83.62 308.28 87.61 C 308.98 87.73 310.39 87.97 311.09 88.10 C 311.58 87.92 312.57 87.56 313.06 87.38 C 316.29 86.10 319.74 85.19 323.22 85.01 C 323.70 84.78 324.68 84.33 325.16 84.10 C 325.69 84.13 326.74 84.20 327.26 84.24 C 328.28 84.46 329.16 84.19 329.90 83.40 C 334.94 82.11 340.20 82.24 345.31 81.35 C 346.64 77.97 345.44 73.96 346.25 70.37 C 346.94 66.71 347.42 62.98 346.99 59.26 L 345.99 59.14 C 344.37 58.96 342.74 58.82 341.13 58.67 C 341.02 58.03 340.82 56.77 340.72 56.13 C 343.33 54.42 347.31 53.65 348.05 50.12 C 349.62 45.19 350.96 40.14 353.55 35.62 C 356.69 29.97 359.55 23.85 364.43 19.48 C 364.84 19.39 365.66 19.20 366.07 19.11 C 366.03 19.74 365.95 20.99 365.91 21.61 C 366.03 24.13 365.44 26.63 364.63 28.99 C 363.93 29.82 363.71 30.75 363.95 31.79 C 364.06 33.53 364.29 35.37 363.69 37.05 C 362.94 37.83 362.68 38.75 362.92 39.79 C 363.21 42.61 363.20 45.51 362.44 48.26 C 361.42 50.15 362.56 52.15 364.74 52.18 L 365.76 52.49 C 367.05 53.26 368.62 53.24 369.89 52.42 C 373.15 51.50 376.70 51.78 380.03 52.27 C 380.48 52.49 381.37 52.94 381.82 53.16 C 383.20 52.90 384.59 52.90 385.98 53.15 C 386.47 53.35 387.45 53.76 387.94 53.97 C 388.69 54.01 390.20 54.09 390.96 54.13 C 391.45 54.35 392.44 54.78 392.93 55.00 C 393.73 55.13 395.34 55.41 396.15 55.55 C 397.70 56.46 399.38 55.18 399.00 53.43 C 399.09 50.61 399.38 47.77 400.25 45.08 C 400.44 44.58 400.83 43.60 401.02 43.10 C 401.85 35.16 405.19 27.71 407.49 20.10 L 408.35 20.20 C 408.75 20.13 409.55 20.00 409.95 19.93 C 409.91 22.35 409.65 24.81 408.66 27.04 C 407.98 27.88 407.73 28.83 407.94 29.89 C 407.89 30.41 407.80 31.46 407.75 31.98 C 407.00 32.79 406.72 33.72 406.90 34.80 C 406.86 38.54 406.20 42.24 405.71 45.94 C 405.53 46.44 405.15 47.43 404.96 47.92 C 404.92 51.18 403.99 54.36 404.03 57.63 C 415.29 61.28 426.44 65.85 436.03 72.90 C 440.52 76.45 445.24 80.16 447.94 85.32 L 447.85 86.24 L 447.66 87.09 C 438.50 80.86 429.78 73.69 419.34 69.65 C 414.05 67.66 408.96 64.22 403.17 64.24 C 402.80 64.35 402.08 64.57 401.72 64.67 L 401.82 65.48 C 402.03 67.69 402.30 70.04 401.60 72.19 C 400.99 73.58 400.35 75.05 400.71 76.60 C 401.15 80.59 400.93 84.62 401.18 88.62 C 416.48 94.58 430.22 104.04 442.06 115.32 C 442.32 115.60 442.86 116.16 443.12 116.43 C 443.29 116.09 443.62 115.41 443.79 115.07 C 450.21 96.50 461.81 79.47 477.64 67.68 C 479.13 66.34 481.06 65.85 483.03 65.80 C 477.03 72.89 471.22 80.15 465.26 87.28 C 459.91 94.21 454.65 101.47 451.86 109.86 C 451.21 111.60 450.60 113.37 449.69 115.00 C 449.51 115.51 449.16 116.53 448.99 117.04 L 448.63 117.91 C 448.48 118.41 448.18 119.42 448.04 119.92 C 449.48 124.62 453.14 128.07 456.27 131.69 C 457.30 132.96 459.02 134.29 458.10 136.14 C 456.75 136.63 455.56 136.41 454.53 135.49 C 451.49 133.13 449.04 130.13 446.04 127.72 C 444.15 132.93 443.70 138.49 442.67 143.89 C 442.50 144.39 442.15 145.39 441.97 145.89 C 442.15 147.91 442.14 149.96 441.78 151.97 C 441.57 152.45 441.17 153.42 440.97 153.90 C 441.10 155.93 441.24 158.04 440.66 160.02 C 439.95 160.82 439.71 161.74 439.95 162.78 C 440.12 164.56 440.08 166.39 439.56 168.11 C 439.05 169.58 438.75 171.13 438.97 172.68 C 439.07 174.64 439.05 176.62 438.76 178.57 C 437.56 185.20 437.98 191.96 438.08 198.66 C 437.54 198.18 436.46 197.22 435.92 196.73 C 435.93 196.34 435.94 195.57 435.95 195.18 C 436.01 182.42 436.12 169.65 435.91 156.89 C 435.91 154.24 435.78 151.57 436.27 148.96 C 436.49 148.52 436.94 147.64 437.17 147.20 C 436.88 145.13 436.73 142.99 437.25 140.96 C 437.48 140.52 437.96 139.64 438.20 139.20 C 437.84 136.45 438.50 133.70 439.25 131.07 C 439.46 130.58 439.88 129.60 440.09 129.12 C 440.19 126.79 440.75 124.52 441.04 122.22 C 429.60 110.91 416.40 101.27 401.60 94.83 C 401.18 94.62 400.33 94.20 399.91 94.00 C 399.89 97.14 400.10 100.29 400.68 103.39 C 401.22 107.29 400.99 111.25 401.30 115.18 C 401.17 120.87 401.00 126.59 401.70 132.25 C 401.86 133.62 401.87 134.99 401.76 136.37 C 401.46 137.60 402.01 138.76 402.57 139.81 C 403.06 141.23 403.18 142.69 402.94 144.21 C 402.71 145.27 402.96 146.20 403.70 147.01 C 403.79 147.78 403.95 149.32 404.03 150.09 C 403.80 150.62 403.35 151.69 403.12 152.23 C 402.02 149.24 401.00 146.12 401.04 142.90 C 400.82 142.42 400.37 141.45 400.14 140.97 C 400.10 140.21 400.01 138.70 399.97 137.94 C 399.77 137.45 399.37 136.47 399.17 135.97 C 398.88 134.63 398.81 133.28 398.96 131.92 C 398.76 131.44 398.36 130.46 398.16 129.97 C 397.90 128.59 397.85 127.20 398.03 125.81 C 398.26 124.76 398.02 123.83 397.30 123.03 C 396.61 121.38 396.97 119.52 397.16 117.80 C 396.93 117.36 396.47 116.48 396.24 116.04 C 395.87 114.10 395.94 112.12 395.93 110.17 C 396.02 106.96 395.73 103.75 395.25 100.58 C 394.67 97.55 395.80 93.84 393.18 91.57 C 392.68 91.41 391.68 91.09 391.18 90.93 C 387.71 90.67 384.32 89.63 381.01 88.62 C 380.16 87.97 379.22 87.76 378.18 87.98 C 377.38 87.92 375.79 87.80 374.99 87.74 C 374.21 86.96 373.29 86.68 372.24 86.87 C 369.76 87.05 367.28 87.05 364.80 87.14 C 364.67 88.94 364.92 90.73 365.62 92.40 C 370.21 105.46 374.96 118.49 380.86 131.03 C 384.61 137.62 388.74 143.98 392.36 150.65 C 398.14 162.63 404.13 174.66 407.34 187.64 C 408.64 193.82 410.91 199.91 410.92 206.29 C 410.75 207.86 411.07 209.41 411.61 210.89 C 412.02 212.32 412.15 213.78 412.00 215.27 C 411.75 217.49 411.95 219.73 412.57 221.88 C 413.15 224.53 413.37 227.37 412.66 230.01 C 411.96 230.82 411.73 231.75 411.96 232.79 C 412.08 234.18 412.06 235.58 411.87 236.97 C 411.65 237.45 411.21 238.40 410.98 238.88 C 409.63 249.88 404.13 259.85 399.99 270.00 C 398.59 273.73 396.57 277.17 394.54 280.57 C 392.74 283.44 392.43 286.87 391.51 290.06 C 391.02 291.20 390.68 292.43 390.90 293.69 C 390.96 300.79 391.41 307.97 390.71 315.04 C 390.00 315.83 389.74 316.75 389.92 317.80 C 389.51 327.06 385.17 335.64 380.49 343.44 C 376.01 350.66 369.03 355.93 361.40 359.47 C 359.66 360.17 357.86 361.04 355.94 360.97 C 355.45 361.16 354.46 361.54 353.97 361.73 C 352.33 362.05 350.67 362.20 349.02 362.41 C 347.36 362.12 347.39 364.04 348.42 364.78 C 349.70 367.76 350.87 371.01 350.75 374.30 C 350.55 375.31 350.85 376.18 351.64 376.89 C 352.45 378.95 351.86 381.25 351.74 383.41 C 351.36 384.94 352.02 386.40 352.59 387.80 C 353.30 390.72 353.05 393.78 353.14 396.78 C 352.93 401.92 352.92 407.07 353.14 412.21 C 353.09 414.17 353.17 416.19 352.66 418.10 C 351.84 418.80 351.55 419.67 351.77 420.69 C 352.12 422.84 351.52 425.02 350.69 427.00 C 350.01 427.79 349.75 428.71 349.91 429.75 C 349.87 430.92 349.50 432.01 348.83 433.00 C 348.61 433.47 348.16 434.42 347.93 434.90 C 344.65 446.57 335.95 455.45 329.19 465.17 C 322.94 472.22 317.09 479.76 309.55 485.52 C 301.59 491.63 293.32 497.28 285.30 503.30 C 276.74 508.69 269.34 516.22 259.86 519.97 C 259.37 520.15 258.38 520.52 257.88 520.70 C 254.69 522.46 251.33 524.05 247.78 524.95 C 247.31 525.19 246.35 525.68 245.87 525.92 L 244.98 525.98 C 244.47 526.15 243.44 526.49 242.93 526.66 C 234.16 529.03 225.38 531.71 216.23 532.09 C 208.87 532.02 201.51 532.09 194.15 531.96 L 194.08 532.78 C 193.88 536.25 194.15 539.74 193.89 543.22 C 193.69 544.26 193.96 545.17 194.71 545.96 C 194.81 546.64 195.02 547.99 195.13 548.67 C 195.04 553.22 195.05 557.77 195.12 562.32 C 195.06 562.74 194.95 563.57 194.89 563.99 C 194.65 564.45 194.17 565.38 193.94 565.85 C 193.35 569.86 191.22 573.56 188.82 576.79 C 186.93 578.96 184.82 581.58 181.78 581.97 C 181.30 582.20 180.35 582.68 179.87 582.91 L 178.98 582.95 C 178.49 583.17 177.51 583.60 177.02 583.82 C 168.11 585.44 159.10 582.32 151.99 577.00 C 144.84 572.55 138.85 565.78 136.05 557.85 C 135.82 557.38 135.36 556.44 135.13 555.97 C 135.07 555.55 134.96 554.72 134.90 554.30 C 134.89 550.77 134.90 547.25 134.90 543.73 C 135.55 536.14 139.28 528.99 144.83 523.83 C 148.50 520.14 152.75 517.07 156.26 513.22 C 147.30 510.13 139.34 504.95 132.21 498.79 C 127.98 493.68 125.26 487.54 122.13 481.73 C 120.31 477.96 118.32 474.06 118.01 469.83 C 117.79 469.34 117.33 468.38 117.10 467.90 C 117.07 467.40 117.02 466.42 116.99 465.93 C 116.81 465.43 116.43 464.43 116.24 463.93 C 115.61 462.30 115.09 460.59 115.04 458.84 C 114.84 458.35 114.43 457.38 114.22 456.89 C 113.51 454.54 113.02 452.08 113.24 449.62 C 113.51 448.38 112.95 447.24 112.42 446.17 C 111.77 444.26 111.94 442.20 111.87 440.22 C 112.11 434.73 112.01 429.24 111.89 423.75 C 111.99 420.49 112.56 417.26 113.27 414.08 C 113.46 413.59 113.84 412.60 114.04 412.11 C 114.71 405.81 116.67 399.69 118.73 393.72 C 122.33 385.24 125.38 376.54 129.14 368.13 C 130.14 366.14 131.11 363.93 133.03 362.65 C 133.62 362.44 134.80 362.02 135.39 361.81 C 135.97 362.86 136.54 363.92 137.13 364.97 C 134.88 370.10 132.30 375.08 130.36 380.34 C 127.34 388.35 123.56 396.11 121.49 404.45 C 119.00 414.45 116.62 424.67 117.17 435.05 C 117.59 442.90 118.49 450.77 120.64 458.35 C 122.79 465.94 124.28 473.83 128.16 480.80 C 131.03 485.85 133.19 491.50 137.46 495.59 C 143.95 501.24 151.56 505.68 159.86 508.05 C 171.29 511.23 183.28 511.03 195.04 510.76 C 208.10 510.43 220.85 506.49 232.26 500.24 C 235.01 498.83 237.95 496.53 241.17 498.00 C 239.72 500.79 237.63 503.23 234.96 504.93 C 226.70 510.40 217.17 513.85 207.39 515.38 C 201.69 516.19 196.16 520.04 194.94 525.91 C 209.89 528.68 225.19 525.67 239.64 521.68 C 246.41 519.99 252.66 516.84 258.97 513.94 C 266.86 510.24 273.40 504.37 280.55 499.51 C 296.73 487.75 314.71 476.99 325.16 459.30 C 337.40 448.12 344.67 432.29 347.14 416.06 C 348.98 403.09 347.31 390.02 345.67 377.14 C 344.93 372.01 343.33 367.06 341.80 362.13 C 339.65 355.56 337.88 348.74 333.99 342.92 C 333.59 340.48 333.50 338.02 333.43 335.56 C 346.09 327.49 357.77 317.97 368.68 307.68 C 377.32 298.93 383.66 288.30 389.73 277.71 C 394.08 270.32 396.82 262.17 400.49 254.46 C 405.48 243.78 407.67 231.69 406.09 219.97 C 404.74 210.21 404.40 200.21 401.31 190.77 C 398.30 181.52 395.99 172.00 391.94 163.13 C 389.40 157.19 385.89 151.75 382.99 146.00 C 379.37 138.69 374.77 131.87 371.77 124.25 C 368.05 115.02 363.00 106.27 360.56 96.56 C 359.74 93.35 358.82 90.18 357.77 87.05 C 355.87 87.02 353.97 87.00 352.07 86.98 C 350.48 111.25 358.21 135.18 369.50 156.39 C 374.03 165.33 379.84 173.77 382.43 183.57 C 386.11 196.02 385.16 209.20 383.87 221.94 C 382.86 235.79 379.86 249.81 373.03 262.02 C 370.54 267.23 368.96 272.88 365.69 277.70 C 357.52 290.15 347.71 302.19 334.46 309.47 C 330.83 311.48 327.27 314.05 323.08 314.68 C 320.26 314.02 318.36 311.54 316.18 309.81 C 313.31 307.04 309.68 305.32 306.06 303.76 C 289.69 294.65 270.71 290.35 252.01 290.92 C 232.39 290.66 212.76 297.21 197.24 309.21 C 190.46 314.56 183.39 319.69 177.56 326.10 C 181.80 329.58 186.81 332.40 189.74 337.21 C 193.28 342.36 194.74 348.61 194.97 354.79 C 194.79 357.33 194.36 359.86 193.89 362.37 C 192.29 361.58 190.63 360.66 190.36 358.72 C 188.26 351.10 185.87 342.67 178.97 337.96 C 174.01 334.24 167.25 334.62 161.72 336.75 C 155.84 339.02 150.35 342.42 145.84 346.84 C 141.52 351.06 138.64 356.43 135.09 361.25 C 134.62 361.24 133.68 361.22 133.21 361.21 C 130.94 359.00 131.95 355.55 133.16 353.08 C 137.61 343.58 144.83 335.21 153.93 329.91 C 156.51 328.67 159.22 326.96 162.19 327.23 C 162.64 327.01 163.53 326.57 163.98 326.35 C 166.41 325.65 169.50 326.48 171.25 324.23 C 178.32 316.58 186.49 310.03 194.81 303.80 C 203.91 297.14 214.10 291.51 225.15 289.04 C 225.64 288.84 226.62 288.46 227.12 288.27 C 231.70 287.04 236.41 285.65 241.20 286.04 C 242.24 286.27 243.17 286.03 243.98 285.31 C 251.27 284.65 258.72 284.82 266.04 285.24 C 266.48 285.47 267.36 285.93 267.80 286.16 C 269.53 285.93 271.32 285.77 273.03 286.24 C 273.48 286.47 274.37 286.94 274.81 287.18 C 275.60 287.16 277.17 287.13 277.95 287.11 C 278.44 287.34 279.42 287.78 279.91 288.01 C 280.41 288.03 281.41 288.09 281.91 288.11 C 282.39 288.34 283.36 288.80 283.84 289.03 C 285.62 289.03 287.38 289.55 289.01 290.24 C 289.51 290.44 290.50 290.84 290.99 291.04 L 291.88 291.08 C 292.35 291.32 293.31 291.80 293.79 292.04 C 296.80 292.59 299.58 294.00 302.50 294.94 C 303.58 291.01 305.26 287.12 308.27 284.27 C 312.85 279.91 318.93 277.70 324.84 275.81 C 328.21 274.76 331.49 273.02 335.09 273.02 C 335.58 272.83 336.57 272.45 337.06 272.26 C 347.30 269.80 357.83 267.30 366.96 261.91 C 371.94 254.10 373.60 244.82 376.31 236.11 C 376.49 235.62 376.85 234.63 377.03 234.13 C 376.89 231.73 376.68 229.22 377.36 226.89 C 378.17 226.17 378.46 225.29 378.23 224.27 C 378.27 223.42 378.34 221.71 378.38 220.86 C 378.88 219.76 379.54 218.61 379.20 217.37 C 378.78 209.17 378.80 200.89 379.24 192.69 C 379.46 191.68 379.19 190.82 378.42 190.09 C 377.30 186.32 377.07 182.27 375.27 178.72 C 369.20 167.97 362.64 157.36 358.07 145.86 C 357.87 145.37 357.45 144.40 357.25 143.92 C 354.69 138.12 352.16 132.12 351.04 125.87 C 350.85 125.38 350.45 124.41 350.26 123.92 C 348.94 119.70 347.77 115.26 348.05 110.81 C 348.27 109.76 348.03 108.84 347.31 108.03 C 346.71 106.33 346.97 104.48 347.03 102.72 C 347.27 101.47 346.95 100.22 346.41 99.10 C 345.54 95.24 346.23 91.20 345.65 87.29 C 345.14 87.17 344.12 86.92 343.61 86.80 C 342.42 86.28 341.24 87.01 340.20 87.53 C 336.47 88.26 332.67 88.86 328.87 88.97 C 328.39 89.20 327.42 89.65 326.94 89.88 C 326.18 89.92 324.65 90.00 323.88 90.04 C 323.38 90.24 322.39 90.65 321.90 90.86 C 321.41 90.90 320.45 90.98 319.96 91.01 C 319.44 91.16 318.41 91.45 317.90 91.60 C 315.50 92.33 313.07 92.99 310.78 94.00 C 311.49 100.20 314.45 105.78 316.51 111.58 C 321.41 124.89 330.61 135.88 338.57 147.41 C 341.29 151.35 344.71 154.70 347.81 158.32 C 347.94 158.77 348.21 159.68 348.35 160.14 C 343.67 160.22 341.23 155.62 338.05 152.94 C 326.26 142.01 318.34 127.75 311.75 113.27 C 310.44 110.19 308.67 107.23 308.06 103.91 C 307.86 103.43 307.46 102.45 307.27 101.96 C 306.28 100.24 305.63 98.36 304.89 96.53 C 303.88 96.64 302.88 96.71 301.87 96.75 C 301.40 96.99 300.47 97.47 300.00 97.71 C 297.15 99.45 294.00 100.59 291.08 102.18 C 274.84 110.81 261.37 123.63 248.89 136.93 C 245.37 140.59 243.17 145.58 238.69 148.25 C 241.10 139.85 247.16 133.19 252.32 126.34 C 265.14 110.94 282.00 98.99 300.55 91.51 C 301.76 91.10 302.66 90.19 303.02 88.96 C 302.88 88.46 302.61 87.47 302.47 86.97 C 301.35 84.42 300.91 81.56 301.06 78.78 C 301.25 77.75 301.01 76.82 300.33 76.01 C 299.78 68.05 299.65 59.93 300.31 51.98 C 301.03 51.18 301.27 50.26 301.04 49.22 C 300.87 47.50 300.82 45.74 301.17 44.03 C 301.37 43.54 301.76 42.57 301.96 42.08 C 301.75 40.68 301.86 39.32 302.27 37.98 C 302.98 37.16 303.23 36.23 303.05 35.17 C 303.07 34.65 303.11 33.62 303.13 33.10 C 303.35 32.60 303.78 31.60 303.99 31.11 C 304.03 30.60 304.09 29.58 304.12 29.07 C 304.35 28.59 304.80 27.62 305.03 27.14 C 305.43 23.13 307.01 19.29 308.62 15.63 M 362.05 57.06 C 361.86 60.85 361.81 64.66 362.33 68.42 C 362.33 68.96 362.33 70.03 362.33 70.57 C 361.82 73.34 361.96 76.16 362.25 78.95 L 363.39 78.71 C 363.58 79.23 363.96 80.29 364.16 80.82 L 365.12 80.83 L 365.03 81.77 C 368.83 82.06 372.65 82.19 376.46 81.81 C 376.85 81.88 377.62 82.03 378.00 82.10 C 380.61 83.09 383.37 83.61 386.14 83.87 L 386.87 84.06 C 389.48 85.40 392.44 85.64 395.33 85.71 C 394.98 78.78 396.00 71.86 396.69 64.97 C 396.83 63.36 396.45 61.69 395.38 60.45 L 393.99 60.86 C 393.21 59.42 392.19 59.26 390.92 60.40 L 389.91 60.20 C 389.83 58.42 386.80 58.07 385.90 59.40 L 384.91 59.25 C 384.68 57.28 381.21 57.05 380.12 58.46 C 379.70 58.39 378.86 58.23 378.45 58.15 C 373.22 56.15 367.50 57.12 362.05 57.06 M 353.29 58.23 C 352.12 65.73 351.16 73.37 352.06 80.96 C 353.69 80.84 356.90 81.51 356.72 78.96 C 355.77 72.06 355.87 65.11 355.77 58.17 C 355.15 58.18 353.91 58.21 353.29 58.23 M 316.52 285.47 C 312.27 287.73 307.79 292.48 309.23 297.64 C 312.32 300.35 316.28 301.86 319.24 304.76 C 321.08 306.13 322.93 308.98 325.54 307.55 C 332.64 304.07 339.43 299.65 344.84 293.83 C 351.69 287.26 357.98 279.87 362.12 271.28 C 347.11 276.65 330.88 278.27 316.52 285.47 M 369.43 315.38 C 360.32 323.02 351.37 330.92 341.42 337.45 C 339.13 338.57 340.60 341.03 341.20 342.74 C 343.03 347.02 344.54 351.42 346.30 355.73 C 356.36 357.50 365.77 351.39 372.33 344.35 C 382.22 332.82 386.30 317.08 384.89 302.08 C 379.27 305.97 374.71 311.09 369.43 315.38 M 164.57 515.70 C 158.22 518.98 152.99 523.97 147.95 528.96 C 141.31 535.43 139.13 545.49 140.72 554.41 C 143.38 561.61 148.52 567.87 155.02 571.96 C 161.52 576.85 170.19 580.32 178.24 577.36 C 184.00 575.67 186.79 569.70 188.58 564.48 C 191.31 555.46 188.50 546.11 187.85 537.02 C 187.65 530.04 189.02 522.96 192.14 516.69 C 187.74 516.37 183.13 516.87 179.41 519.43 C 171.36 524.81 163.17 531.76 161.33 541.80 C 159.29 541.86 157.55 540.05 157.78 538.01 C 158.37 533.73 160.23 529.76 161.97 525.86 C 163.73 522.00 167.01 519.15 169.03 515.45 C 167.55 515.51 165.98 515.14 164.57 515.70 Z" />
<path fill="#2f2f2f" opacity="0.53" d=" M 366.07 19.11 C 367.81 18.74 367.60 22.29 365.91 21.61 C 365.95 20.99 366.03 19.74 366.07 19.11 Z" />
<path fill="#313131" opacity="0.53" d=" M 408.35 20.20 C 408.61 18.60 409.14 18.51 409.95 19.93 C 409.55 20.00 408.75 20.13 408.35 20.20 Z" />
<path fill="#2c2c2c" opacity="0.42" d=" M 308.96 24.90 C 309.13 24.40 309.46 23.39 309.62 22.88 L 310.18 23.62 L 309.84 24.65 L 308.96 24.90 Z" />
<path fill="#2d2d2d" opacity="0.55" d=" M 304.15 27.30 L 305.03 27.14 C 304.80 27.62 304.35 28.59 304.12 29.07 L 303.68 28.28 L 304.15 27.30 Z" />
<path fill="#2d2d2d" opacity="0.55" d=" M 407.94 29.89 C 407.73 28.83 407.98 27.88 408.66 27.04 C 409.81 28.39 409.57 29.34 407.94 29.89 Z" />
<path fill="#2f2f2f" opacity="0.59" d=" M 363.95 31.79 C 363.71 30.75 363.93 29.82 364.63 28.99 C 365.80 30.33 365.57 31.26 363.95 31.79 Z" />
<path fill="#2d2d2d" opacity="0.46" d=" M 303.12 31.30 L 303.99 31.11 C 303.78 31.60 303.35 32.60 303.13 33.10 C 303.13 32.65 303.12 31.75 303.12 31.30 Z" />
<path fill="#2e2e2e" opacity="0.58" d=" M 406.90 34.80 C 406.72 33.72 407.00 32.79 407.75 31.98 C 408.82 33.38 408.54 34.31 406.90 34.80 Z" />
<path fill="#303030" opacity="0.57" d=" M 307.00 34.92 C 307.17 34.42 307.52 33.42 307.70 32.92 L 308.22 33.67 L 307.87 34.69 L 307.00 34.92 Z" />
<path fill="#292929" opacity="0.40" d=" M 302.27 37.98 C 301.13 36.62 301.39 35.69 303.05 35.17 C 303.23 36.23 302.98 37.16 302.27 37.98 Z" />
<path fill="#2d2d2d" opacity="0.51" d=" M 362.92 39.79 C 362.68 38.75 362.94 37.83 363.69 37.05 C 364.81 38.40 364.56 39.31 362.92 39.79 Z" />
<path fill="#2a2a2a" opacity="0.39" d=" M 305.98 45.68 C 305.77 43.80 306.03 41.92 306.56 40.11 C 307.79 41.43 307.97 45.28 305.98 45.68 Z" />
<path fill="#303030" opacity="0.53" d=" M 301.09 42.27 L 301.96 42.08 C 301.76 42.57 301.37 43.54 301.17 44.03 L 300.69 43.27 L 301.09 42.27 Z" />
<path fill="#2e2e2e" opacity="0.57" d=" M 400.14 43.31 L 401.02 43.10 C 400.83 43.60 400.44 44.58 400.25 45.08 L 399.74 44.31 L 400.14 43.31 Z" />
<path fill="#2c2c2c" opacity="0.42" d=" M 404.96 47.92 C 405.15 47.43 405.53 46.44 405.71 45.94 L 406.23 46.70 L 405.84 47.71 L 404.96 47.92 Z" />
<path fill="#272727" opacity="0.36" d=" M 364.74 52.18 C 362.56 52.15 361.42 50.15 362.44 48.26 C 363.62 49.04 364.89 50.74 364.74 52.18 Z" />
<path fill="#2c2c2c" opacity="0.45" d=" M 300.31 51.98 C 299.15 50.63 299.39 49.71 301.04 49.22 C 301.27 50.26 301.03 51.18 300.31 51.98 Z" />
<path fill="#2f2f2f" opacity="0.50" d=" M 365.76 52.49 C 367.11 51.31 368.49 51.28 369.89 52.42 C 368.62 53.24 367.05 53.26 365.76 52.49 Z" />
<path fill="#ffffff" opacity="1.00" d=" M 380.03 52.27 L 380.75 51.82 C 381.02 52.15 381.55 52.82 381.82 53.16 C 381.37 52.94 380.48 52.49 380.03 52.27 Z" />
<path fill="#363636" opacity="0.80" d=" M 305.78 75.45 C 304.44 67.93 304.63 60.19 305.80 52.65 C 306.14 56.10 306.05 59.56 305.81 63.01 C 305.54 67.16 306.35 71.31 305.78 75.45 Z" />
<path fill="#303030" opacity="0.58" d=" M 385.98 53.15 C 386.42 53.13 387.30 53.11 387.74 53.09 L 387.94 53.97 C 387.45 53.76 386.47 53.35 385.98 53.15 Z" />
<path fill="#2b2b2b" opacity="0.58" d=" M 396.15 55.55 C 396.24 54.35 397.79 52.82 399.00 53.43 C 399.38 55.18 397.70 56.46 396.15 55.55 Z" />
<path fill="#2f2f2f" opacity="0.57" d=" M 390.96 54.13 C 391.40 54.13 392.29 54.12 392.74 54.12 L 392.93 55.00 C 392.44 54.78 391.45 54.35 390.96 54.13 Z" />
<path fill="#4b4b4b" opacity="0.56" d=" M 362.05 57.06 C 367.50 57.12 373.22 56.15 378.45 58.15 C 373.37 57.93 368.28 57.86 363.20 58.03 C 363.00 61.50 362.70 64.96 362.33 68.42 C 361.81 64.66 361.86 60.85 362.05 57.06 Z" />
<path fill="#211c1c" opacity="1.00" d=" M 353.29 58.23 C 353.91 58.21 355.15 58.18 355.77 58.17 C 355.87 65.11 355.77 72.06 356.72 78.96 C 356.90 81.51 353.69 80.84 352.06 80.96 C 351.16 73.37 352.12 65.73 353.29 58.23 Z" />
<path fill="#4d4d4d" opacity="0.73" d=" M 380.12 58.46 C 381.21 57.05 384.68 57.28 384.91 59.25 C 383.29 59.16 381.68 58.92 380.12 58.46 Z" />
<path fill="#242424" opacity="0.95" d=" M 345.99 59.14 L 346.99 59.26 C 347.42 62.98 346.94 66.71 346.25 70.37 C 345.87 66.64 345.93 62.88 345.99 59.14 Z" />
<path fill="#4e4e4e" opacity="0.71" d=" M 385.90 59.40 C 386.80 58.07 389.83 58.42 389.91 60.20 C 388.53 60.17 387.18 59.89 385.90 59.40 Z" />
<path fill="#505050" opacity="0.71" d=" M 390.92 60.40 C 392.19 59.26 393.21 59.42 393.99 60.86 C 392.91 61.26 391.88 61.10 390.92 60.40 Z" />
<path fill="#ffffff" opacity="1.00" d=" M 395.38 60.45 C 396.45 61.69 396.83 63.36 396.69 64.97 C 396.00 71.86 394.98 78.78 395.33 85.71 C 392.44 85.64 389.48 85.40 386.87 84.06 C 389.48 84.40 393.24 86.92 394.87 83.60 C 395.10 79.18 395.31 74.76 395.81 70.36 C 396.04 67.05 397.23 63.51 395.38 60.45 Z" />
<path fill="#ffffff" opacity="1.00" d=" M 401.72 64.67 C 402.08 64.57 402.80 64.35 403.17 64.24 L 403.33 65.02 C 402.95 65.13 402.20 65.36 401.82 65.48 L 401.72 64.67 Z" />
<path fill="#4b4b4b" opacity="0.79" d=" M 362.33 70.57 C 362.69 73.28 362.95 76.00 363.39 78.71 L 362.25 78.95 C 361.96 76.16 361.82 73.34 362.33 70.57 Z" />
<path fill="#ffffff" opacity="1.00" d=" M 400.71 76.60 C 400.35 75.05 400.99 73.58 401.60 72.19 C 403.08 73.13 402.28 76.33 400.71 76.60 Z" />
<path fill="#282828" opacity="0.38" d=" M 300.33 76.01 C 301.01 76.82 301.25 77.75 301.06 78.78 C 299.39 78.28 299.15 77.36 300.33 76.01 Z" />
<path fill="#434343" opacity="0.75" d=" M 365.12 80.83 C 368.92 80.80 372.73 81.05 376.46 81.81 C 372.65 82.19 368.83 82.06 365.03 81.77 L 365.12 80.83 Z" />
<path fill="#ffffff" opacity="1.00" d=" M 378.00 82.10 C 380.73 82.60 383.46 83.16 386.14 83.87 C 383.37 83.61 380.61 83.09 378.00 82.10 Z" />
<path fill="#ffffff" opacity="1.00" d=" M 327.26 84.24 C 327.78 82.57 328.66 82.29 329.90 83.40 C 329.16 84.19 328.28 84.46 327.26 84.24 Z" />
<path fill="#2b2b2b" opacity="0.41" d=" M 323.38 84.13 L 324.36 83.66 L 325.16 84.10 C 324.68 84.33 323.70 84.78 323.22 85.01 L 323.38 84.13 Z" />
<path fill="#2c2c2c" opacity="0.45" d=" M 447.85 86.24 C 450.15 85.17 448.76 89.37 447.66 87.09 L 447.85 86.24 Z" />
<path fill="#2c2c2c" opacity="0.48" d=" M 302.47 86.97 C 302.61 87.47 302.88 88.46 303.02 88.96 C 302.74 88.63 302.19 87.96 301.91 87.63 L 302.47 86.97 Z" />
<path fill="#2b2b2b" opacity="0.42" d=" M 311.32 87.22 L 312.33 86.86 L 313.06 87.38 C 312.57 87.56 311.58 87.92 311.09 88.10 L 311.32 87.22 Z" />
<path fill="#ffffff" opacity="1.00" d=" M 340.20 87.53 C 341.24 87.01 342.42 86.28 343.61 86.80 C 343.67 88.40 340.81 89.00 340.20 87.53 Z" />
<path fill="#241e1e" opacity="1.00" d=" M 352.07 86.98 C 353.97 87.00 355.87 87.02 357.77 87.05 C 358.82 90.18 359.74 93.35 360.56 96.56 C 363.00 106.27 368.05 115.02 371.77 124.25 C 374.77 131.87 379.37 138.69 382.99 146.00 C 385.89 151.75 389.40 157.19 391.94 163.13 C 395.99 172.00 398.30 181.52 401.31 190.77 C 404.40 200.21 404.74 210.21 406.09 219.97 C 407.67 231.69 405.48 243.78 400.49 254.46 C 396.82 262.17 394.08 270.32 389.73 277.71 C 383.66 288.30 377.32 298.93 368.68 307.68 C 357.77 317.97 346.09 327.49 333.43 335.56 C 333.50 338.02 333.59 340.48 333.99 342.92 C 332.36 340.40 330.43 336.61 332.96 334.04 C 338.64 329.27 345.14 325.45 350.26 320.01 C 346.84 316.96 343.38 313.87 339.38 311.60 C 337.49 310.56 335.44 312.04 333.67 312.69 C 329.72 314.38 325.81 317.44 321.32 316.84 C 315.95 312.87 310.74 308.55 306.06 303.76 C 309.68 305.32 313.31 307.04 316.18 309.81 C 318.36 311.54 320.26 314.02 323.08 314.68 C 327.27 314.05 330.83 311.48 334.46 309.47 C 347.71 302.19 357.52 290.15 365.69 277.70 C 368.96 272.88 370.54 267.23 373.03 262.02 C 379.86 249.81 382.86 235.79 383.87 221.94 C 385.16 209.20 386.11 196.02 382.43 183.57 C 379.84 173.77 374.03 165.33 369.50 156.39 C 358.21 135.18 350.48 111.25 352.07 86.98 Z" />
<path fill="#2d2d2d" opacity="0.51" d=" M 372.24 86.87 C 373.29 86.68 374.21 86.96 374.99 87.74 C 373.60 88.81 372.68 88.52 372.24 86.87 Z" />
<path fill="#2a2a2a" opacity="0.46" d=" M 378.18 87.98 C 379.22 87.76 380.16 87.97 381.01 88.62 C 379.69 89.83 378.74 89.62 378.18 87.98 Z" />
<path fill="#2c2c2c" opacity="0.45" d=" M 326.94 89.88 C 327.42 89.65 328.39 89.20 328.87 88.97 L 328.71 89.85 L 327.73 90.32 L 326.94 89.88 Z" />
<path fill="#2e2e2e" opacity="0.52" d=" M 321.90 90.86 C 322.39 90.65 323.38 90.24 323.88 90.04 L 323.68 90.91 C 323.23 90.90 322.34 90.87 321.90 90.86 Z" />
<path fill="#2c2c2c" opacity="0.45" d=" M 317.90 91.60 C 318.41 91.45 319.44 91.16 319.96 91.01 L 319.67 91.87 L 318.62 92.17 L 317.90 91.60 Z" />
<path fill="#2e2e2e" opacity="0.55" d=" M 391.18 90.93 C 391.68 91.09 392.68 91.41 393.18 91.57 L 392.44 92.10 L 391.43 91.77 L 391.18 90.93 Z" />
<path fill="#292929" opacity="1.00" d=" M 399.91 94.00 C 400.33 94.20 401.18 94.62 401.60 94.83 C 401.06 97.65 400.99 100.54 400.68 103.39 C 400.10 100.29 399.89 97.14 399.91 94.00 Z" />
<path fill="#2a2a2a" opacity="0.49" d=" M 300.00 97.71 C 300.47 97.47 301.40 96.99 301.87 96.75 L 301.76 97.65 L 300.80 98.15 L 300.00 97.71 Z" />
<path fill="#2e2e2e" opacity="0.51" d=" M 346.41 99.10 C 346.95 100.22 347.27 101.47 347.03 102.72 C 345.25 102.90 345.03 99.78 346.41 99.10 Z" />
<path fill="#323232" opacity="0.71" d=" M 395.25 100.58 C 395.73 103.75 396.02 106.96 395.93 110.17 C 394.92 107.07 394.72 103.79 395.25 100.58 Z" />
<path fill="#2a2a2a" opacity="0.51" d=" M 307.27 101.96 C 307.46 102.45 307.86 103.43 308.06 103.91 L 307.17 103.73 L 306.76 102.73 L 307.27 101.96 Z" />
<path fill="#2e2e2e" opacity="0.56" d=" M 347.31 108.03 C 348.03 108.84 348.27 109.76 348.05 110.81 C 346.41 110.30 346.16 109.38 347.31 108.03 Z" />
<path fill="#f3acac" opacity="1.00" d=" M 401.30 115.18 C 401.86 116.71 401.57 118.37 401.44 119.96 C 400.99 124.05 401.52 128.16 401.70 132.25 C 401.00 126.59 401.17 120.87 401.30 115.18 Z" />
<path fill="#787878" opacity="1.00" d=" M 442.06 115.32 C 442.49 115.26 443.35 115.14 443.79 115.07 C 443.62 115.41 443.29 116.09 443.12 116.43 C 442.86 116.16 442.32 115.60 442.06 115.32 Z" />
<path fill="#292929" opacity="0.45" d=" M 448.99 117.04 C 449.16 116.53 449.51 115.51 449.69 115.00 L 450.22 115.74 L 449.86 116.78 L 448.99 117.04 Z" />
<path fill="#ffffff" opacity="1.00" d=" M 396.24 116.04 C 396.47 116.48 396.93 117.36 397.16 117.80 C 396.82 117.54 396.14 117.02 395.80 116.75 L 396.24 116.04 Z" />
<path fill="#2b2b2b" opacity="0.47" d=" M 448.04 119.92 C 448.18 119.42 448.48 118.41 448.63 117.91 L 449.17 118.59 C 448.89 118.92 448.32 119.59 448.04 119.92 Z" />
<path fill="#2d2d2d" opacity="0.49" d=" M 397.30 123.03 C 398.02 123.83 398.26 124.76 398.03 125.81 C 396.39 125.29 396.15 124.37 397.30 123.03 Z" />
<path fill="#2e2e2e" opacity="0.56" d=" M 350.26 123.92 C 350.45 124.41 350.85 125.38 351.04 125.87 L 350.15 125.68 L 349.75 124.68 L 350.26 123.92 Z" />
<path fill="#2e2e2e" opacity="0.53" d=" M 439.19 129.30 L 440.09 129.12 C 439.88 129.60 439.46 130.58 439.25 131.07 L 438.76 130.29 L 439.19 129.30 Z" />
<path fill="#313131" opacity="0.56" d=" M 398.16 129.97 C 398.36 130.46 398.76 131.44 398.96 131.92 L 398.09 131.73 L 397.68 130.73 L 398.16 129.97 Z" />
<path fill="#303030" opacity="0.54" d=" M 399.17 135.97 C 399.37 136.47 399.77 137.45 399.97 137.94 L 399.10 137.74 L 398.69 136.74 L 399.17 135.97 Z" />
<path fill="#ffffff" opacity="1.00" d=" M 401.76 136.37 C 403.40 136.22 404.05 139.16 402.57 139.81 C 402.01 138.76 401.46 137.60 401.76 136.37 Z" />
<path fill="#ffffff" opacity="1.00" d=" M 436.82 140.23 C 437.17 139.97 437.85 139.46 438.20 139.20 C 437.96 139.64 437.48 140.52 437.25 140.96 L 436.82 140.23 Z" />
<path fill="#2f2f2f" opacity="0.53" d=" M 400.14 140.97 C 400.37 141.45 400.82 142.42 401.04 142.90 L 400.16 142.74 L 399.70 141.76 L 400.14 140.97 Z" />
<path fill="#2a2a2a" opacity="0.47" d=" M 357.25 143.92 C 357.45 144.40 357.87 145.37 358.07 145.86 L 357.18 145.69 L 356.75 144.69 L 357.25 143.92 Z" />
<path fill="#2c2c2c" opacity="0.46" d=" M 402.94 144.21 C 404.56 144.72 404.82 145.65 403.70 147.01 C 402.96 146.20 402.71 145.27 402.94 144.21 Z" />
<path fill="#2c2c2c" opacity="0.43" d=" M 441.97 145.89 C 442.15 145.39 442.50 144.39 442.67 143.89 L 443.20 144.64 L 442.84 145.66 L 441.97 145.89 Z" />
<path fill="#ffffff" opacity="1.00" d=" M 435.82 148.24 C 436.16 147.98 436.83 147.46 437.17 147.20 C 436.94 147.64 436.49 148.52 436.27 148.96 L 435.82 148.24 Z" />
<path fill="#2a2a2a" opacity="0.40" d=" M 404.03 150.09 C 406.57 150.07 404.30 154.69 403.12 152.23 C 403.35 151.69 403.80 150.62 404.03 150.09 Z" />
<path fill="#2f2f2f" opacity="0.52" d=" M 440.97 153.90 C 441.17 153.42 441.57 152.45 441.78 151.97 L 442.26 152.74 L 441.84 153.72 L 440.97 153.90 Z" />
<path fill="#323232" opacity="0.82" d=" M 434.99 179.00 C 435.08 171.62 434.51 164.18 435.91 156.89 C 436.12 169.65 436.01 182.42 435.95 195.18 C 434.34 189.93 435.15 184.39 434.99 179.00 Z" />
<path fill="#2a2a2a" opacity="0.40" d=" M 439.95 162.78 C 439.71 161.74 439.95 160.82 440.66 160.02 C 441.83 161.36 441.59 162.28 439.95 162.78 Z" />
<path fill="#282828" opacity="0.38" d=" M 438.97 172.68 C 438.75 171.13 439.05 169.58 439.56 168.11 C 440.88 169.08 440.89 172.61 438.97 172.68 Z" />
<path fill="#242424" opacity="0.31" d=" M 438.08 198.66 C 437.98 191.96 437.56 185.20 438.76 178.57 C 439.00 185.24 439.54 192.10 438.08 198.66 Z" />
<path fill="#ffffff" opacity="1.00" d=" M 378.42 190.09 C 379.19 190.82 379.46 191.68 379.24 192.69 C 377.56 192.21 377.28 191.34 378.42 190.09 Z" />
<path fill="#2e2e2e" opacity="0.61" d=" M 410.92 206.29 C 412.84 206.35 412.89 209.86 411.61 210.89 C 411.07 209.41 410.75 207.86 410.92 206.29 Z" />
<path fill="#303030" opacity="0.65" d=" M 412.00 215.27 C 414.00 216.09 413.64 220.17 412.57 221.88 C 411.95 219.73 411.75 217.49 412.00 215.27 Z" />
<path fill="#ffffff" opacity="1.00" d=" M 378.38 220.86 C 376.96 220.16 377.52 217.21 379.20 217.37 C 379.54 218.61 378.88 219.76 378.38 220.86 Z" />
<path fill="#ffffff" opacity="1.00" d=" M 377.36 226.89 C 376.28 225.63 376.57 224.76 378.23 224.27 C 378.46 225.29 378.17 226.17 377.36 226.89 Z" />
<path fill="#292929" opacity="0.39" d=" M 411.96 232.79 C 411.73 231.75 411.96 230.82 412.66 230.01 C 413.83 231.35 413.60 232.27 411.96 232.79 Z" />
<path fill="#2b2b2b" opacity="0.41" d=" M 376.15 234.35 L 377.03 234.13 C 376.85 234.63 376.49 235.62 376.31 236.11 L 375.78 235.36 L 376.15 234.35 Z" />
<path fill="#2d2d2d" opacity="0.45" d=" M 410.98 238.88 C 411.21 238.40 411.65 237.45 411.87 236.97 L 412.32 237.75 L 411.87 238.73 L 410.98 238.88 Z" />
<path fill="#241e1e" opacity="1.00" d=" M 316.52 285.47 C 330.88 278.27 347.11 276.65 362.12 271.28 C 357.98 279.87 351.69 287.26 344.84 293.83 C 339.43 299.65 332.64 304.07 325.54 307.55 C 322.93 308.98 321.08 306.13 319.24 304.76 C 316.28 301.86 312.32 300.35 309.23 297.64 C 307.79 292.48 312.27 287.73 316.52 285.47 Z" />
<path fill="#2f2f2f" opacity="0.55" d=" M 335.29 272.14 L 336.30 271.75 L 337.06 272.26 C 336.57 272.45 335.58 272.83 335.09 273.02 L 335.29 272.14 Z" />
<path fill="#2f2f2f" opacity="0.50" d=" M 241.20 286.04 C 241.70 284.40 242.63 284.15 243.98 285.31 C 243.17 286.03 242.24 286.27 241.20 286.04 Z" />
<path fill="#ffffff" opacity="1.00" d=" M 266.04 285.24 L 266.75 284.80 C 267.02 285.14 267.54 285.82 267.80 286.16 C 267.36 285.93 266.48 285.47 266.04 285.24 Z" />
<path fill="#ffffff" opacity="1.00" d=" M 273.03 286.24 L 273.75 285.81 C 274.02 286.15 274.55 286.83 274.81 287.18 C 274.37 286.94 273.48 286.47 273.03 286.24 Z" />
<path fill="#2b2b2b" opacity="0.45" d=" M 277.95 287.11 L 278.74 286.67 C 279.03 287.01 279.62 287.67 279.91 288.01 C 279.42 287.78 278.44 287.34 277.95 287.11 Z" />
<path fill="#2b2b2b" opacity="0.45" d=" M 225.35 288.15 L 226.35 287.75 L 227.12 288.27 C 226.62 288.46 225.64 288.84 225.15 289.04 L 225.35 288.15 Z" />
<path fill="#2e2e2e" opacity="0.53" d=" M 281.91 288.11 L 282.71 287.68 L 283.69 288.15 L 283.84 289.03 C 283.36 288.80 282.39 288.34 281.91 288.11 Z" />
<path fill="#2c2c2c" opacity="0.53" d=" M 289.01 290.24 L 289.77 289.74 L 290.78 290.15 L 290.99 291.04 C 290.50 290.84 289.51 290.44 289.01 290.24 Z" />
<path fill="#2d2d2d" opacity="0.53" d=" M 390.90 293.69 C 390.68 292.43 391.02 291.20 391.51 290.06 C 392.92 290.72 392.69 293.87 390.90 293.69 Z" />
<path fill="#2c2525" opacity="1.00" d=" M 197.24 309.21 C 212.76 297.21 232.39 290.66 252.01 290.92 C 270.71 290.35 289.69 294.65 306.06 303.76 C 310.74 308.55 315.95 312.87 321.32 316.84 C 325.81 317.44 329.72 314.38 333.67 312.69 C 335.44 312.04 337.49 310.56 339.38 311.60 C 343.38 313.87 346.84 316.96 350.26 320.01 C 345.14 325.45 338.64 329.27 332.96 334.04 C 330.43 336.61 332.36 340.40 333.99 342.92 C 337.88 348.74 339.65 355.56 341.80 362.13 C 343.33 367.06 344.93 372.01 345.67 377.14 C 347.31 390.02 348.98 403.09 347.14 416.06 C 344.67 432.29 337.40 448.12 325.16 459.30 C 326.36 453.77 330.67 449.91 333.33 445.13 C 328.98 443.35 324.68 441.14 320.00 440.40 C 317.76 440.84 315.81 442.10 313.81 443.12 C 311.41 440.51 310.32 436.68 307.03 434.97 C 298.68 430.35 289.94 426.35 282.05 420.94 C 276.79 417.05 270.51 414.84 265.41 410.69 C 259.78 408.11 253.32 406.76 248.73 402.31 C 246.24 399.15 244.62 395.14 241.02 393.01 C 235.26 389.63 229.48 386.01 224.86 381.13 C 220.26 374.96 215.88 368.57 212.34 361.71 C 211.16 359.60 210.12 357.35 208.41 355.61 C 204.06 354.32 199.45 354.73 194.97 354.79 C 194.74 348.61 193.28 342.36 189.74 337.21 C 186.81 332.40 181.80 329.58 177.56 326.10 C 183.39 319.69 190.46 314.56 197.24 309.21 M 270.85 383.89 C 261.65 386.27 253.01 392.19 249.10 401.08 C 257.64 399.27 263.77 392.15 272.24 390.19 C 276.93 389.01 281.87 388.69 286.66 389.40 C 295.67 391.01 303.59 397.06 308.07 404.97 C 312.56 413.18 315.04 422.64 314.06 432.03 C 314.02 435.06 312.65 438.52 314.78 441.17 C 320.07 428.55 320.47 413.29 313.92 401.03 C 310.10 392.14 302.64 384.25 292.96 382.09 C 285.57 381.17 278.03 382.07 270.85 383.89 Z" />
<path fill="#2c2c2c" opacity="0.51" d=" M 291.88 291.08 L 292.68 290.65 L 293.66 291.14 L 293.79 292.04 C 293.31 291.80 292.35 291.32 291.88 291.08 Z" />
<path fill="#241e1e" opacity="1.00" d=" M 369.43 315.38 C 374.71 311.09 379.27 305.97 384.89 302.08 C 386.30 317.08 382.22 332.82 372.33 344.35 C 365.77 351.39 356.36 357.50 346.30 355.73 C 344.54 351.42 343.03 347.02 341.20 342.74 C 340.60 341.03 339.13 338.57 341.42 337.45 C 351.37 330.92 360.32 323.02 369.43 315.38 Z" />
<path fill="#2b2b2b" opacity="0.43" d=" M 389.92 317.80 C 389.74 316.75 390.00 315.83 390.71 315.04 C 391.85 316.40 391.58 317.32 389.92 317.80 Z" />
<path fill="#ffffff" opacity="1.00" d=" M 162.19 327.23 C 162.46 326.90 162.99 326.23 163.25 325.90 L 163.98 326.35 C 163.53 326.57 162.64 327.01 162.19 327.23 Z" />
<path fill="#342c2c" opacity="1.00" d=" M 161.72 336.75 C 167.25 334.62 174.01 334.24 178.97 337.96 C 185.87 342.67 188.26 351.10 190.36 358.72 C 190.63 360.66 192.29 361.58 193.89 362.37 C 194.36 359.86 194.79 357.33 194.97 354.79 C 199.45 354.73 204.06 354.32 208.41 355.61 C 210.12 357.35 211.16 359.60 212.34 361.71 C 215.88 368.57 220.26 374.96 224.86 381.13 C 229.48 386.01 235.26 389.63 241.02 393.01 C 244.62 395.14 246.24 399.15 248.73 402.31 C 253.32 406.76 259.78 408.11 265.41 410.69 C 270.51 414.84 276.79 417.05 282.05 420.94 C 289.94 426.35 298.68 430.35 307.03 434.97 C 310.32 436.68 311.41 440.51 313.81 443.12 C 315.81 442.10 317.76 440.84 320.00 440.40 C 324.68 441.14 328.98 443.35 333.33 445.13 C 330.67 449.91 326.36 453.77 325.16 459.30 C 314.71 476.99 296.73 487.75 280.55 499.51 C 273.40 504.37 266.86 510.24 258.97 513.94 C 252.66 516.84 246.41 519.99 239.64 521.68 C 225.19 525.67 209.89 528.68 194.94 525.91 C 196.16 520.04 201.69 516.19 207.39 515.38 C 217.17 513.85 226.70 510.40 234.96 504.93 C 237.63 503.23 239.72 500.79 241.17 498.00 C 237.95 496.53 235.01 498.83 232.26 500.24 C 220.85 506.49 208.10 510.43 195.04 510.76 C 183.28 511.03 171.29 511.23 159.86 508.05 C 151.56 505.68 143.95 501.24 137.46 495.59 C 133.19 491.50 131.03 485.85 128.16 480.80 C 124.28 473.83 122.79 465.94 120.64 458.35 C 118.49 450.77 117.59 442.90 117.17 435.05 C 116.62 424.67 119.00 414.45 121.49 404.45 C 123.56 396.11 127.34 388.35 130.36 380.34 C 132.30 375.08 134.88 370.10 137.13 364.97 C 136.54 363.92 135.97 362.86 135.39 361.81 L 135.09 361.25 C 138.64 356.43 141.52 351.06 145.84 346.84 C 150.35 342.42 155.84 339.02 161.72 336.75 M 155.37 382.47 C 150.04 383.49 144.54 384.80 140.14 388.14 C 134.68 392.04 129.64 397.34 128.07 404.05 C 126.77 414.47 128.04 425.87 134.56 434.47 C 139.53 440.44 147.17 444.14 154.97 444.20 C 164.03 444.92 172.23 439.50 178.30 433.28 C 183.73 427.92 185.99 420.28 186.75 412.88 C 187.35 403.01 181.33 394.06 173.93 388.09 C 168.65 384.26 162.02 381.25 155.37 382.47 M 248.35 426.33 C 239.01 427.76 229.89 432.65 224.70 440.73 C 219.92 447.40 218.54 455.99 219.85 464.00 C 220.76 473.35 225.30 482.42 232.79 488.19 C 236.09 490.38 240.07 491.20 243.85 492.21 C 248.61 493.52 253.52 492.22 258.22 491.24 C 265.89 489.57 273.05 484.94 277.15 478.16 C 285.53 465.32 285.62 446.65 274.92 435.08 C 268.43 427.69 257.93 424.54 248.35 426.33 Z" />
<path fill="#ffffff" opacity="1.00" d=" M 133.21 361.21 C 133.68 361.22 134.62 361.24 135.09 361.25 L 135.39 361.81 C 134.80 362.02 133.62 362.44 133.03 362.65 C 133.07 362.29 133.16 361.57 133.21 361.21 Z" />
<path fill="#2f2f2f" opacity="0.53" d=" M 353.97 361.73 C 354.46 361.54 355.45 361.16 355.94 360.97 L 355.74 361.85 L 354.73 362.24 L 353.97 361.73 Z" />
<path fill="#ffffff" opacity="1.00" d=" M 348.42 364.78 C 347.39 364.04 347.36 362.12 349.02 362.41 C 349.04 362.88 349.08 363.82 349.10 364.30 L 348.42 364.78 Z" />
<path fill="#ffffff" opacity="1.00" d=" M 350.75 374.30 C 352.43 374.74 352.73 375.60 351.64 376.89 C 350.85 376.18 350.55 375.31 350.75 374.30 Z" />
<path fill="#000000" opacity="1.00" d=" M 155.37 382.47 C 162.02 381.25 168.65 384.26 173.93 388.09 C 181.33 394.06 187.35 403.01 186.75 412.88 C 185.99 420.28 183.73 427.92 178.30 433.28 C 172.23 439.50 164.03 444.92 154.97 444.20 C 147.17 444.14 139.53 440.44 134.56 434.47 C 128.04 425.87 126.77 414.47 128.07 404.05 C 129.64 397.34 134.68 392.04 140.14 388.14 C 144.54 384.80 150.04 383.49 155.37 382.47 M 142.65 393.67 C 137.22 397.62 132.51 403.93 133.41 410.99 C 133.59 419.53 135.62 429.78 143.70 434.35 C 148.65 438.51 155.68 439.02 161.81 437.88 C 157.11 435.30 152.63 431.69 150.72 426.51 C 148.21 419.70 150.79 412.24 154.25 406.25 C 158.40 399.57 166.54 396.83 174.04 396.42 C 169.62 391.88 163.72 387.71 157.09 388.26 C 151.96 388.95 146.97 390.83 142.65 393.67 Z" />
<path fill="#000000" opacity="1.00" d=" M 270.85 383.89 C 278.03 382.07 285.57 381.17 292.96 382.09 C 302.64 384.25 310.10 392.14 313.92 401.03 C 320.47 413.29 320.07 428.55 314.78 441.17 C 312.65 438.52 314.02 435.06 314.06 432.03 C 315.04 422.64 312.56 413.18 308.07 404.97 C 303.59 397.06 295.67 391.01 286.66 389.40 C 281.87 388.69 276.93 389.01 272.24 390.19 C 263.77 392.15 257.64 399.27 249.10 401.08 C 253.01 392.19 261.65 386.27 270.85 383.89 Z" />
<path fill="#ffffff" opacity="1.00" d=" M 351.74 383.41 C 353.36 383.63 354.06 386.87 352.59 387.80 C 352.02 386.40 351.36 384.94 351.74 383.41 Z" />
<path fill="#ffffff" opacity="1.00" d=" M 142.65 393.67 C 146.97 390.83 151.96 388.95 157.09 388.26 C 163.72 387.71 169.62 391.88 174.04 396.42 C 166.54 396.83 158.40 399.57 154.25 406.25 C 150.79 412.24 148.21 419.70 150.72 426.51 C 152.63 431.69 157.11 435.30 161.81 437.88 C 155.68 439.02 148.65 438.51 143.70 434.35 C 135.62 429.78 133.59 419.53 133.41 410.99 C 132.51 403.93 137.22 397.62 142.65 393.67 Z" />
<path fill="#282828" opacity="0.34" d=" M 353.14 396.78 C 354.53 399.65 353.97 402.93 354.10 406.01 C 353.97 408.08 354.39 410.38 353.14 412.21 C 352.92 407.07 352.93 401.92 353.14 396.78 Z" />
<path fill="#2c2c2c" opacity="0.46" d=" M 113.15 412.31 L 114.04 412.11 C 113.84 412.60 113.46 413.59 113.27 414.08 L 112.76 413.32 L 113.15 412.31 Z" />
<path fill="#ffffff" opacity="1.00" d=" M 351.77 420.69 C 351.55 419.67 351.84 418.80 352.66 418.10 C 353.73 419.37 353.43 420.24 351.77 420.69 Z" />
<path fill="#282828" opacity="0.35" d=" M 110.89 433.01 C 110.94 429.90 110.66 426.68 111.89 423.75 C 112.01 429.24 112.11 434.73 111.87 440.22 C 110.62 438.02 110.99 435.42 110.89 433.01 Z" />
<path fill="#000000" opacity="1.00" d=" M 248.35 426.33 C 257.93 424.54 268.43 427.69 274.92 435.08 C 285.62 446.65 285.53 465.32 277.15 478.16 C 273.05 484.94 265.89 489.57 258.22 491.24 C 253.52 492.22 248.61 493.52 243.85 492.21 C 240.07 491.20 236.09 490.38 232.79 488.19 C 225.30 482.42 220.76 473.35 219.85 464.00 C 218.54 455.99 219.92 447.40 224.70 440.73 C 229.89 432.65 239.01 427.76 248.35 426.33 M 236.38 437.36 C 229.27 441.97 224.92 450.52 225.40 458.98 C 225.46 467.55 228.59 476.15 234.92 482.07 C 237.26 484.94 241.17 485.06 244.51 485.80 C 239.13 479.81 236.83 470.85 240.17 463.31 C 242.40 456.25 248.31 451.07 254.73 447.81 C 261.36 444.92 269.05 444.99 275.77 447.58 C 272.38 438.82 263.80 431.40 254.00 432.18 C 247.73 431.81 241.53 433.84 236.38 437.36 Z" />
<path fill="#292929" opacity="0.42" d=" M 349.91 429.75 C 349.75 428.71 350.01 427.79 350.69 427.00 C 351.86 428.36 351.60 429.28 349.91 429.75 Z" />
<path fill="#ffffff" opacity="1.00" d=" M 236.38 437.36 C 241.53 433.84 247.73 431.81 254.00 432.18 C 263.80 431.40 272.38 438.82 275.77 447.58 C 269.05 444.99 261.36 444.92 254.73 447.81 C 248.31 451.07 242.40 456.25 240.17 463.31 C 236.83 470.85 239.13 479.81 244.51 485.80 C 241.17 485.06 237.26 484.94 234.92 482.07 C 228.59 476.15 225.46 467.55 225.40 458.98 C 224.92 450.52 229.27 441.97 236.38 437.36 Z" />
<path fill="#2a2a2a" opacity="0.49" d=" M 347.93 434.90 C 348.16 434.42 348.61 433.47 348.83 433.00 L 349.29 433.78 L 348.83 434.76 L 347.93 434.90 Z" />
<path fill="#ffffff" opacity="1.00" d=" M 112.42 446.17 C 112.95 447.24 113.51 448.38 113.24 449.62 C 111.58 449.77 110.92 446.81 112.42 446.17 Z" />
<path fill="#2a2a2a" opacity="0.43" d=" M 114.22 456.89 C 114.43 457.38 114.84 458.35 115.04 458.84 L 114.16 458.66 L 113.73 457.67 L 114.22 456.89 Z" />
<path fill="#2b2b2b" opacity="0.42" d=" M 116.24 463.93 C 116.43 464.43 116.81 465.43 116.99 465.93 L 116.12 465.71 L 115.73 464.69 L 116.24 463.93 Z" />
<path fill="#2b2b2b" opacity="0.44" d=" M 117.10 467.90 C 117.33 468.38 117.79 469.34 118.01 469.83 L 117.13 469.67 L 116.66 468.69 L 117.10 467.90 Z" />
<path fill="#f3acac" opacity="1.00" d=" M 164.57 515.70 C 165.98 515.14 167.55 515.51 169.03 515.45 C 167.01 519.15 163.73 522.00 161.97 525.86 C 160.23 529.76 158.37 533.73 157.78 538.01 C 157.55 540.05 159.29 541.86 161.33 541.80 C 163.17 531.76 171.36 524.81 179.41 519.43 C 183.13 516.87 187.74 516.37 192.14 516.69 C 189.02 522.96 187.65 530.04 187.85 537.02 C 188.50 546.11 191.31 555.46 188.58 564.48 C 186.79 569.70 184.00 575.67 178.24 577.36 C 170.19 580.32 161.52 576.85 155.02 571.96 C 148.52 567.87 143.38 561.61 140.72 554.41 C 139.13 545.49 141.31 535.43 147.95 528.96 C 152.99 523.97 158.22 518.98 164.57 515.70 Z" />
<path fill="#2c2c2c" opacity="0.51" d=" M 257.88 520.70 C 258.38 520.52 259.37 520.15 259.86 519.97 L 259.65 520.85 L 258.64 521.23 L 257.88 520.70 Z" />
<path fill="#2b2b2b" opacity="0.48" d=" M 245.87 525.92 C 246.35 525.68 247.31 525.19 247.78 524.95 L 247.65 525.84 L 246.68 526.34 L 245.87 525.92 Z" />
<path fill="#2b2b2b" opacity="0.43" d=" M 242.93 526.66 C 243.44 526.49 244.47 526.15 244.98 525.98 L 244.71 526.85 L 243.67 527.20 L 242.93 526.66 Z" />
<path fill="#303030" opacity="0.56" d=" M 194.15 531.96 C 201.51 532.09 208.87 532.02 216.23 532.09 C 214.10 533.49 211.40 532.83 209.00 533.05 C 204.02 533.29 199.06 532.41 194.08 532.78 L 194.15 531.96 Z" />
<path fill="#2d2d2d" opacity="0.54" d=" M 193.89 543.22 C 195.55 543.67 195.82 544.59 194.71 545.96 C 193.96 545.17 193.69 544.26 193.89 543.22 Z" />
<path fill="#353535" opacity="0.66" d=" M 134.90 554.30 C 133.58 550.93 133.54 547.09 134.90 543.73 C 134.90 547.25 134.89 550.77 134.90 554.30 Z" />
<path fill="#1b1b1b" opacity="0.19" d=" M 195.13 548.67 C 196.65 553.01 196.68 557.99 195.12 562.32 C 195.05 557.77 195.04 553.22 195.13 548.67 Z" />
<path fill="#2e2e2e" opacity="0.55" d=" M 135.13 555.97 C 135.36 556.44 135.82 557.38 136.05 557.85 L 135.15 557.72 L 134.68 556.76 L 135.13 555.97 Z" />
<path fill="#2c2c2c" opacity="0.47" d=" M 193.94 565.85 C 194.17 565.38 194.65 564.45 194.89 563.99 L 195.32 564.78 L 194.83 565.74 L 193.94 565.85 Z" />
<path fill="#2a2a2a" opacity="0.51" d=" M 179.87 582.91 C 180.35 582.68 181.30 582.20 181.78 581.97 L 181.65 582.86 L 180.67 583.34 L 179.87 582.91 Z" />
<path fill="#2d2d2d" opacity="0.48" d=" M 177.02 583.82 C 177.51 583.60 178.49 583.17 178.98 582.95 L 178.80 583.84 L 177.80 584.28 L 177.02 583.82 Z" />
</svg>
